<svg xmlns="http://www.w3.org/2000/svg" xmlns:xlink="http://www.w3.org/1999/xlink" width="70" height="85" viewBox="0 0 70 85">
  <defs>
    <clipPath id="clip-path">
      <rect id="Rect치ngulo_37522" data-name="Rect치ngulo 37522" width="41.504" height="41.667" fill="#fff"/>
    </clipPath>
  </defs>
  <g id="Grupo_158040" data-name="Grupo 158040" transform="translate(-301 -3258.947)">
    <g id="Grupo_157455" data-name="Grupo 157455" transform="translate(-239 1551.947)">
      <rect id="Rect치ngulo_36766" data-name="Rect치ngulo 36766" width="70" height="85" rx="12" transform="translate(540 1707)" fill="#0c487b"/>
    </g>
    <g id="Grupo_157458" data-name="Grupo 157458" transform="translate(0 -1386.053)">
      <g id="Grupo_156582" data-name="Grupo 156582" transform="translate(-46 -1)">
        <path id="Trazado_127053" data-name="Trazado 127053" d="M15.507,123.96c-.454.1-.559-.113-.555-.537.012-1.063-.007-1.081-1.106-1.075-.409,0-.536-.124-.528-.529.007-.377.077-.553.512-.551,1.1,0,1.131-.018,1.119-1.119-.005-.5.239-.507.608-.511s.56.058.56.5c0,1.115.023,1.135,1.112,1.131.421,0,.521.15.522.541s-.1.541-.52.539c-1.11-.006-1.137.014-1.112,1.066.012.488-.169.631-.611.545" transform="translate(339.683 4573.993)" fill="#29c4bb"/>
        <path id="Trazado_127054" data-name="Trazado 127054" d="M213.642,151.161c.406-.078.632.057.565.517-.056.385.077.6.5.533s.57.088.573.537c0,.47-.189.578-.589.525-.383-.052-.5.115-.5.5.012.6-.357.826-.934.645-.274-.086-.214-.3-.2-.477.048-.472-.06-.76-.616-.666-.431.073-.457-.2-.456-.527s.014-.6.451-.53c.471.073.694-.1.616-.6-.075-.475.23-.5.582-.454" transform="translate(195.806 4552.685)" fill="#29c4bb"/>
        <path id="Trazado_127055" data-name="Trazado 127055" d="M210.718,69.268c.1.453-.1.608-.527.537-.46-.078-.648.111-.567.569s-.113.548-.542.553-.609-.127-.532-.557c.082-.459-.109-.648-.565-.562-.472.089-.513-.158-.531-.555-.021-.466.16-.588.566-.517.441.077.606-.106.531-.537-.072-.412.061-.579.521-.563.4.014.639.072.552.536s.115.639.567.563c.425-.072.632.081.526.534" transform="translate(199.254 4608.526)" fill="#010000"/>
        <path id="Trazado_127056" data-name="Trazado 127056" d="M55.04,186.64c.1.423-.11.578-.532.5-.5-.09-.614.169-.543.587.079.465-.146.537-.555.535-.39,0-.6-.091-.518-.511.108-.553-.169-.688-.645-.607s-.466-.225-.467-.559.007-.6.448-.512c.593.117.745-.168.665-.7-.077-.508.311-.362.569-.377.274-.016.579-.052.5.389-.1.545.092.8.67.687.482-.092.423.243.409.566" transform="translate(311.829 4530.025)" fill="#010000"/>
        <path id="Trazado_127057" data-name="Trazado 127057" d="M121.786,17.426c-.114-.483.153-.577.548-.518.41.061.572-.109.509-.513s.058-.588.522-.578c.427.009.623.119.548.558s.131.6.553.533c.391-.059.587.035.589.513s-.182.62-.608.553c-.45-.072-.6.133-.533.553.078.472-.175.526-.572.534-.424.009-.562-.151-.5-.54.068-.427-.09-.622-.535-.547s-.62-.106-.523-.547" transform="translate(261.153 4643.184)" fill="#29c4bb"/>
      </g>
    </g>
    <g id="Grupo_157462" data-name="Grupo 157462" transform="translate(316.496 3280.759)">
      <g id="Grupo_157461" data-name="Grupo 157461" clip-path="url(#clip-path)">
        <path id="Trazado_130692" data-name="Trazado 130692" d="M40.69,0H.814A.814.814,0,0,0,0,.814V40.853a.814.814,0,0,0,.814.814H40.69a.814.814,0,0,0,.814-.814V.814A.814.814,0,0,0,40.69,0M1.628,1.628H39.876v6.51H1.628ZM39.876,40.039H1.628V9.766H39.876Z" fill="#fff"/>
        <path id="Trazado_130693" data-name="Trazado 130693" d="M30.814,132.018H64.18a.814.814,0,0,0,.814-.814V105.814A.814.814,0,0,0,64.18,105H30.814a.814.814,0,0,0-.814.814V131.2a.814.814,0,0,0,.814.814m.814-25.391H63.366v23.763H31.628Z" transform="translate(-26.745 -93.607)" fill="#fff"/>
        <path id="Trazado_130694" data-name="Trazado 130694" d="M188.314,189.128h.888a.814.814,0,1,0,0-1.628h-.888a.814.814,0,1,0,0,1.628" transform="translate(-167.155 -167.155)" fill="#fff"/>
        <path id="Trazado_130695" data-name="Trazado 130695" d="M229.224,189.128h.888a.814.814,0,0,0,0-1.628h-.888a.814.814,0,0,0,0,1.628" transform="translate(-203.626 -167.155)" fill="#fff"/>
        <path id="Trazado_130696" data-name="Trazado 130696" d="M270.13,189.128h.888a.814.814,0,0,0,0-1.628h-.888a.814.814,0,0,0,0,1.628" transform="translate(-240.093 -167.155)" fill="#fff"/>
        <path id="Trazado_130697" data-name="Trazado 130697" d="M174.59,135H158.314a.814.814,0,0,0-.814.814v14.648a.814.814,0,0,0,1.3.651l4.123-3.092H174.59a.814.814,0,0,0,.814-.814V135.814a.814.814,0,0,0-.814-.814m-.814,11.393H162.654a.815.815,0,0,0-.488.163l-3.038,2.279V136.628h14.648Z" transform="translate(-140.41 -120.352)" fill="#fff"/>
        <path id="Trazado_130698" data-name="Trazado 130698" d="M60.814,136.628h4.069a.814.814,0,1,0,0-1.628H60.814a.814.814,0,0,0,0,1.628" transform="translate(-53.49 -120.352)" fill="#fff"/>
        <path id="Trazado_130699" data-name="Trazado 130699" d="M68.138,165H60.814a.814.814,0,0,0,0,1.628h7.324a.814.814,0,1,0,0-1.628" transform="translate(-53.49 -147.096)" fill="#fff"/>
        <path id="Trazado_130700" data-name="Trazado 130700" d="M68.138,195H60.814a.814.814,0,0,0,0,1.628h7.324a.814.814,0,1,0,0-1.628" transform="translate(-53.49 -173.841)" fill="#fff"/>
        <path id="Trazado_130701" data-name="Trazado 130701" d="M68.138,225H60.814a.814.814,0,1,0,0,1.628h7.324a.814.814,0,1,0,0-1.628" transform="translate(-53.49 -200.586)" fill="#fff"/>
        <path id="Trazado_130702" data-name="Trazado 130702" d="M30.814,37.5a.813.813,0,1,0,.575.238.817.817,0,0,0-.575-.238" transform="translate(-26.745 -33.435)" fill="#fff"/>
        <path id="Trazado_130703" data-name="Trazado 130703" d="M60.814,37.5a.813.813,0,1,0,.575.238.817.817,0,0,0-.575-.238" transform="translate(-53.49 -33.435)" fill="#fff"/>
        <path id="Trazado_130704" data-name="Trazado 130704" d="M90.814,37.5a.813.813,0,1,0,.575.238.817.817,0,0,0-.575-.238" transform="translate(-80.234 -33.435)" fill="#fff"/>
        <path id="Trazado_130705" data-name="Trazado 130705" d="M177.845,37.5H158.314a.814.814,0,0,0,0,1.628h19.531a.814.814,0,0,0,0-1.628" transform="translate(-140.41 -33.431)" fill="#fff"/>
      </g>
    </g>
  </g>
</svg>
