<svg xmlns="http://www.w3.org/2000/svg" xmlns:xlink="http://www.w3.org/1999/xlink" width="82.477" height="75.757" viewBox="0 0 82.477 75.757">
  <defs>
    <radialGradient id="radial-gradient" cx="0.529" cy="0.58" r="0.575" gradientTransform="matrix(0.999, -0.004, 0.004, 1, 0.009, 0.001)" gradientUnits="objectBoundingBox">
      <stop offset="0" stop-color="#f79f40"/>
      <stop offset="0.163" stop-color="#f7a542"/>
      <stop offset="0.371" stop-color="#f8b44a"/>
      <stop offset="0.601" stop-color="#face55"/>
      <stop offset="0.771" stop-color="#fbe660"/>
      <stop offset="0.91" stop-color="#fbf36f"/>
      <stop offset="0.932" stop-color="#fbf672"/>
      <stop offset="0.947" stop-color="#fbf676"/>
      <stop offset="0.962" stop-color="#fbf783"/>
      <stop offset="0.978" stop-color="#fcf897"/>
      <stop offset="0.994" stop-color="#fdfab4"/>
      <stop offset="1" stop-color="#fdfbc2"/>
    </radialGradient>
    <clipPath id="clip-path">
      <path id="Trazado_116496" data-name="Trazado 116496" d="M4.68,29.84v-.06c0-.11.03-.77.15-1.75.01-.09.02-.17.03-.26.02-.12.04-.25.06-.38a23.894,23.894,0,0,1,3.15-8.77c0-.01.01-.01.01-.02.17-.29.35-.57.54-.85h0a23.353,23.353,0,0,1,3.06-3.74,20.449,20.449,0,0,1,1.77-1.6c.39-.32.78-.62,1.19-.91a.265.265,0,0,0,.06-.05l.05-.04.21-.15c.26-.18.55-.37.86-.57h0c.01-.01.02-.01.03-.02.15-.09.3-.19.47-.28.07-.04.15-.09.22-.13s.12-.07.19-.11a1.093,1.093,0,0,1,.15-.08,25.413,25.413,0,0,1,2.93-1.4c.26-.11.47-.18.58-.23l.18-.07.18-.07c.01,0,.02-.01.03-.01l.04-.01.3-.1.04-.01c.01,0,.03-.01.04-.01l.2-.07a2.759,2.759,0,0,1,.27-.08l.23-.07c.04-.01.09-.03.13-.04.01,0,.03-.01.04-.01s.03-.01.05-.01a.637.637,0,0,0,.07-.02l.26-.07.22-.06c.07-.02.14-.03.21-.05h.01l.13-.03.25-.06.18-.04a2.048,2.048,0,0,1,.24-.05c.01,0,.03-.01.04-.01.06-.01.12-.03.18-.04l.11-.02.13-.03h.02l.04-.01c.02,0,.05-.01.07-.01a1.766,1.766,0,0,0,.2-.04.6.6,0,0,1,.12-.02h0a2.069,2.069,0,0,0,.22-.04l.19-.03c.03-.01.07-.01.11-.02a.985.985,0,0,1,.17-.02,1,1,0,0,1,.16-.02l.27-.03.25-.03c.03,0,.05-.01.08-.01h.02a1.641,1.641,0,0,1,.23-.02l.34-.03c.08-.01.16-.01.23-.02.09-.01.17-.01.26-.02s.18-.01.27-.02A.97.97,0,0,0,27.57,7h.37c.48-.01.96-.01,1.45,0,.11,0,.21,0,.31.01s.22.01.32.02c.07,0,.13.01.19.01.16.01.31.02.46.04.05,0,.11.01.16.01.22.02.43.04.64.07.1.01.2.02.3.04h.01c.02,0,.04.01.06.01q.24.03.45.06c.11.02.23.04.34.05.26.04.47.08.61.11.7.14,1.38.3,2.06.5.41.11.77.22,1.21.38a24.02,24.02,0,0,1,5.31,2.61h0c.17.11.33.22.49.33a.265.265,0,0,1,.06.05c.28.2.56.4.84.61a.423.423,0,0,0,.07.05l.02.02.02.02c.01.01.02.02.03.02s.02.01.03.02c.08.06.15.12.23.18.15.12.3.24.44.36.08.07.16.13.24.2.16.14.32.27.46.4l.02.02.02.02c.03.03.07.06.1.09.75.69,1.21,1.19,1.24,1.22.23.25.46.51.69.77.16.19.33.38.5.59.01.01.02.03.04.04l.03.03c.34.42.69.89,1.08,1.46l.01.01.01.01c.01.01.01.02.02.02.18.26.36.55.54.86.16.26.32.52.46.75l.46.88c.15.29.29.56.42.82a16.757,16.757,0,0,1,.76,1.82h0v.01c.22.6.42,1.23.6,1.84l.01.02a.037.037,0,0,0,.01.03,17.968,17.968,0,0,1,.5,2.13,23.505,23.505,0,0,1,.17,7.66,22.794,22.794,0,0,1-.82,3.68,23.944,23.944,0,0,1-1.38,3.51,15.311,15.311,0,0,1-.75,1.42c-.32.56-.68,1.11-1.06,1.66-.04.07-.09.13-.13.2a16,16,0,0,1-1.39,1.8c-.34.37-.78.88-1.14,1.24s-.83.82-1.22,1.15h0c-.42.37-.6.53-.99.83q-.72.585-1.47,1.08h-.01c-.16.11-.32.22-.49.32-.19.12-.38.24-.55.34-.09.05-.22.13-.36.21a.573.573,0,0,0-.07.04c-.15.09-.33.18-.52.29-.04.02-.09.05-.13.07a22.79,22.79,0,0,1-2.12,1c-.18.07-.42.17-.7.28l-.24.09-.42.15-.3.1-.11.03c-.01,0-.01,0-.02.01l-.16.05a2.759,2.759,0,0,1-.27.08l-.26.08c-.01,0-.02,0-.02.01a22.1,22.1,0,0,1-2.96.66l-.09.01c-.08.01-.17.03-.27.04h-.03l-.23.03-.53.06c-.24.03-.56.05-.79.07s-.49.03-.74.04h-.02c-.13.01-.25.01-.37.01-.33.01-.77,0-1.1.01s-.79-.03-1.13-.05c-.72-.06-1.68-.17-2.39-.28a18.747,18.747,0,0,1-1.84-.38c-.14-.04-.28-.08-.43-.12-.43-.12-.87-.25-1.24-.36l-.43-.16c-.35-.12-.69-.25-1.03-.38l-.17-.06c-.4-.15-.89-.38-1.32-.59-.19-.09-.37-.18-.55-.28a15.711,15.711,0,0,1-1.56-.88c-.02-.01-.03-.02-.05-.03-.41-.26-.82-.52-1.22-.81-.09-.06-.18-.12-.26-.17l-.44-.34c-.12-.09-.23-.18-.35-.27l-.66-.52a14.289,14.289,0,0,1-1.37-1.26l-.03-.03-.07-.07c-.35-.35-.74-.77-1.2-1.29a.138.138,0,0,1-.03-.04h0a20.957,20.957,0,0,1-2.02-2.71c-.01-.01-.01-.02-.02-.03-.19-.3-.38-.61-.57-.95v-.01h0c-.08-.14-.16-.29-.24-.44-.11-.2-.22-.41-.31-.59l-.09-.18c-.16-.32-.31-.65-.47-.99-.21-.47-.41-.94-.56-1.36h0c-.26-.7-.5-1.44-.71-2.23-.13-.48-.25-.96-.33-1.41-.1-.48-.18-.98-.25-1.5-.02-.12-.03-.23-.05-.34-.08-.69-.14-1.41-.16-2.14v-.13C4.65,31.04,4.65,30.45,4.68,29.84Z"/>
    </clipPath>
    <linearGradient id="linear-gradient" x1="1.166" y1="-323.933" x2="2.166" y2="-323.933" gradientUnits="objectBoundingBox">
      <stop offset="0" stop-color="#19b79c"/>
      <stop offset="0.405" stop-color="#1dbb9e"/>
      <stop offset="0.825" stop-color="#2ac8a3"/>
      <stop offset="0.997" stop-color="#31cfa6"/>
    </linearGradient>
    <linearGradient id="linear-gradient-2" x1="3.106" y1="-363.238" x2="4.08" y2="-363.238" xlink:href="#linear-gradient"/>
    <clipPath id="clip-path-2">
      <path id="Trazado_116504" data-name="Trazado 116504" d="M52.63,29.65v-.06a15.757,15.757,0,0,0-.17-1.74,2.335,2.335,0,0,0-.04-.26c-.02-.12-.04-.25-.06-.38a24.088,24.088,0,0,0-3.22-8.75c0-.01-.01-.01-.01-.02-.18-.29-.36-.57-.55-.85h0a23.39,23.39,0,0,0-3.09-3.72,20.134,20.134,0,0,0-1.78-1.58q-.585-.465-1.2-.9a.265.265,0,0,1-.06-.05l-.05-.04-.21-.15c-.26-.18-.55-.37-.86-.56h0c-.01-.01-.02-.01-.03-.02-.15-.09-.31-.19-.47-.28a2.529,2.529,0,0,1-.22-.13c-.06-.04-.12-.07-.19-.11-.05-.03-.1-.05-.15-.08A27.308,27.308,0,0,0,37.32,8.6c-.26-.1-.47-.18-.58-.22l-.18-.06-.18-.06c-.01,0-.02-.01-.03-.01l-.05-.02-.3-.1-.04-.01c-.01,0-.03-.01-.04-.01l-.2-.06c-.08-.02-.19-.06-.27-.08l-.23-.07a.647.647,0,0,1-.13-.04c-.01,0-.03-.01-.04-.01s-.03-.01-.05-.01a.637.637,0,0,1-.07-.02l-.26-.07-.22-.06c-.07-.02-.14-.03-.21-.05h-.01l-.13-.03c-.08-.02-.18-.04-.25-.06l-.18-.04c-.08-.02-.16-.03-.24-.05-.01,0-.03-.01-.04-.01a1.163,1.163,0,0,1-.18-.04L33.1,7.4l-.13-.02h-.02l-.04-.01c-.02,0-.05-.01-.07-.01l-.2-.03c-.04-.01-.09-.01-.13-.02h0l-.22-.03-.19-.03a.516.516,0,0,1-.11-.02.985.985,0,0,0-.17-.02c-.06-.01-.11-.01-.16-.02l-.27-.03-.25-.03c-.03,0-.05-.01-.08-.01h-.02c-.07-.01-.15-.01-.23-.02l-.34-.03c-.08-.01-.16-.01-.23-.02A1.569,1.569,0,0,0,30,7.02a2.437,2.437,0,0,0-.27-.01A.86.86,0,0,0,29.57,7l-.15-.01h-.24c-.49-.01-.97-.01-1.45.01-.11,0-.21.01-.31.01s-.22.01-.32.02c-.07,0-.13.01-.19.01-.16.01-.31.02-.46.04-.05.01-.11.01-.16.02-.22.02-.43.05-.64.07-.1.01-.2.03-.3.04h-.01c-.02,0-.04.01-.06.01-.16.02-.31.05-.45.07l-.34.06c-.26.05-.47.09-.6.11-.69.14-1.38.31-2.06.52-.41.11-.76.23-1.21.39a24.178,24.178,0,0,0-5.28,2.65h0c-.16.11-.33.22-.49.34a.265.265,0,0,0-.06.05c-.28.2-.56.41-.83.62a.423.423,0,0,1-.07.05l-.02.02-.02.02-.03.03c-.01.01-.02.01-.02.02-.08.06-.15.12-.22.18-.15.12-.3.24-.44.36-.08.07-.16.14-.24.2-.16.14-.31.28-.46.41l-.02.02-.02.02c-.03.03-.07.06-.1.09-.75.69-1.2,1.2-1.23,1.23-.23.25-.46.51-.68.78-.16.19-.32.38-.49.59-.01.01-.02.03-.04.04l-.02.03c-.33.42-.69.89-1.07,1.47l-.04.01-.01.01c-.01.01-.01.02-.02.02-.17.26-.36.56-.54.86-.16.26-.31.53-.45.75l-.45.88c-.15.29-.29.56-.42.82a18.433,18.433,0,0,0-.75,1.83h0v.01c-.21.6-.41,1.23-.59,1.85l-.01.02a.037.037,0,0,1-.01.03A17.59,17.59,0,0,0,5,26.82a22.709,22.709,0,0,0-.37,3.87,21.466,21.466,0,0,0,.26,3.8,21.96,21.96,0,0,0,.85,3.68,23.286,23.286,0,0,0,1.41,3.5,15.243,15.243,0,0,0,.76,1.42c.33.56.69,1.11,1.07,1.65.04.07.09.13.13.2a15.2,15.2,0,0,0,1.41,1.79c.34.37.79.88,1.15,1.23s.84.82,1.22,1.14h0c.43.37.6.52,1,.82.49.38.98.74,1.48,1.07h.01c.16.11.32.21.49.31.19.12.38.24.55.33.09.05.22.12.36.2a.573.573,0,0,1,.07.04c.15.08.33.18.52.28.04.02.09.05.13.07a23.108,23.108,0,0,0,2.12.98c.18.07.42.17.71.27l.24.09.42.15.3.1.11.03c.01,0,.01,0,.02.01l.16.05c.08.02.19.06.27.08l.26.08c.01,0,.02,0,.02.01a23.962,23.962,0,0,0,2.96.64l.09.01c.08.01.17.02.27.04h.03l.23.03.53.06c.24.02.56.05.79.07s.49.03.74.04h.02c.13,0,.25.01.37.01.33.01.77,0,1.1,0s.79-.04,1.13-.06c.72-.07,1.68-.18,2.39-.3a16.281,16.281,0,0,0,1.84-.4c.14-.04.28-.08.43-.13.43-.12.87-.26,1.24-.37l.43-.16c.35-.12.69-.25,1.03-.39l.17-.06c.4-.15.88-.38,1.32-.6.19-.09.37-.18.55-.28a15.612,15.612,0,0,0,1.55-.89.219.219,0,0,1,.05-.03c.41-.26.81-.53,1.21-.82.09-.06.17-.12.25-.17l.43-.34c.12-.09.23-.18.35-.27l.66-.52a15.234,15.234,0,0,0,1.36-1.27l.03-.03.06-.07c.34-.35.74-.78,1.19-1.3a.138.138,0,0,0,.03-.04h0a21.888,21.888,0,0,0,2-2.73c.01-.01.01-.02.02-.03.18-.3.37-.61.56-.95v-.01h0c.08-.14.16-.29.24-.44.11-.21.22-.41.31-.59l.09-.18c.16-.32.31-.65.46-.99.21-.47.41-.95.55-1.36h0a22.44,22.44,0,0,0,.69-2.23c.13-.48.24-.96.32-1.41.09-.49.18-.98.24-1.5.02-.12.03-.23.04-.34a21.166,21.166,0,0,0,.14-2.14v-.13A13.346,13.346,0,0,0,52.63,29.65Z" transform="translate(-12479.631 -9830.268)" fill="url(#radial-gradient)"/>
    </clipPath>
  </defs>
  <g id="Grupo_157807" data-name="Grupo 157807" transform="translate(12475.004 9823.284)">
    <ellipse id="Elipse_4737" data-name="Elipse 4737" cx="24" cy="16.5" rx="24" ry="16.5" transform="translate(-12454 -9794)" fill="#0b0b0b" opacity="0.559" style="mix-blend-mode: multiply;isolation: isolate"/>
    <path id="Trazado_116493" data-name="Trazado 116493" d="M52.63,29.65v-.06a15.757,15.757,0,0,0-.17-1.74,2.335,2.335,0,0,0-.04-.26c-.02-.12-.04-.25-.06-.38a24.088,24.088,0,0,0-3.22-8.75c0-.01-.01-.01-.01-.02-.18-.29-.36-.57-.55-.85h0a23.39,23.39,0,0,0-3.09-3.72,20.134,20.134,0,0,0-1.78-1.58q-.585-.465-1.2-.9a.265.265,0,0,1-.06-.05l-.05-.04-.21-.15c-.26-.18-.55-.37-.86-.56h0c-.01-.01-.02-.01-.03-.02-.15-.09-.31-.19-.47-.28a2.529,2.529,0,0,1-.22-.13c-.06-.04-.12-.07-.19-.11-.05-.03-.1-.05-.15-.08A27.308,27.308,0,0,0,37.32,8.6c-.26-.1-.47-.18-.58-.22l-.18-.06-.18-.06c-.01,0-.02-.01-.03-.01l-.05-.02-.3-.1-.04-.01c-.01,0-.03-.01-.04-.01l-.2-.06c-.08-.02-.19-.06-.27-.08l-.23-.07a.647.647,0,0,1-.13-.04c-.01,0-.03-.01-.04-.01s-.03-.01-.05-.01a.637.637,0,0,1-.07-.02l-.26-.07-.22-.06c-.07-.02-.14-.03-.21-.05h-.01l-.13-.03c-.08-.02-.18-.04-.25-.06l-.18-.04c-.08-.02-.16-.03-.24-.05-.01,0-.03-.01-.04-.01a1.163,1.163,0,0,1-.18-.04L33.1,7.4l-.13-.02h-.02l-.04-.01c-.02,0-.05-.01-.07-.01l-.2-.03c-.04-.01-.09-.01-.13-.02h0l-.22-.03-.19-.03a.516.516,0,0,1-.11-.02.985.985,0,0,0-.17-.02c-.06-.01-.11-.01-.16-.02l-.27-.03-.25-.03c-.03,0-.05-.01-.08-.01h-.02c-.07-.01-.15-.01-.23-.02l-.34-.03c-.08-.01-.16-.01-.23-.02A1.569,1.569,0,0,0,30,7.02a2.437,2.437,0,0,0-.27-.01A.86.86,0,0,0,29.57,7l-.15-.01h-.24c-.49-.01-.97-.01-1.45.01-.11,0-.21.01-.31.01s-.22.01-.32.02c-.07,0-.13.01-.19.01-.16.01-.31.02-.46.04-.05.01-.11.01-.16.02-.22.02-.43.05-.64.07-.1.01-.2.03-.3.04h-.01c-.02,0-.04.01-.06.01-.16.02-.31.05-.45.07l-.34.06c-.26.05-.47.09-.6.11-.69.14-1.38.31-2.06.52-.41.11-.76.23-1.21.39a24.178,24.178,0,0,0-5.28,2.65h0c-.16.11-.33.22-.49.34a.265.265,0,0,0-.06.05c-.28.2-.56.41-.83.62a.423.423,0,0,1-.07.05l-.02.02-.02.02-.03.03c-.01.01-.02.01-.02.02-.08.06-.15.12-.22.18-.15.12-.3.24-.44.36-.08.07-.16.14-.24.2-.16.14-.31.28-.46.41l-.02.02-.02.02c-.03.03-.07.06-.1.09-.75.69-1.2,1.2-1.23,1.23-.23.25-.46.51-.68.78-.16.19-.32.38-.49.59-.01.01-.02.03-.04.04l-.02.03c-.33.42-.69.89-1.07,1.47l-.04.01-.01.01c-.01.01-.01.02-.02.02-.17.26-.36.56-.54.86-.16.26-.31.53-.45.75l-.45.88c-.15.29-.29.56-.42.82a18.433,18.433,0,0,0-.75,1.83h0v.01c-.21.6-.41,1.23-.59,1.85l-.01.02a.037.037,0,0,1-.01.03A17.59,17.59,0,0,0,5,26.82a22.709,22.709,0,0,0-.37,3.87,21.466,21.466,0,0,0,.26,3.8,21.96,21.96,0,0,0,.85,3.68,23.286,23.286,0,0,0,1.41,3.5,15.243,15.243,0,0,0,.76,1.42c.33.56.69,1.11,1.07,1.65.04.07.09.13.13.2a15.2,15.2,0,0,0,1.41,1.79c.34.37.79.88,1.15,1.23s.84.82,1.22,1.14h0c.43.37.6.52,1,.82.49.38.98.74,1.48,1.07h.01c.16.11.32.21.49.31.19.12.38.24.55.33.09.05.22.12.36.2a.573.573,0,0,1,.07.04c.15.08.33.18.52.28.04.02.09.05.13.07a23.108,23.108,0,0,0,2.12.98c.18.07.42.17.71.27l.24.09.42.15.3.1.11.03c.01,0,.01,0,.02.01l.16.05c.08.02.19.06.27.08l.26.08c.01,0,.02,0,.02.01a23.962,23.962,0,0,0,2.96.64l.09.01c.08.01.17.02.27.04h.03l.23.03.53.06c.24.02.56.05.79.07s.49.03.74.04h.02c.13,0,.25.01.37.01.33.01.77,0,1.1,0s.79-.04,1.13-.06c.72-.07,1.68-.18,2.39-.3a16.281,16.281,0,0,0,1.84-.4c.14-.04.28-.08.43-.13.43-.12.87-.26,1.24-.37l.43-.16c.35-.12.69-.25,1.03-.39l.17-.06c.4-.15.88-.38,1.32-.6.19-.09.37-.18.55-.28a15.612,15.612,0,0,0,1.55-.89.219.219,0,0,1,.05-.03c.41-.26.81-.53,1.21-.82.09-.06.17-.12.25-.17l.43-.34c.12-.09.23-.18.35-.27l.66-.52a15.234,15.234,0,0,0,1.36-1.27l.03-.03.06-.07c.34-.35.74-.78,1.19-1.3a.138.138,0,0,0,.03-.04h0a21.888,21.888,0,0,0,2-2.73c.01-.01.01-.02.02-.03.18-.3.37-.61.56-.95v-.01h0c.08-.14.16-.29.24-.44.11-.21.22-.41.31-.59l.09-.18c.16-.32.31-.65.46-.99.21-.47.41-.95.55-1.36h0a22.44,22.44,0,0,0,.69-2.23c.13-.48.24-.96.32-1.41.09-.49.18-.98.24-1.5.02-.12.03-.23.04-.34a21.166,21.166,0,0,0,.14-2.14v-.13A13.346,13.346,0,0,0,52.63,29.65Z" transform="translate(-12479.631 -9830.268)" fill="url(#radial-gradient)"/>
    <g id="Grupo_86225" data-name="Grupo 86225" transform="translate(-12479.631 -9830.268)" clip-path="url(#clip-path)">
      <path id="Trazado_116494" data-name="Trazado 116494" d="M50.85,21.64a4.37,4.37,0,0,0-.18-.46C50.72,21.33,50.78,21.48,50.85,21.64Z" fill="url(#linear-gradient)"/>
      <path id="Trazado_116495" data-name="Trazado 116495" d="M4.78,34.92c-.03-.14-.05-.28-.08-.41C4.73,34.65,4.75,34.79,4.78,34.92Z" fill="url(#linear-gradient-2)"/>
    </g>
    <path id="Trazado_116497" data-name="Trazado 116497" d="M48.79,27.33a16.375,16.375,0,0,1,.87,5.33c-2.26,1.39-16.97,12.2-20.47,14.98-1.03-.63-6.02-4.35-3.47-5.57a52.925,52.925,0,0,0,13.44-7.1,28.664,28.664,0,0,0,8.38-8.87c.54-.75,1.06.69,1.25,1.23" transform="translate(-12479.631 -9830.268)" fill="#121111"/>
    <path id="Trazado_116499" data-name="Trazado 116499" d="M49.61,33.76c-.75,10.43-10.52,19.05-20.43,13.88,2.65-2.12,3.33-2.62,11.66-8.71,7.45-5.46,7.45-5.46,8.81-6.27-.01.33-.01.77-.04,1.1" transform="translate(-12479.631 -9830.268)" fill="#fc302c"/>
    <g id="Grupo_86231" data-name="Grupo 86231" transform="translate(-12479.631 -9830.268)">
      <path id="Trazado_116501" data-name="Trazado 116501" d="M32.95,28.1c1.25,2.78-.93,6.44-2.24,8.63-.65-.09-1.52-.19-2.17-.29-7.67-1.22-7.14-6.32-5.24-7.75.14-.1.34-.2.49-.29a3.024,3.024,0,0,1,3.05.51c.14-3.51,3.51-3.82,5.31-2a4.969,4.969,0,0,1,.8,1.19" fill="#ff302c"/>
    </g>
    <g id="Grupo_86232" data-name="Grupo 86232" transform="translate(-12479.631 -9830.268)">
      <path id="Trazado_116503" data-name="Trazado 116503" d="M41.71,19.36c2.3,2.57,1.67,6.58,1.41,8.29-.51.04-1.19.1-1.7.14-7.78.48-8.08-4.98-6.61-6.41a2.529,2.529,0,0,1,2.74-.3,2.679,2.679,0,0,1-.1-2.68c1.5-1.44,3.58.21,4.26.96" fill="#ff302c"/>
    </g>
    <g id="Enmascarar_grupo_59" data-name="Enmascarar grupo 59" clip-path="url(#clip-path-2)">
      <g id="Grupo_86233" data-name="Grupo 86233" transform="translate(89 -3)" opacity="0.561" style="mix-blend-mode: multiply;isolation: isolate">
        <g id="Grupo_86230" data-name="Grupo 86230" transform="translate(-94)">
          <ellipse id="Elipse_4734" data-name="Elipse 4734" cx="12.5" cy="7.5" rx="12.5" ry="7.5" transform="translate(-12466 -9826)" fill="#fff" opacity="0.743"/>
          <ellipse id="Elipse_4735" data-name="Elipse 4735" cx="12.5" cy="7.5" rx="12.5" ry="7.5" transform="translate(-12433.272 -9827.557) rotate(56)" opacity="0.387"/>
          <ellipse id="Elipse_4736" data-name="Elipse 4736" cx="12.5" cy="7.5" rx="12.5" ry="7.5" transform="translate(-12466.837 -9784.28) rotate(-1)" opacity="0.387"/>
        </g>
      </g>
    </g>
  </g>
</svg>
