<svg id="Grupo_157767" data-name="Grupo 157767" xmlns="http://www.w3.org/2000/svg" xmlns:xlink="http://www.w3.org/1999/xlink" width="55.353" height="55.353" viewBox="0 0 55.353 55.353">
  <defs>
    <clipPath id="clip-path">
      <rect id="Rect치ngulo_38573" data-name="Rect치ngulo 38573" width="55.353" height="55.353" fill="none"/>
    </clipPath>
  </defs>
  <path id="Trazado_132299" data-name="Trazado 132299" d="M93.259,33.031l2.049,10.394,2.049-10.394-2.049-6.124Z" transform="translate(-57.833 -16.686)" fill="#918291"/>
  <rect id="Rect치ngulo_38572" data-name="Rect치ngulo 38572" width="17.89" height="4.003" transform="translate(28.531 8.22)" fill="#918291"/>
  <g id="Grupo_157762" data-name="Grupo 157762">
    <g id="Grupo_157761" data-name="Grupo 157761" clip-path="url(#clip-path)">
      <path id="Trazado_132300" data-name="Trazado 132300" d="M93.193,23.035h-4.1a2.551,2.551,0,0,1-2.552-2.551V13.339a2.551,2.551,0,0,1,2.552-2.551h4.1a2.551,2.551,0,0,1,2.551,2.551v7.145a2.551,2.551,0,0,1-2.551,2.551" transform="translate(-53.668 -6.69)" fill="#86e8d0"/>
      <path id="Trazado_132301" data-name="Trazado 132301" d="M91.7,23.036h-2.61a2.551,2.551,0,0,1-2.55-2.551V13.34a2.55,2.55,0,0,1,2.55-2.55H91.7a2.551,2.551,0,0,0-2.55,2.55v7.145a2.551,2.551,0,0,0,2.55,2.551" transform="translate(-53.669 -6.691)" fill="#5de1c4"/>
      <path id="Trazado_132302" data-name="Trazado 132302" d="M60.875,20.955H55.824a2.075,2.075,0,0,1-2.075-2.075V4.208a2.075,2.075,0,0,1,2.075-2.074h5.052A2.075,2.075,0,0,1,62.95,4.208V18.881a2.075,2.075,0,0,1-2.074,2.075" transform="translate(-33.331 -1.323)" fill="#dff6fd"/>
      <path id="Trazado_132303" data-name="Trazado 132303" d="M126.431,20.955h-5.052a2.074,2.074,0,0,1-2.074-2.075V4.208a2.074,2.074,0,0,1,2.074-2.074h5.052a2.075,2.075,0,0,1,2.075,2.074V18.881a2.075,2.075,0,0,1-2.075,2.075" transform="translate(-73.984 -1.323)" fill="#dff6fd"/>
      <path id="Trazado_132304" data-name="Trazado 132304" d="M96.734,60.878A3.037,3.037,0,1,1,93.7,57.841a3.037,3.037,0,0,1,3.037,3.037" transform="translate(-56.221 -35.869)" fill="#01c0fa"/>
      <path id="Trazado_132305" data-name="Trazado 132305" d="M94.824,63.7a3.036,3.036,0,1,1,0-5.64,3.037,3.037,0,0,0,0,5.64" transform="translate(-56.22 -35.868)" fill="#08a9f1"/>
      <path id="Trazado_132306" data-name="Trazado 132306" d="M97.717,24.489a1.481,1.481,0,1,1-1.482-1.481,1.481,1.481,0,0,1,1.482,1.481" transform="translate(-58.76 -14.268)" fill="#dff6fd"/>
      <path id="Trazado_132307" data-name="Trazado 132307" d="M38.129,91.234A3.433,3.433,0,1,1,34.7,87.8a3.433,3.433,0,0,1,3.433,3.433" transform="translate(-19.388 -54.448)" fill="#01c0fa"/>
      <path id="Trazado_132308" data-name="Trazado 132308" d="M14.78,118.221H6.446L2.4,125.444a1.619,1.619,0,0,0,1.412,2.41h13.6a1.619,1.619,0,0,0,1.412-2.41Z" transform="translate(-1.358 -73.312)" fill="#918291"/>
      <path id="Trazado_132309" data-name="Trazado 132309" d="M7.953,127.854H3.811a1.619,1.619,0,0,1-1.412-2.41l4.048-7.223h4.142l-4.047,7.223a1.618,1.618,0,0,0,1.411,2.41" transform="translate(-1.358 -73.312)" fill="#685e68"/>
      <path id="Trazado_132310" data-name="Trazado 132310" d="M27.294,90.964a1.18,1.18,0,0,1-.088,1.747,13.11,13.11,0,0,1-18.45-18.45,1.18,1.18,0,0,1,1.747-.088Z" transform="translate(-3.59 -45.783)" fill="#ebebeb"/>
      <path id="Trazado_132311" data-name="Trazado 132311" d="M12.225,93.856A13.118,13.118,0,0,1,8.756,74.263a1.181,1.181,0,0,1,1.747-.088l4.612,4.612a1.181,1.181,0,0,0-1.747.088,13.118,13.118,0,0,0-1.143,14.98" transform="translate(-3.59 -45.784)" fill="#e2e2e2"/>
      <path id="Trazado_132312" data-name="Trazado 132312" d="M84.454,0H79.4a2.889,2.889,0,0,0-2.885,2.886V7.408H74.894v-.76a3.373,3.373,0,0,0-1.046-2.436.811.811,0,1,0-1.116,1.176,1.721,1.721,0,0,1,.541,1.26v7.145a1.742,1.742,0,0,1-1.739,1.741h-4.1a1.743,1.743,0,0,1-1.741-1.741V6.648a1.742,1.742,0,0,1,1.741-1.739h2.207a.811.811,0,0,0,0-1.622H67.435a3.365,3.365,0,0,0-3.362,3.361v.76H62.437V2.885A2.889,2.889,0,0,0,59.552,0H54.5a2.889,2.889,0,0,0-2.886,2.886V17.556A2.889,2.889,0,0,0,54.5,20.442h5.052a2.889,2.889,0,0,0,2.885-2.886V13.033h1.635v.76a3.367,3.367,0,0,0,2.682,3.293l.9,4.541a3.848,3.848,0,1,0,3.669,0l.894-4.541a3.368,3.368,0,0,0,2.682-3.293v-.76h1.623v4.524A2.889,2.889,0,0,0,79.4,20.442h5.052a2.888,2.888,0,0,0,2.885-2.885V2.885A2.888,2.888,0,0,0,84.454,0M57.837,7.774h2.979v4.892H57.837Zm-1.622,4.892H53.237V7.774h2.979Zm4.6-9.782V6.153H57.837V1.621h1.715a1.265,1.265,0,0,1,1.263,1.264M54.5,1.621h1.715V6.153H53.237V2.885A1.265,1.265,0,0,1,54.5,1.621M53.237,17.556V14.288h2.979V18.82H54.5a1.265,1.265,0,0,1-1.264-1.264m6.315,1.264H57.837V14.289h2.979v3.268a1.265,1.265,0,0,1-1.263,1.263m2.9-9.791h1.622v2.382H62.45Zm7.033,18.2a2.226,2.226,0,1,1,2.227-2.226,2.228,2.228,0,0,1-2.227,2.226m0-6.073c-.09,0-.181,0-.27.01l-.792-4.016h2.126l-.791,4.016c-.09-.007-.18-.011-.272-.011m7.034-9.749H74.895V9.03h1.623Zm9.2-8.527V6.153H82.739V1.621h1.715a1.266,1.266,0,0,1,1.264,1.264m-7.579,4.89h2.979v4.892H78.139Zm4.6,0h2.979v4.892H82.739ZM79.4,1.621h1.715V6.153H78.139V2.885A1.265,1.265,0,0,1,79.4,1.621M78.139,17.556V14.288h2.979V18.82H79.4a1.265,1.265,0,0,1-1.263-1.264m6.315,1.264H82.739V14.289h2.979v3.268a1.265,1.265,0,0,1-1.264,1.263" transform="translate(-32.008 0.001)"/>
    </g>
  </g>
  <g id="Grupo_157764" data-name="Grupo 157764">
    <g id="Grupo_157763" data-name="Grupo 157763" clip-path="url(#clip-path)">
      <path id="Trazado_132313" data-name="Trazado 132313" d="M95.722,17.01a.811.811,0,0,0-1.621,0v1.116a2.288,2.288,0,0,0,0,4.282v1.116a.811.811,0,1,0,1.621,0V22.408a2.288,2.288,0,0,0,0-4.282Zm-.811,3.927a.67.67,0,1,1,.671-.67.671.671,0,0,1-.671.67" transform="translate(-57.436 -10.045)"/>
      <path id="Trazado_132314" data-name="Trazado 132314" d="M18.862,83.617a4.245,4.245,0,0,0-5.891-5.891l-5.45-5.45a1.992,1.992,0,0,0-2.947.147A13.751,13.751,0,0,0,1.9,77.646a.811.811,0,0,0,1.567.417,12.136,12.136,0,0,1,2.366-4.612.369.369,0,0,1,.269-.136.365.365,0,0,1,.278.106l16.79,16.79a.369.369,0,0,1-.029.547,12.3,12.3,0,0,1-20.086-9.2.811.811,0,1,0-1.621.042,13.849,13.849,0,0,0,2.7,7.884L.369,96.2a2.429,2.429,0,0,0,2.119,3.617H11.91a.811.811,0,0,0,0-1.622H2.489a.808.808,0,0,1-.705-1.2L5.24,90.821c.086.09.172.179.26.267a13.883,13.883,0,0,0,9.2,4.062c.217.01.433.015.65.015.142,0,.283,0,.425-.007l1.025,1.83a.808.808,0,0,1-.7,1.2h-.4a.811.811,0,1,0,0,1.622h.4a2.43,2.43,0,0,0,2.12-3.617l-.675-1.2a13.85,13.85,0,0,0,6.627-2.978,1.991,1.991,0,0,0,.148-2.947Zm-3.519-4.993a2.622,2.622,0,0,1,2.337,3.811l-3.527-3.527a2.609,2.609,0,0,1,1.19-.284" transform="translate(-0.034 -44.46)"/>
    </g>
  </g>
  <g id="Grupo_157766" data-name="Grupo 157766">
    <g id="Grupo_157765" data-name="Grupo 157765" clip-path="url(#clip-path)">
      <path id="Trazado_132315" data-name="Trazado 132315" d="M47.745,61.81a.811.811,0,0,0,0,1.622,8.25,8.25,0,0,1,8.241,8.241.811.811,0,0,0,1.622,0,9.874,9.874,0,0,0-9.863-9.863" transform="translate(-29.105 -38.33)"/>
      <path id="Trazado_132316" data-name="Trazado 132316" d="M47.745,70.586a.811.811,0,0,0,0,1.622,4.913,4.913,0,0,1,4.908,4.907.811.811,0,1,0,1.622,0,6.537,6.537,0,0,0-6.529-6.529" transform="translate(-29.105 -43.772)"/>
      <path id="Trazado_132317" data-name="Trazado 132317" d="M49.318,82.556a.811.811,0,0,0,1.622,0,3.2,3.2,0,0,0-3.2-3.2.811.811,0,0,0,0,1.622,1.576,1.576,0,0,1,1.574,1.574" transform="translate(-29.105 -49.214)"/>
    </g>
  </g>
</svg>
