<svg id="Grupo_157776" data-name="Grupo 157776" xmlns="http://www.w3.org/2000/svg" xmlns:xlink="http://www.w3.org/1999/xlink" width="56.705" height="53.161" viewBox="0 0 56.705 53.161">
  <defs>
    <clipPath id="clip-path">
      <rect id="Rectángulo_38577" data-name="Rectángulo 38577" width="56.705" height="53.161" fill="none"/>
    </clipPath>
  </defs>
  <g id="Grupo_157771" data-name="Grupo 157771">
    <g id="Grupo_157770" data-name="Grupo 157770" clip-path="url(#clip-path)">
      <path id="Trazado_132345" data-name="Trazado 132345" d="M59.588,13.8H58.07V12.443a8.428,8.428,0,0,0-16.843-.469h-1.4a5.775,5.775,0,1,0,0,11.549H59.589a4.861,4.861,0,1,0,0-9.722" transform="translate(-20.799 -2.453)" fill="#ebebeb"/>
      <path id="Trazado_132346" data-name="Trazado 132346" d="M51.483,4.218a8.432,8.432,0,0,0-6.571,7.756h-1.4a5.775,5.775,0,1,0,0,11.55H39.824a5.775,5.775,0,1,1,0-11.55h1.4A8.43,8.43,0,0,1,51.483,4.218" transform="translate(-20.799 -2.453)" fill="#e2e2e2"/>
      <path id="Trazado_132347" data-name="Trazado 132347" d="M106.1,98.856H96.425a1.08,1.08,0,0,1-.8-1.8l1.593-1.767,4.392-2.456,3.7,2.456,1.592,1.767a1.079,1.079,0,0,1-.8,1.8" transform="translate(-58.24 -56.705)" fill="#918291"/>
      <path id="Trazado_132348" data-name="Trazado 132348" d="M103.235,89.836v2.332a1.289,1.289,0,0,1-1.288,1.289H78.82a1.289,1.289,0,0,1-1.288-1.289V89.836Z" transform="translate(-47.36 -54.876)" fill="#918291"/>
      <path id="Trazado_132349" data-name="Trazado 132349" d="M103.235,50.331V64.918h-25.7V50.331a1.289,1.289,0,0,1,1.288-1.288h23.127a1.289,1.289,0,0,1,1.288,1.288" transform="translate(-47.36 -29.958)" fill="#86e8d0"/>
      <path id="Trazado_132350" data-name="Trazado 132350" d="M81.731,49.044a1.289,1.289,0,0,0-1.288,1.288V64.919h-2.91V50.332a1.289,1.289,0,0,1,1.288-1.288Z" transform="translate(-47.361 -29.958)" fill="#5de1c4"/>
      <path id="Trazado_132351" data-name="Trazado 132351" d="M19.327,76.652H10.612a1.585,1.585,0,0,1-1.585-1.586V61.99A1.586,1.586,0,0,1,10.612,60.4h8.715a1.586,1.586,0,0,1,1.586,1.586V75.067a1.586,1.586,0,0,1-1.586,1.586" transform="translate(-5.514 -36.898)" fill="#fe646f"/>
      <path id="Trazado_132352" data-name="Trazado 132352" d="M12.956,76.653H10.613a1.585,1.585,0,0,1-1.584-1.585V61.99A1.585,1.585,0,0,1,10.613,60.4h2.343A1.586,1.586,0,0,0,11.37,61.99V75.068a1.585,1.585,0,0,0,1.586,1.585" transform="translate(-5.515 -36.898)" fill="#fd4755"/>
      <path id="Trazado_132353" data-name="Trazado 132353" d="M53.026,87.1H35.874a1.824,1.824,0,0,0-1.825,1.824v12.227l10.4,2.124,10.4-2.124V88.929A1.825,1.825,0,0,0,53.026,87.1" transform="translate(-20.799 -53.208)" fill="#01c0fa"/>
      <path id="Trazado_132354" data-name="Trazado 132354" d="M45.887,102.986l-1.436.293-10.4-2.124V88.928A1.825,1.825,0,0,1,35.874,87.1h2.873a1.824,1.824,0,0,0-1.824,1.825v12.226Z" transform="translate(-20.799 -53.207)" fill="#08a9f1"/>
      <path id="Trazado_132355" data-name="Trazado 132355" d="M52.821,123.211H30.65a1.045,1.045,0,0,0-1.015,1.294,3.882,3.882,0,0,0,3.77,2.955H50.066a3.881,3.881,0,0,0,3.769-2.955,1.045,1.045,0,0,0-1.015-1.294" transform="translate(-18.084 -75.263)" fill="#ebebeb"/>
      <path id="Trazado_132356" data-name="Trazado 132356" d="M36.278,127.462H33.4a3.884,3.884,0,0,1-3.769-2.955,1.045,1.045,0,0,1,1.015-1.294h2.874a1.044,1.044,0,0,0-1.014,1.294,3.883,3.883,0,0,0,3.769,2.955" transform="translate(-18.084 -75.264)" fill="#e2e2e2"/>
      <path id="Trazado_132357" data-name="Trazado 132357" d="M54.161,50.066v3.4h1.792a.876.876,0,0,1,.758,1.315l-3.453,5.979a.876.876,0,0,1-1.517,0L48.29,54.782a.876.876,0,0,1,.758-1.315h1.791v-3.4a1.661,1.661,0,1,1,3.323,0" transform="translate(-29.425 -29.568)" fill="#7a6d79"/>
      <path id="Trazado_132358" data-name="Trazado 132358" d="M11.692,15.893H6.469a1.661,1.661,0,0,0-1.661,1.661v5.253H3.017a.876.876,0,0,0-.759,1.314L5.71,30.1a.876.876,0,0,0,1.518,0l3.452-5.978a.876.876,0,0,0-.759-1.314H8.13V19.216h3.562a1.661,1.661,0,0,0,0-3.323" transform="translate(-1.307 -9.708)" fill="#7a6d79"/>
      <path id="Trazado_132359" data-name="Trazado 132359" d="M110.011,2.475h5.223A1.661,1.661,0,0,1,116.9,4.136V9.389h1.791a.876.876,0,0,1,.758,1.315l-3.453,5.978a.876.876,0,0,1-1.517,0L111.024,10.7a.876.876,0,0,1,.758-1.315h1.791V5.8h-3.562a1.661,1.661,0,0,1,0-3.323" transform="translate(-66.185 -1.512)" fill="#7a6d79"/>
      <path id="Trazado_132360" data-name="Trazado 132360" d="M52.766,97.764a1.741,1.741,0,0,1-1.405-.715l-3.848-5.283a1.739,1.739,0,0,1,2.811-2.047l2.14,2.939,3.1-6.4a1.739,1.739,0,0,1,3.13,1.516l-4.365,9.014a1.74,1.74,0,0,1-1.41.974q-.077.007-.155.007" transform="translate(-28.82 -52.088)" fill="#ebebeb"/>
      <path id="Trazado_132361" data-name="Trazado 132361" d="M103.161,60.1a1.739,1.739,0,0,1-1.405-.715l-3.848-5.283a1.739,1.739,0,0,1,2.811-2.047L102.859,55l3.1-6.4a1.739,1.739,0,0,1,3.13,1.515l-4.365,9.014a1.739,1.739,0,0,1-1.41.974c-.051,0-.1.007-.155.007" transform="translate(-59.603 -29.084)" fill="#ebebeb"/>
      <path id="Trazado_132362" data-name="Trazado 132362" d="M60.085,28.335a.831.831,0,0,0,.831-.831V21.523A2.122,2.122,0,0,0,58.8,19.4H53.728a2.564,2.564,0,0,0-3.192,0H48.313A5.694,5.694,0,0,0,43,11.669h-.688v-.528A9.259,9.259,0,0,0,28.38,3.148a.831.831,0,0,0,.84,1.434,7.6,7.6,0,0,1,11.431,6.56V12.5a.83.83,0,0,0,.831.83H43A4.032,4.032,0,0,1,46.474,19.4H35.67a2.122,2.122,0,0,0-2.115,1.986H29.764a2.492,2.492,0,0,0-4.957,0H23.236a4.944,4.944,0,1,1,0-9.888h1.4a.831.831,0,0,0,.829-.785A7.588,7.588,0,0,1,26.7,6.971a.831.831,0,1,0-1.387-.914,9.233,9.233,0,0,0-1.429,3.783h-.651a6.605,6.605,0,1,0,0,13.21h1.558v1.168h-.96a1.707,1.707,0,0,0-1.478,2.56l3.452,5.979a1.707,1.707,0,0,0,2.956,0l3.453-5.979a1.707,1.707,0,0,0-1.478-2.56h-.961V23.051h3.775V33.719a2.575,2.575,0,0,0-2.805.5H20.44V26.242a2.419,2.419,0,0,0-2.417-2.416H9.308a2.418,2.418,0,0,0-2.415,2.416V39.319a2.418,2.418,0,0,0,2.415,2.415H16.63v6.541a1.872,1.872,0,0,0-1.675,2.316,4.713,4.713,0,0,0,4.575,3.587h.291a.831.831,0,0,0,0-1.661H19.53a3.053,3.053,0,0,1-2.962-2.322.214.214,0,0,1,.207-.266H38.947a.216.216,0,0,1,.215.212.248.248,0,0,1-.007.053,3.045,3.045,0,0,1-2.962,2.323H23.648a.831.831,0,0,0,0,1.661H36.194a4.7,4.7,0,0,0,4.574-3.584,1.85,1.85,0,0,0,.056-.453,1.876,1.876,0,0,0-1.73-1.866V40.562H41.32l-.343.38A1.91,1.91,0,0,0,42.4,44.131h9.676a1.91,1.91,0,0,0,1.419-3.189l-.343-.38H58.8a2.122,2.122,0,0,0,2.119-2.12V31.38a.831.831,0,0,0-1.661,0v3.9H38.562a2.653,2.653,0,0,0-2.124-1.064H35.213V21.523a.458.458,0,0,1,.458-.458H49.449l-2.125,4.389L46,23.636a2.569,2.569,0,1,0-4.154,3.025l3.848,5.283A2.576,2.576,0,0,0,47.768,33c.076,0,.153,0,.23-.01a2.583,2.583,0,0,0,2.084-1.44l4.364-9.014a2.553,2.553,0,0,0,.233-1.471H58.8a.458.458,0,0,1,.458.458V27.5a.831.831,0,0,0,.83.831M30.738,25.88a.046.046,0,0,1,.039.068l-3.452,5.978a.046.046,0,0,1-.079,0l-3.452-5.978a.046.046,0,0,1,.039-.068h1.791a.831.831,0,0,0,.831-.831v-3.4a.831.831,0,0,1,1.661,0v3.4a.83.83,0,0,0,.83.831Zm2.179,9.374a.909.909,0,0,1,.421,1.213l-4.364,9.014a.908.908,0,0,1-1.552.139l-3.848-5.283a.908.908,0,0,1,1.468-1.069l2.14,2.939a.831.831,0,0,0,1.419-.127l3.1-6.4a.909.909,0,0,1,1.213-.422M9.309,40.074a.755.755,0,0,1-.754-.755V26.242a.755.755,0,0,1,.754-.755h8.715a.756.756,0,0,1,.756.755v8.022a2.66,2.66,0,0,0-2.149,2.607v3.2Zm42.948,1.981a.249.249,0,0,1-.185.415H42.4a.249.249,0,0,1-.184-.415l1.345-1.492h7.357Zm7-3.612a.459.459,0,0,1-.458.458h-19.7V36.941H59.255ZM37.433,36.871v11.4H18.292v-11.4a1,1,0,0,1,.994-.995H29.762l-2.05,4.234-1.325-1.82a2.569,2.569,0,0,0-4.154,3.025L26.08,46.6a2.579,2.579,0,0,0,2.077,1.057c.077,0,.154,0,.23-.011a2.582,2.582,0,0,0,2.083-1.439l4.365-9.014a2.543,2.543,0,0,0,.248-1.315h1.356a1,1,0,0,1,.995.995M52.951,21.813l-4.364,9.014a.908.908,0,0,1-1.551.139l-3.848-5.282a.908.908,0,0,1,1.468-1.069l2.14,2.939a.83.83,0,0,0,1.418-.127l3.1-6.4a.908.908,0,1,1,1.634.792" transform="translate(-4.211 -1.15)"/>
    </g>
  </g>
  <g id="Grupo_157773" data-name="Grupo 157773">
    <g id="Grupo_157772" data-name="Grupo 157772" clip-path="url(#clip-path)">
      <path id="Trazado_132363" data-name="Trazado 132363" d="M22.211,64.814H19.459a.831.831,0,1,0,0,1.661h2.752a.831.831,0,0,0,0-1.661" transform="translate(-11.379 -39.591)"/>
      <path id="Trazado_132364" data-name="Trazado 132364" d="M5.163,30.066a1.689,1.689,0,0,0,1.478-.854l3.452-5.978a1.707,1.707,0,0,0-1.478-2.56h-.96V18.743h2.731a2.492,2.492,0,1,0,0-4.983H5.163a2.494,2.494,0,0,0-2.492,2.491v4.422H1.71a1.707,1.707,0,0,0-1.478,2.56l3.452,5.979a1.69,1.69,0,0,0,1.479.853M1.67,22.358a.039.039,0,0,1,.04-.023H3.5a.831.831,0,0,0,.83-.83V16.251a.832.832,0,0,1,.831-.831h5.222a.831.831,0,1,1,0,1.661H6.824a.831.831,0,0,0-.831.831V21.5a.831.831,0,0,0,.831.83h1.79a.038.038,0,0,1,.039.023.038.038,0,0,1,0,.046L5.2,28.381a.045.045,0,0,1-.079,0L1.67,22.4a.038.038,0,0,1,0-.046" transform="translate(0 -8.405)"/>
    </g>
  </g>
  <g id="Grupo_157775" data-name="Grupo 157775">
    <g id="Grupo_157774" data-name="Grupo 157774" clip-path="url(#clip-path)">
      <path id="Trazado_132365" data-name="Trazado 132365" d="M108.71,5.325h2.731v1.93h-.96A1.707,1.707,0,0,0,109,9.816l3.452,5.978a1.707,1.707,0,0,0,2.956,0l3.452-5.978a1.707,1.707,0,0,0-1.478-2.561h-.96V2.833A2.5,2.5,0,0,0,113.933.341H108.71a2.492,2.492,0,0,0,0,4.984m0-3.323h5.223a.831.831,0,0,1,.83.83V8.086a.83.83,0,0,0,.83.831h1.791a.046.046,0,0,1,.039.068l-3.453,5.979a.037.037,0,0,1-.039.022.038.038,0,0,1-.039-.022l-3.453-5.979a.046.046,0,0,1,.04-.068h1.791a.831.831,0,0,0,.83-.831V4.494a.831.831,0,0,0-.83-.83H108.71a.831.831,0,0,1,0-1.661" transform="translate(-64.883 -0.208)"/>
    </g>
  </g>
</svg>
