<svg id="Grupo_157769" data-name="Grupo 157769" xmlns="http://www.w3.org/2000/svg" xmlns:xlink="http://www.w3.org/1999/xlink" width="49.604" height="49.714" viewBox="0 0 49.604 49.714">
  <defs>
    <clipPath id="clip-path">
      <rect id="Rectángulo_38576" data-name="Rectángulo 38576" width="49.604" height="49.714" fill="none"/>
    </clipPath>
  </defs>
  <g id="Grupo_157768" data-name="Grupo 157768" clip-path="url(#clip-path)">
    <path id="Trazado_132318" data-name="Trazado 132318" d="M40.74,36.812l-12.467-.124-.66-.006S15.8,29.345,22.174,21.093A10.943,10.943,0,0,1,34.98,17.171c2.426.887,4.208,2.478,4.541,3.922,0,0,5.743-4.128,8.855-.577,4.366,4.984-1.671,13.449-7.636,16.3" transform="translate(-13.365 -10.852)" fill="#7a6d79"/>
    <path id="Trazado_132319" data-name="Trazado 132319" d="M30.027,32.257l-1.754,4.432-.66-.006S15.8,29.345,22.175,21.093A10.944,10.944,0,0,1,34.98,17.171c-2.457.494-7.745,2.055-8.176,6.361a10.329,10.329,0,0,0,3.223,8.726" transform="translate(-13.365 -10.852)" fill="#685e68"/>
    <path id="Trazado_132320" data-name="Trazado 132320" d="M49.434,55.725v.1a4.126,4.126,0,0,1-3.684,4.1,10.27,10.27,0,0,1-20.175,0,4.126,4.126,0,0,1-3.683-4.1v-.1a2.739,2.739,0,0,1,2.739-2.738h.763a17.944,17.944,0,0,0,5.691-1.122,23.515,23.515,0,0,0,8.837-5.631s1.8,5.067,6.009,6.753H46.7a2.738,2.738,0,0,1,2.739,2.738" transform="translate(-14.424 -30.46)" fill="#ffcebf"/>
    <path id="Trazado_132321" data-name="Trazado 132321" d="M37.379,78.994a10.278,10.278,0,0,1-11.8-8.2,4.126,4.126,0,0,1-3.683-4.1V66.6a2.738,2.738,0,0,1,2.739-2.738H25.4a17.944,17.944,0,0,0,5.691-1.122v8.615a7.784,7.784,0,0,0,6.292,7.64" transform="translate(-14.424 -41.334)" fill="#ffb09e"/>
    <path id="Trazado_132322" data-name="Trazado 132322" d="M95.6,16.678a1.453,1.453,0,0,1-1.453-1.453V5.484A.444.444,0,0,0,93.7,5.04H83.964a1.453,1.453,0,1,1,0-2.906H93.7a3.354,3.354,0,0,1,3.35,3.35v9.741A1.453,1.453,0,0,1,95.6,16.678" transform="translate(-54.36 -1.406)" fill="#86e8d0"/>
    <path id="Trazado_132323" data-name="Trazado 132323" d="M15.226,97.055H5.485a3.354,3.354,0,0,1-3.35-3.35V83.964a1.453,1.453,0,1,1,2.906,0V93.7a.445.445,0,0,0,.444.444h9.741a1.453,1.453,0,1,1,0,2.906" transform="translate(-1.407 -54.36)" fill="#86e8d0"/>
    <path id="Trazado_132324" data-name="Trazado 132324" d="M93.7,97.055H83.964a1.453,1.453,0,1,1,0-2.906H93.7a.444.444,0,0,0,.444-.444V83.964a1.453,1.453,0,1,1,2.906,0V93.7a3.354,3.354,0,0,1-3.35,3.35" transform="translate(-54.36 -54.36)" fill="#86e8d0"/>
    <path id="Trazado_132325" data-name="Trazado 132325" d="M3.587,16.678a1.453,1.453,0,0,1-1.453-1.453V5.484a3.354,3.354,0,0,1,3.35-3.35h9.741a1.453,1.453,0,0,1,0,2.906H5.484a.444.444,0,0,0-.444.444v9.741a1.453,1.453,0,0,1-1.453,1.453" transform="translate(-1.406 -1.406)" fill="#86e8d0"/>
    <path id="Trazado_132326" data-name="Trazado 132326" d="M109.816,24.529a8.659,8.659,0,1,1-8.658-8.658,8.658,8.658,0,0,1,8.658,8.658" transform="translate(-60.941 -10.456)" fill="#fee97d"/>
    <path id="Trazado_132327" data-name="Trazado 132327" d="M102.893,33.012a8.659,8.659,0,1,1,0-16.969,8.66,8.66,0,0,0,0,16.969" transform="translate(-60.941 -10.455)" fill="#ffd15b"/>
    <path id="Trazado_132328" data-name="Trazado 132328" d="M111.273,34.43a9.051,9.051,0,0,1-7.094,3.532,8.684,8.684,0,0,1-2.362-.326,9.283,9.283,0,0,1-4.732-3.205,9.285,9.285,0,0,1,4.732-3.205,8.685,8.685,0,0,1,2.362-.326,9.049,9.049,0,0,1,7.094,3.532" transform="translate(-63.962 -20.356)" fill="#ebebeb"/>
    <path id="Trazado_132329" data-name="Trazado 132329" d="M114.59,34.43a3.531,3.531,0,1,1-3.531-3.532,3.532,3.532,0,0,1,3.531,3.532" transform="translate(-70.842 -20.356)" fill="#01c0fa"/>
    <path id="Trazado_132330" data-name="Trazado 132330" d="M19.452,101.48a8.659,8.659,0,1,1-8.658-8.659,8.659,8.659,0,0,1,8.658,8.659" transform="translate(-1.407 -61.153)" fill="#fee97d"/>
    <path id="Trazado_132331" data-name="Trazado 132331" d="M12.529,109.965a8.659,8.659,0,1,1,0-16.968,8.66,8.66,0,0,0,0,16.968" transform="translate(-1.407 -61.153)" fill="#ffd15b"/>
    <path id="Trazado_132332" data-name="Trazado 132332" d="M21.485,112.126l-.556.894a4.417,4.417,0,0,1-3.752,2.085H13.2a4.418,4.418,0,0,1-3.752-2.085l-.555-.894a.574.574,0,0,1,.1-.724l2.77-2.572a1.416,1.416,0,0,1,1.783-.116l.055.039.771.549a1.416,1.416,0,0,0,1.64,0l.826-.588a1.414,1.414,0,0,1,1.782.116l2.771,2.572a.575.575,0,0,1,.1.724" transform="translate(-5.801 -71.451)" fill="#fe646f"/>
    <path id="Trazado_132333" data-name="Trazado 132333" d="M13.469,115.1H13.2a4.417,4.417,0,0,1-3.752-2.085l-.555-.893a.574.574,0,0,1,.1-.724l2.769-2.572a1.416,1.416,0,0,1,1.783-.116l.055.039c-1.117,1.408-2.275,3.816-.129,6.351" transform="translate(-5.802 -71.451)" fill="#fd4755"/>
    <path id="Trazado_132334" data-name="Trazado 132334" d="M90.364,72.214v1.018a.728.728,0,0,0,1.456,0V72.214a.552.552,0,0,1,.551-.551.728.728,0,0,0,0-1.456,2.01,2.01,0,0,0-2.008,2.007" transform="translate(-59.534 -46.254)"/>
    <path id="Trazado_132335" data-name="Trazado 132335" d="M26.856,70.207a.728.728,0,1,0,0,1.456.551.551,0,0,1,.55.551v1.018a.728.728,0,0,0,1.457,0V72.214a2.01,2.01,0,0,0-2.007-2.007" transform="translate(-17.214 -46.254)"/>
    <path id="Trazado_132336" data-name="Trazado 132336" d="M53.769,66.672a.728.728,0,0,0-1.456,0v2.27a.728.728,0,0,0,1.456,0Z" transform="translate(-34.465 -43.446)"/>
    <path id="Trazado_132337" data-name="Trazado 132337" d="M68.658,65.943a.728.728,0,0,0-.728.728v2.27a.728.728,0,1,0,1.456,0v-2.27a.728.728,0,0,0-.728-.728" transform="translate(-44.754 -43.445)"/>
    <path id="Trazado_132338" data-name="Trazado 132338" d="M59.7,88.523a6.56,6.56,0,0,1-2.674,0,.728.728,0,0,0-.3,1.426,7.987,7.987,0,0,0,3.264,0,.728.728,0,1,0-.3-1.426" transform="translate(-36.995 -58.311)"/>
    <path id="Trazado_132339" data-name="Trazado 132339" d="M94.2,80.376a2.184,2.184,0,0,0-2.181,2.182v9.456H82.558a2.181,2.181,0,1,0,0,4.362H92.3A4.082,4.082,0,0,0,96.376,92.3V82.558A2.184,2.184,0,0,0,94.2,80.376M94.921,92.3A2.625,2.625,0,0,1,92.3,94.92H82.558a.725.725,0,1,1,0-1.449H92.3A1.174,1.174,0,0,0,93.471,92.3V82.558a.725.725,0,1,1,1.449,0V92.3Z" transform="translate(-52.954 -52.954)"/>
    <path id="Trazado_132340" data-name="Trazado 132340" d="M2.181,16a2.184,2.184,0,0,0,2.181-2.181V4.363h9.456a2.181,2.181,0,0,0,0-4.363H4.078A4.083,4.083,0,0,0,0,4.078v9.741A2.184,2.184,0,0,0,2.181,16M1.456,4.078A2.625,2.625,0,0,1,4.078,1.456h9.741a.725.725,0,0,1,0,1.45H4.078A1.173,1.173,0,0,0,2.906,4.078v9.741a.725.725,0,0,1-1.45,0Z"/>
    <path id="Trazado_132341" data-name="Trazado 132341" d="M47.906,8.688a.728.728,0,1,0-1.192.837,7.924,7.924,0,1,1-2.247-2.149.728.728,0,0,0,.782-1.229,9.349,9.349,0,0,0-1.827-.9V4.077A4.082,4.082,0,0,0,39.345,0H29.6a2.181,2.181,0,1,0,0,4.363h9.456v.394a9.375,9.375,0,0,0-5.748,2.963c-2.557-.774-5.449.631-6.806,1.433a8.594,8.594,0,0,0-4.531-3.478A11.574,11.574,0,0,0,11.05,7.041.728.728,0,0,0,11.9,8.223a10.132,10.132,0,0,1,9.561-1.185c2.07.78,3.708,2.164,3.985,3.367a.728.728,0,0,0,1.134.428,12.759,12.759,0,0,1,2.377-1.272,6.922,6.922,0,0,1,3.369-.569,9.377,9.377,0,0,0-.761,8.724l-2.483,2.307a13.719,13.719,0,0,1-2.9-4.494.729.729,0,0,0-1.2-.272A22.782,22.782,0,0,1,15.5,21.018a16.543,16.543,0,0,1-4.518.779h-.349a11.4,11.4,0,0,1-2.789-4.861,7.158,7.158,0,0,1,1.54-6.25c.065-.085.132-.169.2-.251a.728.728,0,1,0-1.132-.916c-.073.091-.147.184-.219.277a8.55,8.55,0,0,0-1.8,7.48,12.15,12.15,0,0,0,2.5,4.768,3.47,3.47,0,0,0-2.188,3.221v.1a4.842,4.842,0,0,0,3.8,4.74q.116.481.274.95A9.383,9.383,0,0,0,4.363,32.4V29.6A2.181,2.181,0,1,0,0,29.6v9.741c0,.132.008.259.02.384-.013.2-.02.4-.02.6a9.387,9.387,0,1,0,18.529-2.132A11,11,0,0,0,31.935,30.1a4.842,4.842,0,0,0,3.8-4.74v-.1a3.472,3.472,0,0,0-2.2-3.226q.334-.385.644-.782A9.384,9.384,0,0,0,47.906,8.688M29.6,2.905a.725.725,0,1,1,0-1.45h9.741a2.625,2.625,0,0,1,2.622,2.622v.772a9.418,9.418,0,0,0-1.45-.159V4.077a1.173,1.173,0,0,0-1.172-1.172Zm3.532,17.322A18.269,18.269,0,0,1,31.788,21.8h-.135a7.51,7.51,0,0,1-1.453-.823l2.065-1.919a9.492,9.492,0,0,0,.871,1.173M1.456,29.6a.725.725,0,1,1,1.45,0v3.939a9.454,9.454,0,0,0-1.45,1.768ZM9.387,48.257a7.93,7.93,0,1,1,7.93-7.93,7.94,7.94,0,0,1-7.93,7.93m24.9-22.993v.1a3.389,3.389,0,0,1-3.032,3.378.728.728,0,0,0-.638.588A9.541,9.541,0,0,1,17.954,36.49c-.04-.089-.082-.177-.125-.265l2.507-1.974a.728.728,0,0,0-.9-1.144l-2.352,1.852a9.43,9.43,0,0,0-4.526-3.468,9.452,9.452,0,0,1-.69-2.166.729.729,0,0,0-.638-.588A3.389,3.389,0,0,1,8.2,25.359v-.1a2.012,2.012,0,0,1,2.01-2.01h.758a17.734,17.734,0,0,0,4.893-.822,24.1,24.1,0,0,0,9.385-5.4,14.738,14.738,0,0,0,2.767,3.992L25.5,23.354a.728.728,0,1,0,.991,1.067l2.623-2.438A9.079,9.079,0,0,0,31.238,23.2a.732.732,0,0,0,.271.052h.763a2.012,2.012,0,0,1,2.011,2.01" transform="translate(0 0.001)"/>
    <path id="Trazado_132342" data-name="Trazado 132342" d="M95.109,32.571a.729.729,0,0,0,0,.9,9.619,9.619,0,0,0,15.329,0,.729.729,0,0,0,0-.9,9.619,9.619,0,0,0-15.329,0m10.468.453a2.8,2.8,0,1,1-2.8-2.8,2.806,2.806,0,0,1,2.8,2.8m-8.943,0a8.691,8.691,0,0,1,2.286-1.81,4.244,4.244,0,0,0,0,3.62,8.691,8.691,0,0,1-2.286-1.81m12.28,0a8.7,8.7,0,0,1-2.285,1.81,4.251,4.251,0,0,0,0-3.62,8.7,8.7,0,0,1,2.285,1.81" transform="translate(-62.557 -18.95)"/>
    <path id="Trazado_132343" data-name="Trazado 132343" d="M116.987,40.619a.728.728,0,0,0,.728-.728v-.049a.728.728,0,1,0-1.456,0v.049a.728.728,0,0,0,.728.728" transform="translate(-76.594 -25.769)"/>
    <path id="Trazado_132344" data-name="Trazado 132344" d="M15.009,106.718l-.826.588a.686.686,0,0,1-.8,0l-.826-.587a2.15,2.15,0,0,0-2.7.175l-2.771,2.573a1.307,1.307,0,0,0-.219,1.641l.556.894A5.117,5.117,0,0,0,11.8,114.43h3.828a.728.728,0,1,0,0-1.456H11.8a3.668,3.668,0,0,1-2.986-1.522h9.947a3.7,3.7,0,0,1-.582.632.728.728,0,1,0,.945,1.107A5.131,5.131,0,0,0,20.143,112l.555-.892a1.3,1.3,0,0,0-.219-1.644l-2.77-2.572a2.149,2.149,0,0,0-2.7-.176m-4.158,1.243a.688.688,0,0,1,.865-.056l.826.586a2.143,2.143,0,0,0,2.485,0l.827-.588a.687.687,0,0,1,.863.057L18.909,110H8.661Z" transform="translate(-4.398 -70.048)"/>
  </g>
</svg>
