<svg id="Grupo_157806" data-name="Grupo 157806" xmlns="http://www.w3.org/2000/svg" xmlns:xlink="http://www.w3.org/1999/xlink" width="50.66" height="47.23" viewBox="0 0 50.66 47.23">
  <defs>
    <clipPath id="clip-path">
      <rect id="Rectángulo_38591" data-name="Rectángulo 38591" width="50.66" height="47.23" fill="none"/>
    </clipPath>
  </defs>
  <g id="Grupo_157801" data-name="Grupo 157801">
    <g id="Grupo_157800" data-name="Grupo 157800" clip-path="url(#clip-path)">
      <path id="Trazado_132444" data-name="Trazado 132444" d="M27.631,72.712,16.88,69.562,4.274,72.712a2.14,2.14,0,0,0-2.14,2.14V80.11a2.14,2.14,0,0,0,2.14,2.14l12.245,3.475L27.631,82.25a2.141,2.141,0,0,0,2.14-2.14V74.852a2.14,2.14,0,0,0-2.14-2.14" transform="translate(-1.392 -45.377)" fill="#918291"/>
      <path id="Trazado_132445" data-name="Trazado 132445" d="M6.62,88.16H4.276a2.141,2.141,0,0,1-2.141-2.141V80.762a2.14,2.14,0,0,1,2.141-2.141H6.62a2.141,2.141,0,0,0-2.141,2.141v5.257A2.141,2.141,0,0,0,6.62,88.16" transform="translate(-1.393 -51.287)" fill="#685e68"/>
      <path id="Trazado_132446" data-name="Trazado 132446" d="M63.81,89.024a1.768,1.768,0,1,1-1.768-1.768,1.768,1.768,0,0,1,1.768,1.768" transform="translate(-39.319 -56.92)" fill="#fee97d"/>
      <path id="Trazado_132447" data-name="Trazado 132447" d="M27.631,106.057H4.274a2.14,2.14,0,0,0-2.14,2.14v5.257a2.14,2.14,0,0,0,2.14,2.141H27.631a2.141,2.141,0,0,0,2.14-2.141V108.2a2.14,2.14,0,0,0-2.14-2.14" transform="translate(-1.392 -69.184)" fill="#918291"/>
      <path id="Trazado_132448" data-name="Trazado 132448" d="M6.62,115.594H4.276a2.141,2.141,0,0,1-2.141-2.141V108.2a2.14,2.14,0,0,1,2.141-2.141H6.62A2.141,2.141,0,0,0,4.479,108.2v5.257a2.141,2.141,0,0,0,2.141,2.141" transform="translate(-1.393 -69.183)" fill="#685e68"/>
      <path id="Trazado_132449" data-name="Trazado 132449" d="M63.81,116.458a1.768,1.768,0,1,1-1.768-1.768,1.768,1.768,0,0,1,1.768,1.768" transform="translate(-39.319 -74.816)" fill="#fee97d"/>
      <path id="Trazado_132450" data-name="Trazado 132450" d="M27.631,51.189H4.274a2.14,2.14,0,0,0-2.14,2.14v5.257a2.14,2.14,0,0,0,2.14,2.141H27.631a2.141,2.141,0,0,0,2.14-2.141V53.329a2.141,2.141,0,0,0-2.14-2.14" transform="translate(-1.392 -33.392)" fill="#918291"/>
      <path id="Trazado_132451" data-name="Trazado 132451" d="M6.62,60.726H4.276a2.141,2.141,0,0,1-2.141-2.141V53.329a2.14,2.14,0,0,1,2.141-2.141H6.62a2.141,2.141,0,0,0-2.141,2.141v5.257A2.141,2.141,0,0,0,6.62,60.726" transform="translate(-1.393 -33.391)" fill="#685e68"/>
      <path id="Trazado_132452" data-name="Trazado 132452" d="M81.4,3.993l.29.879a2.691,2.691,0,0,0,2.554,1.846A2.69,2.69,0,0,1,86.9,8.98L89.142,22.84a7.453,7.453,0,0,1-2.808,7.091L76.517,37.5A2.883,2.883,0,0,1,73,37.5l-9.817-7.566a7.453,7.453,0,0,1-2.807-7.091L62.61,8.98a2.69,2.69,0,0,1,2.656-2.261,2.689,2.689,0,0,0,2.554-1.846l.29-.879a2.383,2.383,0,0,1,2.263-1.636H79.14A2.383,2.383,0,0,1,81.4,3.993" transform="translate(-39.319 -1.538)" fill="#86e8d0"/>
      <path id="Trazado_132453" data-name="Trazado 132453" d="M74.756,38.1a2.88,2.88,0,0,1-1.761-.6l-9.817-7.565a7.453,7.453,0,0,1-2.807-7.09L62.609,8.98a2.689,2.689,0,0,1,2.655-2.261,2.689,2.689,0,0,0,2.555-1.846l.29-.88a2.384,2.384,0,0,1,2.263-1.636h1.6c-.654,0-1.234.66-1.437,1.636l-.185.88a2.94,2.94,0,0,1-.622,1.337,1.348,1.348,0,0,1-1,.509c-.838,0-1.554.958-1.687,2.261L65.615,22.841a9.92,9.92,0,0,0,1.784,7.09L73.637,37.5a1.466,1.466,0,0,0,1.119.6" transform="translate(-39.319 -1.538)" fill="#5de1c4"/>
      <path id="Trazado_132454" data-name="Trazado 132454" d="M73.221,34.31a3.409,3.409,0,0,1-1.286-3.247L73.9,18.919a1.037,1.037,0,0,1,.754-.829,6.712,6.712,0,0,0,4.234-3.521,1.067,1.067,0,0,1,.959-.594h4.98a1.065,1.065,0,0,1,.959.594,6.713,6.713,0,0,0,4.234,3.521,1.038,1.038,0,0,1,.754.829l1.962,12.144a3.41,3.41,0,0,1-1.286,3.247l-8.459,6.519a1.071,1.071,0,0,1-1.308,0Z" transform="translate(-46.897 -9.116)" fill="#ebebeb"/>
      <path id="Trazado_132455" data-name="Trazado 132455" d="M83.12,40.728l-.13.1a1.075,1.075,0,0,1-1.309,0l-8.459-6.519a3.409,3.409,0,0,1-1.285-3.248L73.9,18.919a1.039,1.039,0,0,1,.755-.829,6.707,6.707,0,0,0,4.232-3.522,1.067,1.067,0,0,1,.959-.594h1.743a.953.953,0,0,0-.861.594,6.231,6.231,0,0,1-3.8,3.522,1,1,0,0,0-.678.829L74.483,31.063a3.61,3.61,0,0,0,1.156,3.248Z" transform="translate(-46.898 -9.116)" fill="#e2e2e2"/>
      <path id="Trazado_132456" data-name="Trazado 132456" d="M92.328,45.877a1.553,1.553,0,0,1-1.255-.639l-3.437-4.72a1.553,1.553,0,0,1,2.512-1.829l1.912,2.626,2.771-5.722a1.553,1.553,0,1,1,2.8,1.353L93.727,45a1.552,1.552,0,0,1-1.26.87c-.046,0-.093.006-.139.006" transform="translate(-56.973 -22.647)" fill="#86e8d0"/>
      <path id="Trazado_132457" data-name="Trazado 132457" d="M9.457,88.4H23.019a.742.742,0,1,0,0-1.484H9.457a.742.742,0,0,0,0,1.484" transform="translate(-5.685 -56.696)"/>
      <path id="Trazado_132458" data-name="Trazado 132458" d="M9.457,96.345H23.019a.742.742,0,1,0,0-1.484H9.457a.742.742,0,0,0,0,1.484" transform="translate(-5.685 -61.881)"/>
      <path id="Trazado_132459" data-name="Trazado 132459" d="M63.16,87.631a2.51,2.51,0,1,0-2.509,2.51,2.513,2.513,0,0,0,2.509-2.51m-3.535,0a1.026,1.026,0,1,1,1.026,1.026,1.027,1.027,0,0,1-1.026-1.026" transform="translate(-37.927 -55.527)"/>
      <path id="Trazado_132460" data-name="Trazado 132460" d="M23.019,114.349H9.456a.742.742,0,1,0,0,1.484H23.019a.742.742,0,0,0,0-1.484" transform="translate(-5.684 -74.593)"/>
      <path id="Trazado_132461" data-name="Trazado 132461" d="M23.019,122.295H9.456a.742.742,0,1,0,0,1.484H23.019a.742.742,0,0,0,0-1.484" transform="translate(-5.684 -79.777)"/>
      <path id="Trazado_132462" data-name="Trazado 132462" d="M63.16,115.065a2.51,2.51,0,1,0-2.509,2.51,2.513,2.513,0,0,0,2.509-2.51m-3.535,0a1.026,1.026,0,1,1,1.026,1.026,1.027,1.027,0,0,1-1.026-1.026" transform="translate(-37.927 -73.423)"/>
      <path id="Trazado_132463" data-name="Trazado 132463" d="M9.457,60.965H23.019a.742.742,0,1,0,0-1.484H9.457a.742.742,0,0,0,0,1.484" transform="translate(-5.685 -38.801)"/>
    </g>
  </g>
  <g id="Grupo_157803" data-name="Grupo 157803">
    <g id="Grupo_157802" data-name="Grupo 157802" clip-path="url(#clip-path)">
      <path id="Trazado_132464" data-name="Trazado 132464" d="M9.457,68.913H23.019a.742.742,0,1,0,0-1.484H9.457a.742.742,0,0,0,0,1.484" transform="translate(-5.685 -43.986)"/>
      <path id="Trazado_132465" data-name="Trazado 132465" d="M50.555,21.329,48.316,7.468a3.418,3.418,0,0,0-3.388-2.884,1.944,1.944,0,0,1-1.85-1.337l-.29-.879A3.12,3.12,0,0,0,39.821.222H31.053a3.12,3.12,0,0,0-2.968,2.146l-.29.879a1.943,1.943,0,0,1-1.849,1.337,3.418,3.418,0,0,0-3.388,2.884L20.986,17.2H2.883A2.886,2.886,0,0,0,0,20.082v5.257a2.876,2.876,0,0,0,.953,2.139,2.873,2.873,0,0,0-.933,1.809.742.742,0,0,0,.653.822.722.722,0,0,0,.086.005.742.742,0,0,0,.736-.657,1.4,1.4,0,0,1,1.389-1.236H22.414a8.309,8.309,0,0,0,.992.9l4.23,3.26v2.491a1.4,1.4,0,0,1-1.4,1.4H2.883a1.4,1.4,0,0,1-1.4-1.4V32.836a.742.742,0,1,0-1.484,0v2.041a2.878,2.878,0,0,0,.954,2.141A2.876,2.876,0,0,0,0,39.158v5.257A2.886,2.886,0,0,0,2.883,47.3H15.6a.742.742,0,0,0,0-1.484H2.883a1.4,1.4,0,0,1-1.4-1.4V39.158a1.4,1.4,0,0,1,1.4-1.4H26.238a1.4,1.4,0,0,1,1.4,1.4v5.257a1.4,1.4,0,0,1-1.4,1.4H19.066a.742.742,0,1,0,0,1.484h7.172a2.885,2.885,0,0,0,2.882-2.882V39.158a2.874,2.874,0,0,0-.954-2.14,2.877,2.877,0,0,0,.954-2.141V33.53l4.1,3.162a3.629,3.629,0,0,0,4.427,0l9.817-7.566a8.185,8.185,0,0,0,3.087-7.8M1.484,20.082a1.4,1.4,0,0,1,1.4-1.4H20.746l-.427,2.646a8.185,8.185,0,0,0,1,5.408H2.883a1.4,1.4,0,0,1-1.4-1.4ZM46.562,27.95l-9.817,7.566a2.143,2.143,0,0,1-2.616,0L24.312,27.95a6.7,6.7,0,0,1-2.528-6.384L24.023,7.705a1.939,1.939,0,0,1,1.922-1.637A3.426,3.426,0,0,0,29.2,3.712l.29-.879a1.638,1.638,0,0,1,1.558-1.127h8.768a1.638,1.638,0,0,1,1.558,1.127l.29.879a3.426,3.426,0,0,0,3.259,2.356,1.939,1.939,0,0,1,1.922,1.637L49.09,21.566a6.7,6.7,0,0,1-2.528,6.384" transform="translate(0 -0.145)"/>
    </g>
  </g>
  <g id="Grupo_157805" data-name="Grupo 157805">
    <g id="Grupo_157804" data-name="Grupo 157804" clip-path="url(#clip-path)">
      <path id="Trazado_132466" data-name="Trazado 132466" d="M91.475,25.857a.742.742,0,1,0-1.465.237l.6,3.694A2.67,2.67,0,0,1,89.6,32.331l-8.457,6.518a.329.329,0,0,1-.4,0l-8.459-6.518a2.669,2.669,0,0,1-1.007-2.542l1.962-12.143a.3.3,0,0,1,.219-.234,7.455,7.455,0,0,0,4.7-3.91.326.326,0,0,1,.292-.178h4.98a.324.324,0,0,1,.292.177,7.456,7.456,0,0,0,4.7,3.911.3.3,0,0,1,.22.232l.886,5.484A.742.742,0,0,0,91,22.892l-.886-5.483a1.785,1.785,0,0,0-1.288-1.426,5.971,5.971,0,0,1-3.766-3.132,1.817,1.817,0,0,0-1.626-1.01h-4.98a1.819,1.819,0,0,0-1.626,1.01,5.972,5.972,0,0,1-3.766,3.132,1.788,1.788,0,0,0-1.288,1.426L69.809,29.553a4.152,4.152,0,0,0,1.566,3.954l8.458,6.518a1.817,1.817,0,0,0,2.215,0l8.458-6.518a4.154,4.154,0,0,0,1.566-3.955Z" transform="translate(-45.504 -7.724)"/>
      <path id="Trazado_132467" data-name="Trazado 132467" d="M95,32.04a2.415,2.415,0,0,0-3.223,1.12L89.335,38.2l-1.328-1.824a2.412,2.412,0,0,0-3.9,2.84l3.7,5.075a2.419,2.419,0,0,0,1.95.992c.071,0,.144,0,.215-.009a2.425,2.425,0,0,0,1.956-1.352l4.193-8.659A2.413,2.413,0,0,0,95,32.04m-.216,2.576-4.193,8.659A.928.928,0,0,1,89,43.416l-3.7-5.074a.928.928,0,0,1,1.5-1.093l2.057,2.824a.742.742,0,0,0,1.268-.113l2.979-6.153a.93.93,0,0,1,1.24-.431.929.929,0,0,1,.431,1.24" transform="translate(-54.564 -20.743)"/>
    </g>
  </g>
</svg>
