<svg id="Grupo_157783" data-name="Grupo 157783" xmlns="http://www.w3.org/2000/svg" xmlns:xlink="http://www.w3.org/1999/xlink" width="61.353" height="61.353" viewBox="0 0 61.353 61.353">
  <defs>
    <clipPath id="clip-path">
      <rect id="Rectángulo_38580" data-name="Rectángulo 38580" width="61.353" height="61.353" fill="none"/>
    </clipPath>
  </defs>
  <g id="Grupo_157778" data-name="Grupo 157778">
    <g id="Grupo_157777" data-name="Grupo 157777" clip-path="url(#clip-path)">
      <path id="Trazado_132366" data-name="Trazado 132366" d="M54.074,17.24V58.084a2.568,2.568,0,0,1-2.568,2.568H4.883a2.568,2.568,0,0,1-2.568-2.568V17.24Z" transform="translate(-1.34 -9.981)" fill="#ebebeb"/>
      <path id="Trazado_132367" data-name="Trazado 132367" d="M9.551,60.652H4.883a2.567,2.567,0,0,1-2.568-2.568V17.24H6.983V58.085a2.567,2.567,0,0,0,2.568,2.568" transform="translate(-1.34 -9.981)" fill="#e2e2e2"/>
      <path id="Trazado_132368" data-name="Trazado 132368" d="M54.074,4.7V8.493H29.714a2.569,2.569,0,0,0-1.986.94L26.523,10.9a2.568,2.568,0,0,1-1.986.94H2.315V4.7A2.568,2.568,0,0,1,4.883,2.132H51.506A2.568,2.568,0,0,1,54.074,4.7" transform="translate(-1.34 -1.234)" fill="#01c0fa"/>
      <path id="Trazado_132369" data-name="Trazado 132369" d="M9.551,2.133A2.568,2.568,0,0,0,6.983,4.7v7.142H2.315V4.7A2.568,2.568,0,0,1,4.883,2.133Z" transform="translate(-1.34 -1.235)" fill="#08a9f1"/>
      <path id="Trazado_132370" data-name="Trazado 132370" d="M58.326,45.948A14.544,14.544,0,1,1,43.781,31.4,14.544,14.544,0,0,1,58.326,45.948" transform="translate(-16.927 -18.181)" fill="#01c0fa"/>
      <path id="Trazado_132371" data-name="Trazado 132371" d="M54.169,54.361l-8.641-.086-.458,0s-8.189-5.086-3.77-10.805a7.586,7.586,0,0,1,8.876-2.719c1.682.615,2.917,1.718,3.148,2.719,0,0,3.981-2.861,6.137-.4,3.026,3.455-1.158,9.322-5.293,11.3" transform="translate(-23.153 -23.31)" fill="#7a6d79"/>
      <path id="Trazado_132372" data-name="Trazado 132372" d="M46.745,51.2l-1.216,3.072-.458,0s-8.189-5.086-3.77-10.8a7.586,7.586,0,0,1,8.876-2.72c-1.7.344-5.368,1.424-5.667,4.41A7.158,7.158,0,0,0,46.745,51.2" transform="translate(-23.154 -23.31)" fill="#685e68"/>
      <path id="Trazado_132373" data-name="Trazado 132373" d="M59.985,63.556v.066a2.861,2.861,0,0,1-2.553,2.843,7.119,7.119,0,0,1-13.985,0A2.86,2.86,0,0,1,40.9,63.622v-.066a1.9,1.9,0,0,1,1.9-1.9h.529a12.432,12.432,0,0,0,3.945-.778,16.3,16.3,0,0,0,6.126-3.9s1.245,3.512,4.165,4.681h.529a1.9,1.9,0,0,1,1.9,1.9" transform="translate(-23.676 -32.987)" fill="#ffcebf"/>
      <path id="Trazado_132374" data-name="Trazado 132374" d="M51.628,77.515a7.123,7.123,0,0,1-8.181-5.682A2.86,2.86,0,0,1,40.9,68.989v-.066a1.9,1.9,0,0,1,1.9-1.9h.528a12.433,12.433,0,0,0,3.945-.778v5.972a5.4,5.4,0,0,0,4.361,5.3" transform="translate(-23.676 -38.354)" fill="#ffb09e"/>
      <path id="Trazado_132375" data-name="Trazado 132375" d="M109.414,84.218l.207.627a1.917,1.917,0,0,0,1.821,1.316,1.918,1.918,0,0,1,1.893,1.613l1.6,9.884a5.314,5.314,0,0,1-2,5.057l-7,5.4a2.058,2.058,0,0,1-2.511,0l-7-5.4a5.313,5.313,0,0,1-2-5.057l1.6-9.884A1.919,1.919,0,0,1,97.9,86.162a1.917,1.917,0,0,0,1.821-1.316l.207-.627a1.7,1.7,0,0,1,1.614-1.166H107.8a1.7,1.7,0,0,1,1.614,1.166" transform="translate(-54.622 -48.083)" fill="#86e8d0"/>
      <path id="Trazado_132376" data-name="Trazado 132376" d="M104.673,108.538a2.053,2.053,0,0,1-1.256-.427l-7-5.395a5.313,5.313,0,0,1-2-5.057l1.6-9.885A1.918,1.918,0,0,1,97.9,86.162a1.916,1.916,0,0,0,1.822-1.317l.207-.627a1.7,1.7,0,0,1,1.614-1.166h1.14c-.467,0-.88.47-1.025,1.166l-.132.627a2.109,2.109,0,0,1-.443.954.962.962,0,0,1-.715.363c-.6,0-1.108.683-1.2,1.612l-1.015,9.885a7.076,7.076,0,0,0,1.272,5.057l4.448,5.395a1.046,1.046,0,0,0,.8.427" transform="translate(-54.622 -48.083)" fill="#5de1c4"/>
      <path id="Trazado_132377" data-name="Trazado 132377" d="M110.3,110.578a1.8,1.8,0,0,1-1.452-.739l-3.974-5.457a1.8,1.8,0,0,1,2.9-2.115l2.212,3.037,3.2-6.616a1.8,1.8,0,0,1,3.233,1.566l-4.509,9.312a1.8,1.8,0,0,1-1.457,1.006q-.081.008-.16.008" transform="translate(-60.519 -56.548)" fill="#86e8d0"/>
      <path id="Trazado_132378" data-name="Trazado 132378" d="M110.3,110.578a1.8,1.8,0,0,1-1.452-.739l-3.974-5.457a1.8,1.8,0,0,1,2.9-2.115l2.212,3.037,3.2-6.616a1.8,1.8,0,0,1,3.233,1.566l-4.509,9.312a1.8,1.8,0,0,1-1.457,1.006q-.081.008-.16.008" transform="translate(-60.519 -56.548)" fill="#ebebeb"/>
      <path id="Trazado_132379" data-name="Trazado 132379" d="M10.933,11.529a.9.9,0,0,0,0,1.8H13.91a.9.9,0,1,0,0-1.8Z" transform="translate(-5.809 -6.675)"/>
      <path id="Trazado_132380" data-name="Trazado 132380" d="M30.015,9.292a.9.9,0,0,0-1.271,0l-.417.418-.417-.418a.9.9,0,1,0-1.271,1.271l.418.417-.418.417a.9.9,0,1,0,1.271,1.271l.417-.417.417.417A.9.9,0,1,0,30.016,11.4l-.418-.417.418-.417a.9.9,0,0,0,0-1.271" transform="translate(-15.27 -5.228)"/>
      <path id="Trazado_132381" data-name="Trazado 132381" d="M58.841,70.244V69.15a.9.9,0,0,0-1.8,0v1.094a.9.9,0,0,0,1.8,0" transform="translate(-33.026 -39.514)"/>
      <path id="Trazado_132382" data-name="Trazado 132382" d="M66.716,68.251a.9.9,0,0,0-.9.9v1.094a.9.9,0,1,0,1.8,0V69.15a.9.9,0,0,0-.9-.9" transform="translate(-38.105 -39.514)"/>
      <path id="Trazado_132383" data-name="Trazado 132383" d="M61.975,79.8a4.174,4.174,0,0,1-1.694,0,.9.9,0,1,0-.365,1.76,5.928,5.928,0,0,0,2.422,0,.9.9,0,0,0-.364-1.76" transform="translate(-34.274 -46.192)"/>
      <path id="Trazado_132384" data-name="Trazado 132384" d="M38.241,52.638V52.7a3.751,3.751,0,0,0,2.706,3.61,8.019,8.019,0,0,0,15.475,0,3.752,3.752,0,0,0,2.706-3.61v-.066a2.8,2.8,0,0,0-1.3-2.362,11.038,11.038,0,0,0,2.061-3.8,5.372,5.372,0,0,0-.983-5.246c-.793-.9-2.274-1.81-4.829-.986a9.721,9.721,0,0,0-1.608.7A7.34,7.34,0,0,0,48.1,38.327a8.47,8.47,0,0,0-8.744,3.349c-2.063,2.669-1.98,5.683.192,8.6a2.8,2.8,0,0,0-1.309,2.366m19.09.066a1.956,1.956,0,0,1-1.75,1.95.9.9,0,0,0-.788.725,6.22,6.22,0,0,1-12.218,0,.9.9,0,0,0-.787-.725,1.956,1.956,0,0,1-1.749-1.95v-.066a1,1,0,0,1,1-1h.522a15.674,15.674,0,0,0,9.782-4.074,8.626,8.626,0,0,0,4.126,4.01.9.9,0,0,0,.334.064h.529a1,1,0,0,1,1,1ZM40.78,42.774a6.753,6.753,0,0,1,9.406-1.606,2.593,2.593,0,0,1,1.031,1.258.9.9,0,0,0,1.4.528,8.374,8.374,0,0,1,2.011-1c1.325-.426,2.281-.276,2.926.46,1.276,1.456,1.222,4.275-1.677,7.373a7.951,7.951,0,0,1-3.392-4.031A.9.9,0,0,0,51,45.423a14.4,14.4,0,0,1-9.415,4.418h-.076c-2.186-2.489-2.433-4.865-.731-7.067" transform="translate(-21.922 -22.069)"/>
      <path id="Trazado_132385" data-name="Trazado 132385" d="M42.546,29.269a15.442,15.442,0,0,0-11.561,25.68.9.9,0,0,0,1.345-1.192,13.628,13.628,0,1,1,2.778,2.4.9.9,0,1,0-.982,1.506,15.443,15.443,0,1,0,8.419-28.391" transform="translate(-15.691 -16.945)"/>
    </g>
  </g>
  <g id="Grupo_157780" data-name="Grupo 157780">
    <g id="Grupo_157779" data-name="Grupo 157779" clip-path="url(#clip-path)">
      <path id="Trazado_132386" data-name="Trazado 132386" d="M59,107.91H40.089a.9.9,0,1,0,0,1.8H59a.9.9,0,0,0,0-1.8" transform="translate(-22.689 -62.475)"/>
      <path id="Trazado_132387" data-name="Trazado 132387" d="M61.3,49.432l-1.6-9.883a2.815,2.815,0,0,0-2.781-2.37,1.017,1.017,0,0,1-.968-.7l-.207-.627a2.592,2.592,0,0,0-2.011-1.741V3.466A3.471,3.471,0,0,0,50.27,0H40.607a.9.9,0,0,0,0,1.8H50.27a1.672,1.672,0,0,1,1.669,1.669V6.359H28.479A3.455,3.455,0,0,0,25.8,7.628L24.593,9.1a1.663,1.663,0,0,1-1.291.61H1.978V3.466A1.672,1.672,0,0,1,3.648,1.8H36.413a.9.9,0,1,0,0-1.8H3.648A3.471,3.471,0,0,0,.181,3.466V48.1a3.47,3.47,0,0,0,3.467,3.466H39.037a6.2,6.2,0,0,0,2.314,3.773l7,5.4a2.963,2.963,0,0,0,3.608,0l2.3-1.774a.9.9,0,0,0-1.1-1.424l-2.3,1.774a1.164,1.164,0,0,1-1.415,0l-7-5.4a4.411,4.411,0,0,1-1.664-4.2l1.6-9.884a1.015,1.015,0,0,1,1.006-.858,2.817,2.817,0,0,0,2.675-1.935l.206-.626a.8.8,0,0,1,.76-.549h6.253a.8.8,0,0,1,.76.549l.208.625a2.809,2.809,0,0,0,2.675,1.935,1.027,1.027,0,0,1,.661.244,1.012,1.012,0,0,1,.344.613l1.6,9.885a4.407,4.407,0,0,1-1.664,4.2l-1.382,1.067a.9.9,0,1,0,1.1,1.424l1.382-1.067a6.2,6.2,0,0,0,2.34-5.911M44.562,35.854l-.206.626a1.02,1.02,0,0,1-.968.7,2.805,2.805,0,0,0-2.781,2.369l-1.6,9.884c-.018.113-.032.226-.044.34H3.648A1.671,1.671,0,0,1,1.978,48.1v-36.6H23.3a3.451,3.451,0,0,0,2.68-1.268l1.206-1.469a1.66,1.66,0,0,1,1.29-.612H51.94V34.069H47.029a2.594,2.594,0,0,0-2.468,1.784" transform="translate(-0.105 0.001)"/>
    </g>
  </g>
  <g id="Grupo_157782" data-name="Grupo 157782">
    <g id="Grupo_157781" data-name="Grupo 157781" clip-path="url(#clip-path)">
      <path id="Trazado_132388" data-name="Trazado 132388" d="M116.121,97.35a2.695,2.695,0,0,0-4.971-.29l-2.551,5.268L107.27,100.5a2.695,2.695,0,1,0-4.357,3.173l3.974,5.457a2.7,2.7,0,0,0,2.178,1.109c.08,0,.161,0,.24-.011a2.71,2.71,0,0,0,2.186-1.51L116,99.41a2.678,2.678,0,0,0,.12-2.06m-1.738,1.276-4.509,9.312a.9.9,0,0,1-1.533.137l-3.974-5.457a.9.9,0,0,1,.723-1.427.937.937,0,0,1,.141.011.894.894,0,0,1,.586.358l2.212,3.036a.9.9,0,0,0,1.535-.137l3.2-6.616a.9.9,0,1,1,1.615.782" transform="translate(-59.283 -55.313)"/>
    </g>
  </g>
</svg>
