<svg xmlns="http://www.w3.org/2000/svg" xmlns:xlink="http://www.w3.org/1999/xlink" width="821" height="244" viewBox="0 0 821 244">
  <defs>
    <clipPath id="clip-path">
      <rect id="WEB-AdobeStock_425318986" width="505" height="159" rx="6" transform="translate(177 2051)" fill="#1169e3"/>
    </clipPath>
  </defs>
  <g id="Grupo_158033" data-name="Grupo 158033" transform="translate(-179 -1810)">
    <path id="Trazado_132732" data-name="Trazado 132732" d="M0,0H820V244H0Z" transform="translate(180 1810)" fill="#fff"/>
    <path id="Trazado_128978" data-name="Trazado 128978" d="M2996.033,268.315a4.1,4.1,0,0,1,2.265,1.154l0,0a4.1,4.1,0,0,1,0,5.806v0a4.109,4.109,0,1,1-5.811-5.811h0a4.1,4.1,0,0,1,2.264-1.154v-2.288a.678.678,0,0,1,.025-.179.639.639,0,0,1,1.251.179Zm-234.5-77.967a.639.639,0,0,0,.178-1.251.671.671,0,0,0-.178-.025h-2.553a.639.639,0,0,0-.179,1.251.687.687,0,0,0,.179.025Zm-8.935,0a.639.639,0,0,0,.179-1.251.674.674,0,0,0-.179-.025h-2.553a.639.639,0,0,0-.178,1.251.682.682,0,0,0,.178.025Zm80.416,0a.639.639,0,0,0,.179-1.251.673.673,0,0,0-.179-.025h-2.553a.639.639,0,0,0-.178,1.251.684.684,0,0,0,.178.025Zm-8.935,0a.639.639,0,0,0,.178-1.251.671.671,0,0,0-.178-.025h-2.553a.639.639,0,0,0-.179,1.251.687.687,0,0,0,.179.025Zm-8.935,0a.639.639,0,0,0,.178-1.251.671.671,0,0,0-.178-.025h-2.553a.639.639,0,0,0-.178,1.251.685.685,0,0,0,.178.025Zm-8.935,0a.639.639,0,0,0,.178-1.251.674.674,0,0,0-.178-.025h-2.553a.639.639,0,0,0-.178,1.251.685.685,0,0,0,.178.025Zm-8.935,0a.639.639,0,0,0,.179-1.251.674.674,0,0,0-.179-.025h-2.553a.639.639,0,0,0-.178,1.251.685.685,0,0,0,.178.025Zm-8.935,0a.639.639,0,0,0,.178-1.251.672.672,0,0,0-.178-.025h-2.553a.639.639,0,0,0-.178,1.251.685.685,0,0,0,.178.025Zm-8.935,0a.639.639,0,0,0,.178-1.251.674.674,0,0,0-.178-.025h-2.553a.639.639,0,0,0-.178,1.251.687.687,0,0,0,.178.025Zm-8.935,0a.639.639,0,0,0,.178-1.251.67.67,0,0,0-.178-.025h-2.553a.639.639,0,0,0-.178,1.251.687.687,0,0,0,.178.025Zm224.285,69.3a.639.639,0,0,0,1.251.178.668.668,0,0,0,.025-.178v-2.553a.639.639,0,0,0-1.251-.178.678.678,0,0,0-.025.178Zm0-8.935a.639.639,0,0,0,1.251.179.669.669,0,0,0,.025-.179v-2.553a.639.639,0,0,0-1.251-.178.678.678,0,0,0-.025.178Zm0-8.935a.639.639,0,0,0,1.251.178.668.668,0,0,0,.025-.178v-2.553a.639.639,0,0,0-1.251-.179.679.679,0,0,0-.025.179Zm0-8.935a.639.639,0,0,0,1.251.178.668.668,0,0,0,.025-.178v-2.553a.639.639,0,0,0-1.251-.178.679.679,0,0,0-.025.178Zm0-8.935a.639.639,0,0,0,1.251.179.668.668,0,0,0,.025-.179v-2.553a.639.639,0,0,0-1.251-.178.678.678,0,0,0-.025.178Zm0-8.935a.639.639,0,0,0,1.251.179.67.67,0,0,0,.025-.179v-2.553a.639.639,0,0,0-1.251-.178.678.678,0,0,0-.025.178Zm0-8.935a.639.639,0,0,0,1.251.179.669.669,0,0,0,.025-.179v-2.553a.639.639,0,0,0-1.251-.178.678.678,0,0,0-.025.178Zm0-8.935a.639.639,0,0,0,1.251.178.668.668,0,0,0,.025-.178v-2.553a.639.639,0,0,0-1.251-.179.681.681,0,0,0-.025.179Zm-.908-6.751a.639.639,0,0,0,.179-1.251.674.674,0,0,0-.179-.025H2991.3a.639.639,0,0,0-.179,1.251.686.686,0,0,0,.179.025Zm-8.935,0a.639.639,0,0,0,.179-1.251.673.673,0,0,0-.179-.025h-2.553a.639.639,0,0,0-.178,1.251.687.687,0,0,0,.178.025Zm-8.935,0a.639.639,0,0,0,.178-1.251.672.672,0,0,0-.178-.025h-2.553a.639.639,0,0,0-.179,1.251.686.686,0,0,0,.179.025Zm-8.935,0a.639.639,0,0,0,.178-1.251.672.672,0,0,0-.178-.025h-2.553a.639.639,0,0,0-.178,1.251.684.684,0,0,0,.178.025Zm-8.935,0a.639.639,0,0,0,.178-1.251.67.67,0,0,0-.178-.025h-2.553a.639.639,0,0,0-.178,1.251.684.684,0,0,0,.178.025Zm-8.935,0a.639.639,0,0,0,.178-1.251.671.671,0,0,0-.178-.025h-2.553a.639.639,0,0,0-.178,1.251.682.682,0,0,0,.178.025Zm-8.935,0a.639.639,0,0,0,.179-1.251.674.674,0,0,0-.179-.025h-2.553a.639.639,0,0,0-.178,1.251.687.687,0,0,0,.178.025Zm-8.935,0a.639.639,0,0,0,.179-1.251.674.674,0,0,0-.179-.025h-2.553a.639.639,0,0,0-.178,1.251.685.685,0,0,0,.178.025Zm-8.935,0a.639.639,0,0,0,.178-1.251.671.671,0,0,0-.178-.025h-2.553a.639.639,0,0,0-.178,1.251.684.684,0,0,0,.178.025Zm-8.935,0a.639.639,0,0,0,.179-1.251.674.674,0,0,0-.179-.025h-2.553a.639.639,0,0,0-.178,1.251.685.685,0,0,0,.178.025Zm-8.935,0a.639.639,0,0,0,.178-1.251.671.671,0,0,0-.178-.025h-2.553a.639.639,0,0,0-.178,1.251.684.684,0,0,0,.178.025Zm-8.935,0a.639.639,0,0,0,.178-1.251.669.669,0,0,0-.178-.025h-2.553a.639.639,0,0,0-.178,1.251.687.687,0,0,0,.178.025Zm-8.935,0a.639.639,0,0,0,.178-1.251.67.67,0,0,0-.178-.025h-2.553a.639.639,0,0,0-.178,1.251.685.685,0,0,0,.178.025Zm-8.935,0a.639.639,0,0,0,.178-1.251.669.669,0,0,0-.178-.025h-2.553a.639.639,0,0,0-.178,1.251.685.685,0,0,0,.178.025Zm-8.935,0a.639.639,0,0,0,.178-1.251.672.672,0,0,0-.178-.025H2866.2a.639.639,0,0,0-.179,1.251.687.687,0,0,0,.179.025Zm-8.935,0A.639.639,0,0,0,2860,189.1a.672.672,0,0,0-.178-.025h-2.553a.639.639,0,0,0-.179,1.251.689.689,0,0,0,.179.025Zm-8.935,0a.639.639,0,0,0,.178-1.251.672.672,0,0,0-.178-.025h-2.553a.639.639,0,0,0-.179,1.251.684.684,0,0,0,.179.025Zm-8.935,0a.639.639,0,0,0,.178-1.251.669.669,0,0,0-.178-.025H2839.4a.639.639,0,0,0-.178,1.251.685.685,0,0,0,.178.025ZM2997.4,270.371a2.837,2.837,0,1,0,.828,2,2.827,2.827,0,0,0-.828-2" transform="translate(-2084.707 1670.098)" fill="#3a525e" fill-rule="evenodd"/>
    <path id="Trazado_128979" data-name="Trazado 128979" d="M196.444,268.315a4.1,4.1,0,0,0-2.265,1.154l0,0a4.1,4.1,0,0,0,0,5.806v0a4.109,4.109,0,1,0,5.811-5.811h0a4.1,4.1,0,0,0-2.265-1.154v-2.288a.678.678,0,0,0-.025-.179.639.639,0,0,0-1.251.179Zm245.985-77.967a.639.639,0,0,0,.178-1.251.671.671,0,0,0-.178-.025h-2.553a.639.639,0,0,0-.178,1.251.684.684,0,0,0,.178.025Zm-8.935,0a.639.639,0,0,0,.178-1.251.673.673,0,0,0-.178-.025h-2.553a.639.639,0,0,0-.178,1.251.685.685,0,0,0,.178.025Zm-8.935,0a.639.639,0,0,0,.179-1.251.671.671,0,0,0-.179-.025h-2.553a.639.639,0,0,0-.178,1.251.684.684,0,0,0,.178.025Zm-8.935,0a.639.639,0,0,0,.179-1.251.673.673,0,0,0-.179-.025h-2.553a.639.639,0,0,0-.179,1.251.686.686,0,0,0,.179.025Zm-8.935,0a.639.639,0,0,0,.178-1.251.671.671,0,0,0-.178-.025h-2.553a.639.639,0,0,0-.179,1.251.685.685,0,0,0,.179.025Zm-8.935,0a.639.639,0,0,0,.179-1.251.673.673,0,0,0-.179-.025H395.2a.639.639,0,0,0-.178,1.251.685.685,0,0,0,.178.025Zm-8.935,0A.639.639,0,0,0,389,189.1a.672.672,0,0,0-.179-.025h-2.553a.639.639,0,0,0-.179,1.251.687.687,0,0,0,.179.025Zm-8.935,0a.639.639,0,0,0,.179-1.251.673.673,0,0,0-.179-.025H377.33a.639.639,0,0,0-.179,1.251.686.686,0,0,0,.179.025Zm-8.935,0a.639.639,0,0,0,.178-1.251.671.671,0,0,0-.178-.025H368.4a.639.639,0,0,0-.179,1.251.686.686,0,0,0,.179.025Zm-8.935,0a.639.639,0,0,0,.178-1.251.671.671,0,0,0-.178-.025H359.46a.639.639,0,0,0-.178,1.251.684.684,0,0,0,.178.025Zm-164.293,69.3a.639.639,0,0,1-1.251.178.677.677,0,0,1-.025-.178v-2.553a.639.639,0,0,1,1.251-.178.678.678,0,0,1,.025.178Zm0-8.935a.639.639,0,0,1-1.251.179.678.678,0,0,1-.025-.179v-2.553a.639.639,0,0,1,1.251-.178.678.678,0,0,1,.025.178Zm0-8.935a.639.639,0,0,1-1.251.178.677.677,0,0,1-.025-.178v-2.553a.639.639,0,0,1,1.251-.179.679.679,0,0,1,.025.179Zm0-8.935a.639.639,0,0,1-1.251.178.677.677,0,0,1-.025-.178v-2.553a.639.639,0,0,1,1.251-.178.679.679,0,0,1,.025.178Zm0-8.935a.639.639,0,0,1-1.251.179.678.678,0,0,1-.025-.179v-2.553a.639.639,0,0,1,1.251-.178.678.678,0,0,1,.025.178Zm0-8.935a.639.639,0,0,1-1.251.179.679.679,0,0,1-.025-.179v-2.553a.639.639,0,0,1,1.251-.178.678.678,0,0,1,.025.178Zm0-8.935a.639.639,0,0,1-1.251.179.679.679,0,0,1-.025-.179v-2.553a.639.639,0,0,1,1.251-.178.678.678,0,0,1,.025.178Zm0-8.935a.639.639,0,0,1-1.251.178.677.677,0,0,1-.025-.178v-2.553a.639.639,0,0,1,1.251-.179.681.681,0,0,1,.025.179Zm.908-6.751a.639.639,0,0,1-.178-1.251.671.671,0,0,1,.178-.025h2.553a.639.639,0,0,1,.179,1.251.685.685,0,0,1-.179.025Zm8.935,0a.639.639,0,0,1-.178-1.251.671.671,0,0,1,.178-.025h2.553a.639.639,0,0,1,.178,1.251.684.684,0,0,1-.178.025Zm8.935,0a.639.639,0,0,1-.179-1.251.671.671,0,0,1,.179-.025h2.553a.639.639,0,0,1,.178,1.251.684.684,0,0,1-.178.025Zm8.935,0a.639.639,0,0,1-.178-1.251.671.671,0,0,1,.178-.025h2.553a.639.639,0,0,1,.179,1.251.686.686,0,0,1-.179.025Zm8.935,0a.639.639,0,0,1-.179-1.251.673.673,0,0,1,.179-.025h2.553a.639.639,0,0,1,.179,1.251.686.686,0,0,1-.179.025Zm8.935,0a.639.639,0,0,1-.178-1.251.671.671,0,0,1,.178-.025h2.553a.639.639,0,0,1,.178,1.251.684.684,0,0,1-.178.025Zm8.935,0a.639.639,0,0,1-.179-1.251.672.672,0,0,1,.179-.025h2.553a.639.639,0,0,1,.178,1.251.684.684,0,0,1-.178.025Zm8.935,0A.639.639,0,0,1,261,189.1a.673.673,0,0,1,.179-.025h2.553a.639.639,0,0,1,.179,1.251.686.686,0,0,1-.179.025Zm8.935,0a.639.639,0,0,1-.178-1.251.671.671,0,0,1,.178-.025h2.553a.639.639,0,0,1,.179,1.251.685.685,0,0,1-.179.025Zm8.935,0a.639.639,0,0,1-.179-1.251.672.672,0,0,1,.179-.025H281.6a.639.639,0,0,1,.178,1.251.684.684,0,0,1-.178.025Zm8.935,0a.639.639,0,0,1-.179-1.251.672.672,0,0,1,.179-.025h2.553a.639.639,0,0,1,.178,1.251.684.684,0,0,1-.178.025Zm8.935,0a.639.639,0,0,1-.179-1.251.673.673,0,0,1,.179-.025h2.553a.639.639,0,0,1,.179,1.251.686.686,0,0,1-.179.025Zm8.935,0a.639.639,0,0,1-.178-1.251.671.671,0,0,1,.178-.025H308.4a.639.639,0,0,1,.179,1.251.687.687,0,0,1-.179.025Zm8.935,0a.639.639,0,0,1-.178-1.251.671.671,0,0,1,.178-.025h2.553a.639.639,0,0,1,.178,1.251.684.684,0,0,1-.178.025Zm8.935,0a.639.639,0,0,1-.178-1.251.672.672,0,0,1,.178-.025h2.553a.639.639,0,0,1,.178,1.251.684.684,0,0,1-.178.025Zm8.935,0a.639.639,0,0,1-.179-1.251.673.673,0,0,1,.179-.025h2.553a.639.639,0,0,1,.178,1.251.685.685,0,0,1-.178.025Zm8.935,0a.639.639,0,0,1-.178-1.251.671.671,0,0,1,.178-.025h2.553a.639.639,0,0,1,.179,1.251.686.686,0,0,1-.179.025Zm8.935,0a.639.639,0,0,1-.178-1.251.671.671,0,0,1,.178-.025h2.553a.639.639,0,0,1,.178,1.251.685.685,0,0,1-.178.025ZM195.078,270.371a2.836,2.836,0,1,1-.828,2,2.827,2.827,0,0,1,.828-2" transform="translate(63.818 1670.098)" fill="#3a525e" fill-rule="evenodd"/>
    <path id="Trazado_128980" data-name="Trazado 128980" d="M1869.761,70.413h-16.947l-18.442-29.669-6.312,4.52V70.413h-14.925V0h14.925V32.213l5.884-8.284L1853,0h16.568l-24.541,31.165Zm23.784-37.279h4.915q6.9,0,10.306-2.729,3.427-2.712,3.419-7.923,0-5.251-2.86-7.758-2.86-2.49-8.991-2.5h-6.788Zm33.712-11.177q0,11.366-7.1,17.39t-20.2,6.016h-6.41v25.05h-14.925V0h22.486Q1913.927,0,1920.6,5.5q6.657,5.523,6.657,16.453M1940.555,0h14.925V70.413h-14.925Z" transform="translate(-1297.826 1829.003)" fill="#3a525e" fill-rule="evenodd"/>
    <path id="Trazado_128987" data-name="Trazado 128987" d="M1826.619,526.944a4.1,4.1,0,0,1,2.28,1.157l0,0a4.1,4.1,0,0,1,0,5.806v0a4.109,4.109,0,1,1-5.811-5.811h0a4.1,4.1,0,0,1,2.282-1.157.616.616,0,0,1-.017-.144v-2.553a.639.639,0,0,1,1.251-.179.679.679,0,0,1,.025.179V526.8a.685.685,0,0,1-.015.145m-1.261-29.5a.639.639,0,0,1,1.251-.179.678.678,0,0,1,.025.179v2.553a.639.639,0,0,1-1.251.178.678.678,0,0,1-.025-.178Zm0,8.935a.639.639,0,0,1,1.251-.178.678.678,0,0,1,.025.178v2.553a.639.639,0,0,1-1.251.179.679.679,0,0,1-.025-.179Zm0,8.935a.639.639,0,0,1,1.251-.179.68.68,0,0,1,.025.179v2.553a.639.639,0,0,1-1.251.179.68.68,0,0,1-.025-.179ZM1828,529a2.836,2.836,0,1,0,.828,2,2.827,2.827,0,0,0-.828-2" transform="translate(-1305.18 1411.467)" fill="#3a525e" fill-rule="evenodd"/>
    <path id="Trazado_128988" data-name="Trazado 128988" d="M2641.075,526.944a4.1,4.1,0,0,1,2.28,1.157l0,0a4.1,4.1,0,0,1,0,5.806v0a4.109,4.109,0,1,1-5.811-5.811h0a4.1,4.1,0,0,1,2.282-1.157.615.615,0,0,1-.017-.144v-2.553a.639.639,0,0,1,1.251-.179.689.689,0,0,1,.025.179V526.8a.7.7,0,0,1-.015.145m-1.262-29.5a.639.639,0,0,1,1.251-.179.688.688,0,0,1,.025.179v2.553a.639.639,0,0,1-1.251.178.668.668,0,0,1-.025-.178Zm0,8.935a.639.639,0,0,1,1.251-.178.688.688,0,0,1,.025.178v2.553a.639.639,0,0,1-1.251.179.669.669,0,0,1-.025-.179Zm0,8.935a.639.639,0,0,1,1.251-.179.69.69,0,0,1,.025.179v2.553a.639.639,0,0,1-1.251.179.67.67,0,0,1-.025-.179Zm2.643,13.69a2.837,2.837,0,1,0,.828,2,2.827,2.827,0,0,0-.828-2" transform="translate(-1989.678 1411.467)" fill="#3a525e" fill-rule="evenodd"/>
    <path id="Trazado_128989" data-name="Trazado 128989" d="M2866.076,327.637a.639.639,0,0,0-1.251-.178.688.688,0,0,0-.025.178v2.553a.639.639,0,0,0,1.251.178.668.668,0,0,0,.025-.178ZM2761.536,317.3a.639.639,0,0,0,.179-1.251.681.681,0,0,0-.179-.025h-2.553a.639.639,0,0,0-.178,1.251.679.679,0,0,0,.178.025Zm-8.935,0a.639.639,0,0,0,.178-1.251.679.679,0,0,0-.178-.025h-2.553a.639.639,0,0,0-.178,1.251.678.678,0,0,0,.178.025Zm113.475,19.27a.639.639,0,0,0-1.251-.178.689.689,0,0,0-.025.178v2.553a.639.639,0,0,0,1.251.179.668.668,0,0,0,.025-.179Zm-1.262,38.438a4.1,4.1,0,0,0-2.28,1.157l0,0a4.1,4.1,0,0,0,0,5.806v0a4.109,4.109,0,1,0,5.811-5.811h0a4.1,4.1,0,0,0-2.282-1.157.617.617,0,0,0,.017-.144v-2.553a.639.639,0,0,0-1.251-.178.689.689,0,0,0-.025.178v2.553a.686.686,0,0,0,.015.145m1.262-20.567a.639.639,0,0,0-1.251-.179.691.691,0,0,0-.025.179v2.553a.639.639,0,0,0,1.251.179.67.67,0,0,0,.025-.179Zm0-8.935a.639.639,0,0,0-1.251-.179.688.688,0,0,0-.025.179v2.553a.639.639,0,0,0,1.251.178.668.668,0,0,0,.025-.178Zm0,17.87a.639.639,0,0,0-1.251-.179.69.69,0,0,0-.025.179v2.553a.639.639,0,0,0,1.251.178.669.669,0,0,0,.025-.178ZM2841.952,317.3a.639.639,0,0,0,.178-1.251.676.676,0,0,0-.178-.025H2839.4a.639.639,0,0,0-.179,1.251.678.678,0,0,0,.179.025Zm-74.034,0a.639.639,0,0,1-.178-1.251.676.676,0,0,1,.178-.025h2.553a.639.639,0,0,1,.178,1.251.68.68,0,0,1-.178.025Zm8.935,0a.639.639,0,0,1-.178-1.251.677.677,0,0,1,.178-.025h2.553a.639.639,0,0,1,.178,1.251.679.679,0,0,1-.178.025Zm8.935,0a.639.639,0,0,1-.178-1.251.677.677,0,0,1,.178-.025h2.553a.639.639,0,0,1,.178,1.251.679.679,0,0,1-.178.025Zm8.935,0a.639.639,0,0,1-.178-1.251.68.68,0,0,1,.178-.025h2.553a.639.639,0,0,1,.178,1.251.677.677,0,0,1-.178.025Zm8.936,0a.639.639,0,0,1-.179-1.251.681.681,0,0,1,.179-.025h2.552a.639.639,0,0,1,.178,1.251.678.678,0,0,1-.178.025Zm8.935,0a.639.639,0,0,1-.179-1.251.681.681,0,0,1,.179-.025h2.553a.639.639,0,0,1,.178,1.251.678.678,0,0,1-.178.025Zm8.935,0a.639.639,0,0,1-.179-1.251.681.681,0,0,1,.179-.025h2.552a.639.639,0,0,1,.178,1.251.68.68,0,0,1-.178.025Zm8.935,0a.639.639,0,0,1-.178-1.251.677.677,0,0,1,.178-.025h2.553a.639.639,0,0,1,.178,1.251.676.676,0,0,1-.178.025Zm29.358,0a.639.639,0,0,0,.178-1.251.68.68,0,0,0-.178-.025h-2.553a.639.639,0,0,0-.178,1.251.678.678,0,0,0,.178.025Zm-8.935,0a.639.639,0,0,0,.178-1.251.676.676,0,0,0-.178-.025h-2.552a.639.639,0,0,0-.179,1.251.681.681,0,0,0,.179.025Zm12.547,59.765a2.837,2.837,0,1,1-.828,2,2.827,2.827,0,0,1,.828-2m2.643-58.365a.639.639,0,0,0-1.251-.178.688.688,0,0,0-.025.178v2.553a.639.639,0,0,0,1.251.179.668.668,0,0,0,.025-.179Z" transform="translate(-2084.707 1563.401)" fill="#3a525e" fill-rule="evenodd"/>
    <path id="Trazado_128990" data-name="Trazado 128990" d="M1010.9,327.637a.639.639,0,0,1,1.251-.178.678.678,0,0,1,.025.178v2.553a.639.639,0,0,1-1.251.178.678.678,0,0,1-.025-.178ZM1126.928,317.3a.639.639,0,0,0,.178-1.251.678.678,0,0,0-.178-.025h-2.553a.639.639,0,0,0-.178,1.251.678.678,0,0,0,.178.025Zm-8.935,0a.639.639,0,0,0,.178-1.251.679.679,0,0,0-.178-.025h-2.553a.639.639,0,0,0-.178,1.251.677.677,0,0,0,.178.025ZM1010.9,336.571a.639.639,0,0,1,1.251-.178.678.678,0,0,1,.025.178v2.553a.639.639,0,0,1-1.251.179.678.678,0,0,1-.025-.179Zm1.262,38.438a4.1,4.1,0,0,1,2.28,1.157l0,0a4.1,4.1,0,0,1,0,5.806v0a4.109,4.109,0,1,1-5.811-5.811h0a4.1,4.1,0,0,1,2.282-1.157.624.624,0,0,1-.017-.144v-2.553a.639.639,0,0,1,1.251-.178.678.678,0,0,1,.025.178v2.553a.694.694,0,0,1-.015.145m-1.262-20.567a.639.639,0,0,1,1.251-.179.68.68,0,0,1,.025.179v2.553a.639.639,0,0,1-1.251.179.68.68,0,0,1-.025-.179Zm0-8.935a.639.639,0,0,1,1.251-.179.678.678,0,0,1,.025.179v2.553a.639.639,0,0,1-1.251.178.678.678,0,0,1-.025-.178Zm0,17.87a.639.639,0,0,1,1.251-.179.68.68,0,0,1,.025.179v2.553a.639.639,0,0,1-1.251.178.678.678,0,0,1-.025-.178Zm24.124-46.075a.639.639,0,0,1-.178-1.251.679.679,0,0,1,.178-.025h2.553a.639.639,0,0,1,.179,1.251.68.68,0,0,1-.179.025Zm74.034,0a.639.639,0,0,0,.179-1.251.681.681,0,0,0-.179-.025H1106.5a.639.639,0,0,0-.179,1.251.681.681,0,0,0,.179.025Zm-8.935,0a.639.639,0,0,0,.178-1.251.678.678,0,0,0-.178-.025h-2.553a.639.639,0,0,0-.179,1.251.681.681,0,0,0,.179.025Zm-8.935,0a.639.639,0,0,0,.178-1.251.677.677,0,0,0-.178-.025h-2.553a.639.639,0,0,0-.178,1.251.68.68,0,0,0,.178.025Zm-8.935,0a.639.639,0,0,0,.178-1.251.679.679,0,0,0-.178-.025H1079.7a.639.639,0,0,0-.178,1.251.678.678,0,0,0,.178.025Zm-8.935,0a.639.639,0,0,0,.178-1.251.679.679,0,0,0-.178-.025h-2.553a.639.639,0,0,0-.179,1.251.68.68,0,0,0,.179.025Zm-8.935,0a.639.639,0,0,0,.178-1.251.678.678,0,0,0-.178-.025h-2.553a.639.639,0,0,0-.178,1.251.678.678,0,0,0,.178.025Zm-8.935,0a.639.639,0,0,0,.178-1.251.677.677,0,0,0-.178-.025h-2.553a.639.639,0,0,0-.178,1.251.682.682,0,0,0,.178.025Zm-8.935,0a.639.639,0,0,0,.178-1.251.678.678,0,0,0-.178-.025h-2.553a.639.639,0,0,0-.178,1.251.679.679,0,0,0,.178.025Zm-29.358,0a.639.639,0,0,1-.179-1.251.679.679,0,0,1,.179-.025h2.553a.639.639,0,0,1,.179,1.251.681.681,0,0,1-.179.025Zm8.935,0a.639.639,0,0,1-.178-1.251.68.68,0,0,1,.178-.025h2.553a.639.639,0,0,1,.179,1.251.681.681,0,0,1-.179.025Zm-12.547,59.765a2.837,2.837,0,1,0,.828,2,2.827,2.827,0,0,0-.828-2M1010.9,318.7a.639.639,0,0,1,1.251-.178.678.678,0,0,1,.025.178v2.553a.639.639,0,0,1-1.251.179.678.678,0,0,1-.025-.179Z" transform="translate(-620.68 1563.401)" fill="#3a525e" fill-rule="evenodd"/>
    <path id="Trazado_128991" data-name="Trazado 128991" d="M1044.2,823.259a.8.8,0,0,1,.29,1.088l-14.955,25.9a.8.8,0,0,1-.31.3l-6.347,3.665a.8.8,0,0,1-1.243-.662v-7.4a.808.808,0,0,1,.115-.409q7.476-12.947,14.952-25.894a.8.8,0,0,1,1.084-.293Zm-4.133,5.564-5.034-2.905-11.515,19.944,5.033,2.906Zm-2.387-7.49-1.852,3.207,5.033,2.906,1.851-3.207Zm-10.429,28.523-4.021-2.321v4.643Z" transform="translate(-632.622 1140.303)" fill="#fb4a0f" fill-rule="evenodd"/>
    <path id="Trazado_128992" data-name="Trazado 128992" d="M936.175,844.708v12.108a.8.8,0,0,1-.8.8H891.5a.8.8,0,0,1-.8-.818V802.564a.8.8,0,0,1,.8-.8h12.108a.8.8,0,0,1,.8.8V843.91h30.966a.8.8,0,0,1,.8.8m-30.121,11.31v-5.1h1.6v5.1h4.133v-3.069h1.6v3.069h4.133v-5.1h1.6v5.1h4.133v-3.069h1.6v3.069h4.133v-5.1h1.6v5.1h4.017V845.505H903.943l-10.512,10.512h6.9v-3.069h1.6v3.069ZM892.3,848.3h3.067v1.6H892.3v4.992l10.512-10.512V803.362H892.3V808.2h5.1v1.6h-5.1v4.133h3.067v1.6H892.3v4.133h5.1v1.6h-5.1v4.133h3.067v1.6H892.3v4.133h5.1v1.6h-5.1v4.133h3.067v1.6H892.3v4.133h5.1v1.6h-5.1Z" transform="translate(-522.583 1155.167)" fill="#3a525e" fill-rule="evenodd"/>
    <path id="Trazado_128993" data-name="Trazado 128993" d="M1677.277,875.24h8.916a.8.8,0,0,1,.8.8v15.068a.8.8,0,0,1-.8.8h-8.916a.8.8,0,0,1-.8-.8V876.038a.8.8,0,0,1,.8-.8m8.118,1.6h-7.32v13.472h7.32Zm35.992-28.155h8.916a.8.8,0,0,1,.8.8v41.627a.8.8,0,0,1-.8.8h-8.916a.8.8,0,0,1-.8-.8V849.479a.8.8,0,0,1,.8-.8m8.118,1.6h-7.32v40.031h7.32Zm-22.821,9.655h8.916a.8.8,0,0,1,.8.8v30.376a.8.8,0,0,1-.8.8h-8.916a.8.8,0,0,1-.8-.8V860.73a.8.8,0,0,1,.8-.8m8.118,1.6h-7.32v28.781h7.32Zm-22.821,6.385h8.916a.8.8,0,0,1,.8.8v22.4a.8.8,0,0,1-.8.8h-8.916a.8.8,0,0,1-.8-.8v-22.4a.8.8,0,0,1,.8-.8m8.118,1.6h-7.32v20.8h7.32Z" transform="translate(-1182.975 1115.738)" fill="#3a525e" fill-rule="evenodd"/>
    <path id="Trazado_128994" data-name="Trazado 128994" d="M1767.36,839.257l-2.88-1.994a.8.8,0,0,1,.294-1.434l9.032-1.841a.8.8,0,0,1,.938.62l0,.022h0l1.589,8.965a.8.8,0,0,1-1.322.727l-2.191-1.706c-3.207,4.83-9.439,5.733-12.806,5.84-.692.022-1.259.011-1.653-.007-1.317-.059-1.36-1.092-1.2-1.308a.794.794,0,0,1,.465-.305,18.928,18.928,0,0,0,6.568-3.745,9.929,9.929,0,0,0,3.161-3.834m-.443-2.241,1.774,1.229a.8.8,0,0,1,.34.726c-.152,1.662-1.763,3.633-3.81,5.343a25.8,25.8,0,0,1-3.462,2.427c3.332-.369,7.943-1.643,10.151-5.678a.814.814,0,0,1,.073-.112.8.8,0,0,1,1.116-.137l1.308,1.019-1.085-6.122Z" transform="translate(-1250.732 1128.1)" fill="#fb4a0f" fill-rule="evenodd"/>
    <path id="Trazado_128995" data-name="Trazado 128995" d="M3266.265,826.767a39.925,39.925,0,0,1,39.925,39.924c0,.354-.008.767-.023,1.233-.014.432-.033.838-.056,1.221a.8.8,0,0,1-.794.749l-9.058,0a.8.8,0,0,1-.8-.8,33.546,33.546,0,0,0-67.091,0,.8.8,0,0,1-.8.8h-.359a.8.8,0,0,1-.8-.8v-.005q-.032-.549-.053-1.169c-.015-.466-.023-.88-.023-1.233a39.925,39.925,0,0,1,39.925-39.924M3238.4,854.6l6.023,3.477a20.77,20.77,0,0,1,6.478-6.477l-3.477-6.023a27.752,27.752,0,0,0-9.023,9.023m5.225,4.855-6.022-3.477a27.487,27.487,0,0,0-3.3,12.323h6.953a20.564,20.564,0,0,1,2.367-8.846m5.173-14.673,3.477,6.023a20.569,20.569,0,0,1,8.847-2.368v-6.953a27.484,27.484,0,0,0-12.324,3.3m37.44,11.2-6.023,3.477a20.57,20.57,0,0,1,2.367,8.846h6.953a27.484,27.484,0,0,0-3.3-12.323m-6.82,2.1,6.023-3.477a27.755,27.755,0,0,0-9.022-9.022l-3.477,6.023a20.764,20.764,0,0,1,6.476,6.476m-7.854-7.274,3.478-6.023a27.489,27.489,0,0,0-12.323-3.3v6.953a20.564,20.564,0,0,1,8.846,2.367m-9.643-10.927a29.222,29.222,0,0,0-29.222,29.222.8.8,0,0,0,.8.8h8.545a.8.8,0,0,0,.8-.8,19.082,19.082,0,0,1,38.163,0,.8.8,0,0,0,.8.8h8.545a.8.8,0,0,0,.8-.8,29.222,29.222,0,0,0-29.222-29.222m31.452-.287a38.346,38.346,0,0,0-63.521,15.121,35.145,35.145,0,0,1,67.2,13.59h7.514l.016-.426c.011-.336.017-.729.017-1.183a38.208,38.208,0,0,0-11.226-27.1" transform="translate(-2485.534 1134.155)" fill="#3a525e" fill-rule="evenodd"/>
    <path id="Trazado_128996" data-name="Trazado 128996" d="M3420.127,1030.584a5.615,5.615,0,0,1,.587.031l8.846-5.01a.8.8,0,0,1,1.082,1.09l-5.008,8.84a5.535,5.535,0,0,1-9.419,4.5h0a5.534,5.534,0,0,1,0-7.828l0,0a5.519,5.519,0,0,1,3.913-1.622m2.788,2.75a3.942,3.942,0,0,0-5.575,5.575h0a3.943,3.943,0,0,0,5.577-5.577m-.123-2.068a5.557,5.557,0,0,1,2.191,2.191l2.861-5.052Z" transform="translate(-2643.747 967.132)" fill="#fb4a0f" fill-rule="evenodd"/>
    <path id="Trazado_128997" data-name="Trazado 128997" d="M3435.434,1076.5a1.206,1.206,0,0,0-1.663-.033l-.032.034a1.2,1.2,0,0,0-.033,1.662l.033.031a1.2,1.2,0,1,0,1.693-1.693Zm-.848-1.945a2.782,2.782,0,0,1,1.972.818h0a2.789,2.789,0,0,1,0,3.946l0,0a2.789,2.789,0,0,1-3.946,0l-.047-.052a2.789,2.789,0,0,1,.047-3.9l.053-.048a2.786,2.786,0,0,1,1.922-.769" transform="translate(-2658.204 925.9)" fill="#fb4a0f" fill-rule="evenodd"/>
    <path id="Trazado_128998" data-name="Trazado 128998" d="M101.977,839.289a.795.795,0,1,1,1.4-.748,16.9,16.9,0,1,1-10.818-8.451h0a16.78,16.78,0,0,1,3.851,1.485.795.795,0,0,1-.748,1.4,15.316,15.316,0,1,0,6.31,6.31m-2.956-15.157a24.727,24.727,0,1,0,11.8,11.8.8.8,0,0,0-1.44.68,22.961,22.961,0,0,1,1.655,4.808,23.1,23.1,0,1,1-17.506-17.505,22.974,22.974,0,0,1,4.808,1.655.8.8,0,0,0,.68-1.44m-3.193,20.993c.042.229.074.457.095.682q.028.306.028.69A7.494,7.494,0,1,1,88.458,839q.383,0,.69.028c.225.021.454.053.682.095a.8.8,0,1,0,.287-1.565q-.4-.074-.826-.113c-.3-.027-.575-.041-.833-.041a9.089,9.089,0,1,0,9.089,9.089c0-.258-.014-.536-.041-.833s-.064-.56-.113-.826a.8.8,0,1,0-1.565.287" transform="translate(172.442 1138.359)" fill="#3a525e" fill-rule="evenodd"/>
    <path id="Trazado_128999" data-name="Trazado 128999" d="M207.086,850.943l11.31-11.31-.892-3.33a.8.8,0,0,1,.206-.77l5.662-5.662a.8.8,0,0,1,1.343.393l.883,3.295,3.33.892a.8.8,0,0,1,.358,1.333l-5.662,5.663a.8.8,0,0,1-.807.2l-3.292-.883-11.31,11.31a2.406,2.406,0,1,1-1.128-1.128m16.438-18.967-4.361,4.361.773,2.885,2.885.773,4.361-4.361-2.433-.652a.8.8,0,0,1-.572-.566Z" transform="translate(54.858 1131.742)" fill="#fb4a0f" fill-rule="evenodd"/>
    <path id="Trazado_129000" data-name="Trazado 129000" d="M4145.648,831.221a.823.823,0,1,1,0-1.645h12.608a.823.823,0,1,1,0,1.645Zm8.973-16.678v-1.954a.823.823,0,0,0-.822-.823h-16.641a.823.823,0,0,0-.823.823v1.954h-10.947a.823.823,0,0,0-.823.823V863.6a.823.823,0,0,0,.823.823h40.18a.823.823,0,0,0,.822-.823V851.043a.823.823,0,1,0-1.646,0v11.734h-38.534V816.188h10.125v2.363a.823.823,0,0,0,.823.823H4153.8a.823.823,0,0,0,.822-.823v-2.363h10.124V824a.823.823,0,0,0,1.646,0v-8.637a.823.823,0,0,0-.822-.823Zm-1.646-1.131v4.317h-14.995v-4.317Zm-7.328,36.967a.823.823,0,1,1,0-1.645h5.794a.823.823,0,1,1,0,1.645Zm0,4.869a.823.823,0,1,1,0-1.645h5.794a.823.823,0,1,1,0,1.645Zm0-16.752a.823.823,0,1,1,0-1.645h10.591a.823.823,0,1,1,0,1.645Zm0,4.869a.823.823,0,1,1,0-1.645h7.9a.823.823,0,1,1,0,1.645Zm-14.732,8.928a.822.822,0,1,1,1.221-1.1l2.489,2.772,4.91-5.727a.82.82,0,1,1,1.247,1.067l-5.492,6.407a.812.812,0,0,1-.1.109.822.822,0,0,1-1.16-.061Zm0-11.883a.821.821,0,1,1,1.221-1.1l2.489,2.772,4.91-5.727a.82.82,0,1,1,1.247,1.067l-5.492,6.407a.821.821,0,0,1-1.261.048Zm0-11.883a.822.822,0,1,1,1.221-1.1l2.489,2.772,4.91-5.727a.82.82,0,1,1,1.247,1.067l-5.492,6.407a.811.811,0,0,1-.1.109.822.822,0,0,1-1.16-.061Zm14.732-2.175a.823.823,0,1,1,0-1.645h12.608a.823.823,0,1,1,0,1.645Z" transform="translate(-3240.436 1146.763)" fill="#3a525e" fill-rule="evenodd"/>
    <path id="Trazado_129001" data-name="Trazado 129001" d="M4330.563,868.2l6.306,3.641a.819.819,0,0,1,.3,1.118l-2.624,4.547-.025.041-12.148,21.041a.815.815,0,0,1-.323.345l-6.3,3.64a.823.823,0,0,1-1.282-.682V894.56a.82.82,0,0,1,.038-.241.8.8,0,0,1,.074-.171l14.822-25.672a.82.82,0,0,1,1.121-.3Zm-14.454,32.268,3.888-2.245-3.888-2.245Zm16.608-23.072-4.931-2.848-11.378,19.708,4.931,2.848Zm-4.112-4.267,4.931,2.846,1.8-3.125-4.931-2.847Z" transform="translate(-3400.033 1099.445)" fill="#fb4a0f" fill-rule="evenodd"/>
    <path id="Trazado_129002" data-name="Trazado 129002" d="M2502.2,808.372h46.929a2.431,2.431,0,0,1,1.72.717l0,0a2.431,2.431,0,0,1,.715,1.722v28.867a2.443,2.443,0,0,1-2.437,2.437H2526.3v4.18l10.855,14.543a.8.8,0,0,1-1.278.954l-9.578-12.831v10.9a.8.8,0,0,1-1.6,0v-10.9l-9.577,12.831a.8.8,0,0,1-1.278-.954l10.855-14.543v-4.18h-22.5a2.431,2.431,0,0,1-1.722-.715l-.05-.055a2.428,2.428,0,0,1-.666-1.667V810.809a2.429,2.429,0,0,1,.715-1.719l0,0a2.427,2.427,0,0,1,1.719-.715m46.929,1.6H2502.2a.841.841,0,0,0-.842.842v28.867a.838.838,0,0,0,.216.563l.032.03a.838.838,0,0,0,.594.248h46.929a.847.847,0,0,0,.842-.842V810.809a.841.841,0,0,0-.248-.594v0a.837.837,0,0,0-.594-.245" transform="translate(-1874.895 1149.615)" fill="#3a525e" fill-rule="evenodd"/>
    <path id="Trazado_129003" data-name="Trazado 129003" d="M2553.977,889.161a3.6,3.6,0,0,1,2.128.7c3.438-4.067,6.448-3.627,9.815-3.135,3.54.517,7.528,1.1,13.125-4.868l-1.375.047a.794.794,0,1,1-.058-1.588l3.207-.11a.8.8,0,0,1,.823.765.83.83,0,0,1-.008.147l-.467,3.106a.8.8,0,1,1-1.575-.235l.072-.479c-5.874,5.976-10.159,5.351-13.975,4.793-2.941-.43-5.566-.813-8.524,2.773a3.616,3.616,0,0,1-5.745,4.262l-.047-.051a3.614,3.614,0,0,1,2.6-6.122m1.429,2.184a2.023,2.023,0,0,0-2.895,2.825l.038.035a2.02,2.02,0,1,0,2.857-2.857Z" transform="translate(-1917.416 1089.246)" fill="#fb4a0f" fill-rule="evenodd"/>
    <path id="Trazado_129004" data-name="Trazado 129004" d="M2746.35,853.743a.8.8,0,0,1,1.128-1.128l1.761,1.761,3.25-3.383a.8.8,0,0,1,1.147,1.1l-3.773,3.927-.05.055a.8.8,0,0,1-1.128,0Z" transform="translate(-2081.938 1114)" fill="#fb4a0f" fill-rule="evenodd"/>
    <path id="Trazado_129005" data-name="Trazado 129005" d="M2568.8,855.233a.8.8,0,0,1,1.128-1.128l1.568,1.569,1.569-1.569a.8.8,0,0,1,1.128,1.128l-1.569,1.569,1.569,1.568a.8.8,0,1,1-1.128,1.128l-1.569-1.569-1.568,1.569a.8.8,0,0,1-1.128-1.128l1.568-1.568Zm-9.855-12.619a.8.8,0,0,1,1.128-1.128l1.569,1.569,1.568-1.569a.8.8,0,0,1,1.128,1.128l-1.569,1.569,1.569,1.568a.8.8,0,0,1-1.128,1.128l-1.568-1.569-1.569,1.569a.8.8,0,0,1-1.128-1.128l1.569-1.568Zm-10.119-3.6a.8.8,0,0,1,1.128-1.128l1.568,1.569,1.569-1.569a.8.8,0,0,1,1.128,1.128l-1.569,1.569,1.569,1.569a.8.8,0,0,1-1.128,1.128l-1.569-1.568-1.568,1.568a.8.8,0,0,1-1.128-1.128l1.569-1.569Zm-8.8,5.9a.8.8,0,0,1,1.128-1.128l1.569,1.569,1.569-1.569a.8.8,0,0,1,1.128,1.128l-1.569,1.569,1.569,1.569a.8.8,0,0,1-1.128,1.128l-1.569-1.569-1.569,1.569a.8.8,0,0,1-1.128-1.128l1.569-1.569ZM2553,857.161a.8.8,0,0,1,1.128-1.128l1.569,1.569,1.569-1.569a.8.8,0,0,1,1.128,1.128l-1.568,1.569,1.568,1.569a.8.8,0,0,1-1.128,1.128l-1.569-1.569-1.569,1.569A.8.8,0,0,1,2553,860.3l1.569-1.569Z" transform="translate(-1908.54 1125.01)" fill="#3a525e" fill-rule="evenodd"/>
    <path id="Trazado_132733" data-name="Trazado 132733" d="M0,0H727.414V206H0Z" transform="translate(226 1830)" fill="none"/>
    <path id="Trazado_132734" data-name="Trazado 132734" d="M10.07-5.32A7.037,7.037,0,0,1,9.508-2.4,4.261,4.261,0,0,1,7.914-.5,4.385,4.385,0,0,1,5.508.156,4.347,4.347,0,0,1,3.125-.5,4.363,4.363,0,0,1,1.512-2.387a6.752,6.752,0,0,1-.59-2.832v-.82a6.953,6.953,0,0,1,.57-2.9,4.347,4.347,0,0,1,1.613-1.926,4.329,4.329,0,0,1,2.387-.668,4.41,4.41,0,0,1,2.41.66A4.253,4.253,0,0,1,9.508-8.957a7.071,7.071,0,0,1,.563,2.918ZM8.578-6.055A5.1,5.1,0,0,0,7.766-9.16a2.68,2.68,0,0,0-2.273-1.082A2.651,2.651,0,0,0,3.254-9.16a5,5,0,0,0-.84,3v.836a5.107,5.107,0,0,0,.824,3.082,2.662,2.662,0,0,0,2.27,1.121,2.652,2.652,0,0,0,2.25-1.059,5.079,5.079,0,0,0,.82-3.035ZM12.32,0V-11.375h3.719a4.317,4.317,0,0,1,2.785.766,2.759,2.759,0,0,1,.934,2.266,2.31,2.31,0,0,1-.453,1.41,2.937,2.937,0,0,1-1.234.949A2.638,2.638,0,0,1,19.527-5a2.814,2.814,0,0,1,.535,1.723A3.042,3.042,0,0,1,19.07-.875a4.1,4.1,0,0,1-2.8.875Zm1.5-5.32v4.094H16.3a2.385,2.385,0,0,0,1.652-.543,1.907,1.907,0,0,0,.605-1.5q0-2.055-2.234-2.055Zm0-1.2h2.266a2.375,2.375,0,0,0,1.574-.493,1.654,1.654,0,0,0,.59-1.339A1.626,1.626,0,0,0,17.7-9.722a2.686,2.686,0,0,0-1.664-.427H13.82Zm13.227-4.852h1.508V-3.32a3.336,3.336,0,0,1-.98,2.555,3.66,3.66,0,0,1-2.613.922A3.762,3.762,0,0,1,22.32-.711a3.132,3.132,0,0,1-.945-2.43h1.5a2.086,2.086,0,0,0,.535,1.523,2.073,2.073,0,0,0,1.551.547,2.012,2.012,0,0,0,1.5-.586A2.27,2.27,0,0,0,27.047-3.3ZM37.539-5.258h-4.93v4.031h5.727V0H31.109V-11.375h7.148v1.227H32.609v3.664h4.93Zm10.68-4.891H44.563V0H43.07V-10.148H39.422v-1.227h8.8ZM51.516,0h-1.5V-11.375h1.5Zm6.508-1.992,3.25-9.383h1.641L58.7,0H57.367L53.156-11.375h1.633ZM73.086-5.32A7.037,7.037,0,0,1,72.523-2.4,4.261,4.261,0,0,1,70.93-.5a4.385,4.385,0,0,1-2.406.656A4.347,4.347,0,0,1,66.141-.5a4.363,4.363,0,0,1-1.613-1.883,6.752,6.752,0,0,1-.59-2.832v-.82a6.953,6.953,0,0,1,.57-2.9,4.347,4.347,0,0,1,1.613-1.926,4.329,4.329,0,0,1,2.387-.668,4.41,4.41,0,0,1,2.41.66,4.253,4.253,0,0,1,1.605,1.914,7.071,7.071,0,0,1,.563,2.918Zm-1.492-.734a5.1,5.1,0,0,0-.812-3.105,2.68,2.68,0,0,0-2.273-1.082A2.651,2.651,0,0,0,66.27-9.16a5,5,0,0,0-.84,3v.836a5.107,5.107,0,0,0,.824,3.082,2.662,2.662,0,0,0,2.27,1.121,2.652,2.652,0,0,0,2.25-1.059,5.079,5.079,0,0,0,.82-3.035Z" transform="translate(226 2031)" fill="#12263f"/>
    <path id="Trazado_132735" data-name="Trazado 132735" d="M3.258-11.375,6.977-2.094,10.7-11.375h1.945V0h-1.5V-4.43l.141-4.781L7.547,0H6.4L2.672-9.187,2.82-4.43V0H1.32V-11.375ZM21.719-5.258h-4.93v4.031h5.727V0H15.289V-11.375h7.148v1.227H16.789v3.664h4.93ZM24.383,0V-11.375h3.211a5.169,5.169,0,0,1,2.625.656A4.438,4.438,0,0,1,31.98-8.852a6.078,6.078,0,0,1,.629,2.781v.727a6.1,6.1,0,0,1-.621,2.82A4.369,4.369,0,0,1,30.215-.664,5.5,5.5,0,0,1,27.531,0Zm1.5-10.148v8.922h1.578a3.434,3.434,0,0,0,2.7-1.079,4.458,4.458,0,0,0,.965-3.073v-.665a4.529,4.529,0,0,0-.91-3.014,3.239,3.239,0,0,0-2.582-1.091ZM36.484,0h-1.5V-11.375h1.5ZM47.594-3.609A4.185,4.185,0,0,1,46.262-.824a4.365,4.365,0,0,1-2.98.98,4.008,4.008,0,0,1-3.23-1.445,5.815,5.815,0,0,1-1.215-3.867V-6.25A6.481,6.481,0,0,1,39.4-9.039a4.231,4.231,0,0,1,1.605-1.848,4.47,4.47,0,0,1,2.406-.645A4.11,4.11,0,0,1,46.32-10.52a4.235,4.235,0,0,1,1.273,2.8H46.086a3.268,3.268,0,0,0-.848-1.975,2.565,2.565,0,0,0-1.824-.611A2.684,2.684,0,0,0,41.16-9.241a4.882,4.882,0,0,0-.816,3.026v1.1a5.018,5.018,0,0,0,.773,2.948A2.5,2.5,0,0,0,43.281-1.07,2.887,2.887,0,0,0,45.2-1.637a3.143,3.143,0,0,0,.887-1.973ZM51.25,0h-1.5V-11.375h1.5ZM62.742-5.32A7.037,7.037,0,0,1,62.18-2.4,4.261,4.261,0,0,1,60.586-.5,4.385,4.385,0,0,1,58.18.156,4.347,4.347,0,0,1,55.8-.5a4.363,4.363,0,0,1-1.613-1.883,6.752,6.752,0,0,1-.59-2.832v-.82a6.953,6.953,0,0,1,.57-2.9,4.347,4.347,0,0,1,1.613-1.926,4.329,4.329,0,0,1,2.387-.668,4.41,4.41,0,0,1,2.41.66A4.253,4.253,0,0,1,62.18-8.957a7.071,7.071,0,0,1,.563,2.918ZM61.25-6.055a5.1,5.1,0,0,0-.812-3.105,2.68,2.68,0,0,0-2.273-1.082A2.651,2.651,0,0,0,55.926-9.16a5,5,0,0,0-.84,3v.836a5.107,5.107,0,0,0,.824,3.082,2.662,2.662,0,0,0,2.27,1.121,2.652,2.652,0,0,0,2.25-1.059,5.079,5.079,0,0,0,.82-3.035ZM58.9-14.422h1.75l-2.094,2.3-1.164,0ZM73.734,0H72.227L66.5-8.766V0H64.992V-11.375H66.5l5.742,8.8v-8.8h1.492Z" transform="translate(353 2031)" fill="#12263f"/>
    <path id="Trazado_132736" data-name="Trazado 132736" d="M10.07-5.32A7.037,7.037,0,0,1,9.508-2.4,4.261,4.261,0,0,1,7.914-.5,4.385,4.385,0,0,1,5.508.156,4.347,4.347,0,0,1,3.125-.5,4.363,4.363,0,0,1,1.512-2.387a6.752,6.752,0,0,1-.59-2.832v-.82a6.953,6.953,0,0,1,.57-2.9,4.347,4.347,0,0,1,1.613-1.926,4.329,4.329,0,0,1,2.387-.668,4.41,4.41,0,0,1,2.41.66A4.253,4.253,0,0,1,9.508-8.957a7.071,7.071,0,0,1,.563,2.918ZM8.578-6.055A5.1,5.1,0,0,0,7.766-9.16a2.68,2.68,0,0,0-2.273-1.082A2.651,2.651,0,0,0,3.254-9.16a5,5,0,0,0-.84,3v.836a5.107,5.107,0,0,0,.824,3.082,2.662,2.662,0,0,0,2.27,1.121,2.652,2.652,0,0,0,2.25-1.059,5.079,5.079,0,0,0,.82-3.035Zm5.242,1.6V0h-1.5V-11.375h4.2a4.215,4.215,0,0,1,2.926.953A3.231,3.231,0,0,1,20.5-7.9a3.189,3.189,0,0,1-1.035,2.551,4.4,4.4,0,0,1-2.965.895Zm0-1.227h2.7a2.7,2.7,0,0,0,1.844-.567A2.075,2.075,0,0,0,19-7.887a2.143,2.143,0,0,0-.641-1.628,2.525,2.525,0,0,0-1.758-.634H13.82Zm16.453-4.469H26.617V0H25.125V-10.148H21.477v-1.227h8.8ZM33.57,0h-1.5V-11.375h1.5Zm4.68-11.375,3.719,9.281,3.719-9.281h1.945V0h-1.5V-4.43l.141-4.781L42.539,0H41.391L37.664-9.187l.148,4.758V0h-1.5V-11.375ZM51.891,0h-1.5V-11.375h1.5Zm3.867-1.227h6.508V0H53.984V-1.125l6.234-9.023H54.086v-1.227h7.93v1.095Zm14.836-1.75H65.828L64.758,0H63.211l4.344-11.375h1.313L73.219,0H71.68ZM66.281-4.2h3.867l-1.937-5.32Zm16.75.594A4.185,4.185,0,0,1,81.7-.824a4.365,4.365,0,0,1-2.98.98,4.008,4.008,0,0,1-3.23-1.445,5.815,5.815,0,0,1-1.215-3.867V-6.25a6.481,6.481,0,0,1,.566-2.789,4.231,4.231,0,0,1,1.605-1.848,4.47,4.47,0,0,1,2.406-.645,4.11,4.11,0,0,1,2.906,1.012,4.235,4.235,0,0,1,1.273,2.8H81.523a3.268,3.268,0,0,0-.848-1.975,2.565,2.565,0,0,0-1.824-.611A2.684,2.684,0,0,0,76.6-9.241a4.882,4.882,0,0,0-.816,3.026v1.1a5.018,5.018,0,0,0,.773,2.948A2.5,2.5,0,0,0,78.719-1.07a2.886,2.886,0,0,0,1.918-.566,3.143,3.143,0,0,0,.887-1.973ZM86.688,0h-1.5V-11.375h1.5ZM98.18-5.32A7.037,7.037,0,0,1,97.617-2.4,4.261,4.261,0,0,1,96.023-.5a4.385,4.385,0,0,1-2.406.656A4.347,4.347,0,0,1,91.234-.5a4.363,4.363,0,0,1-1.613-1.883,6.752,6.752,0,0,1-.59-2.832v-.82a6.953,6.953,0,0,1,.57-2.9,4.347,4.347,0,0,1,1.613-1.926,4.329,4.329,0,0,1,2.387-.668,4.41,4.41,0,0,1,2.41.66,4.253,4.253,0,0,1,1.605,1.914,7.071,7.071,0,0,1,.563,2.918Zm-1.492-.734a5.1,5.1,0,0,0-.812-3.105A2.68,2.68,0,0,0,93.6-10.242,2.651,2.651,0,0,0,91.363-9.16a5,5,0,0,0-.84,3v.836a5.107,5.107,0,0,0,.824,3.082,2.662,2.662,0,0,0,2.27,1.121,2.652,2.652,0,0,0,2.25-1.059,5.079,5.079,0,0,0,.82-3.035Zm-2.352-8.367h1.75l-2.094,2.3-1.164,0ZM109.172,0h-1.508l-5.727-8.766V0H100.43V-11.375h1.508l5.742,8.8v-8.8h1.492Z" transform="translate(469 2031)" fill="#12263f"/>
    <path id="Trazado_132737" data-name="Trazado 132737" d="M7.75-5.258H2.82v4.031H8.547V0H1.32V-11.375H8.469v1.227H2.82v3.664H7.75Zm6.016.188a7.053,7.053,0,0,1-2.809-1.363,2.6,2.6,0,0,1-.879-2,2.751,2.751,0,0,1,1.074-2.223,4.269,4.269,0,0,1,2.793-.879,4.66,4.66,0,0,1,2.09.453,3.436,3.436,0,0,1,1.422,1.25,3.2,3.2,0,0,1,.5,1.742H16.453A2.08,2.08,0,0,0,15.8-9.713a2.669,2.669,0,0,0-1.852-.592,2.732,2.732,0,0,0-1.73.489,1.632,1.632,0,0,0-.621,1.358,1.468,1.468,0,0,0,.59,1.178,5.785,5.785,0,0,0,2.008.88,9.316,9.316,0,0,1,2.219.88A3.367,3.367,0,0,1,17.6-4.4a2.861,2.861,0,0,1,.387,1.508A2.658,2.658,0,0,1,16.906-.676a4.6,4.6,0,0,1-2.883.832,5.347,5.347,0,0,1-2.187-.449,3.681,3.681,0,0,1-1.566-1.23A3,3,0,0,1,9.719-3.3h1.508a1.959,1.959,0,0,0,.762,1.629,3.207,3.207,0,0,0,2.035.6,2.948,2.948,0,0,0,1.82-.484,1.573,1.573,0,0,0,.633-1.32,1.545,1.545,0,0,0-.586-1.293A6.755,6.755,0,0,0,13.766-5.07Zm14-5.078H24.109V0H22.617V-10.148H18.969v-1.227h8.8ZM33.625-4.6H30.953V0H29.445V-11.375h3.766a4.457,4.457,0,0,1,2.957.875A3.148,3.148,0,0,1,37.2-7.953,3.062,3.062,0,0,1,36.629-6.1a3.428,3.428,0,0,1-1.6,1.18L37.7-.094V0H36.094ZM30.953-5.828h2.3a2.6,2.6,0,0,0,1.777-.579,1.959,1.959,0,0,0,.66-1.55,2.062,2.062,0,0,0-.629-1.62,2.663,2.663,0,0,0-1.816-.571h-2.3ZM45.586-2.977H40.82L39.75,0H38.2l4.344-11.375h1.313L48.211,0H46.672ZM41.273-4.2h3.867L43.2-9.523Zm15.32-5.945H52.938V0H51.445V-10.148H47.8v-1.227h8.8Zm8.117,4.891h-4.93v4.031h5.727V0H58.281V-11.375H65.43v1.227H59.781v3.664h4.93ZM75.773-1.492A3.465,3.465,0,0,1,74.16-.254a6.517,6.517,0,0,1-2.41.41A4.674,4.674,0,0,1,69.281-.5a4.346,4.346,0,0,1-1.668-1.855,6.408,6.408,0,0,1-.605-2.789v-.992a5.982,5.982,0,0,1,1.2-3.984,4.179,4.179,0,0,1,3.371-1.414,4.316,4.316,0,0,1,2.867.91,3.965,3.965,0,0,1,1.328,2.582h-1.5A2.48,2.48,0,0,0,71.586-10.3,2.655,2.655,0,0,0,69.3-9.245a5.173,5.173,0,0,0-.785,3.069v.93A4.848,4.848,0,0,0,69.391-2.2a2.836,2.836,0,0,0,2.367,1.13,5.228,5.228,0,0,0,1.477-.187,2.283,2.283,0,0,0,1.047-.631V-4.437H71.648V-5.664h4.125ZM79.883,0h-1.5V-11.375h1.5Zm9.164-2.977H84.281L83.211,0H81.664l4.344-11.375H87.32L91.672,0H90.133ZM84.734-4.2H88.6l-1.937-5.32Z" transform="translate(605 2031)" fill="#12263f"/>
    <path id="Trazado_132738" data-name="Trazado 132738" d="M5.492-4.6H2.82V0H1.313V-11.375H5.078a4.457,4.457,0,0,1,2.957.875A3.148,3.148,0,0,1,9.07-7.953,3.062,3.062,0,0,1,8.5-6.1a3.428,3.428,0,0,1-1.6,1.18L9.57-.094V0H7.961ZM2.82-5.828h2.3A2.6,2.6,0,0,0,6.9-6.407a1.959,1.959,0,0,0,.66-1.55,2.062,2.062,0,0,0-.629-1.62,2.663,2.663,0,0,0-1.816-.571H2.82Zm14.781.57h-4.93v4.031H18.4V0H11.172V-11.375H18.32v1.227H12.672v3.664H17.6ZM29.008,0H27.5L21.773-8.766V0H20.266V-11.375h1.508l5.742,8.8v-8.8h1.492Zm2.664,0V-11.375h3.211a5.169,5.169,0,0,1,2.625.656A4.438,4.438,0,0,1,39.27-8.852,6.078,6.078,0,0,1,39.9-6.07v.727a6.1,6.1,0,0,1-.621,2.82A4.369,4.369,0,0,1,37.5-.664,5.5,5.5,0,0,1,34.82,0Zm1.5-10.148v8.922H34.75a3.434,3.434,0,0,0,2.7-1.079,4.458,4.458,0,0,0,.965-3.073v-.665a4.529,4.529,0,0,0-.91-3.014,3.239,3.239,0,0,0-2.582-1.091ZM43.773,0h-1.5V-11.375h1.5Zm4.68-11.375,3.719,9.281,3.719-9.281h1.945V0h-1.5V-4.43l.141-4.781L52.742,0H51.594L47.867-9.187l.148,4.758V0h-1.5V-11.375ZM62.094,0h-1.5V-11.375h1.5Zm9.172-5.258h-4.93v4.031h5.727V0H64.836V-11.375h7.148v1.227H66.336v3.664h4.93ZM82.672,0H81.164L75.438-8.766V0H73.93V-11.375h1.508l5.742,8.8v-8.8h1.492Zm10.3-10.148H89.313V0H87.82V-10.148H84.172v-1.227h8.8ZM103.188-5.32a7.037,7.037,0,0,1-.562,2.918,4.261,4.261,0,0,1-1.594,1.9,4.385,4.385,0,0,1-2.406.656A4.347,4.347,0,0,1,96.242-.5a4.363,4.363,0,0,1-1.613-1.883,6.752,6.752,0,0,1-.59-2.832v-.82a6.953,6.953,0,0,1,.57-2.9,4.347,4.347,0,0,1,1.613-1.926,4.329,4.329,0,0,1,2.387-.668,4.41,4.41,0,0,1,2.41.66,4.253,4.253,0,0,1,1.605,1.914,7.071,7.071,0,0,1,.563,2.918ZM101.7-6.055a5.1,5.1,0,0,0-.812-3.105,2.68,2.68,0,0,0-2.273-1.082A2.651,2.651,0,0,0,96.371-9.16a5,5,0,0,0-.84,3v.836a5.107,5.107,0,0,0,.824,3.082,2.662,2.662,0,0,0,2.27,1.121,2.652,2.652,0,0,0,2.25-1.059,5.079,5.079,0,0,0,.82-3.035Z" transform="translate(729 2031)" fill="#12263f"/>
    <path id="Trazado_132739" data-name="Trazado 132739" d="M7.75-5.258H2.82v4.031H8.547V0H1.32V-11.375H8.469v1.227H2.82v3.664H7.75Zm6.43,3.266,3.25-9.383H19.07L14.852,0H13.523L9.313-11.375h1.633Zm12.109-.984H21.523L20.453,0H18.906L23.25-11.375h1.313L28.914,0H27.375ZM21.977-4.2h3.867l-1.937-5.32Zm9.977,2.977h5.391V0h-6.9V-11.375h1.508ZM46.641-11.375v7.734a3.628,3.628,0,0,1-1.012,2.633A4.077,4.077,0,0,1,42.906.141l-.4.016A4.258,4.258,0,0,1,39.531-.852a3.6,3.6,0,0,1-1.125-2.773v-7.75h1.484v7.7a2.6,2.6,0,0,0,.68,1.918,2.612,2.612,0,0,0,1.938.684,2.63,2.63,0,0,0,1.949-.68,2.6,2.6,0,0,0,.676-1.914v-7.711Zm8.477,8.4H50.352L49.281,0H47.734l4.344-11.375h1.313L57.742,0H56.2ZM50.8-4.2h3.867l-1.937-5.32Zm16.75.594A4.185,4.185,0,0,1,66.223-.824a4.365,4.365,0,0,1-2.98.98,4.008,4.008,0,0,1-3.23-1.445A5.815,5.815,0,0,1,58.8-5.156V-6.25a6.481,6.481,0,0,1,.566-2.789,4.231,4.231,0,0,1,1.605-1.848,4.47,4.47,0,0,1,2.406-.645,4.11,4.11,0,0,1,2.906,1.012,4.235,4.235,0,0,1,1.273,2.8H66.047A3.268,3.268,0,0,0,65.2-9.693a2.565,2.565,0,0,0-1.824-.611,2.684,2.684,0,0,0-2.254,1.063A4.882,4.882,0,0,0,60.3-6.215v1.1a5.018,5.018,0,0,0,.773,2.948A2.5,2.5,0,0,0,63.242-1.07a2.886,2.886,0,0,0,1.918-.566,3.143,3.143,0,0,0,.887-1.973ZM71.211,0h-1.5V-11.375h1.5ZM82.7-5.32A7.037,7.037,0,0,1,82.141-2.4,4.261,4.261,0,0,1,80.547-.5a4.385,4.385,0,0,1-2.406.656A4.347,4.347,0,0,1,75.758-.5a4.363,4.363,0,0,1-1.613-1.883,6.752,6.752,0,0,1-.59-2.832v-.82a6.953,6.953,0,0,1,.57-2.9,4.347,4.347,0,0,1,1.613-1.926,4.329,4.329,0,0,1,2.387-.668,4.41,4.41,0,0,1,2.41.66,4.253,4.253,0,0,1,1.605,1.914A7.071,7.071,0,0,1,82.7-6.039Zm-1.492-.734A5.1,5.1,0,0,0,80.4-9.16a2.68,2.68,0,0,0-2.273-1.082A2.651,2.651,0,0,0,75.887-9.16a5,5,0,0,0-.84,3v.836a5.107,5.107,0,0,0,.824,3.082,2.662,2.662,0,0,0,2.27,1.121,2.652,2.652,0,0,0,2.25-1.059,5.079,5.079,0,0,0,.82-3.035Zm-2.352-8.367h1.75l-2.094,2.3-1.164,0ZM93.7,0H92.188L86.461-8.766V0H84.953V-11.375h1.508L92.2-2.57v-8.8H93.7Z" transform="translate(858 2031)" fill="#12263f"/>
  </g>
</svg>
