<svg xmlns="http://www.w3.org/2000/svg" xmlns:xlink="http://www.w3.org/1999/xlink" width="178" height="178" viewBox="0 0 178 178">
  <defs>
    <filter id="Rectángulo_38597" x="0" y="0" width="178" height="178" filterUnits="userSpaceOnUse">
      <feOffset dy="3" input="SourceAlpha"/>
      <feGaussianBlur stdDeviation="3" result="blur"/>
      <feFlood flood-opacity="0.161"/>
      <feComposite operator="in" in2="blur"/>
      <feComposite in="SourceGraphic"/>
    </filter>
    <clipPath id="clip-path">
      <rect id="Rectángulo_37357" data-name="Rectángulo 37357" width="99.161" height="99.161" fill="none"/>
    </clipPath>
  </defs>
  <g id="Grupo_158033" data-name="Grupo 158033" transform="translate(-449 -2179)">
    <g transform="matrix(1, 0, 0, 1, 449, 2179)" filter="url(#Rectángulo_38597)">
      <rect id="Rectángulo_38597-2" data-name="Rectángulo 38597" width="160" height="160" rx="30" transform="translate(9 6)" fill="#fff"/>
    </g>
    <g id="Grupo_157168" data-name="Grupo 157168" transform="translate(487.684 2215.522)">
      <g id="Grupo_157167" data-name="Grupo 157167" transform="translate(0 0)" clip-path="url(#clip-path)">
        <path id="Trazado_129877" data-name="Trazado 129877" d="M58.738,11.127a47.666,47.666,0,1,0,47.723,47.61,47.7,47.7,0,0,0-47.723-47.61" transform="translate(-9.214 -9.213)" fill="#fbef9e" fill-rule="evenodd"/>
        <path id="Trazado_129878" data-name="Trazado 129878" d="M32.288,133.746l-12.043-8.779a47.674,47.674,0,1,0,80.7,50.311L87.777,168.3A32.735,32.735,0,0,1,26.1,152.993a32.47,32.47,0,0,1,6.191-19.247" transform="translate(-9.214 -103.468)" fill="#c1e8ff" fill-rule="evenodd"/>
        <path id="Trazado_129879" data-name="Trazado 129879" d="M64.121,30.711,76.164,39.49A32.875,32.875,0,0,1,102.614,26.1a31.7,31.7,0,0,1,10.355,1.688L117.7,13.6A47.511,47.511,0,0,0,64.121,30.711" transform="translate(-53.09 -9.213)" fill="#1169e3" fill-rule="evenodd"/>
        <path id="Trazado_129880" data-name="Trazado 129880" d="M348.064,39.7a32.555,32.555,0,0,1,22.4,30.952,33.076,33.076,0,0,1-3.714,15.307l13.169,6.978a47.591,47.591,0,0,0-27.125-67.42Z" transform="translate(-288.185 -21.13)" fill="#29c4bb" fill-rule="evenodd"/>
        <path id="Trazado_129881" data-name="Trazado 129881" d="M49.524,99.162A49.581,49.581,0,1,1,99.161,49.525,49.637,49.637,0,0,1,49.524,99.162m0-95.334a45.753,45.753,0,1,0,45.81,45.7,45.748,45.748,0,0,0-45.81-45.7" transform="translate(0 -0.001)" fill="#424952"/>
        <path id="Trazado_129882" data-name="Trazado 129882" d="M360.124,139.931a1.916,1.916,0,0,1-1.836-2.449,27.907,27.907,0,0,0,1.049-7.794,30.58,30.58,0,0,0-21.08-29.134,1.914,1.914,0,1,1,1.19-3.637,34.4,34.4,0,0,1,23.717,32.771,31.661,31.661,0,0,1-1.2,8.864,1.912,1.912,0,0,1-1.836,1.378" transform="translate(-278.972 -80.164)" fill="#424952"/>
        <path id="Trazado_129883" data-name="Trazado 129883" d="M338.854,32.417a1.879,1.879,0,0,1-.6-.1,1.911,1.911,0,0,1-1.21-2.42l4.727-14.18a1.913,1.913,0,0,1,3.629,1.21l-4.727,14.18a1.913,1.913,0,0,1-1.815,1.309" transform="translate(-278.975 -11.932)" fill="#424952"/>
        <path id="Trazado_129884" data-name="Trazado 129884" d="M460.085,376.529a1.9,1.9,0,0,1-.888-.219l-13.281-6.98a1.914,1.914,0,0,1,1.78-3.389l13.281,6.98a1.914,1.914,0,0,1-.892,3.608" transform="translate(-368.355 -302.805)" fill="#424952"/>
        <path id="Trazado_129885" data-name="Trazado 129885" d="M66.954,126.448a1.9,1.9,0,0,1-1.124-.368L53.788,117.3a1.912,1.912,0,1,1,2.253-3.09l12.042,8.779a1.913,1.913,0,0,1-1.128,3.459" transform="translate(-43.883 -94.257)" fill="#424952"/>
        <path id="Trazado_129886" data-name="Trazado 129886" d="M124.911,104a1.913,1.913,0,0,1-1.541-3.046A35.256,35.256,0,0,1,155.047,86.9a1.914,1.914,0,0,1-.388,3.808,30.073,30.073,0,0,0-3.3-.1,30.989,30.989,0,0,0-24.908,12.614,1.916,1.916,0,0,1-1.545.781" transform="translate(-101.839 -71.81)" fill="#424952"/>
        <path id="Trazado_129887" data-name="Trazado 129887" d="M121.569,252.654a34.759,34.759,0,0,1-31.93-48.01,1.914,1.914,0,0,1,3.533,1.473A30.794,30.794,0,0,0,148.8,232.4a1.913,1.913,0,1,1,3.385,1.784,34.5,34.5,0,0,1-30.619,18.469" transform="translate(-72.045 -168.462)" fill="#424952"/>
        <path id="Trazado_129888" data-name="Trazado 129888" d="M222.729,222.077c-3.092,0-5.516-2.769-5.516-6.3,0-3.6,2.423-6.417,5.516-6.417a1.914,1.914,0,0,1,0,3.827c-.915,0-1.689,1.187-1.689,2.59,0,1.388.742,2.476,1.689,2.476s1.689-1.088,1.689-2.476a1.914,1.914,0,1,1,3.827,0c0,3.534-2.423,6.3-5.516,6.3" transform="translate(-179.845 -173.34)" fill="#424952"/>
        <path id="Trazado_129889" data-name="Trazado 129889" d="M300.038,305.283c-3.1,0-5.628-2.879-5.628-6.417s2.524-6.415,5.628-6.415a1.914,1.914,0,1,1,0,3.827c-.851,0-1.8,1.063-1.8,2.588s.95,2.59,1.8,2.59c.781,0,1.689-1.132,1.689-2.59a1.914,1.914,0,0,1,3.827,0c0,3.538-2.474,6.417-5.516,6.417" transform="translate(-243.761 -242.138)" fill="#424952"/>
        <path id="Trazado_129890" data-name="Trazado 129890" d="M240.062,236.377a1.913,1.913,0,0,1-1.656-2.871L251.8,210.318a1.914,1.914,0,1,1,3.315,1.915l-13.393,23.188a1.916,1.916,0,0,1-1.66.956" transform="translate(-197.18 -173.345)" fill="#424952"/>
      </g>
    </g>
  </g>
</svg>
