<svg xmlns="http://www.w3.org/2000/svg" xmlns:xlink="http://www.w3.org/1999/xlink" width="178" height="178" viewBox="0 0 178 178">
  <defs>
    <filter id="Rectángulo_38598" x="0" y="0" width="178" height="178" filterUnits="userSpaceOnUse">
      <feOffset dy="3" input="SourceAlpha"/>
      <feGaussianBlur stdDeviation="3" result="blur"/>
      <feFlood flood-opacity="0.161"/>
      <feComposite operator="in" in2="blur"/>
      <feComposite in="SourceGraphic"/>
    </filter>
    <clipPath id="clip-path">
      <rect id="Rectángulo_37362" data-name="Rectángulo 37362" width="100.534" height="100.531" fill="none"/>
    </clipPath>
  </defs>
  <g id="Grupo_158034" data-name="Grupo 158034" transform="translate(-976 -2164)">
    <g id="Grupo_157827" data-name="Grupo 157827" transform="translate(15)">
      <g transform="matrix(1, 0, 0, 1, 961, 2164)" filter="url(#Rectángulo_38598)">
        <rect id="Rectángulo_38598-2" data-name="Rectángulo 38598" width="160" height="160" rx="30" transform="translate(9 6)" fill="#fff"/>
      </g>
      <g id="Grupo_157171" data-name="Grupo 157171" transform="translate(1000 2200)">
        <rect id="Rectángulo_37358" data-name="Rectángulo 37358" width="24.192" height="63.22" transform="translate(74.404 35.374)" fill="#29c4bb"/>
        <path id="Trazado_129898" data-name="Trazado 129898" d="M0,0H24.193V37.544H0Z" transform="translate(50.212 61.05)" fill="#1169e3"/>
        <rect id="Rectángulo_37360" data-name="Rectángulo 37360" width="24.078" height="52.151" transform="translate(26.133 46.443)" fill="#c1e8ff"/>
        <rect id="Rectángulo_37361" data-name="Rectángulo 37361" width="24.192" height="27.046" transform="translate(1.941 71.548)" fill="#fbef9e"/>
        <g id="Grupo_157170" data-name="Grupo 157170">
          <g id="Grupo_157169" data-name="Grupo 157169" clip-path="url(#clip-path)">
            <path id="Trazado_129891" data-name="Trazado 129891" d="M441.6,258.8h-24.19a1.935,1.935,0,0,1-1.938-1.938V193.641a1.935,1.935,0,0,1,1.938-1.938H441.6a1.935,1.935,0,0,1,1.938,1.938v7.187a1.938,1.938,0,1,1-3.876,0v-5.248H419.345V254.92h20.314V208.132a1.938,1.938,0,1,1,3.876,0v48.726A1.935,1.935,0,0,1,441.6,258.8" transform="translate(-343.002 -158.266)" fill="#424952"/>
            <path id="Trazado_129892" data-name="Trazado 129892" d="M295.579,380.325H278.69a1.938,1.938,0,0,1-1.94-1.938V340.846a1.938,1.938,0,0,1,1.94-1.938h16.889a1.938,1.938,0,0,1,0,3.876H280.628v33.665h14.951a1.938,1.938,0,0,1,0,3.876" transform="translate(-228.478 -279.795)" fill="#424952"/>
            <path id="Trazado_129893" data-name="Trazado 129893" d="M157.423,311.178H140.648a1.937,1.937,0,0,1-1.94-1.938V257.09a1.937,1.937,0,0,1,1.94-1.938h24.078a1.934,1.934,0,0,1,1.938,1.938v7.191a1.939,1.939,0,0,1-3.878,0v-5.252h-20.2V307.3h14.835a1.938,1.938,0,1,1,0,3.876" transform="translate(-114.514 -210.648)" fill="#424952"/>
            <path id="Trazado_129894" data-name="Trazado 129894" d="M18.715,430.009H1.94A1.937,1.937,0,0,1,0,428.07V401.026a1.937,1.937,0,0,1,1.94-1.938H18.715a1.938,1.938,0,1,1,0,3.876H3.88v23.168H18.715a1.938,1.938,0,1,1,0,3.876" transform="translate(0 -329.478)" fill="#424952"/>
            <path id="Trazado_129895" data-name="Trazado 129895" d="M430.324,13.011c-3.145,0-5.7-2.917-5.7-6.5s2.559-6.5,5.7-6.5a1.938,1.938,0,0,1,0,3.876c-.865,0-1.828,1.081-1.828,2.626s.963,2.626,1.828,2.626c.79,0,1.714-1.148,1.714-2.626a1.938,1.938,0,0,1,3.876,0c0,3.526-2.559,6.5-5.59,6.5" transform="translate(-350.556 -0.005)" fill="#424952"/>
            <path id="Trazado_129896" data-name="Trazado 129896" d="M508.062,96.091c-3.137,0-5.591-2.854-5.591-6.5s2.453-6.5,5.591-6.5a1.938,1.938,0,1,1,0,3.876c-.928,0-1.714,1.2-1.714,2.626s.786,2.626,1.714,2.626,1.714-1.2,1.714-2.626a1.938,1.938,0,1,1,3.876,0c0,3.648-2.453,6.5-5.59,6.5" transform="translate(-414.828 -68.594)" fill="#424952"/>
            <path id="Trazado_129897" data-name="Trazado 129897" d="M448.139,27.387a1.944,1.944,0,0,1-1.683-2.905L459.921.976A1.939,1.939,0,1,1,463.286,2.9L449.821,26.408a1.939,1.939,0,0,1-1.683.979" transform="translate(-368.37 0)" fill="#424952"/>
          </g>
        </g>
      </g>
    </g>
  </g>
</svg>
