<svg id="Grupo_157184" data-name="Grupo 157184" xmlns="http://www.w3.org/2000/svg" xmlns:xlink="http://www.w3.org/1999/xlink" width="62" height="51.164" viewBox="0 0 62 51.164">
  <defs>
    <clipPath id="clip-path">
      <rect id="Rectángulo_37376" data-name="Rectángulo 37376" width="62" height="51.164" fill="none"/>
    </clipPath>
  </defs>
  <g id="Grupo_157183" data-name="Grupo 157183" clip-path="url(#clip-path)">
    <path id="Trazado_129943" data-name="Trazado 129943" d="M32.951,2.383H48.782s2.173,1.18,1.891,4.861-.377,18.4-.377,18.4L38.123,26.4l-9.231,5.646.454-5.106H23.874a7.945,7.945,0,0,1-2.453-4.88c-.095-2.736.472-17.361.472-17.361s.189-2.271,4.151-2.315,6.907,0,6.907,0" transform="translate(10.241 1.131)" fill="#6da7bf"/>
    <path id="Trazado_129944" data-name="Trazado 129944" d="M52.09,5.744V23.913a4.126,4.126,0,0,1-4.124,4.124h-9.8l-8.545,5.691a1.127,1.127,0,0,1-.621.177,1.1,1.1,0,0,1-1.124-1.212l.429-4.657H24.844a4.126,4.126,0,0,1-4.124-4.124V5.744A4.126,4.126,0,0,1,24.844,1.62h7.318a1.124,1.124,0,1,1,0,2.247H24.844a1.88,1.88,0,0,0-1.877,1.877V23.913a1.88,1.88,0,0,0,1.877,1.877h4.686a1.11,1.11,0,0,1,.828.37,1.079,1.079,0,0,1,.3.857l-.325,3.533L37.2,25.982a1.031,1.031,0,0,1,.621-.192H47.965a1.88,1.88,0,0,0,1.877-1.877V5.744a1.872,1.872,0,0,0-.636-1.4,1.139,1.139,0,0,1-.089-1.6A1.12,1.12,0,0,1,50.7,2.655a4.116,4.116,0,0,1,1.39,3.09" transform="translate(9.91 0.775)"/>
    <path id="Trazado_129945" data-name="Trazado 129945" d="M41.234,1.124V23a1.123,1.123,0,0,1-1.124,1.124H35.794A1.123,1.123,0,0,1,34.67,23V1.124A1.123,1.123,0,0,1,35.794,0H40.11a1.123,1.123,0,0,1,1.124,1.124M38.987,2.247h-2.07V21.879h2.07Z" transform="translate(16.583)"/>
    <rect id="Rectángulo_37373" data-name="Rectángulo 37373" width="2.07" height="19.632" transform="translate(53.5 2.247)" fill="#e69787"/>
    <path id="Trazado_129946" data-name="Trazado 129946" d="M35.674,4.674V21.3a1.123,1.123,0,0,1-1.124,1.124H30.234A1.123,1.123,0,0,1,29.11,21.3V4.674A1.123,1.123,0,0,1,30.234,3.55H34.55a1.123,1.123,0,0,1,1.124,1.124M33.427,5.8h-2.07V20.181h2.07Z" transform="translate(13.923 1.698)"/>
    <path id="Trazado_129947" data-name="Trazado 129947" d="M49.375,44.129a1.124,1.124,0,0,1,0,2.247H1.124a1.124,1.124,0,0,1,0-2.247h.843V39.886a16.914,16.914,0,0,1,9.328-15.034,9.228,9.228,0,0,1-1.833-5.529,9.321,9.321,0,1,1,16.808,5.529A16.941,16.941,0,0,1,35.6,39.886v4.243Zm-16.025,0V39.886a14.45,14.45,0,0,0-8.707-13.32,9.417,9.417,0,0,1-2.691,1.508l-.133.044a8.559,8.559,0,0,1-1.375.37c-.074.015-.148.015-.207.03a9.619,9.619,0,0,1-1.464.133,9.426,9.426,0,0,1-1.449-.133c-.074-.015-.133-.015-.207-.03a9.174,9.174,0,0,1-1.39-.37l-.133-.044a9.539,9.539,0,0,1-2.676-1.508,14.427,14.427,0,0,0-8.707,13.32v4.243H8V37.27a1.131,1.131,0,0,1,2.262,0v6.859h4.464l.857-10.363a3.214,3.214,0,0,1,6.4-.015s.621,7.569.857,10.378H27.3V37.27a1.124,1.124,0,1,1,2.247,0v6.859Zm-7.51-24.806a7.066,7.066,0,0,0-14.133,0,6.975,6.975,0,0,0,2.262,5.144,7.316,7.316,0,0,0,.99.8c.074.044.148.074.222.118a8.185,8.185,0,0,0,.946.488c.177.074.355.1.532.163a6.333,6.333,0,0,0,.754.222,7.093,7.093,0,0,0,2.735,0,7.263,7.263,0,0,0,.754-.222,5.292,5.292,0,0,0,.517-.163,7.323,7.323,0,0,0,.961-.488c.059-.044.148-.074.207-.118a7.448,7.448,0,0,0,1.005-.8,7.017,7.017,0,0,0,2.247-5.144M20.578,44.129l-.843-10.171a.953.953,0,0,0-.961-.872.975.975,0,0,0-.961.872l-.843,10.171Z" transform="translate(0 4.788)"/>
    <rect id="Rectángulo_37374" data-name="Rectángulo 37374" width="2.07" height="14.384" transform="translate(45.28 7.495)" fill="#e69787"/>
    <path id="Trazado_129948" data-name="Trazado 129948" d="M30.114,6.794v13.5a1.123,1.123,0,0,1-1.124,1.124H24.674A1.123,1.123,0,0,1,23.55,20.29V6.794A1.123,1.123,0,0,1,24.674,5.67H28.99a1.123,1.123,0,0,1,1.124,1.124M27.867,7.917H25.8v11.25h2.07Z" transform="translate(11.264 2.712)"/>
    <rect id="Rectángulo_37375" data-name="Rectángulo 37375" width="2.07" height="11.25" transform="translate(37.061 10.629)" fill="#e69787"/>
    <path id="Trazado_129949" data-name="Trazado 129949" d="M31.987,34.53v4.243h-3.8V31.913a1.124,1.124,0,1,0-2.247,0v6.859H21.477c-.237-2.809-.857-10.378-.857-10.378a3.214,3.214,0,0,0-6.4.015l-.857,10.363H8.9V31.913a1.131,1.131,0,0,0-2.262,0v6.859H2.85V34.53a14.427,14.427,0,0,1,8.707-13.32,9.539,9.539,0,0,0,2.676,1.508l.133.044a9.174,9.174,0,0,0,1.39.37c.074.015.133.015.207.03a9.426,9.426,0,0,0,1.449.133,9.619,9.619,0,0,0,1.464-.133c.059-.015.133-.015.207-.03a8.559,8.559,0,0,0,1.375-.37l.133-.044A9.417,9.417,0,0,0,23.28,21.21a14.45,14.45,0,0,1,8.707,13.32" transform="translate(1.363 10.145)" fill="#d4eafd"/>
    <path id="Trazado_129950" data-name="Trazado 129950" d="M14.986,11.53a7.05,7.05,0,0,1,4.819,12.211,7.448,7.448,0,0,1-1.005.8c-.059.044-.148.074-.207.118a7.323,7.323,0,0,1-.961.488,5.292,5.292,0,0,1-.517.163,7.263,7.263,0,0,1-.754.222,7.093,7.093,0,0,1-2.735,0,6.333,6.333,0,0,1-.754-.222c-.177-.059-.355-.089-.532-.163a8.185,8.185,0,0,1-.946-.488c-.074-.044-.148-.074-.222-.118a7.316,7.316,0,0,1-.99-.8A6.975,6.975,0,0,1,7.92,18.6a7.076,7.076,0,0,1,7.066-7.066" transform="translate(3.788 5.515)" fill="#f8e794"/>
    <path id="Trazado_129951" data-name="Trazado 129951" d="M14.244,26.492l.843,10.171H11.48l.843-10.171a.975.975,0,0,1,.961-.872.953.953,0,0,1,.961.872" transform="translate(5.491 12.254)" fill="#6da7bf"/>
  </g>
</svg>
