<svg xmlns="http://www.w3.org/2000/svg" xmlns:xlink="http://www.w3.org/1999/xlink" width="47.665" height="51.164" viewBox="0 0 47.665 51.164">
  <defs>
    <clipPath id="clip-path">
      <rect id="Rectángulo_37381" data-name="Rectángulo 37381" width="47.665" height="51.164" fill="none"/>
    </clipPath>
  </defs>
  <g id="Grupo_157187" data-name="Grupo 157187" transform="translate(0 0)">
    <path id="Trazado_129952" data-name="Trazado 129952" d="M6.259,14.82h33.2V36.3H4.567Z" transform="translate(0.968 3.141)" fill="#d4eafd"/>
    <g id="Grupo_157186" data-name="Grupo 157186" transform="translate(0 0)">
      <g id="Grupo_157185" data-name="Grupo 157185" clip-path="url(#clip-path)">
        <path id="Trazado_129953" data-name="Trazado 129953" d="M29.878,6.091h4.294l-3.53-5.2S26.358,5.375,26.59,5.452s3.288.639,3.288.639" transform="translate(5.633 0.188)" fill="#99c23f"/>
        <rect id="Rectángulo_37377" data-name="Rectángulo 37377" width="3.66" height="23.469" transform="translate(9.379 13.964)" fill="#b8e151"/>
        <rect id="Rectángulo_37378" data-name="Rectángulo 37378" width="3.66" height="25.528" transform="translate(17.733 11.905)" fill="#99c23f"/>
        <rect id="Rectángulo_37379" data-name="Rectángulo 37379" width="3.66" height="27.075" transform="translate(26.166 10.358)" fill="#b8e151"/>
        <rect id="Rectángulo_37380" data-name="Rectángulo 37380" width="3.66" height="29.465" transform="translate(34.444 7.968)" fill="#99c23f"/>
        <path id="Trazado_129954" data-name="Trazado 129954" d="M47.665,19.28V42.962a5.234,5.234,0,0,1-5.236,5.223H5.223A5.224,5.224,0,0,1,0,42.962V19.28a5.232,5.232,0,0,1,5.223-5.223H6.3a.921.921,0,1,1,0,1.842H5.223A3.39,3.39,0,0,0,1.842,19.28V42.962a3.383,3.383,0,0,0,3.381,3.381H42.43a3.383,3.383,0,0,0,3.381-3.381V19.28A3.39,3.39,0,0,0,42.43,15.9H41.351a.921.921,0,0,1,0-1.842H42.43a5.242,5.242,0,0,1,5.236,5.223" transform="translate(0 2.979)"/>
        <path id="Trazado_129955" data-name="Trazado 129955" d="M45.489,19.119V42.8a3.383,3.383,0,0,1-3.381,3.381H4.9A3.383,3.383,0,0,1,1.52,42.8V19.119A3.39,3.39,0,0,1,4.9,15.738H5.98a.921.921,0,0,0,.921-.921H8.137v18.7H7.858a.934.934,0,0,0-.933.933H5.992c0-6.023.012-13.827.036-13.827a.922.922,0,1,0,0-1.843H5.071a.923.923,0,0,0-.933.921V42.219a.923.923,0,0,0,.933.921H41.95a.921.921,0,0,0,.921-.921V19.7a.921.921,0,0,0-.921-.921h-.97a.921.921,0,0,0-.921.921.933.933,0,0,0,.97.922V34.45h-.945a.931.931,0,0,0-.921-.933h-.279v-18.7h1.224a.921.921,0,0,0,.921.921h1.079a3.39,3.39,0,0,1,3.381,3.381" transform="translate(0.322 3.14)" fill="#d4eafd"/>
        <path id="Trazado_129956" data-name="Trazado 129956" d="M42.413,19.008V41.526a.921.921,0,0,1-.921.921H4.613a.923.923,0,0,1-.933-.921V19.008a.923.923,0,0,1,.933-.921h.957a.921.921,0,1,1,0,1.842c-.024,0-.036,7.8-.036,13.828V40.6H40.571V19.929a.932.932,0,0,1-.97-.921.921.921,0,0,1,.921-.921h.97a.921.921,0,0,1,.921.921" transform="translate(0.78 3.833)"/>
        <path id="Trazado_129957" data-name="Trazado 129957" d="M35.758,5.706a.93.93,0,0,1,.1.982.915.915,0,0,1-.824.509H32.51a.921.921,0,0,1,0-1.842h.63L30.826,2.4,28.511,5.354h.63a.921.921,0,0,1,0,1.842H26.62a.915.915,0,0,1-.824-.509.956.956,0,0,1,.1-.982L30.1.337a.954.954,0,0,1,1.454,0Z" transform="translate(5.447 0)"/>
        <path id="Trazado_129958" data-name="Trazado 129958" d="M40.247,31.017v6.847H5.21V31.017h.933a.923.923,0,0,0,.933.921h31.3a.921.921,0,0,0,.921-.921Z" transform="translate(1.104 6.573)" fill="#6da7bf"/>
        <path id="Trazado_129959" data-name="Trazado 129959" d="M38.217,35.264a.931.931,0,0,1,.921.933.921.921,0,0,1-.921.921H6.913A.923.923,0,0,1,5.98,36.2a.934.934,0,0,1,.933-.933h.279V13.5a.921.921,0,1,1,1.842,0V35.264h1.842V13.5a.921.921,0,1,1,1.842,0V35.264h2.872V11.5a.921.921,0,1,1,1.842,0V35.264h1.854V11.5a.921.921,0,1,1,1.842,0V35.264H24V9.729a.921.921,0,1,1,1.842,0V35.264h1.842V9.729a.921.921,0,1,1,1.842,0V35.264H32.4V7.5a.921.921,0,1,1,1.842,0V35.264h1.842V7.5a.921.921,0,0,1,.921-.922.931.931,0,0,1,.933.922V35.264Z" transform="translate(1.267 1.393)"/>
      </g>
    </g>
  </g>
</svg>
