<svg id="Grupo_157191" data-name="Grupo 157191" xmlns="http://www.w3.org/2000/svg" xmlns:xlink="http://www.w3.org/1999/xlink" width="55.891" height="40.085" viewBox="0 0 55.891 40.085">
  <defs>
    <clipPath id="clip-path">
      <rect id="Rectángulo_37383" data-name="Rectángulo 37383" width="55.891" height="40.085" fill="none"/>
    </clipPath>
  </defs>
  <g id="Grupo_157190" data-name="Grupo 157190" transform="translate(0 0)" clip-path="url(#clip-path)">
    <path id="Trazado_129969" data-name="Trazado 129969" d="M45.653,38.377H4.611a3.9,3.9,0,0,1-3.9-3.9V6.414a3.9,3.9,0,0,1,3.9-3.9H45.653a3.9,3.9,0,0,1,3.9,3.9V34.481a3.9,3.9,0,0,1-3.9,3.9" transform="translate(0.244 0.858)" fill="#6da7bf"/>
    <path id="Trazado_129970" data-name="Trazado 129970" d="M42.121,10.412V31.829H5.268V6.5H42.635Z" transform="translate(1.795 2.214)" fill="#d4eafd"/>
    <path id="Trazado_129971" data-name="Trazado 129971" d="M49.907,0a3.372,3.372,0,1,1,0,6.743,3.511,3.511,0,0,1-1.3-.255C46.032,11.328,42.6,17.83,42.252,18.5a.819.819,0,0,1-.094.188,1.047,1.047,0,0,1-.858.469,1,1,0,0,1-.335-.067l-9.438-2.279a3.37,3.37,0,0,1-2.923,1.7,3.331,3.331,0,0,1-2.024-.7L21.767,25.66a1.023,1.023,0,0,1-1.153.442l-6.341-1.823a3.352,3.352,0,1,1-.147-2.172L20.44,23.93l4.907-7.99a3.126,3.126,0,0,1-.107-.791,3.359,3.359,0,0,1,6.7-.335l8.821,2.132c.188-.349.429-.8.711-1.341.416-.8.925-1.77,1.475-2.8.295-.563.59-1.14.9-1.716,1.3-2.453,2.614-4.92,3.177-5.993a3.241,3.241,0,0,1-.483-1.716A3.379,3.379,0,0,1,49.907,0m1.341,3.378a1.334,1.334,0,1,0-1.341,1.327,1.333,1.333,0,0,0,1.341-1.327m-21.3,11.771a1.334,1.334,0,1,0-2.668,0,1.334,1.334,0,0,0,2.668,0M12.356,23.421a1.334,1.334,0,1,0-1.341,1.341,1.342,1.342,0,0,0,1.341-1.341" transform="translate(2.606 0)"/>
    <path id="Trazado_129972" data-name="Trazado 129972" d="M39.507,1.53A1.327,1.327,0,1,1,38.18,2.857,1.333,1.333,0,0,1,39.507,1.53" transform="translate(13.005 0.521)" fill="#e17764"/>
    <path id="Trazado_129973" data-name="Trazado 129973" d="M50.77,17.373V34.546a4.789,4.789,0,0,1-4.786,4.786H4.786A4.789,4.789,0,0,1,0,34.546V7A4.789,4.789,0,0,1,4.786,2.21h41.2a1.019,1.019,0,1,1,0,2.038H4.786A2.752,2.752,0,0,0,2.038,7v27.55a2.752,2.752,0,0,0,2.748,2.748h41.2a2.752,2.752,0,0,0,2.748-2.748V17.373a1.019,1.019,0,0,1,2.038,0" transform="translate(0 0.753)"/>
    <path id="Trazado_129974" data-name="Trazado 129974" d="M43.456,19.623V32.681A1.018,1.018,0,0,1,42.437,33.7H5.369A1.018,1.018,0,0,1,4.35,32.681V6.579A1.018,1.018,0,0,1,5.369,5.56H42.437a1.018,1.018,0,0,1,1.019,1.019V9.716a1.019,1.019,0,1,1-2.038,0V7.6H6.388V31.662H41.419V19.623a1.019,1.019,0,0,1,2.038,0" transform="translate(1.482 1.894)"/>
    <path id="Trazado_129975" data-name="Trazado 129975" d="M23.617,10.3a1.334,1.334,0,1,1,0,2.668,1.334,1.334,0,0,1,0-2.668" transform="translate(7.593 3.509)" fill="#e69787"/>
    <path id="Trazado_129976" data-name="Trazado 129976" d="M10.5,16.48A1.334,1.334,0,1,1,9.17,17.807,1.342,1.342,0,0,1,10.5,16.48" transform="translate(3.124 5.614)" fill="#e69787"/>
  </g>
</svg>
