<svg id="Grupo_157189" data-name="Grupo 157189" xmlns="http://www.w3.org/2000/svg" xmlns:xlink="http://www.w3.org/1999/xlink" width="48.201" height="51.164" viewBox="0 0 48.201 51.164">
  <defs>
    <clipPath id="clip-path">
      <rect id="Rectángulo_37382" data-name="Rectángulo 37382" width="48.201" height="51.164" fill="none"/>
    </clipPath>
  </defs>
  <g id="Grupo_157188" data-name="Grupo 157188" clip-path="url(#clip-path)">
    <path id="Trazado_129960" data-name="Trazado 129960" d="M14.509,6.336l2.222,33.94s13.452,4.781,19.607-5.33S40.655,17.6,40.655,17.6,35.385,8.074,32.1,6.267s-17.59.069-17.59.069" transform="translate(3.708 1.401)" fill="#d4eafd"/>
    <path id="Trazado_129961" data-name="Trazado 129961" d="M15.455,2.692V6.747s9.831-3.526,17.524,3.366,6.214,16.669,6.214,16.669-4.009,17.294-22.7,14.337l-.008,3.958s15.176,4.867,23.931-10.52-5.19-27.447-5.19-27.447A24.258,24.258,0,0,0,15.455,2.692" transform="translate(3.95 0.558)" fill="#6da7bf"/>
    <path id="Trazado_129962" data-name="Trazado 129962" d="M35.817,22.27H38.7a17.019,17.019,0,0,0-4.307-10.4L32.352,13.92a.97.97,0,0,1-1.356,0,.955.955,0,0,1,0-1.356l2.047-2.047a16.947,16.947,0,0,0-10.4-4.307V9.1a.961.961,0,0,1-1.921,0V6.2a16.777,16.777,0,0,0-4.972,1.017.943.943,0,0,1-1.23-.565,1.076,1.076,0,0,1-.063-.339.967.967,0,0,1,.628-.891,19.137,19.137,0,0,1,5.75-1.168c.276,0,.552-.013.841-.013a18.984,18.984,0,1,1-4.219,37.491.953.953,0,1,1,.427-1.858,17.919,17.919,0,0,0,2.838.377v-2.9a.961.961,0,0,1,1.921,0v2.9a16.959,16.959,0,0,0,10.4-4.319L31,33.9a.959.959,0,0,1,1.356-1.356L34.4,34.587A17.023,17.023,0,0,0,38.7,24.178H35.817a.954.954,0,1,1,0-1.908" transform="translate(3.695 1.084)"/>
    <path id="Trazado_129963" data-name="Trazado 129963" d="M42.187,46.731a.954.954,0,1,1,0,1.908H.954a.954.954,0,1,1,0-1.908H4.307V30.27H2.273A2.288,2.288,0,0,1,0,28V16.359A6.489,6.489,0,0,1,6.491,9.88h9.354a6.478,6.478,0,0,1,6.479,6.479V28a2.28,2.28,0,0,1-2.273,2.273H18.03v16.46H42.187ZM20.415,28V16.359a4.571,4.571,0,0,0-4.57-4.57H6.491a4.571,4.571,0,0,0-4.57,4.57V28a.343.343,0,0,0,.352.352H4.307v-8.8a.954.954,0,1,1,1.908,0V46.731h3.993V32.216a.954.954,0,1,1,1.908,0V46.731h4.005V19.548a.954.954,0,0,1,1.908,0v8.8h2.021A.354.354,0,0,0,20.415,28" transform="translate(0 2.525)"/>
    <path id="Trazado_129964" data-name="Trazado 129964" d="M21.431,1.19a22.82,22.82,0,1,1,0,45.64,22.144,22.144,0,0,1-4.181-.389A.952.952,0,1,1,17.6,44.57a21.725,21.725,0,0,0,3.829.352,20.911,20.911,0,1,0,0-41.823c-.3,0-.6.013-.9.025a20.56,20.56,0,0,0-3.917.527.954.954,0,0,1-1.155-.7.972.972,0,0,1,.716-1.155,23.16,23.16,0,0,1,5.261-.6" transform="translate(3.944 0.304)"/>
    <path id="Trazado_129965" data-name="Trazado 129965" d="M27.385,25.979a.955.955,0,0,1,0,1.356.955.955,0,0,1-1.343,0l-6.3-6.3a.931.931,0,0,1-.289-.678v-3.93a.961.961,0,0,1,1.921,0v3.541Z" transform="translate(4.971 3.954)"/>
    <path id="Trazado_129966" data-name="Trazado 129966" d="M20.024,15.97V27.609a.354.354,0,0,1-.364.352H17.639v-8.8a.954.954,0,1,0-1.908,0V46.342H11.725V31.828a.954.954,0,1,0-1.908,0V46.342H5.824V19.159a.954.954,0,1,0-1.908,0v8.8H1.882a.343.343,0,0,1-.352-.352V15.97A4.571,4.571,0,0,1,6.1,11.4h9.354a4.571,4.571,0,0,1,4.57,4.57" transform="translate(0.391 2.913)" fill="#e69787"/>
    <path id="Trazado_129967" data-name="Trazado 129967" d="M15.672,5.637A5.631,5.631,0,1,1,10.035,0a5.66,5.66,0,0,1,5.637,5.637m-1.908,0a3.723,3.723,0,1,0-3.729,3.729,3.727,3.727,0,0,0,3.729-3.729" transform="translate(1.127)"/>
    <path id="Trazado_129968" data-name="Trazado 129968" d="M9.646,1.53A3.723,3.723,0,1,1,5.93,5.246,3.727,3.727,0,0,1,9.646,1.53" transform="translate(1.515 0.391)" fill="#f8e794"/>
  </g>
</svg>
