<svg xmlns="http://www.w3.org/2000/svg" xmlns:xlink="http://www.w3.org/1999/xlink" width="101.841" height="101.841" viewBox="0 0 101.841 101.841">
  <defs>
    <filter id="Trazado_127721" x="0" y="0" width="101.841" height="101.841" filterUnits="userSpaceOnUse">
      <feOffset dy="3" input="SourceAlpha"/>
      <feGaussianBlur stdDeviation="3" result="blur"/>
      <feFlood flood-opacity="0.161"/>
      <feComposite operator="in" in2="blur"/>
      <feComposite in="SourceGraphic"/>
    </filter>
    <clipPath id="clip-path">
      <rect id="Rectángulo_37342" data-name="Rectángulo 37342" width="32.832" height="27.873" fill="none"/>
    </clipPath>
  </defs>
  <g id="Grupo_157819" data-name="Grupo 157819" transform="translate(9 6)">
    <g transform="matrix(1, 0, 0, 1, -9, -6)" filter="url(#Trazado_127721)">
      <path id="Trazado_127721-2" data-name="Trazado 127721" d="M41.92,0A41.92,41.92,0,1,1,0,41.92,41.92,41.92,0,0,1,41.92,0Z" transform="translate(9 6)" fill="#fff"/>
    </g>
    <g id="Grupo_156593" data-name="Grupo 156593" transform="translate(13.06 13.55)">
      <path id="Trazado_127053" data-name="Trazado 127053" d="M15.172,123.3c-.385.086-.474-.1-.47-.455.01-.9-.006-.916-.937-.91-.346,0-.454-.105-.448-.448.006-.319.065-.468.433-.467.934,0,.958-.015.948-.948,0-.422.2-.43.515-.433s.475.049.475.424c0,.944.019.961.942.957.357,0,.441.127.442.459s-.084.458-.441.456c-.94-.005-.963.012-.942.9.01.413-.143.534-.518.462" transform="translate(-13.318 -86.609)" fill="#29c4bb"/>
      <path id="Trazado_127054" data-name="Trazado 127054" d="M213.39,151.158c.344-.066.535.048.478.438-.047.326.065.508.426.452s.482.075.485.454c0,.4-.16.49-.5.444-.324-.044-.427.1-.421.42.01.505-.3.7-.791.546-.232-.073-.181-.258-.166-.4.041-.4-.051-.644-.522-.564-.365.062-.387-.167-.386-.447s.012-.506.382-.449c.4.062.588-.084.521-.506-.063-.4.195-.42.493-.385" transform="translate(-157.352 -108.476)" fill="#29c4bb"/>
      <path id="Trazado_127055" data-name="Trazado 127055" d="M210.218,69.017c.089.384-.087.515-.447.455-.39-.066-.549.094-.48.482s-.1.464-.459.468-.516-.107-.451-.472c.07-.388-.092-.548-.478-.476s-.435-.134-.45-.47c-.018-.395.136-.5.479-.438.374.065.513-.09.45-.454-.061-.349.052-.491.441-.477.343.012.541.061.468.454s.1.541.481.477c.36-.061.535.068.446.452" transform="translate(-153.737 -51.302)" fill="#010000"/>
      <path id="Trazado_127056" data-name="Trazado 127056" d="M54.541,186.388c.084.358-.093.49-.451.425-.421-.076-.52.143-.46.5.067.394-.124.455-.47.453-.331,0-.508-.077-.439-.433.091-.468-.143-.583-.546-.514s-.394-.19-.4-.474.006-.507.379-.434c.5.1.631-.142.563-.592-.065-.431.263-.307.482-.32s.491-.044.423.33c-.084.462.078.676.567.582.408-.078.358.206.346.479" transform="translate(-41.202 -131.68)" fill="#010000"/>
      <path id="Trazado_127057" data-name="Trazado 127057" d="M121.782,17.18c-.1-.409.13-.488.464-.439s.484-.092.431-.434.049-.5.442-.49c.362.007.527.1.464.473s.111.505.469.451c.331-.05.5.03.5.434s-.154.525-.515.468c-.381-.061-.511.113-.452.469.066.4-.148.445-.484.452-.359.007-.476-.128-.423-.457.058-.361-.076-.526-.453-.463s-.525-.09-.443-.464" transform="translate(-91.933 -15.817)" fill="#29c4bb"/>
    </g>
    <g id="Grupo_157146" data-name="Grupo 157146" transform="translate(25.441 27.754)">
      <g id="Grupo_157145" data-name="Grupo 157145" clip-path="url(#clip-path)">
        <path id="Trazado_128920" data-name="Trazado 128920" d="M17.986,5.76A10.031,10.031,0,1,1,8.3,18.409a.508.508,0,0,0-.623-.359.639.639,0,0,0-.156.068l-.556-.935L8.461,16.3h2.066v.63a.593.593,0,0,0-.108.014.5.5,0,0,0-.386.6,8.15,8.15,0,1,0,0-3.51.5.5,0,0,0,.386.6.593.593,0,0,0,.108.014v.63H8.461L6.97,14.405l.556-.942a.455.455,0,0,0,.156.068.5.5,0,0,0,.623-.352A10.035,10.035,0,0,1,17.986,5.76" transform="translate(-2.248 -1.858)" fill="#e09d31"/>
        <path id="Trazado_128921" data-name="Trazado 128921" d="M16.857,1.49A13.211,13.211,0,0,0,4.169,11.081c-.5.205-.756,1.907-.689,2.455a15.3,15.3,0,0,1,.3,2.068l-.241.144a3.806,3.806,0,0,0,.161.919.624.624,0,0,1,.094,0c0,.106,0,.212,0,.318a.869.869,0,0,1-.007.441v.034A1.167,1.167,0,0,0,4.673,18.7,12.922,12.922,0,1,0,16.857,1.49m0,23.97A11.056,11.056,0,0,1,6.384,17.9a1.412,1.412,0,0,0,.093-.441A19.621,19.621,0,0,0,6.2,13.434l.2-1.348a.5.5,0,0,1-.2-.549A11.045,11.045,0,1,1,16.857,25.46" transform="translate(-1.119 -0.481)" fill="#fdc367"/>
        <path id="Trazado_128922" data-name="Trazado 128922" d="M33.323,26.857a.508.508,0,0,1,0,1.016H10.362a.508.508,0,0,1,0-1.016h1.206A13.962,13.962,0,0,1,3.085,16.782a.508.508,0,0,1,.23-.528.436.436,0,0,1,.163-.068.5.5,0,0,1,.6.393,12.924,12.924,0,1,0,0-5.291.5.5,0,0,1-.488.407.593.593,0,0,1-.108-.014.508.508,0,0,1-.393-.6A13.984,13.984,0,0,1,16.73,0h2.134A13.951,13.951,0,0,1,32.808,13.936a13.8,13.8,0,0,1-1.863,6.924l1.619,6Zm-1.809,0-1.308-4.844a14.05,14.05,0,0,1-3.157,3.178L28.2,26.857Zm.278-12.92A12.94,12.94,0,0,0,24.1,2.127a13.9,13.9,0,0,1,0,23.611,12.93,12.93,0,0,0,7.69-11.8m-4.824,12.92-.759-1.1a13.082,13.082,0,0,1-2.148,1.1Z" transform="translate(-0.992)"/>
        <path id="Trazado_128923" data-name="Trazado 128923" d="M41.617,32.49l1.308,4.844H39.612L38.46,35.668a14.051,14.051,0,0,0,3.157-3.178" transform="translate(-12.403 -10.478)" fill="#fdc367"/>
        <path id="Trazado_128924" data-name="Trazado 128924" d="M34.11,3.14a12.907,12.907,0,0,1,0,23.611,13.9,13.9,0,0,0,0-23.611" transform="translate(-11 -1.013)" fill="#ffeb92"/>
        <path id="Trazado_128925" data-name="Trazado 128925" d="M18.145,4.27A11.043,11.043,0,1,1,7.481,18.193a.515.515,0,0,1,.2-.556.639.639,0,0,1,.156-.068.508.508,0,0,1,.623.359,10.034,10.034,0,1,0,0-5.23.5.5,0,0,1-.623.352.455.455,0,0,1-.156-.068.5.5,0,0,1-.2-.549A11.052,11.052,0,0,1,18.145,4.27" transform="translate(-2.407 -1.377)"/>
        <path id="Trazado_128926" data-name="Trazado 128926" d="M19.438,8.54a8.15,8.15,0,1,1-7.954,9.905.5.5,0,0,1,.386-.6.593.593,0,0,1,.108-.014.512.512,0,0,1,.495.4,7.141,7.141,0,1,0,0-3.076.512.512,0,0,1-.495.4.593.593,0,0,1-.108-.014.5.5,0,0,1-.386-.6,8.193,8.193,0,0,1,7.954-6.4" transform="translate(-3.699 -2.754)"/>
        <path id="Trazado_128927" data-name="Trazado 128927" d="M19.679,10.03a7.138,7.138,0,1,1-6.965,8.679.512.512,0,0,0-.495-.4v-.63h3.008v.63a.5.5,0,0,0-.474.684,5.257,5.257,0,1,0,0-3.645.5.5,0,0,0,.3.65.541.541,0,0,0,.176.034v.63H12.22v-.63a.512.512,0,0,0,.495-.4,7.172,7.172,0,0,1,6.965-5.6" transform="translate(-3.941 -3.235)" fill="#fdc367"/>
        <path id="Trazado_128928" data-name="Trazado 128928" d="M20.869,12.81a5.257,5.257,0,1,1-4.926,7.08.5.5,0,0,1,.474-.684.5.5,0,0,1,.474.332,4.248,4.248,0,1,0,0-2.94.5.5,0,0,1-.474.332.541.541,0,0,1-.176-.034.5.5,0,0,1-.3-.65,5.274,5.274,0,0,1,4.926-3.435" transform="translate(-5.131 -4.131)"/>
        <path id="Trazado_128929" data-name="Trazado 128929" d="M21.111,14.3a4.245,4.245,0,1,1-3.977,5.718.5.5,0,0,0-.474-.332v-.63h3.11a.421.421,0,0,0,.061.176.506.506,0,0,0,.447.271.494.494,0,0,0,.237-.061L21.348,19a.517.517,0,0,0,.115-.088c.007-.007.007-.014.014-.014a.543.543,0,0,0,.088-.129c.007-.014.014-.034.02-.047a.577.577,0,0,0,.027-.156.024.024,0,0,0,.007-.014v-.014a.478.478,0,0,0-.041-.169.1.1,0,0,0-.014-.041.7.7,0,0,0-.081-.115c-.007-.007-.014-.02-.027-.027a.453.453,0,0,0-.129-.095l-.833-.4a.516.516,0,0,0-.678.244.634.634,0,0,0-.027.108H16.66v-.63a.5.5,0,0,0,.474-.332A4.261,4.261,0,0,1,21.111,14.3m3.306,4.248A3.25,3.25,0,0,0,21.172,15.3a.508.508,0,0,0,0,1.016,2.229,2.229,0,1,1,0,4.458.5.5,0,0,0,0,1.009,3.244,3.244,0,0,0,3.245-3.239" transform="translate(-5.373 -4.612)" fill="#e09d31"/>
        <path id="Trazado_128930" data-name="Trazado 128930" d="M23.081,15.78a3.242,3.242,0,1,1,0,6.484.5.5,0,0,1,0-1.009,2.229,2.229,0,1,0,0-4.458.508.508,0,0,1,0-1.016" transform="translate(-7.282 -5.089)"/>
        <path id="Trazado_128931" data-name="Trazado 128931" d="M16.247,19.614v.007a.024.024,0,0,1-.007.014.577.577,0,0,1-.027.156c-.007.014-.014.034-.02.047a.543.543,0,0,1-.088.129c-.007,0-.007.007-.014.014a.517.517,0,0,1-.115.088l-.833.447a.494.494,0,0,1-.237.061.506.506,0,0,1-.447-.271.421.421,0,0,1-.061-.176H6.213l-1.491.881-.908.535a.488.488,0,0,1-.257.068.507.507,0,0,1-.257-.942l.921-.542H3.8L1.917,21.247l-.508.3a.509.509,0,0,1-.522-.874l.921-.542H.508a.508.508,0,1,1,0-1.016h1.3l-.921-.542a.509.509,0,0,1,.522-.874L3.8,19.113h.42L3.3,18.571a.513.513,0,0,1-.176-.7.544.544,0,0,1,.19-.183.509.509,0,0,1,.5.007l.908.535,1.491.881h8.2A.634.634,0,0,1,14.445,19a.516.516,0,0,1,.678-.244l.833.4a.453.453,0,0,1,.129.095c.014.007.02.02.027.027a.7.7,0,0,1,.081.115.1.1,0,0,1,.014.041.478.478,0,0,1,.041.169Z" transform="translate(0 -5.684)"/>
      </g>
    </g>
  </g>
</svg>
