<svg xmlns="http://www.w3.org/2000/svg" width="135.358" height="136.192" viewBox="0 0 135.358 136.192">
  <g id="Grupo_156409" data-name="Grupo 156409" transform="translate(-304.861 -6054.808)">
    <g id="Grupo_156408" data-name="Grupo 156408" transform="translate(361.208 6052) rotate(30)">
      <path id="Trazado_126789" data-name="Trazado 126789" d="M1.722,9.085,0,13.374l22.72,22.72a3.238,3.238,0,0,0,4.579,0c4.377-3.664,5.106-14.5,1.722-17.88L10.808,0Z" transform="translate(24.46 75.373)" fill="#1e009b"/>
      <path id="Trazado_126790" data-name="Trazado 126790" d="M27.3,31.806h0a3.238,3.238,0,0,1-4.579,0L0,9.085,9.085,0,27.3,18.214a9.61,9.61,0,0,1,0,13.591" transform="translate(24.46 79.662)" fill="#4631c8"/>
      <path id="Trazado_126791" data-name="Trazado 126791" d="M12.2,3.115,9.085,0,0,9.085l2.473,2.473c1.112-4.229,5.3-7,9.727-8.444" transform="translate(24.46 79.662)" fill="#1e009b"/>
      <path id="Trazado_126792" data-name="Trazado 126792" d="M24.067,20.008h0a13.859,13.859,0,0,1-19.6,0L4.059,19.6a13.859,13.859,0,0,1,0-19.6Z" transform="translate(1.009 66.144)" fill="#f1f1f1"/>
      <path id="Trazado_126793" data-name="Trazado 126793" d="M.813,66a2.789,2.789,0,0,0-.754,2.525c.461,2.153,2.006,6.353,7.155,11.5s9.349,6.694,11.5,7.155a2.79,2.79,0,0,0,2.525-.754c25.777-25.127,66-39.067,66-39.067L63.563,23.683,39.88,0S25.94,40.227.813,66" transform="translate(1.733 2.242)" fill="#fff"/>
      <path id="Trazado_126794" data-name="Trazado 126794" d="M2.58,33.214C.6,38.616-1.4,45.688,1.335,51.245c3.6,7.317,14.009,5.467,20.132,3.377,21.366-7.295,36.975-7.257,36.975-7.257L11.077,0s.071,9.805-8.5,33.214" transform="translate(30.537 2.241)" fill="#fbfbfb"/>
      <path id="Trazado_126795" data-name="Trazado 126795" d="M2.162.895c-3.143,2.189-2.421,7.891-.6,11.37A92.209,92.209,0,0,0,18.389,34.6c6.427,6.427,13.755,12.732,22.087,16.553,2.333,1.07,5.163,2.244,7.8,1.931,7.819-.93,4.086-10.506,1.909-14.634-3.947-7.483-9.606-14.128-15.56-20.082A91.5,91.5,0,0,0,16.528,3.921C13.378,2.074,9.691.256,5.991.019A5.872,5.872,0,0,0,2.162.895" transform="translate(38.23 0)" fill="#1e009b"/>
      <path id="Trazado_126796" data-name="Trazado 126796" d="M30.775,17C43.4,29.628,50.558,42.949,46.753,46.753S29.628,43.4,17,30.775-2.783,4.825,1.021,1.021,18.147,4.371,30.775,17" transform="translate(41.65 1.795)" fill="#fff"/>
      <path id="Trazado_126797" data-name="Trazado 126797" d="M0,0C2.068,5.992,7.965,14.5,16.187,22.726S32.922,36.846,38.913,38.913c-2.068-5.992-7.965-14.5-16.187-22.726S5.991,2.068,0,0" transform="translate(42.462 9.845)" fill="#f0f0f0"/>
      <path id="Trazado_126798" data-name="Trazado 126798" d="M37.417,25.733C34.079,24.7,29.006,21.2,24.07,16.262S15.634,6.26,14.6,2.922A3.9,3.9,0,0,1,14.542,0,131.421,131.421,0,0,1,1.305,16.152,4.512,4.512,0,0,0,.1,20.25C.581,22.5,2.214,27.105,7.722,32.614s10.111,7.141,12.364,7.624a4.513,4.513,0,0,0,4.1-1.207A131.478,131.478,0,0,1,40.366,25.773a3.839,3.839,0,0,1-2.949-.04" transform="translate(0 50.884)" fill="#4e35e7"/>
      <path id="Trazado_126799" data-name="Trazado 126799" d="M.008,0,0,.011A.107.107,0,0,1,.008,0Z" transform="translate(14.777 50.544)" fill="#4e35e7"/>
      <path id="Trazado_126800" data-name="Trazado 126800" d="M.094,0l0,0C.061.026.029.047,0,.071L.094,0" transform="translate(40.582 76.431)" fill="#4e35e7"/>
      <path id="Trazado_126801" data-name="Trazado 126801" d="M0,.329C.078.219.157.11.234,0A1.547,1.547,0,0,0,0,.329" transform="translate(14.542 50.555)"/>
      <path id="Trazado_126802" data-name="Trazado 126802" d="M.217,0,0,.154A1.561,1.561,0,0,0,.217,0" transform="translate(40.366 76.502)"/>
      <path id="Trazado_126803" data-name="Trazado 126803" d="M26.822,24q-.828.567-1.653,1.147c0,.005,0,.014,0,.02s-.02,0-.029,0h0c-1.153.327-6.685-1.821-14.128-9.264C3.586,8.489,1.428,2.969,1.74,1.794a.134.134,0,0,0,0-.014.165.165,0,0,1,0-.029c.007,0,.02,0,.027,0Q2.353.922,2.92.094A2.618,2.618,0,0,0,.511.514C.505.52.5.527.5.533L.488.543C.411.653.331.762.254.872A3.9,3.9,0,0,0,.312,3.795C1.345,7.132,4.849,12.2,9.782,17.134s10.009,8.441,13.346,9.471a3.84,3.84,0,0,0,2.949.039l.217-.154c.029-.024.062-.045.089-.071.006-.006.013-.009.019-.015a2.613,2.613,0,0,0,.421-2.4" transform="translate(14.289 50.012)" fill="#1e009b"/>
      <path id="Trazado_126804" data-name="Trazado 126804" d="M.031.02s0-.014,0-.02L0,.024c.009,0,.023,0,.031,0" transform="translate(39.423 75.16)"/>
      <path id="Trazado_126805" data-name="Trazado 126805" d="M0,.048.034,0C.026,0,.014,0,.007,0S0,.035,0,.048" transform="translate(16.029 51.757)"/>
      <path id="Trazado_126806" data-name="Trazado 126806" d="M24.146,12.354c-.3-1.386-1.3-4.216-4.689-7.6S13.238.357,11.853.061A2.776,2.776,0,0,0,9.332.8,79.861,79.861,0,0,1,0,8.516a102.477,102.477,0,0,0,7.036,7.779,101.212,101.212,0,0,0,8.733,7.8A79.649,79.649,0,0,1,23.4,14.874a2.775,2.775,0,0,0,.743-2.52" transform="translate(51.613 16.276)" fill="#4e35e7"/>
      <path id="Trazado_126807" data-name="Trazado 126807" d="M7.77,4.369c3.217,3.217,5.063,6.586,4.124,7.525S7.585,10.986,4.369,7.77-.694,1.184.245.245s4.308.907,7.525,4.124" transform="translate(62.753 17.171)" fill="#1e009b"/>
      <path id="Trazado_126808" data-name="Trazado 126808" d="M6.224,6.224h0a2.323,2.323,0,0,1-3.285,0L.68,3.965A2.323,2.323,0,0,1,3.965.68L6.224,2.939a2.323,2.323,0,0,1,0,3.285" transform="translate(33.791 89.306)" fill="#f1f1f1"/>
      <path id="Trazado_126809" data-name="Trazado 126809" d="M2.926.484A1.508,1.508,0,0,0,.753.442L.488.692A1.551,1.551,0,0,0,.452,2.915l2.4,2.414a1.756,1.756,0,0,0,2.554-.074L5.544,5.1a1.338,1.338,0,0,0-.016-1.8Z" transform="translate(34.203 89.745)" fill="#1e009b"/>
      <path id="Trazado_126810" data-name="Trazado 126810" d="M4.98,5.172h0A1.515,1.515,0,0,1,2.8,5.129L.4,2.544A1.515,1.515,0,0,1,2.627.486L5.02,3.071a1.515,1.515,0,0,1-.04,2.1" transform="translate(34.507 89.748)" fill="#4631c8"/>
      <path id="Trazado_126811" data-name="Trazado 126811" d="M0,1.34a2.6,2.6,0,0,1,.617-.8A2.572,2.572,0,0,1,1.474,0,2.573,2.573,0,0,1,.857.8,2.6,2.6,0,0,1,0,1.34" transform="translate(36.46 91.941)" fill="#1e009b"/>
    </g>
    <rect id="Rectángulo_36879" data-name="Rectángulo 36879" width="135" height="134" transform="translate(304.861 6057)" fill="none"/>
  </g>
</svg>
