<svg xmlns="http://www.w3.org/2000/svg" xmlns:xlink="http://www.w3.org/1999/xlink" width="101.841" height="101.841" viewBox="0 0 101.841 101.841">
  <defs>
    <filter id="Trazado_127721" x="0" y="0" width="101.841" height="101.841" filterUnits="userSpaceOnUse">
      <feOffset dy="3" input="SourceAlpha"/>
      <feGaussianBlur stdDeviation="3" result="blur"/>
      <feFlood flood-opacity="0.161"/>
      <feComposite operator="in" in2="blur"/>
      <feComposite in="SourceGraphic"/>
    </filter>
    <clipPath id="clip-path">
      <rect id="Rectángulo_37338" data-name="Rectángulo 37338" width="33.536" height="29.735" fill="none"/>
    </clipPath>
  </defs>
  <g id="Grupo_157822" data-name="Grupo 157822" transform="translate(9 6)">
    <g transform="matrix(1, 0, 0, 1, -9, -6)" filter="url(#Trazado_127721)">
      <path id="Trazado_127721-2" data-name="Trazado 127721" d="M41.92,0A41.92,41.92,0,1,1,0,41.92,41.92,41.92,0,0,1,41.92,0Z" transform="translate(9 6)" fill="#fff"/>
    </g>
    <g id="Grupo_156593" data-name="Grupo 156593" transform="translate(13.06 13.55)">
      <path id="Trazado_127053" data-name="Trazado 127053" d="M15.172,123.3c-.385.086-.474-.1-.47-.455.01-.9-.006-.916-.937-.91-.346,0-.454-.105-.448-.448.006-.319.065-.468.433-.467.934,0,.958-.015.948-.948,0-.422.2-.43.515-.433s.475.049.475.424c0,.944.019.961.942.957.357,0,.441.127.442.459s-.084.458-.441.456c-.94-.005-.963.012-.942.9.01.413-.143.534-.518.462" transform="translate(-13.318 -86.609)" fill="#29c4bb"/>
      <path id="Trazado_127054" data-name="Trazado 127054" d="M213.39,151.158c.344-.066.535.048.478.438-.047.326.065.508.426.452s.482.075.485.454c0,.4-.16.49-.5.444-.324-.044-.427.1-.421.42.01.505-.3.7-.791.546-.232-.073-.181-.258-.166-.4.041-.4-.051-.644-.522-.564-.365.062-.387-.167-.386-.447s.012-.506.382-.449c.4.062.588-.084.521-.506-.063-.4.195-.42.493-.385" transform="translate(-157.352 -108.476)" fill="#29c4bb"/>
      <path id="Trazado_127055" data-name="Trazado 127055" d="M210.218,69.017c.089.384-.087.515-.447.455-.39-.066-.549.094-.48.482s-.1.464-.459.468-.516-.107-.451-.472c.07-.388-.092-.548-.478-.476s-.435-.134-.45-.47c-.018-.395.136-.5.479-.438.374.065.513-.09.45-.454-.061-.349.052-.491.441-.477.343.012.541.061.468.454s.1.541.481.477c.36-.061.535.068.446.452" transform="translate(-153.737 -51.302)" fill="#010000"/>
      <path id="Trazado_127056" data-name="Trazado 127056" d="M54.541,186.388c.084.358-.093.49-.451.425-.421-.076-.52.143-.46.5.067.394-.124.455-.47.453-.331,0-.508-.077-.439-.433.091-.468-.143-.583-.546-.514s-.394-.19-.4-.474.006-.507.379-.434c.5.1.631-.142.563-.592-.065-.431.263-.307.482-.32s.491-.044.423.33c-.084.462.078.676.567.582.408-.078.358.206.346.479" transform="translate(-41.202 -131.68)" fill="#010000"/>
      <path id="Trazado_127057" data-name="Trazado 127057" d="M121.782,17.18c-.1-.409.13-.488.464-.439s.484-.092.431-.434.049-.5.442-.49c.362.007.527.1.464.473s.111.505.469.451c.331-.05.5.03.5.434s-.154.525-.515.468c-.381-.061-.511.113-.452.469.066.4-.148.445-.484.452-.359.007-.476-.128-.423-.457.058-.361-.076-.526-.453-.463s-.525-.09-.443-.464" transform="translate(-91.933 -15.817)" fill="#29c4bb"/>
    </g>
    <g id="Grupo_157142" data-name="Grupo 157142" transform="translate(25.441 27.176)">
      <g id="Grupo_157141" data-name="Grupo 157141" transform="translate(0 0)" clip-path="url(#clip-path)">
        <path id="Trazado_128899" data-name="Trazado 128899" d="M33.185,14.491a1.777,1.777,0,0,1-1.428,2.835h-.273v1.12a.531.531,0,0,1-.136.359l-.761.854.632.373a.53.53,0,0,1,.266.459v1.22a3.124,3.124,0,0,1-3.122,3.122H25.72v3.833H27.7a.535.535,0,1,1,0,1.069H5.832a.535.535,0,1,1,0-1.069H7.813V24.833H5.172A3.124,3.124,0,0,1,2.05,21.711v-1.22a.53.53,0,0,1,.266-.459l.632-.373L2.186,18.8a.531.531,0,0,1-.136-.359v-1.12H1.777A1.777,1.777,0,0,1,.349,14.491L1.461,13A6.279,6.279,0,0,0,2.717,9.244,9.189,9.189,0,0,1,11.9,0a.349.349,0,0,1,.086.007,12.537,12.537,0,0,1,1.371.036A10.322,10.322,0,0,1,16.77.969a10.235,10.235,0,0,1,3.4-.926A10.967,10.967,0,0,1,21.543.007.379.379,0,0,1,21.636,0a9.189,9.189,0,0,1,9.18,9.244A6.279,6.279,0,0,0,32.072,13Zm-.8,1.378a.707.707,0,0,0-.065-.739l-1.112-1.493a7.435,7.435,0,0,1-1.471-4.4,8.1,8.1,0,0,0-8-8.161.78.78,0,0,1-.129.007,10.364,10.364,0,0,0-1.335.029,9.469,9.469,0,0,0-2.29.517,10.571,10.571,0,0,1,3.8,4.2A10.34,10.34,0,0,1,19.8,24.761a11.955,11.955,0,0,0,.28,1.529,12.4,12.4,0,0,0,.833,2.376h3.739V24.295a.536.536,0,0,1,.531-.538h3.18a2.051,2.051,0,0,0,2.053-2.046V20.8l-.933-.545a.536.536,0,0,1-.129-.818l1.062-1.191V16.788a.53.53,0,0,1,.531-.531h.811a.7.7,0,0,0,.632-.388m-6.345-1A9.282,9.282,0,0,0,20.933,6.6c-.237-.122-.474-.23-.725-.33-.1-.043-.208-.079-.316-.115-.23-.086-.467-.158-.7-.222-.1-.029-.208-.057-.316-.079a6.894,6.894,0,0,0-.768-.144c-.093-.014-.187-.036-.28-.043a8.707,8.707,0,0,0-2.117,0c-.093.007-.187.029-.28.043a6.893,6.893,0,0,0-.768.144c-.108.022-.215.05-.316.079-.237.065-.474.136-.7.222-.108.036-.215.072-.316.115-.244.1-.481.208-.718.33a9.256,9.256,0,0,0,2.046,17.29c.237.057.474.1.718.136a2.437,2.437,0,0,0,.33.05,7.95,7.95,0,0,0,2.132,0,2.437,2.437,0,0,0,.33-.05c.244-.036.481-.079.718-.136a9.272,9.272,0,0,0,7.163-9.015m-6.086-9.84c.043.014.086.022.129.036A9.573,9.573,0,0,0,16.77,2.175a9.532,9.532,0,0,0-3.323,2.892c.043-.014.086-.022.129-.036l.366-.108c.179-.05.359-.093.538-.136l.395-.086c.194-.036.388-.057.581-.086l.352-.043c.323-.029.639-.05.962-.05s.632.022.955.05c.115.007.23.029.352.043q.291.032.581.086l.395.086c.179.043.359.086.538.136l.366.108M13.806,28.666h5.921a14.949,14.949,0,0,1-.7-2.117,14.625,14.625,0,0,1-.294-1.522c-.194.036-.388.057-.589.086-.115.014-.237.036-.359.05a10.435,10.435,0,0,1-2.046,0c-.122-.014-.244-.036-.366-.05-.194-.029-.388-.05-.581-.086a15,15,0,0,1-.294,1.522,14.949,14.949,0,0,1-.7,2.117M15.55,1.629a9.469,9.469,0,0,0-2.29-.517,10.364,10.364,0,0,0-1.335-.029.78.78,0,0,1-.129-.007,8.1,8.1,0,0,0-8,8.161,7.371,7.371,0,0,1-1.471,4.4L1.21,15.13a.705.705,0,0,0,.567,1.127h.811a.53.53,0,0,1,.531.531v1.457l1.062,1.191a.536.536,0,0,1-.129.818l-.933.545v.912a2.051,2.051,0,0,0,2.053,2.046h3.18a.542.542,0,0,1,.538.538v4.371h3.732a12.9,12.9,0,0,0,.84-2.376,15.117,15.117,0,0,0,.28-1.529A10.338,10.338,0,0,1,11.753,5.828a10.571,10.571,0,0,1,3.8-4.2" transform="translate(0 0)"/>
        <path id="Trazado_128900" data-name="Trazado 128900" d="M39.4,15.552a.705.705,0,0,1-.567,1.127h-.811a.53.53,0,0,0-.531.531v1.457l-1.062,1.191a.536.536,0,0,0,.129.818l.933.545v.912a2.051,2.051,0,0,1-2.053,2.046h-3.18a.536.536,0,0,0-.531.538v4.371H27.984a12.4,12.4,0,0,1-.833-2.376,11.955,11.955,0,0,1-.28-1.529A10.34,10.34,0,0,0,28.853,6.25a10.571,10.571,0,0,0-3.8-4.2,9.469,9.469,0,0,1,2.29-.517,10.364,10.364,0,0,1,1.335-.029A.78.78,0,0,0,28.81,1.5a8.1,8.1,0,0,1,8,8.161,7.435,7.435,0,0,0,1.471,4.4Z" transform="translate(-7.073 -0.422)" fill="#ffeb92"/>
        <path id="Trazado_128901" data-name="Trazado 128901" d="M23.882,8.8a9.255,9.255,0,0,1-2.053,17.29c-.237.057-.474.1-.718.136a2.437,2.437,0,0,1-.33.05,7.95,7.95,0,0,1-2.132,0,2.437,2.437,0,0,1-.33-.05c-.244-.036-.481-.079-.718-.136A9.256,9.256,0,0,1,15.556,8.8c.237-.122.474-.23.718-.33.1-.043.208-.079.316-.115.23-.086.467-.158.7-.222.1-.029.208-.057.316-.079a6.893,6.893,0,0,1,.768-.144c.093-.014.187-.036.28-.043a8.707,8.707,0,0,1,2.117,0c.093.007.187.029.28.043a6.893,6.893,0,0,1,.768.144c.108.022.215.05.316.079.237.065.474.136.7.222.108.036.215.072.316.115.251.1.488.208.725.33m4.048,8.275a8.211,8.211,0,1,0-8.211,8.211,8.223,8.223,0,0,0,8.211-8.211" transform="translate(-2.949 -2.202)" fill="#ff7863"/>
        <path id="Trazado_128902" data-name="Trazado 128902" d="M20.137,9.28a8.211,8.211,0,1,1-8.211,8.211A8.223,8.223,0,0,1,20.137,9.28m7.134,8.211a7.145,7.145,0,0,0-7.113-7.141h-.022a7.138,7.138,0,0,0-.014,14.276h.014a7.143,7.143,0,0,0,7.134-7.134" transform="translate(-3.366 -2.62)"/>
        <path id="Trazado_128903" data-name="Trazado 128903" d="M23.382,10.77a7.138,7.138,0,0,1-.022,14.276h-.014l.014-.624a1.428,1.428,0,0,0,0-2.857v-.517c1.407,0,1.78-2.892,1.78-4.608s-.373-4.6-1.78-4.6Z" transform="translate(-6.59 -3.04)" fill="#ddebf2"/>
        <path id="Trazado_128904" data-name="Trazado 128904" d="M25.375,5.922c-.043-.014-.086-.022-.129-.036l-.366-.108c-.179-.05-.359-.093-.538-.136l-.395-.086q-.291-.054-.581-.086c-.122-.014-.237-.036-.352-.043-.323-.029-.639-.05-.955-.05s-.639.022-.962.05l-.352.043c-.194.029-.388.05-.581.086l-.395.086c-.179.043-.359.086-.538.136l-.366.108c-.043.014-.086.022-.129.036A9.532,9.532,0,0,1,22.059,3.03a9.573,9.573,0,0,1,3.316,2.892" transform="translate(-5.289 -0.855)" fill="#e6cf6e"/>
        <path id="Trazado_128905" data-name="Trazado 128905" d="M25.157,38.509H19.236a14.929,14.929,0,0,0,.99-3.639c.194.036.388.057.581.086.122.014.244.036.366.05a10.435,10.435,0,0,0,2.046,0c.122-.014.244-.036.359-.05.2-.029.395-.05.589-.086a14.624,14.624,0,0,0,.294,1.522,14.949,14.949,0,0,0,.7,2.117" transform="translate(-5.43 -9.843)" fill="#e6cf6e"/>
        <path id="Trazado_128906" data-name="Trazado 128906" d="M22.663,12.26c1.407,0,1.78,2.892,1.78,4.6s-.373,4.608-1.78,4.608-1.787-2.892-1.787-4.608.373-4.6,1.787-4.6m.711,4.6a6.226,6.226,0,0,0-.711-3.5c-.251.244-.711,1.421-.711,3.5s.459,3.258.711,3.5a6.239,6.239,0,0,0,.711-3.5" transform="translate(-5.893 -3.461)"/>
        <path id="Trazado_128907" data-name="Trazado 128907" d="M22.8,25.81a1.428,1.428,0,1,1-1.435,1.428A1.432,1.432,0,0,1,22.8,25.81m.352,1.428a.355.355,0,1,0-.352.359.358.358,0,0,0,.352-.359" transform="translate(-6.031 -7.286)"/>
        <path id="Trazado_128908" data-name="Trazado 128908" d="M23.087,13.8a6.226,6.226,0,0,1,.711,3.5,6.239,6.239,0,0,1-.711,3.5c-.251-.244-.711-1.421-.711-3.5s.459-3.251.711-3.5" transform="translate(-6.316 -3.895)" fill="#e09d31"/>
        <path id="Trazado_128909" data-name="Trazado 128909" d="M23.225,27.3a.359.359,0,1,1-.359.359.358.358,0,0,1,.359-.359" transform="translate(-6.455 -7.706)" fill="#e09d31"/>
        <path id="Trazado_128910" data-name="Trazado 128910" d="M20.579,10.77l-.022,1.069c-1.414,0-1.787,2.892-1.787,4.6s.373,4.608,1.787,4.608v.517a1.428,1.428,0,1,0,0,2.857l-.014.624a7.138,7.138,0,0,1,.014-14.276Z" transform="translate(-3.787 -3.04)" fill="#ddebf2"/>
        <path id="Trazado_128911" data-name="Trazado 128911" d="M13.681,1.535a9.469,9.469,0,0,1,2.29.517,10.571,10.571,0,0,0-3.8,4.2,10.338,10.338,0,0,0,1.988,18.934,15.116,15.116,0,0,1-.28,1.529,12.9,12.9,0,0,1-.84,2.376H9.311V24.717a.542.542,0,0,0-.538-.538H5.593A2.051,2.051,0,0,1,3.54,22.133v-.912l.933-.545a.536.536,0,0,0,.129-.818L3.54,18.667V17.21a.53.53,0,0,0-.531-.531H2.2a.705.705,0,0,1-.567-1.127l1.112-1.493a7.371,7.371,0,0,0,1.471-4.4,8.1,8.1,0,0,1,8-8.161.78.78,0,0,0,.129.007,10.364,10.364,0,0,1,1.335.029" transform="translate(-0.421 -0.422)" fill="#ffeb92"/>
      </g>
    </g>
  </g>
</svg>
