<svg xmlns="http://www.w3.org/2000/svg" xmlns:xlink="http://www.w3.org/1999/xlink" width="101.841" height="101.841" viewBox="0 0 101.841 101.841">
  <defs>
    <filter id="Trazado_127721" x="0" y="0" width="101.841" height="101.841" filterUnits="userSpaceOnUse">
      <feOffset dy="3" input="SourceAlpha"/>
      <feGaussianBlur stdDeviation="3" result="blur"/>
      <feFlood flood-opacity="0.161"/>
      <feComposite operator="in" in2="blur"/>
      <feComposite in="SourceGraphic"/>
    </filter>
    <clipPath id="clip-path">
      <rect id="Rectángulo_37341" data-name="Rectángulo 37341" width="30.756" height="27.369" fill="none"/>
    </clipPath>
  </defs>
  <g id="Grupo_157823" data-name="Grupo 157823" transform="translate(9 6)">
    <g transform="matrix(1, 0, 0, 1, -9, -6)" filter="url(#Trazado_127721)">
      <path id="Trazado_127721-2" data-name="Trazado 127721" d="M41.92,0A41.92,41.92,0,1,1,0,41.92,41.92,41.92,0,0,1,41.92,0Z" transform="translate(9 6)" fill="#fff"/>
    </g>
    <g id="Grupo_156593" data-name="Grupo 156593" transform="translate(13.06 13.55)">
      <path id="Trazado_127053" data-name="Trazado 127053" d="M15.172,123.3c-.385.086-.474-.1-.47-.455.01-.9-.006-.916-.937-.91-.346,0-.454-.105-.448-.448.006-.319.065-.468.433-.467.934,0,.958-.015.948-.948,0-.422.2-.43.515-.433s.475.049.475.424c0,.944.019.961.942.957.357,0,.441.127.442.459s-.084.458-.441.456c-.94-.005-.963.012-.942.9.01.413-.143.534-.518.462" transform="translate(-13.318 -86.609)" fill="#29c4bb"/>
      <path id="Trazado_127054" data-name="Trazado 127054" d="M213.39,151.158c.344-.066.535.048.478.438-.047.326.065.508.426.452s.482.075.485.454c0,.4-.16.49-.5.444-.324-.044-.427.1-.421.42.01.505-.3.7-.791.546-.232-.073-.181-.258-.166-.4.041-.4-.051-.644-.522-.564-.365.062-.387-.167-.386-.447s.012-.506.382-.449c.4.062.588-.084.521-.506-.063-.4.195-.42.493-.385" transform="translate(-157.352 -108.476)" fill="#29c4bb"/>
      <path id="Trazado_127055" data-name="Trazado 127055" d="M210.218,69.017c.089.384-.087.515-.447.455-.39-.066-.549.094-.48.482s-.1.464-.459.468-.516-.107-.451-.472c.07-.388-.092-.548-.478-.476s-.435-.134-.45-.47c-.018-.395.136-.5.479-.438.374.065.513-.09.45-.454-.061-.349.052-.491.441-.477.343.012.541.061.468.454s.1.541.481.477c.36-.061.535.068.446.452" transform="translate(-153.737 -51.302)" fill="#010000"/>
      <path id="Trazado_127056" data-name="Trazado 127056" d="M54.541,186.388c.084.358-.093.49-.451.425-.421-.076-.52.143-.46.5.067.394-.124.455-.47.453-.331,0-.508-.077-.439-.433.091-.468-.143-.583-.546-.514s-.394-.19-.4-.474.006-.507.379-.434c.5.1.631-.142.563-.592-.065-.431.263-.307.482-.32s.491-.044.423.33c-.084.462.078.676.567.582.408-.078.358.206.346.479" transform="translate(-41.202 -131.68)" fill="#010000"/>
      <path id="Trazado_127057" data-name="Trazado 127057" d="M121.782,17.18c-.1-.409.13-.488.464-.439s.484-.092.431-.434.049-.5.442-.49c.362.007.527.1.464.473s.111.505.469.451c.331-.05.5.03.5.434s-.154.525-.515.468c-.381-.061-.511.113-.452.469.066.4-.148.445-.484.452-.359.007-.476-.128-.423-.457.058-.361-.076-.526-.453-.463s-.525-.09-.443-.464" transform="translate(-91.933 -15.817)" fill="#29c4bb"/>
    </g>
    <g id="Grupo_157144" data-name="Grupo 157144" transform="translate(26.598 28.332)">
      <g id="Grupo_157143" data-name="Grupo 157143" transform="translate(0 0)" clip-path="url(#clip-path)">
        <path id="Trazado_128912" data-name="Trazado 128912" d="M30.756,1.785V25.591a1.782,1.782,0,0,1-1.785,1.778H1.778A1.776,1.776,0,0,1,0,25.591V1.785A1.782,1.782,0,0,1,1.778,0H28.972a1.788,1.788,0,0,1,1.785,1.785M29.711,25.591V1.785a.735.735,0,0,0-.739-.739H1.778a.739.739,0,0,0-.739.739V25.591a.744.744,0,0,0,.739.739H28.972a.739.739,0,0,0,.739-.739" transform="translate(0 0)"/>
        <path id="Trazado_128913" data-name="Trazado 128913" d="M30.162,2.239V26.045a.739.739,0,0,1-.739.739H2.229a.744.744,0,0,1-.739-.739V16.878H2.884a7.324,7.324,0,0,0,14.646.2l2.558-2.008h7.849a.523.523,0,1,0,0-1.046H19.915a.526.526,0,0,0-.321.112L17.454,15.8a7.307,7.307,0,0,0-1.652-3.66c-.007-.007-.007-.021-.014-.028a4.088,4.088,0,0,0-.293-.307,1.253,1.253,0,0,0-.132-.139c-.119-.125-.251-.237-.383-.356l-.146-.125c-.125-.1-.258-.2-.39-.293-.035-.021-.056-.042-.091-.063L17.5,8.367h7.849a.523.523,0,0,0,0-1.046V6.345a.527.527,0,0,0,.523-.523V3.55a.521.521,0,0,0-.523-.516V1.5h4.071a.735.735,0,0,1,.739.739m-1.7,10.282V10.256a.522.522,0,0,0-.523-.523H21.281a.522.522,0,0,0-.523.523v2.266a.527.527,0,0,0,.523.523h6.657a.527.527,0,0,0,.523-.523" transform="translate(-0.451 -0.454)" fill="#ddebf2"/>
        <path id="Trazado_128914" data-name="Trazado 128914" d="M36.833,13.833V16.1a.527.527,0,0,1-.523.523H29.653a.527.527,0,0,1-.523-.523V13.833a.522.522,0,0,1,.523-.523H36.31a.522.522,0,0,1,.523.523m-1.046.516H30.176v1.227h5.612Z" transform="translate(-8.823 -4.031)"/>
        <path id="Trazado_128915" data-name="Trazado 128915" d="M28.544,16.549a.523.523,0,0,1,0,1.046H20.695L18.136,19.6a7.325,7.325,0,1,1-7.313-7.529c.1,0,.2.014.307.021.014,0,.028-.007.049-.007.063,0,.125.014.188.014l.383.042c.119.014.237.035.349.056a2.993,2.993,0,0,1,.376.077c.119.021.23.056.342.084s.244.077.362.119.223.077.335.119l.342.146c.042.021.091.035.132.056l3.618-2.837a.542.542,0,0,1,.321-.112h8.031a.523.523,0,1,1,0,1.046H18.108l-3.151,2.468c.035.021.056.042.091.063.132.1.265.188.39.293l.146.125c.132.119.265.23.383.356a1.253,1.253,0,0,1,.132.139,4.088,4.088,0,0,1,.293.307c.007.007.007.021.014.028a7.307,7.307,0,0,1,1.652,3.66l2.14-1.673a.526.526,0,0,1,.321-.112Zm-12.869,3.66,1.415-1.115a6.239,6.239,0,0,0-1.178-3.353L11.158,19.8a.513.513,0,0,1-.335.125.505.505,0,0,1-.23-.049.526.526,0,0,1-.293-.495l.3-6.246a6.279,6.279,0,1,0,6.406,7.355l-.69.537a.513.513,0,0,1-.321.112.54.54,0,0,1-.411-.2.521.521,0,0,1,.091-.732M11.4,18.222l3.841-3.276c-.028-.035-.063-.056-.091-.091a7.358,7.358,0,0,0-.572-.474c-.063-.049-.119-.1-.181-.139-.1-.07-.216-.125-.321-.188l-.349.272a.513.513,0,0,1-.321.112.525.525,0,0,1-.411-.2.517.517,0,0,1,.063-.7c-.091-.035-.181-.07-.272-.1-.042-.014-.084-.028-.119-.042-.188-.056-.369-.1-.558-.146l-.132-.021c-.112-.021-.223-.035-.335-.049Z" transform="translate(-1.057 -2.983)"/>
        <rect id="Rectángulo_37339" data-name="Rectángulo 37339" width="5.612" height="1.227" transform="translate(21.352 10.317)" fill="#43aac2"/>
        <path id="Trazado_128916" data-name="Trazado 128916" d="M33.123,4.216V6.488a.527.527,0,0,1-.523.523H25.943a.522.522,0,0,1-.523-.523V4.216a.516.516,0,0,1,.523-.516H32.6a.521.521,0,0,1,.523.516m-1.046.523H26.459V5.966h5.619Z" transform="translate(-7.699 -1.121)"/>
        <path id="Trazado_128917" data-name="Trazado 128917" d="M25.352,6.345v.976H17.321A.542.542,0,0,0,17,7.432L13.383,10.27c-.042-.021-.091-.035-.132-.056l-.342-.146c-.112-.042-.223-.084-.335-.119s-.237-.084-.362-.119-.223-.063-.342-.084a2.993,2.993,0,0,0-.376-.077c-.112-.021-.23-.042-.349-.056l-.383-.042c-.063,0-.125-.014-.188-.014-.021,0-.035.007-.049.007-.1-.007-.2-.021-.307-.021a7.343,7.343,0,0,0-7.334,7.334H1.49V2.239A.739.739,0,0,1,2.229,1.5H25.352V3.034H18.695a.516.516,0,0,0-.523.516V5.822a.522.522,0,0,0,.523.523Z" transform="translate(-0.451 -0.454)" fill="#ddebf2"/>
        <rect id="Rectángulo_37340" data-name="Rectángulo 37340" width="5.619" height="1.227" transform="translate(18.759 3.618)" fill="#43aac2"/>
        <path id="Trazado_128918" data-name="Trazado 128918" d="M17.545,20.52,16.13,21.636a.521.521,0,0,0-.091.732.54.54,0,0,0,.411.2.513.513,0,0,0,.321-.112l.69-.537a6.282,6.282,0,1,1-6.406-7.355l-.3,6.246a.526.526,0,0,0,.293.495.505.505,0,0,0,.23.049.513.513,0,0,0,.335-.125l4.754-4.057a6.239,6.239,0,0,1,1.178,3.353" transform="translate(-1.511 -4.41)" fill="#97dca3"/>
        <path id="Trazado_128919" data-name="Trazado 128919" d="M18.681,16.394,14.84,19.67l.244-5.04c.112.014.223.028.335.049l.132.021c.188.042.369.091.558.146.035.014.077.028.119.042.091.028.181.063.272.1a.517.517,0,0,0-.063.7.525.525,0,0,0,.411.2.513.513,0,0,0,.321-.112l.349-.272c.1.063.216.119.321.188.063.042.119.091.181.139a7.358,7.358,0,0,1,.572.474c.028.035.063.056.091.091" transform="translate(-4.495 -4.431)" fill="#559162"/>
      </g>
    </g>
  </g>
</svg>
