<svg xmlns="http://www.w3.org/2000/svg" width="115.358" height="116.604" viewBox="0 0 115.358 116.604">
  <g id="Grupo_156409" data-name="Grupo 156409" transform="translate(0 -2.396)">
    <g id="Grupo_156408" data-name="Grupo 156408" transform="translate(47.952 0) rotate(30)">
      <path id="Trazado_126789" data-name="Trazado 126789" d="M1.469,7.751,0,11.41,19.383,30.793a2.763,2.763,0,0,0,3.907,0c3.734-3.126,4.356-12.367,1.469-15.254L9.22,0Z" transform="translate(20.867 64.302)" fill="#1e009b"/>
      <path id="Trazado_126790" data-name="Trazado 126790" d="M23.29,27.134h0a2.763,2.763,0,0,1-3.907,0L0,7.751,7.751,0,23.29,15.539a8.2,8.2,0,0,1,0,11.595" transform="translate(20.867 67.961)" fill="#4631c8"/>
      <path id="Trazado_126791" data-name="Trazado 126791" d="M10.408,2.657,7.751,0,0,7.751l2.11,2.11c.949-3.608,4.525-5.975,8.3-7.2" transform="translate(20.867 67.961)" fill="#1e009b"/>
      <path id="Trazado_126792" data-name="Trazado 126792" d="M20.532,17.069h0a11.824,11.824,0,0,1-16.721,0l-.348-.348A11.823,11.823,0,0,1,3.463,0Z" transform="translate(0.861 56.429)" fill="#f1f1f1"/>
      <path id="Trazado_126793" data-name="Trazado 126793" d="M.694,56.309a2.379,2.379,0,0,0-.643,2.154c.394,1.837,1.711,5.42,6.1,9.813s7.976,5.71,9.813,6.1a2.38,2.38,0,0,0,2.154-.643C40.112,52.3,74.431,40.408,74.431,40.408l-20.2-20.2L34.023,0S22.13,34.319.694,56.309" transform="translate(1.478 1.912)" fill="#fff"/>
      <path id="Trazado_126794" data-name="Trazado 126794" d="M2.2,28.336c-1.687,4.609-3.4,10.642-1.062,15.383C4.211,49.96,13.09,48.382,18.314,46.6c18.228-6.223,31.544-6.191,31.544-6.191L9.45,0S9.51,8.365,2.2,28.336" transform="translate(26.052 1.912)" fill="#fbfbfb"/>
      <path id="Trazado_126795" data-name="Trazado 126795" d="M1.844.763C-.837,2.631-.221,7.5,1.332,10.463A78.665,78.665,0,0,0,15.688,29.518C21.171,35,27.422,40.38,34.53,43.64c1.99.912,4.4,1.915,6.65,1.648,6.67-.793,3.486-8.963,1.628-12.484-3.368-6.384-8.195-12.053-13.274-17.132A78.06,78.06,0,0,0,14.1,3.345C11.413,1.769,8.267.219,5.111.016A5.01,5.01,0,0,0,1.844.763" transform="translate(32.615 0)" fill="#1e009b"/>
      <path id="Trazado_126796" data-name="Trazado 126796" d="M26.255,14.5C37.029,25.276,43.132,36.641,39.886,39.886S25.276,37.029,14.5,26.255-2.374,4.117.871.871,15.481,3.729,26.255,14.5" transform="translate(35.532 1.532)" fill="#fff"/>
      <path id="Trazado_126797" data-name="Trazado 126797" d="M0,0C1.764,5.112,6.8,12.374,13.809,19.388S28.086,31.434,33.2,33.2c-1.764-5.112-6.8-12.374-13.809-19.388S5.111,1.764,0,0" transform="translate(36.225 8.399)" fill="#f0f0f0"/>
      <path id="Trazado_126798" data-name="Trazado 126798" d="M31.921,21.953c-2.847-.879-7.175-3.869-11.386-8.08s-7.2-8.533-8.078-11.38A3.329,3.329,0,0,1,12.406,0,112.117,112.117,0,0,1,1.114,13.78a3.85,3.85,0,0,0-1.03,3.5c.412,1.923,1.8,5.849,6.5,10.548s8.626,6.092,10.548,6.5a3.85,3.85,0,0,0,3.5-1.03A112.166,112.166,0,0,1,34.437,21.987a3.275,3.275,0,0,1-2.516-.034" transform="translate(0 43.41)" fill="#4e35e7"/>
      <path id="Trazado_126799" data-name="Trazado 126799" d="M.006,0,0,.009.007,0Z" transform="translate(12.606 43.12)" fill="#4e35e7"/>
      <path id="Trazado_126800" data-name="Trazado 126800" d="M.08,0l0,0C.052.023.025.04,0,.061L.08,0" transform="translate(34.622 65.205)" fill="#4e35e7"/>
      <path id="Trazado_126801" data-name="Trazado 126801" d="M0,.281C.066.187.134.094.2,0A1.32,1.32,0,0,0,0,.281" transform="translate(12.406 43.129)"/>
      <path id="Trazado_126802" data-name="Trazado 126802" d="M.185,0,0,.131A1.331,1.331,0,0,0,.185,0" transform="translate(34.437 65.265)"/>
      <path id="Trazado_126803" data-name="Trazado 126803" d="M22.882,20.476q-.707.484-1.411.979s0,.012,0,.017-.017,0-.025,0h0c-.983.279-5.7-1.554-12.053-7.9C3.059,7.242,1.219,2.533,1.485,1.53a.114.114,0,0,0,0-.012.141.141,0,0,1,0-.025c.006,0,.017,0,.023,0q.494-.7.978-1.409A2.234,2.234,0,0,0,.436.438S.428.45.423.455L.416.463C.35.557.282.65.216.744a3.329,3.329,0,0,0,.05,2.493c.881,2.847,3.871,7.173,8.078,11.38s8.539,7.2,11.386,8.08a3.276,3.276,0,0,0,2.516.034l.185-.131c.025-.02.053-.038.076-.061.005,0,.011-.008.016-.013a2.229,2.229,0,0,0,.359-2.05" transform="translate(12.19 42.666)" fill="#1e009b"/>
      <path id="Trazado_126804" data-name="Trazado 126804" d="M.027.017S.028,0,.029,0L0,.021c.008,0,.02,0,.027,0" transform="translate(33.633 64.121)"/>
      <path id="Trazado_126805" data-name="Trazado 126805" d="M0,.041.029,0,.006,0C0,.013,0,.03,0,.041" transform="translate(13.675 44.155)"/>
      <path id="Trazado_126806" data-name="Trazado 126806" d="M20.6,10.539c-.253-1.182-1.11-3.6-4-6.488S11.294.3,10.112.052a2.368,2.368,0,0,0-2.15.633A68.13,68.13,0,0,1,0,7.265,87.425,87.425,0,0,0,6,13.9a86.346,86.346,0,0,0,7.451,6.656,67.95,67.95,0,0,1,6.513-7.867,2.368,2.368,0,0,0,.634-2.15" transform="translate(44.032 13.886)" fill="#4e35e7"/>
      <path id="Trazado_126807" data-name="Trazado 126807" d="M6.628,3.727c2.744,2.744,4.319,5.618,3.518,6.42s-3.675-.774-6.42-3.518S-.592,1.01.209.209s3.675.774,6.42,3.518" transform="translate(53.536 14.649)" fill="#1e009b"/>
      <path id="Trazado_126808" data-name="Trazado 126808" d="M5.31,5.31h0a1.982,1.982,0,0,1-2.8,0L.581,3.383a1.982,1.982,0,0,1,2.8-2.8L5.31,2.508a1.982,1.982,0,0,1,0,2.8" transform="translate(28.828 76.188)" fill="#f1f1f1"/>
      <path id="Trazado_126809" data-name="Trazado 126809" d="M2.5.412A1.286,1.286,0,0,0,.643.377L.416.59a1.323,1.323,0,0,0-.03,1.9L2.435,4.546a1.5,1.5,0,0,0,2.179-.063l.116-.131a1.141,1.141,0,0,0-.014-1.533Z" transform="translate(29.179 76.563)" fill="#1e009b"/>
      <path id="Trazado_126810" data-name="Trazado 126810" d="M4.248,4.412h0a1.293,1.293,0,0,1-1.862-.036L.344,2.17A1.292,1.292,0,0,1,2.241.414L4.283,2.62a1.292,1.292,0,0,1-.034,1.792" transform="translate(29.439 76.565)" fill="#4631c8"/>
      <path id="Trazado_126811" data-name="Trazado 126811" d="M0,1.143A2.214,2.214,0,0,1,.526.459,2.194,2.194,0,0,1,1.258,0,2.2,2.2,0,0,1,.731.684,2.215,2.215,0,0,1,0,1.143" transform="translate(31.104 78.437)" fill="#1e009b"/>
    </g>
    <rect id="Rectángulo_36879" data-name="Rectángulo 36879" width="115" height="115" transform="translate(0 4)" fill="none"/>
  </g>
</svg>
