<svg xmlns="http://www.w3.org/2000/svg" xmlns:xlink="http://www.w3.org/1999/xlink" width="418" height="197" viewBox="0 0 418 197">
  <defs>
    <filter id="Rectángulo_37417" x="0" y="0" width="418" height="197" filterUnits="userSpaceOnUse">
      <feOffset dy="3" input="SourceAlpha"/>
      <feGaussianBlur stdDeviation="3" result="blur"/>
      <feFlood flood-opacity="0.161"/>
      <feComposite operator="in" in2="blur"/>
      <feComposite in="SourceGraphic"/>
    </filter>
    <clipPath id="clip-path">
      <rect id="Rectángulo_37418" data-name="Rectángulo 37418" width="50" height="50" fill="none"/>
    </clipPath>
  </defs>
  <g id="Grupo_158033" data-name="Grupo 158033" transform="translate(-171 -1059)">
    <g transform="matrix(1, 0, 0, 1, 171, 1059)" filter="url(#Rectángulo_37417)">
      <rect id="Rectángulo_37417-2" data-name="Rectángulo 37417" width="400" height="179" rx="20" transform="translate(9 6)" fill="#fff"/>
    </g>
    <g id="Grupo_157264" data-name="Grupo 157264" transform="translate(16 5)">
      <g id="Grupo_157234" data-name="Grupo 157234" transform="translate(214 1094)">
        <g id="Grupo_157233" data-name="Grupo 157233" transform="translate(0 0)" clip-path="url(#clip-path)">
          <path id="Trazado_130099" data-name="Trazado 130099" d="M43.985,22.493A21.482,21.482,0,0,1,27.532,43.379a20.941,20.941,0,0,1-5.041.608c-.485,0-.959-.018-1.433-.053A21.491,21.491,0,1,1,43.985,22.493" transform="translate(2.506 2.511)" fill="#1e4fad"/>
          <path id="Trazado_130100" data-name="Trazado 130100" d="M29.543.411A25.481,25.481,0,0,0,24.993,0a24.887,24.887,0,0,0-9.788,1.988.449.449,0,0,0-.232.59.437.437,0,0,0,.411.267.364.364,0,0,0,.169-.035A24.231,24.231,0,0,1,29.381,1.3a.451.451,0,0,0,.53-.365.446.446,0,0,0-.369-.52m14.2,8.059A24.942,24.942,0,0,0,39.3,4.493a.447.447,0,0,0-.625.109.435.435,0,0,0,.116.618,24.641,24.641,0,0,1,4.29,3.84.468.468,0,0,0,.341.155.42.42,0,0,0,.3-.116.432.432,0,0,0,.035-.629m-39,2.635a.439.439,0,0,0-.618.123A24.158,24.158,0,0,0,2.2,14.72a.439.439,0,0,0,.214.594.513.513,0,0,0,.186.035.465.465,0,0,0,.415-.26,23.4,23.4,0,0,1,1.851-3.366.445.445,0,0,0-.123-.618m43.248,4.082a23.938,23.938,0,0,0-1.855-3.527.454.454,0,0,0-.618-.144.445.445,0,0,0-.134.618,23.734,23.734,0,0,1,1.781,3.4.463.463,0,0,0,.411.278.58.58,0,0,0,.179-.035.453.453,0,0,0,.235-.59M1.405,18.16a.454.454,0,0,0-.555.316A25.607,25.607,0,0,0,0,24.385a.459.459,0,0,0,.439.467H.446a.458.458,0,0,0,.45-.439,23.8,23.8,0,0,1,.822-5.705.454.454,0,0,0-.313-.548M49.55,24.554A.445.445,0,0,0,49.1,25a24,24,0,0,1-4.012,13.315.445.445,0,0,0,.123.618.394.394,0,0,0,.242.074.426.426,0,0,0,.376-.2A24.879,24.879,0,0,0,50,25a.453.453,0,0,0-.45-.45M11.7,45.11a24.115,24.115,0,0,1-8.9-10.694.449.449,0,0,0-.583-.242.46.46,0,0,0-.242.59,25.084,25.084,0,0,0,9.236,11.1.46.46,0,0,0,.249.07.419.419,0,0,0,.365-.2.439.439,0,0,0-.123-.618m26.714.464a.438.438,0,0,0-.618-.141,24.189,24.189,0,0,1-5.2,2.452.45.45,0,0,0-.288.566.464.464,0,0,0,.432.313.364.364,0,0,0,.133-.028,25.026,25.026,0,0,0,5.41-2.544.451.451,0,0,0,.133-.618M28.854,48.8a23.572,23.572,0,0,1-3.833.306.448.448,0,1,0,0,.9A25.441,25.441,0,0,0,29,49.684a.449.449,0,0,0-.144-.885" transform="translate(0 0)" fill="#1e4fad"/>
          <path id="Trazado_130101" data-name="Trazado 130101" d="M16.976,11.907c-.035,1.335-.053,4.423-.053,4.423h6.141c-.278,2.133-.545,4.184-.815,6.243H16.966V36.759a20.767,20.767,0,0,1-5.041.608q-.722,0-1.433-.053V22.556H5.2V16.33h5.33v-.464c0-1.254-.028-2.5,0-3.752a17.034,17.034,0,0,1,.2-2.392,6.977,6.977,0,0,1,2.793-4.648A8.072,8.072,0,0,1,18.178,3.64c1.1-.028,2.192.028,3.3.074.6.035,1.2.116,1.764.169V9.455H22.8c-1.075,0-2.14-.028-3.215.007-1.469.053-2.554.608-2.607,2.445" transform="translate(13.069 9.13)" fill="#fff" fill-rule="evenodd"/>
        </g>
      </g>
      <g id="Grupo_157236" data-name="Grupo 157236" transform="translate(276 1094)">
        <g id="Grupo_157235" data-name="Grupo 157235" transform="translate(0 0)" clip-path="url(#clip-path)">
          <path id="Trazado_130102" data-name="Trazado 130102" d="M43.987,22.49A21.5,21.5,0,1,1,22.491,1a21.493,21.493,0,0,1,21.5,21.492" transform="translate(2.503 2.508)" fill="#1ba5d4"/>
          <path id="Trazado_130103" data-name="Trazado 130103" d="M25.021,50a.448.448,0,1,1,0-.9,24.447,24.447,0,0,0,3.83-.306.448.448,0,0,1,.144.885A25.4,25.4,0,0,1,25.021,50Zm7.705-1.24a.449.449,0,0,1-.141-.875,23.911,23.911,0,0,0,5.207-2.456.448.448,0,1,1,.478.759,24.954,24.954,0,0,1-5.4,2.547.539.539,0,0,1-.144.025M11.445,45.928a.436.436,0,0,1-.246-.074,24.977,24.977,0,0,1-9.226-11.09.441.441,0,0,1,.232-.587.453.453,0,0,1,.59.239,24.1,24.1,0,0,0,8.9,10.693.444.444,0,0,1,.126.618.45.45,0,0,1-.376.2m34.021-6.914a.435.435,0,0,1-.249-.077.44.44,0,0,1-.123-.618A24.051,24.051,0,0,0,49.1,25a.448.448,0,1,1,.9,0,24.907,24.907,0,0,1-4.16,13.813.449.449,0,0,1-.372.2M.447,24.847H.433A.445.445,0,0,1,0,24.387a24.937,24.937,0,0,1,.847-5.909.447.447,0,0,1,.864.232,24.308,24.308,0,0,0-.822,5.7.444.444,0,0,1-.443.436m47.14-9.035a.452.452,0,0,1-.415-.27,24,24,0,0,0-1.788-3.4.448.448,0,0,1,.759-.478A24.309,24.309,0,0,1,48,15.19a.443.443,0,0,1-.235.587.431.431,0,0,1-.172.035M2.6,15.352a.413.413,0,0,1-.179-.039.448.448,0,0,1-.228-.594,25.069,25.069,0,0,1,1.929-3.492.447.447,0,0,1,.745.5,24,24,0,0,0-1.855,3.369.45.45,0,0,1-.411.26M43.417,9.215a.458.458,0,0,1-.341-.151,24.124,24.124,0,0,0-4.3-3.836A.452.452,0,0,1,38.67,4.6a.446.446,0,0,1,.622-.109A25.123,25.123,0,0,1,43.751,8.47a.443.443,0,0,1-.042.632.43.43,0,0,1-.292.112M15.38,2.849a.441.441,0,0,1-.411-.274.446.446,0,0,1,.235-.587A24.9,24.9,0,0,1,25,0a25.284,25.284,0,0,1,4.55.415.448.448,0,0,1-.158.882A24.22,24.22,0,0,0,15.555,2.814a.436.436,0,0,1-.176.035" transform="translate(0.002 0)" fill="#1ba5d4"/>
          <path id="Trazado_130104" data-name="Trazado 130104" d="M11.434,20.468a5.172,5.172,0,0,1-4.8-3.576,5.153,5.153,0,0,0,2.21-.067.417.417,0,0,0,.074-.035,5.146,5.146,0,0,1-3.348-2.364,5.012,5.012,0,0,1-.755-2.74,5.089,5.089,0,0,0,2.294.625A5.173,5.173,0,0,1,4.99,9.184,5.1,5.1,0,0,1,5.545,5.45a14.73,14.73,0,0,0,10.628,5.385c-.028-.2-.06-.383-.081-.562A5.013,5.013,0,0,1,16.844,6.9a4.964,4.964,0,0,1,3.5-2.329,5.029,5.029,0,0,1,4.515,1.437.259.259,0,0,0,.274.081,10.369,10.369,0,0,0,3-1.152l.067-.035.035,0a5.261,5.261,0,0,1-2.206,2.807,9.932,9.932,0,0,0,2.87-.773l.021.025c-.2.256-.386.52-.594.773a9.979,9.979,0,0,1-1.873,1.778.175.175,0,0,0-.084.165,14.222,14.222,0,0,1-.1,2.287,15.031,15.031,0,0,1-1.328,4.588,14.8,14.8,0,0,1-2.786,4.064,13.754,13.754,0,0,1-7.083,3.945,15.182,15.182,0,0,1-2.87.341,14.546,14.546,0,0,1-8.25-2.213c-.032-.018-.063-.042-.119-.077a10.411,10.411,0,0,0,5.154-.71,10.214,10.214,0,0,0,2.452-1.43" transform="translate(9.619 11.293)" fill="#fff" fill-rule="evenodd"/>
        </g>
      </g>
      <g id="Grupo_157245" data-name="Grupo 157245" transform="translate(401 1094)">
        <g id="Grupo_157244" data-name="Grupo 157244" transform="translate(0 0)" clip-path="url(#clip-path)">
          <path id="Trazado_130109" data-name="Trazado 130109" d="M43.987,22.49A21.5,21.5,0,1,1,22.491,1a21.493,21.493,0,0,1,21.5,21.492" transform="translate(2.503 2.508)" fill="#fd3832"/>
          <path id="Trazado_130110" data-name="Trazado 130110" d="M25.021,50a.448.448,0,1,1,0-.9,24.447,24.447,0,0,0,3.83-.306.448.448,0,0,1,.144.885A25.4,25.4,0,0,1,25.021,50Zm7.705-1.24a.449.449,0,0,1-.141-.875,23.911,23.911,0,0,0,5.207-2.456.448.448,0,1,1,.478.759,24.953,24.953,0,0,1-5.4,2.547.539.539,0,0,1-.144.025M11.445,45.928a.436.436,0,0,1-.246-.074,24.977,24.977,0,0,1-9.226-11.09.441.441,0,0,1,.232-.587.453.453,0,0,1,.59.239,24.1,24.1,0,0,0,8.9,10.693.444.444,0,0,1,.126.618.45.45,0,0,1-.376.2m34.021-6.914a.435.435,0,0,1-.249-.077.44.44,0,0,1-.123-.618A24.051,24.051,0,0,0,49.1,25a.448.448,0,1,1,.9,0,24.907,24.907,0,0,1-4.16,13.813.449.449,0,0,1-.372.2M.447,24.847H.433A.445.445,0,0,1,0,24.387a24.937,24.937,0,0,1,.847-5.909.447.447,0,0,1,.864.232,24.308,24.308,0,0,0-.822,5.7.444.444,0,0,1-.443.436m47.14-9.035a.452.452,0,0,1-.415-.27,24,24,0,0,0-1.788-3.4.448.448,0,0,1,.759-.478A24.309,24.309,0,0,1,48,15.19a.443.443,0,0,1-.235.587.431.431,0,0,1-.172.035M2.6,15.352a.413.413,0,0,1-.179-.039.448.448,0,0,1-.228-.594,25.069,25.069,0,0,1,1.929-3.492.447.447,0,0,1,.745.5,24,24,0,0,0-1.855,3.369.45.45,0,0,1-.411.26M43.417,9.214a.458.458,0,0,1-.341-.151,24.124,24.124,0,0,0-4.3-3.836A.452.452,0,0,1,38.67,4.6a.446.446,0,0,1,.622-.109A25.123,25.123,0,0,1,43.751,8.47a.443.443,0,0,1-.042.632.43.43,0,0,1-.292.112M15.38,2.849a.441.441,0,0,1-.411-.274.446.446,0,0,1,.235-.587A24.9,24.9,0,0,1,25,0a25.284,25.284,0,0,1,4.55.415.448.448,0,0,1-.158.882A24.22,24.22,0,0,0,15.555,2.814a.436.436,0,0,1-.176.035" transform="translate(0.002 0)" fill="#fd3832"/>
          <path id="Trazado_130111" data-name="Trazado 130111" d="M6.121,21.774a2.934,2.934,0,0,1-1.939-1.883C3.342,17.583,3.1,7.933,4.709,6.033A3.134,3.134,0,0,1,6.82,4.912c4.353-.471,17.806-.4,19.359.155a3.048,3.048,0,0,1,1.9,1.83c.917,2.385.949,11.062-.123,13.36a2.943,2.943,0,0,1-1.367,1.381c-1.62.85-18.337.84-20.473.137m6.914-4.525,7.842-4.064c-2.635-1.374-5.228-2.726-7.842-4.093Z" transform="translate(8.853 11.557)" fill="#fff" fill-rule="evenodd"/>
        </g>
      </g>
      <g id="Grupo_157247" data-name="Grupo 157247" transform="translate(338 1094)">
        <g id="Grupo_157246" data-name="Grupo 157246" transform="translate(0 0)" clip-path="url(#clip-path)">
          <path id="Trazado_130112" data-name="Trazado 130112" d="M43.987,22.49A21.5,21.5,0,1,1,22.491,1a21.493,21.493,0,0,1,21.5,21.492" transform="translate(2.503 2.508)" fill="#6905c1"/>
          <path id="Trazado_130113" data-name="Trazado 130113" d="M25.021,50a.448.448,0,1,1,0-.9,24.447,24.447,0,0,0,3.83-.306.448.448,0,0,1,.144.885A25.4,25.4,0,0,1,25.021,50Zm7.705-1.24a.449.449,0,0,1-.141-.875,23.911,23.911,0,0,0,5.207-2.456.448.448,0,1,1,.478.759,24.953,24.953,0,0,1-5.4,2.547.539.539,0,0,1-.144.025M11.445,45.928a.436.436,0,0,1-.246-.074,24.977,24.977,0,0,1-9.226-11.09.441.441,0,0,1,.232-.587.453.453,0,0,1,.59.239,24.1,24.1,0,0,0,8.9,10.693.444.444,0,0,1,.126.618.45.45,0,0,1-.376.2m34.021-6.914a.435.435,0,0,1-.249-.077.44.44,0,0,1-.123-.618A24.051,24.051,0,0,0,49.1,25a.448.448,0,1,1,.9,0,24.907,24.907,0,0,1-4.16,13.813.449.449,0,0,1-.372.2M.447,24.847H.433A.445.445,0,0,1,0,24.387a24.937,24.937,0,0,1,.847-5.909.447.447,0,0,1,.864.232,24.308,24.308,0,0,0-.822,5.7.444.444,0,0,1-.443.436m47.14-9.035a.452.452,0,0,1-.415-.27,24,24,0,0,0-1.788-3.4.448.448,0,0,1,.759-.478A24.31,24.31,0,0,1,48,15.19a.443.443,0,0,1-.235.587.431.431,0,0,1-.172.035M2.6,15.352a.413.413,0,0,1-.179-.039.448.448,0,0,1-.228-.594,25.069,25.069,0,0,1,1.929-3.492.447.447,0,0,1,.745.5,24,24,0,0,0-1.855,3.369.45.45,0,0,1-.411.26M43.417,9.215a.458.458,0,0,1-.341-.151,24.124,24.124,0,0,0-4.3-3.836A.452.452,0,0,1,38.67,4.6a.446.446,0,0,1,.622-.109A25.123,25.123,0,0,1,43.751,8.47a.443.443,0,0,1-.042.632.43.43,0,0,1-.292.112M15.38,2.849a.441.441,0,0,1-.411-.274.446.446,0,0,1,.235-.587A24.9,24.9,0,0,1,25,0a25.284,25.284,0,0,1,4.55.415.448.448,0,0,1-.158.882A24.22,24.22,0,0,0,15.555,2.814a.436.436,0,0,1-.176.035" transform="translate(0.002 0)" fill="#6905c1"/>
          <path id="Trazado_130114" data-name="Trazado 130114" d="M30.061,10.048A7.144,7.144,0,0,0,27.88,5.439a7.5,7.5,0,0,0-4.954-2.013c-3.173-.172-10.713-.281-13.358.151A6.81,6.81,0,0,0,3.725,8.822c-.646,2.3-.516,12.889-.141,15.158a6.839,6.839,0,0,0,5.425,5.891c2.133.548,12.6.478,14.95.1a6.849,6.849,0,0,0,5.917-5.4c.618-2.361.4-12.4.186-14.523M27.577,23.541a4.573,4.573,0,0,1-4.3,4.079c-2.178.239-11.907.372-13.927-.193a4.431,4.431,0,0,1-3.362-3.815,90.389,90.389,0,0,1,0-13.63A4.569,4.569,0,0,1,10.263,5.92a95.343,95.343,0,0,1,13.295.056,4.567,4.567,0,0,1,4.072,4.3,96.656,96.656,0,0,1-.053,13.261m-10.8-13.69A6.924,6.924,0,1,0,23.7,16.779a6.925,6.925,0,0,0-6.925-6.928m-.046,11.4a4.477,4.477,0,1,1,4.518-4.437,4.475,4.475,0,0,1-4.518,4.437M25.6,9.588A1.621,1.621,0,1,1,23.98,7.961,1.621,1.621,0,0,1,25.6,9.588" transform="translate(8.221 8.23)" fill="#fff"/>
          <path id="Trazado_130115" data-name="Trazado 130115" d="M30.061,10.048A7.144,7.144,0,0,0,27.88,5.439a7.5,7.5,0,0,0-4.954-2.013c-3.173-.172-10.713-.281-13.358.151A6.81,6.81,0,0,0,3.725,8.822c-.646,2.3-.516,12.889-.141,15.158a6.839,6.839,0,0,0,5.425,5.891c2.133.548,12.6.478,14.95.1a6.849,6.849,0,0,0,5.917-5.4c.618-2.361.4-12.4.186-14.523M27.577,23.541a4.573,4.573,0,0,1-4.3,4.079c-2.178.239-11.907.372-13.927-.193a4.431,4.431,0,0,1-3.362-3.815,90.389,90.389,0,0,1,0-13.63A4.569,4.569,0,0,1,10.263,5.92a95.343,95.343,0,0,1,13.295.056,4.567,4.567,0,0,1,4.072,4.3,96.656,96.656,0,0,1-.053,13.261m-10.8-13.69A6.924,6.924,0,1,0,23.7,16.779a6.925,6.925,0,0,0-6.925-6.928m-.046,11.4a4.477,4.477,0,1,1,4.518-4.437,4.475,4.475,0,0,1-4.518,4.437M25.6,9.588A1.621,1.621,0,1,1,23.98,7.961,1.621,1.621,0,0,1,25.6,9.588" transform="translate(8.221 8.23)" fill="#fff"/>
        </g>
      </g>
      <g id="Grupo_157249" data-name="Grupo 157249" transform="translate(464 1094)">
        <g id="Grupo_157248" data-name="Grupo 157248" transform="translate(0 0)" clip-path="url(#clip-path)">
          <path id="Trazado_130116" data-name="Trazado 130116" d="M43.987,22.49A21.5,21.5,0,1,1,22.491,1a21.493,21.493,0,0,1,21.5,21.492" transform="translate(2.503 2.508)" fill="#0b8f21"/>
          <path id="Trazado_130117" data-name="Trazado 130117" d="M25.021,50a.448.448,0,1,1,0-.9,24.447,24.447,0,0,0,3.83-.306.448.448,0,0,1,.144.885A25.4,25.4,0,0,1,25.021,50Zm7.705-1.24a.449.449,0,0,1-.141-.875,23.911,23.911,0,0,0,5.207-2.456.448.448,0,1,1,.478.759,24.953,24.953,0,0,1-5.4,2.547.539.539,0,0,1-.144.025M11.445,45.928a.436.436,0,0,1-.246-.074,24.977,24.977,0,0,1-9.226-11.09.441.441,0,0,1,.232-.587.453.453,0,0,1,.59.239,24.1,24.1,0,0,0,8.9,10.693.444.444,0,0,1,.126.618.45.45,0,0,1-.376.2m34.021-6.914a.435.435,0,0,1-.249-.077.44.44,0,0,1-.123-.618A24.051,24.051,0,0,0,49.1,25a.448.448,0,1,1,.9,0,24.907,24.907,0,0,1-4.16,13.813.449.449,0,0,1-.372.2M.447,24.847H.433A.445.445,0,0,1,0,24.387a24.937,24.937,0,0,1,.847-5.909.447.447,0,0,1,.864.232,24.308,24.308,0,0,0-.822,5.7.444.444,0,0,1-.443.436m47.14-9.035a.452.452,0,0,1-.415-.27,24,24,0,0,0-1.788-3.4.448.448,0,0,1,.759-.478A24.309,24.309,0,0,1,48,15.19a.443.443,0,0,1-.235.587.431.431,0,0,1-.172.035M2.6,15.352a.413.413,0,0,1-.179-.039.448.448,0,0,1-.228-.594,25.069,25.069,0,0,1,1.929-3.492.447.447,0,0,1,.745.5,24,24,0,0,0-1.855,3.369.45.45,0,0,1-.411.26M43.417,9.215a.458.458,0,0,1-.341-.151,24.124,24.124,0,0,0-4.3-3.836A.452.452,0,0,1,38.67,4.6a.446.446,0,0,1,.622-.109A25.123,25.123,0,0,1,43.751,8.47a.443.443,0,0,1-.042.632.43.43,0,0,1-.292.112M15.38,2.849a.441.441,0,0,1-.411-.274.446.446,0,0,1,.235-.587A24.9,24.9,0,0,1,25,0a25.284,25.284,0,0,1,4.55.415.448.448,0,0,1-.158.882A24.22,24.22,0,0,0,15.555,2.814a.436.436,0,0,1-.176.035" transform="translate(0.002 0)" fill="#0b8f21"/>
          <path id="Trazado_130118" data-name="Trazado 130118" d="M3.25,30.7c.155-.594.288-1.11.425-1.63.453-1.651.917-3.3,1.349-4.96a1.216,1.216,0,0,0-.081-.8,13.645,13.645,0,1,1,5.9,5.747,1.352,1.352,0,0,0-.84-.091C6.384,29.87,3.977,30.552,3.25,30.7m3.18-3.137c1.36-.355,2.614-.667,3.854-1.015a1.125,1.125,0,0,1,.935.133A11.163,11.163,0,0,0,18.779,28.1,11.411,11.411,0,1,0,7.016,22.338a2.369,2.369,0,0,1,.256,2.167c-.341.963-.548,1.964-.843,3.053" transform="translate(8.169 7.954)" fill="#fff" fill-rule="evenodd"/>
          <path id="Trazado_130119" data-name="Trazado 130119" d="M15.674,18.109c-2.667-.095-6.914-2.2-9.824-7.251a4.1,4.1,0,0,1,.632-5.252A1.9,1.9,0,0,1,8.236,5.35c.148.021.3.246.376.415.386.882.769,1.764,1.107,2.666.176.478-.151.924-.84,1.721a.585.585,0,0,0-.095.773,9.3,9.3,0,0,0,4.74,4.068.568.568,0,0,0,.72-.19c1.089-1.331,1.2-1.721,1.774-1.447,2.758,1.317,2.972,1.374,2.986,1.686a3.008,3.008,0,0,1-3.331,3.067" transform="translate(13.042 13.216)" fill="#fff" fill-rule="evenodd"/>
        </g>
      </g>
      <g id="Grupo_157251" data-name="Grupo 157251" transform="translate(241 1155)">
        <g id="Grupo_157250" data-name="Grupo 157250" transform="translate(0 0)" clip-path="url(#clip-path)">
          <path id="Trazado_130120" data-name="Trazado 130120" d="M43.987,22.49A21.5,21.5,0,1,1,22.491,1a21.493,21.493,0,0,1,21.5,21.492" transform="translate(2.503 2.508)" fill="#e02a2f"/>
          <path id="Trazado_130121" data-name="Trazado 130121" d="M25.023,50a.448.448,0,0,1,0-.9,24.457,24.457,0,0,0,3.833-.306.448.448,0,0,1,.144.885A25.412,25.412,0,0,1,25.023,50Zm7.709-1.24a.449.449,0,0,1-.141-.875A23.911,23.911,0,0,0,37.8,45.43a.448.448,0,1,1,.478.759,24.9,24.9,0,0,1-5.4,2.547.493.493,0,0,1-.141.025M11.45,45.928a.428.428,0,0,1-.246-.074,24.985,24.985,0,0,1-9.23-11.09.446.446,0,1,1,.822-.348A24.1,24.1,0,0,0,11.7,45.11a.446.446,0,0,1-.249.819m34.017-6.914a.425.425,0,0,1-.246-.077.444.444,0,0,1-.126-.618A24.023,24.023,0,0,0,49.1,25a.448.448,0,1,1,.9,0,24.879,24.879,0,0,1-4.16,13.813.444.444,0,0,1-.372.2M.45,24.847H.439A.453.453,0,0,1,0,24.387a25.125,25.125,0,0,1,.854-5.909.447.447,0,0,1,.864.232,24.308,24.308,0,0,0-.822,5.7.445.445,0,0,1-.446.436m47.14-9.035a.443.443,0,0,1-.411-.27,24.367,24.367,0,0,0-1.788-3.4.447.447,0,0,1,.755-.478A24.68,24.68,0,0,1,48,15.19a.445.445,0,0,1-.411.622m-44.983-.46a.417.417,0,0,1-.183-.039.446.446,0,0,1-.225-.594,25.069,25.069,0,0,1,1.929-3.492.447.447,0,0,1,.745.5,24.382,24.382,0,0,0-1.859,3.369.445.445,0,0,1-.408.26M43.419,9.215a.457.457,0,0,1-.337-.151,24.247,24.247,0,0,0-4.3-3.836.452.452,0,0,1-.109-.625.446.446,0,0,1,.622-.109A24.979,24.979,0,0,1,43.753,8.47a.446.446,0,0,1-.039.632.432.432,0,0,1-.3.112M15.385,2.849a.441.441,0,0,1-.411-.274.446.446,0,0,1,.235-.587A24.879,24.879,0,0,1,25,0a25.294,25.294,0,0,1,4.553.415.448.448,0,0,1-.162.882A24.208,24.208,0,0,0,15.561,2.814a.436.436,0,0,1-.176.035" transform="translate(0 0)" fill="#e02a2f"/>
          <path id="Trazado_130122" data-name="Trazado 130122" d="M12.5,19.963c-.021.074-.042.133-.056.193-.928,3.625-1.029,4.433-1.982,6.116a19.016,19.016,0,0,1-1.528,2.283c-.063.081-.123.186-.249.162s-.151-.155-.165-.267a19.048,19.048,0,0,1-.2-3.316c.049-1.451.228-1.946,2.094-9.8a.548.548,0,0,0-.042-.327,5.512,5.512,0,0,1-.144-3.671c.843-2.677,3.882-2.884,4.413-.674.327,1.367-.538,3.158-1.205,5.8-.548,2.182,2.02,3.734,4.216,2.139,2.024-1.465,2.811-4.985,2.66-7.483-.3-4.974-5.748-6.049-9.209-4.447-3.97,1.834-4.87,6.752-3.078,9,.225.285.4.46.327.752-.116.45-.218.9-.341,1.349a.48.48,0,0,1-.71.316,4.018,4.018,0,0,1-1.658-1.24c-1.521-1.883-1.953-5.61.056-8.761A10.528,10.528,0,0,1,15.852,3.606a8.6,8.6,0,0,1,7.912,7.1,11.806,11.806,0,0,1-2.171,8.312c-2.579,3.2-6.756,3.411-8.685,1.447-.148-.151-.267-.327-.411-.506" transform="translate(10.906 8.875)" fill="#fff" fill-rule="evenodd"/>
        </g>
      </g>
      <g id="Grupo_157253" data-name="Grupo 157253" transform="translate(303 1155)">
        <g id="Grupo_157252" data-name="Grupo 157252" transform="translate(0 0)" clip-path="url(#clip-path)">
          <path id="Trazado_130123" data-name="Trazado 130123" d="M43.987,22.49A21.5,21.5,0,1,1,22.491,1a21.493,21.493,0,0,1,21.5,21.492" transform="translate(2.503 2.508)" fill="#fc4d3f"/>
          <path id="Trazado_130124" data-name="Trazado 130124" d="M25.023,50a.448.448,0,0,1,0-.9,24.457,24.457,0,0,0,3.833-.306.448.448,0,0,1,.144.885A25.412,25.412,0,0,1,25.023,50Zm7.709-1.24a.449.449,0,0,1-.141-.875A23.911,23.911,0,0,0,37.8,45.43a.448.448,0,1,1,.478.759,24.9,24.9,0,0,1-5.4,2.547.493.493,0,0,1-.141.025M11.45,45.928a.428.428,0,0,1-.246-.074,24.985,24.985,0,0,1-9.23-11.09.446.446,0,1,1,.822-.348A24.1,24.1,0,0,0,11.7,45.11a.446.446,0,0,1-.249.819m34.017-6.914a.425.425,0,0,1-.246-.077.444.444,0,0,1-.126-.618A24.023,24.023,0,0,0,49.1,25a.448.448,0,1,1,.9,0,24.879,24.879,0,0,1-4.16,13.813.444.444,0,0,1-.372.2M.45,24.847H.439A.453.453,0,0,1,0,24.387a25.125,25.125,0,0,1,.854-5.909.447.447,0,0,1,.864.232,24.308,24.308,0,0,0-.822,5.7.445.445,0,0,1-.446.436m47.14-9.035a.443.443,0,0,1-.411-.27,24.367,24.367,0,0,0-1.788-3.4.447.447,0,0,1,.755-.478A24.68,24.68,0,0,1,48,15.19a.445.445,0,0,1-.411.622m-44.983-.46a.417.417,0,0,1-.183-.039.446.446,0,0,1-.225-.594,25.069,25.069,0,0,1,1.929-3.492.447.447,0,0,1,.745.5,24.382,24.382,0,0,0-1.859,3.369.445.445,0,0,1-.408.26M43.419,9.215a.457.457,0,0,1-.337-.151,24.247,24.247,0,0,0-4.3-3.836.452.452,0,0,1-.109-.625.446.446,0,0,1,.622-.109A24.979,24.979,0,0,1,43.753,8.47a.446.446,0,0,1-.039.632.432.432,0,0,1-.3.112M15.385,2.849a.441.441,0,0,1-.411-.274.446.446,0,0,1,.235-.587A24.879,24.879,0,0,1,25,0a25.294,25.294,0,0,1,4.553.415.448.448,0,0,1-.162.882A24.208,24.208,0,0,0,15.561,2.814a.436.436,0,0,1-.176.035" transform="translate(0 0)" fill="#fc4d3f"/>
          <path id="Trazado_130125" data-name="Trazado 130125" d="M12.667,12.147c0,.06-.011.109-.011.155,0,1.194,0,3.773,0,3.773H17.9a4.434,4.434,0,0,1-1.922,2.944,5.615,5.615,0,0,1-2.842.913,5.764,5.764,0,0,1-2.119-.246A5.89,5.89,0,0,1,6.979,14.6,5.693,5.693,0,0,1,7.1,12.829a5.779,5.779,0,0,1,6.433-4.5A5.289,5.289,0,0,1,16.4,9.713c.945-.945,1.883-1.879,2.846-2.846A12.141,12.141,0,0,0,17.516,5.6a9.325,9.325,0,0,0-4.641-1.261c-.309,0-.622.014-.935.028a7.56,7.56,0,0,0-1.609.249,9.8,9.8,0,0,0-7.41,8.933,9.091,9.091,0,0,0,.207,2.631,9.652,9.652,0,0,0,3.823,5.842,9.542,9.542,0,0,0,5.221,1.851,10.48,10.48,0,0,0,3.2-.316,8.526,8.526,0,0,0,4.813-3.165,10.485,10.485,0,0,0,1.676-8.241Z" transform="translate(7.289 10.891)" fill="#fff"/>
          <path id="Trazado_130126" data-name="Trazado 130126" d="M18.385,9.034H15.071V5.623H12.4V9.034H8.99V11.7H12.4v3.408h2.67V11.7h3.412V9.034Z" transform="translate(22.595 14.131)" fill="#fff"/>
        </g>
      </g>
      <g id="Grupo_157255" data-name="Grupo 157255" transform="translate(364 1155)">
        <g id="Grupo_157254" data-name="Grupo 157254" transform="translate(0 0)" clip-path="url(#clip-path)">
          <path id="Trazado_130127" data-name="Trazado 130127" d="M43.987,22.49A21.5,21.5,0,1,1,22.491,1a21.493,21.493,0,0,1,21.5,21.492" transform="translate(2.503 2.508)" fill="#007ab5"/>
          <path id="Trazado_130128" data-name="Trazado 130128" d="M25.021,50a.448.448,0,1,1,0-.9,24.447,24.447,0,0,0,3.83-.306.448.448,0,0,1,.144.885A25.4,25.4,0,0,1,25.021,50Zm7.705-1.24a.449.449,0,0,1-.141-.875,23.911,23.911,0,0,0,5.207-2.456.448.448,0,1,1,.478.759,24.954,24.954,0,0,1-5.4,2.547.539.539,0,0,1-.144.025M11.445,45.928a.436.436,0,0,1-.246-.074,24.977,24.977,0,0,1-9.226-11.09.441.441,0,0,1,.232-.587.453.453,0,0,1,.59.239,24.1,24.1,0,0,0,8.9,10.693.444.444,0,0,1,.126.618.45.45,0,0,1-.376.2m34.021-6.914a.435.435,0,0,1-.249-.077.44.44,0,0,1-.123-.618A24.051,24.051,0,0,0,49.1,25a.448.448,0,1,1,.9,0,24.907,24.907,0,0,1-4.16,13.813.449.449,0,0,1-.372.2M.447,24.847H.433A.445.445,0,0,1,0,24.387a24.937,24.937,0,0,1,.847-5.909.447.447,0,0,1,.864.232,24.308,24.308,0,0,0-.822,5.7.444.444,0,0,1-.443.436m47.14-9.035a.452.452,0,0,1-.415-.27,24,24,0,0,0-1.788-3.4.448.448,0,0,1,.759-.478A24.309,24.309,0,0,1,48,15.19a.443.443,0,0,1-.235.587.431.431,0,0,1-.172.035M2.6,15.352a.413.413,0,0,1-.179-.039.448.448,0,0,1-.228-.594,25.069,25.069,0,0,1,1.929-3.492.447.447,0,0,1,.745.5,24,24,0,0,0-1.855,3.369.45.45,0,0,1-.411.26M43.417,9.215a.458.458,0,0,1-.341-.151,24.124,24.124,0,0,0-4.3-3.836A.452.452,0,0,1,38.67,4.6a.446.446,0,0,1,.622-.109A25.123,25.123,0,0,1,43.751,8.47a.443.443,0,0,1-.042.632.43.43,0,0,1-.292.112M15.38,2.849a.441.441,0,0,1-.411-.274.446.446,0,0,1,.235-.587A24.9,24.9,0,0,1,25,0a25.284,25.284,0,0,1,4.55.415.448.448,0,0,1-.158.882A24.22,24.22,0,0,0,15.555,2.814a.436.436,0,0,1-.176.035" transform="translate(0.002 0)" fill="#007ab5"/>
          <path id="Trazado_130129" data-name="Trazado 130129" d="M4.467,11.2h4.7V26.314h-4.7ZM6.821,3.691A2.724,2.724,0,1,1,4.095,6.414,2.72,2.72,0,0,1,6.821,3.691" transform="translate(10.293 9.275)" fill="#fff"/>
          <path id="Trazado_130130" data-name="Trazado 130130" d="M6.379,6.1h4.508V8.164h.06a4.944,4.944,0,0,1,4.448-2.442c4.757,0,5.636,3.13,5.636,7.2v8.291H16.336V13.862c0-1.753-.035-4-2.442-4-2.445,0-2.821,1.908-2.821,3.878v7.476H6.379Z" transform="translate(16.033 14.379)" fill="#fff"/>
        </g>
      </g>
      <g id="Grupo_157257" data-name="Grupo 157257" transform="translate(425 1155)">
        <g id="Grupo_157256" data-name="Grupo 157256" transform="translate(0 0)" clip-path="url(#clip-path)">
          <path id="Trazado_130131" data-name="Trazado 130131" d="M43.987,22.49A21.5,21.5,0,1,1,22.491,1a21.493,21.493,0,0,1,21.5,21.492" transform="translate(2.503 2.508)" fill="#ffec00"/>
          <path id="Trazado_130132" data-name="Trazado 130132" d="M25.021,50a.448.448,0,1,1,0-.9,24.447,24.447,0,0,0,3.83-.306.448.448,0,0,1,.144.885A25.4,25.4,0,0,1,25.021,50Zm7.705-1.24a.449.449,0,0,1-.141-.875,23.911,23.911,0,0,0,5.207-2.456.448.448,0,1,1,.478.759,24.954,24.954,0,0,1-5.4,2.547.539.539,0,0,1-.144.025M11.445,45.928a.436.436,0,0,1-.246-.074,24.977,24.977,0,0,1-9.226-11.09.441.441,0,0,1,.232-.587.453.453,0,0,1,.59.239,24.1,24.1,0,0,0,8.9,10.693.444.444,0,0,1,.126.618.45.45,0,0,1-.376.2m34.021-6.914a.435.435,0,0,1-.249-.077.44.44,0,0,1-.123-.618A24.051,24.051,0,0,0,49.1,25a.448.448,0,1,1,.9,0,24.907,24.907,0,0,1-4.16,13.813.449.449,0,0,1-.372.2M.447,24.847H.433A.445.445,0,0,1,0,24.387a24.937,24.937,0,0,1,.847-5.909.447.447,0,0,1,.864.232,24.308,24.308,0,0,0-.822,5.7.444.444,0,0,1-.443.436m47.14-9.035a.452.452,0,0,1-.415-.27,24,24,0,0,0-1.788-3.4.448.448,0,0,1,.759-.478A24.309,24.309,0,0,1,48,15.19a.443.443,0,0,1-.235.587.431.431,0,0,1-.172.035M2.6,15.352a.413.413,0,0,1-.179-.039.448.448,0,0,1-.228-.594,25.069,25.069,0,0,1,1.929-3.492.447.447,0,0,1,.745.5,24,24,0,0,0-1.855,3.369.45.45,0,0,1-.411.26M43.417,9.215a.458.458,0,0,1-.341-.151,24.124,24.124,0,0,0-4.3-3.836A.452.452,0,0,1,38.67,4.6a.446.446,0,0,1,.622-.109A25.123,25.123,0,0,1,43.751,8.47a.443.443,0,0,1-.042.632.43.43,0,0,1-.292.112M15.38,2.849a.441.441,0,0,1-.411-.274.446.446,0,0,1,.235-.587A24.9,24.9,0,0,1,25,0a25.284,25.284,0,0,1,4.55.415.448.448,0,0,1-.158.882A24.22,24.22,0,0,0,15.555,2.814a.436.436,0,0,1-.176.035" transform="translate(0.002 0)" fill="#ffec00"/>
          <path id="Trazado_130133" data-name="Trazado 130133" d="M17.926,4.024a7.141,7.141,0,0,1,7.139,7.142v4.279a2.551,2.551,0,0,0,.661.088,1.884,1.884,0,0,0,.861-.193,2.489,2.489,0,0,1,1.1-.358,1.156,1.156,0,0,1,.847.393c.6.615-.028,1.187-1,1.57-.9.351-2.3.713-2.326,1.883a7.752,7.752,0,0,0,3.085,4.339A4.767,4.767,0,0,0,31.249,24.4c.091,0,.165,0,.225,0,.1,0,.155.011.169.06.056.228.239,1.149-1.483,1.588s-2.08.144-2.424,1.043-.214,1.286-.646,1.286c-.3,0-1.592-.249-2.733-.249A3.5,3.5,0,0,0,23,28.334c-1.058.474-2.726,2.487-5.21,2.607-2.484-.119-4.149-2.132-5.207-2.607a3.5,3.5,0,0,0-1.356-.207c-1.142,0-2.442.249-2.737.249-.429,0-.3-.386-.646-1.286s-.7-.6-2.421-1.043-1.539-1.36-1.483-1.588c.011-.049.067-.06.169-.06.06,0,.134,0,.225,0A4.767,4.767,0,0,0,7.3,23.166a7.77,7.77,0,0,0,3.085-4.339c-.028-1.17-1.43-1.532-2.329-1.883-.973-.383-1.606-.956-1-1.57a1.168,1.168,0,0,1,.85-.393,2.462,2.462,0,0,1,1.093.358,1.908,1.908,0,0,0,.864.193,2.551,2.551,0,0,0,.661-.088V11.166a7.141,7.141,0,0,1,7.139-7.142Zm0-1.033h-.271a8.185,8.185,0,0,0-8.176,8.175v3.26l-.011-.007A3.407,3.407,0,0,0,7.9,13.948a2.164,2.164,0,0,0-1.585.7,1.645,1.645,0,0,0-.5,1.535c.155.717.78,1.3,1.866,1.721.112.046.232.088.355.137.506.186,1.181.436,1.3.727a6.808,6.808,0,0,1-2.66,3.569,3.756,3.756,0,0,1-2.34,1.029l-.116,0H4.107a1.129,1.129,0,0,0-1.173.84c-.256,1.033.193,2.322,2.231,2.842.555.144.984.214,1.3.267.134.021.288.049.386.07l.028.074a5.038,5.038,0,0,1,.193.636,1.468,1.468,0,0,0,1.419,1.317,6.423,6.423,0,0,0,.734-.074,15.919,15.919,0,0,1,2-.176,2.478,2.478,0,0,1,.935.116,6.442,6.442,0,0,1,.924.632,8.331,8.331,0,0,0,4.655,2.062l.049,0,.053,0A8.343,8.343,0,0,0,22.5,29.911a6.442,6.442,0,0,1,.924-.632,2.46,2.46,0,0,1,.935-.116,15.919,15.919,0,0,1,2,.176,6.384,6.384,0,0,0,.731.074,1.469,1.469,0,0,0,1.423-1.317,4.949,4.949,0,0,1,.19-.636l.032-.074c.1-.021.253-.049.386-.07.313-.053.741-.123,1.3-.267,2.038-.52,2.488-1.809,2.231-2.842a1.132,1.132,0,0,0-1.173-.84h-.109l-.116,0a3.756,3.756,0,0,1-2.34-1.029,6.789,6.789,0,0,1-2.66-3.569c.119-.292.794-.541,1.3-.727.123-.049.242-.091.355-.137,1.082-.425,1.711-1,1.862-1.721a1.64,1.64,0,0,0-.5-1.535,2.164,2.164,0,0,0-1.585-.7,3.4,3.4,0,0,0-1.571.471l-.011.007v-3.26a8.185,8.185,0,0,0-8.176-8.175" transform="translate(7.21 7.516)" fill="#333"/>
          <path id="Trazado_130134" data-name="Trazado 130134" d="M17.049,30.2c2.484-.119,4.149-2.132,5.207-2.607,1.093-.488,3.661.042,4.093.042s.3-.386.646-1.286.7-.6,2.421-1.043,1.542-1.36,1.483-1.588-1.089.429-3.359-1.293a7.781,7.781,0,0,1-3.085-4.339c.032-1.17,1.433-1.532,2.329-1.883.977-.383,1.609-.956,1-1.57s-1.205-.422-1.943-.039a2.19,2.19,0,0,1-1.521.109V10.423a7.14,7.14,0,0,0-7.139-7.138h-.274a7.14,7.14,0,0,0-7.139,7.138v4.282A2.19,2.19,0,0,1,8.251,14.6c-.738-.383-1.339-.573-1.943.039s.028,1.187,1,1.57c.9.351,2.3.713,2.329,1.883a7.781,7.781,0,0,1-3.085,4.339c-2.27,1.721-3.3,1.061-3.359,1.293s-.242,1.145,1.483,1.588,2.076.144,2.421,1.043.214,1.286.646,1.286,3-.53,4.093-.042c1.058.474,2.723,2.487,5.207,2.607" transform="translate(7.949 8.255)" fill="#fff"/>
        </g>
      </g>
    </g>
  </g>
</svg>
