<svg xmlns="http://www.w3.org/2000/svg" xmlns:xlink="http://www.w3.org/1999/xlink" width="50.869" height="54.333" viewBox="0 0 50.869 54.333">
  <defs>
    <clipPath id="clip-path">
      <rect id="Rect치ngulo_37473" data-name="Rect치ngulo 37473" width="50.869" height="54.333" fill="none"/>
    </clipPath>
  </defs>
  <g id="Grupo_157355" data-name="Grupo 157355" transform="translate(0 0)">
    <g id="Grupo_157354" data-name="Grupo 157354" transform="translate(0 0)" clip-path="url(#clip-path)">
      <path id="Trazado_130180" data-name="Trazado 130180" d="M16.16,7.994l-5.569,9.152-4.72,1.361c-.012-.025-.025-.037-.025-.05-.075-.112-.15-.225-.237-.337a1.322,1.322,0,0,0-.125-.15A2.393,2.393,0,0,0,5.26,17.7L10.1,9.73Z" transform="translate(1.308 1.987)" fill="#ffba0d"/>
      <path id="Trazado_130181" data-name="Trazado 130181" d="M18.93,25.981H12.65L5.77,19.638c.012-.012.012-.037.025-.062a4.146,4.146,0,0,0,.3-.737,1.3,1.3,0,0,1,.05-.125h4.907Z" transform="translate(1.435 4.652)" fill="#ffba0d"/>
      <path id="Trazado_130182" data-name="Trazado 130182" d="M37.215,2.594l1.673,5.831L32.57,10.236Z" transform="translate(8.098 0.645)" fill="#ffba0d"/>
      <path id="Trazado_130183" data-name="Trazado 130183" d="M30.245,3.994l-5.569,9.152L18.62,14.882,24.2,5.73Z" transform="translate(4.629 0.993)" fill="#ffba0d"/>
      <path id="Trazado_130184" data-name="Trazado 130184" d="M33.642,25.981H27.349L19.47,18.714h6.293Z" transform="translate(4.841 4.652)" fill="#ffba0d"/>
      <path id="Trazado_130185" data-name="Trazado 130185" d="M40.55,18.714v6.068l-6.58-6.068Z" transform="translate(8.446 4.652)" fill="#ffba0d"/>
      <path id="Trazado_130186" data-name="Trazado 130186" d="M40.892,25.981H34.6L26.72,18.714h6.293Z" transform="translate(6.643 4.652)" fill="#ffd9a1"/>
      <path id="Trazado_130187" data-name="Trazado 130187" d="M37.215,1.994l-5.569,9.152L25.59,12.882,31.171,3.73Z" transform="translate(6.362 0.495)" fill="#ffd9a1"/>
      <path id="Trazado_130188" data-name="Trazado 130188" d="M23.275,5.994l-5.569,9.152L11.65,16.882,17.219,7.73Z" transform="translate(2.896 1.49)" fill="#ffd9a1"/>
      <path id="Trazado_130189" data-name="Trazado 130189" d="M26.392,25.981H20.1L12.22,18.714H18.5Z" transform="translate(3.038 4.652)" fill="#ffd9a1"/>
      <path id="Trazado_130190" data-name="Trazado 130190" d="M10.37,25.526H3.79v-4.47a.99.99,0,0,0,.112-.05,3.1,3.1,0,0,0,.762-.287c.062-.037.125-.075.2-.112.037-.025.075-.037.112-.062Z" transform="translate(0.942 5.107)" fill="#ffd9a1"/>
      <path id="Trazado_130191" data-name="Trazado 130191" d="M8.281,9.994,4.472,16.237c-.075-.012-.15-.037-.225-.05a1.306,1.306,0,0,0-.212-.05,3.865,3.865,0,0,0-.674-.062H3.186L1.95,11.8Z" transform="translate(0.485 2.484)" fill="#ffd9a1"/>
      <path id="Trazado_130192" data-name="Trazado 130192" d="M1.5,18.337a1.975,1.975,0,0,1,1.386-1.873H2.9a1.737,1.737,0,0,1,1.161,0c.025,0,.05.012.075.012A1.986,1.986,0,0,1,5.371,17.8c0,.012.012.012.012.025a1.751,1.751,0,0,1,.075.512v.025A1.979,1.979,0,0,1,1.5,18.337" transform="translate(0.373 4.068)" fill="#50b1c2"/>
      <rect id="Rect치ngulo_37472" data-name="Rect치ngulo 37472" width="20.989" height="12.149" transform="translate(16.369 32.507)" fill="#50b1c2"/>
      <path id="Trazado_130193" data-name="Trazado 130193" d="M48.054,26.034V45.987H3.79V26.034h9.764V39.12a.943.943,0,0,0,.936.936H37.353a.943.943,0,0,0,.936-.936V26.034Z" transform="translate(0.942 6.472)" fill="#a1f1ff"/>
      <path id="Trazado_130194" data-name="Trazado 130194" d="M23.249,15.875l6.056-1.736,5.569-9.152L28.831,6.723Zm-7.991,7.492,7.879,7.267H29.43l-7.891-7.267Zm-.712-4.994L20.6,16.637l5.569-9.152L20.115,9.22ZM11.313,30.634,5.918,25.652c-.037.025-.075.037-.112.062-.075.037-.137.075-.2.112a3.1,3.1,0,0,1-.762.287.99.99,0,0,1-.112.05v4.47ZM7.18,20.5l4.72-1.361,5.569-9.152-6.056,1.736L6.568,19.683a2.393,2.393,0,0,1,.225.275,1.322,1.322,0,0,1,.125.15c.087.112.162.225.237.337,0,.012.012.025.025.05m5.307,2.872H7.579a1.3,1.3,0,0,0-.05.125,4.146,4.146,0,0,1-.3.737c-.012.025-.012.05-.025.062l6.88,6.343h6.281ZM2.435,14.289l1.236,4.27h.175a3.865,3.865,0,0,1,.674.062,1.306,1.306,0,0,1,.212.05c.075.012.15.037.225.05l3.808-6.243Zm1.411,6.143a1.791,1.791,0,0,0-.574.1H3.259a1.97,1.97,0,1,0,2.572,1.9v-.025a1.751,1.751,0,0,0-.075-.512c0-.012-.012-.012-.012-.025a1.986,1.986,0,0,0-1.236-1.324c-.025,0-.05-.012-.075-.012a1.809,1.809,0,0,0-.587-.1M49,23.367h-6.58L49,29.435Zm-9.764,9.14V45.592a.943.943,0,0,1-.936.936H15.433a.943.943,0,0,1-.936-.936V32.507H4.732V52.46H49V32.507Zm8.3-1.873-7.879-7.267H33.363l7.879,7.267ZM45.313,3.239l-4.645,7.642L46.986,9.07ZM32.19,30.634h6.293L30.6,23.367H24.311Zm5.169,1.873H16.369V44.656H37.359Zm11.05-21.888L10.463,21.494H49.932a.943.943,0,0,1,.936.936V53.4a.935.935,0,0,1-.936.936H3.8a.935.935,0,0,1-.936-.936V26.126a3.836,3.836,0,0,1-.986-7L.387,13.9a.886.886,0,0,1,.075-.712,1.006,1.006,0,0,1,.562-.45l9.564-2.734,8.7-2.5,8.69-2.5h.012l8.7-2.5L45.362.03h.025c.05-.012.112-.012.175-.025a1.065,1.065,0,0,1,.2,0h.025A.963.963,0,0,1,46.1.13h.012c.025.012.037.037.062.062a.626.626,0,0,1,.187.175.49.49,0,0,1,.1.175c.012.05.05.075.062.125l2.522,8.79a.958.958,0,0,1-.637,1.161M37.534,4.225l-5.581,9.152,6.056-1.736L43.577,2.49Z" transform="translate(0 -0.001)"/>
    </g>
  </g>
</svg>
