<svg id="Grupo_157760" data-name="Grupo 157760" xmlns="http://www.w3.org/2000/svg" xmlns:xlink="http://www.w3.org/1999/xlink" width="44.235" height="47.714" viewBox="0 0 44.235 47.714">
  <defs>
    <clipPath id="clip-path">
      <rect id="Rectángulo_38569" data-name="Rectángulo 38569" width="44.235" height="47.714" fill="none"/>
    </clipPath>
  </defs>
  <g id="Grupo_157755" data-name="Grupo 157755">
    <g id="Grupo_157754" data-name="Grupo 157754" clip-path="url(#clip-path)">
      <path id="Trazado_132286" data-name="Trazado 132286" d="M28.468,58.842H6.34a4.026,4.026,0,0,1-4.026-4.026V21.611A4.026,4.026,0,0,1,6.34,17.585H28.468a4.026,4.026,0,0,1,4.026,4.026V54.816a4.026,4.026,0,0,1-4.026,4.026" transform="translate(-1.556 -11.827)" fill="#7a6d79"/>
      <path id="Trazado_132287" data-name="Trazado 132287" d="M10.628,58.842H6.339a4.026,4.026,0,0,1-4.025-4.026V21.61a4.026,4.026,0,0,1,4.025-4.026h4.289A4.025,4.025,0,0,0,6.6,21.61V54.816a4.025,4.025,0,0,0,4.026,4.026" transform="translate(-1.556 -11.826)" fill="#685e68"/>
      <path id="Trazado_132288" data-name="Trazado 132288" d="M29.015,64.348H5.792A3.478,3.478,0,0,1,2.314,60.87V37.021a3.479,3.479,0,0,1,3.478-3.479H29.015a3.479,3.479,0,0,1,3.478,3.479V60.87a3.478,3.478,0,0,1-3.478,3.479" transform="translate(-1.556 -22.559)" fill="#86e8d0"/>
      <path id="Trazado_132289" data-name="Trazado 132289" d="M10.081,64.346H5.793a3.479,3.479,0,0,1-3.479-3.478V37.02a3.48,3.48,0,0,1,3.479-3.48h4.287A3.479,3.479,0,0,0,6.6,37.02V60.868a3.477,3.477,0,0,0,3.478,3.478" transform="translate(-1.556 -22.557)" fill="#5de1c4"/>
      <path id="Trazado_132290" data-name="Trazado 132290" d="M61.881,9.829V20.51a2.356,2.356,0,0,0,1.178,2.041l9.25,5.34a2.359,2.359,0,0,0,2.357,0l9.25-5.34a2.357,2.357,0,0,0,1.178-2.041V9.829a2.357,2.357,0,0,0-1.178-2.041l-9.25-5.341a2.359,2.359,0,0,0-2.357,0l-9.25,5.341a2.356,2.356,0,0,0-1.178,2.041" transform="translate(-41.618 -1.433)" fill="#cb97e7"/>
      <path id="Trazado_132291" data-name="Trazado 132291" d="M75.2,27.584l-.529.306a2.359,2.359,0,0,1-2.358,0l-9.25-5.341a2.357,2.357,0,0,1-1.179-2.041V9.828A2.359,2.359,0,0,1,63.06,7.786l9.25-5.34a2.356,2.356,0,0,1,2.358,0l.528.305a2.251,2.251,0,0,0-.856.285L65.518,8.128a2.25,2.25,0,0,0-1.124,1.947V20.26a2.249,2.249,0,0,0,1.124,1.947L74.339,27.3a2.244,2.244,0,0,0,.857.285" transform="translate(-41.618 -1.432)" fill="#bd80e1"/>
      <path id="Trazado_132292" data-name="Trazado 132292" d="M44.087,23.628H38.635a.7.7,0,1,0,0,1.4h5.452a.7.7,0,1,0,0-1.4" transform="translate(-25.514 -15.891)"/>
      <path id="Trazado_132293" data-name="Trazado 132293" d="M41.052,75.583a.7.7,0,0,0,.495-1.194,8.57,8.57,0,0,0-6.1-2.523h0a8.569,8.569,0,0,0-6.1,2.523.7.7,0,1,0,.989.989,7.239,7.239,0,0,1,10.224,0,.7.7,0,0,0,.494.2" transform="translate(-19.598 -48.333)"/>
      <path id="Trazado_132294" data-name="Trazado 132294" d="M43.228,83.642a.7.7,0,0,0,.494-1.194,5.714,5.714,0,0,0-8.072,0,.7.7,0,0,0,.989.989,4.314,4.314,0,0,1,6.095,0,.7.7,0,0,0,.494.2" transform="translate(-23.839 -54.328)"/>
    </g>
  </g>
  <g id="Grupo_157757" data-name="Grupo 157757">
    <g id="Grupo_157756" data-name="Grupo 157756" clip-path="url(#clip-path)">
      <path id="Trazado_132295" data-name="Trazado 132295" d="M41.956,90.508a.7.7,0,0,0,.989.989,1.392,1.392,0,0,1,1.965,0,.7.7,0,0,0,.989-.989,2.791,2.791,0,0,0-3.942,0" transform="translate(-28.08 -60.323)"/>
      <path id="Trazado_132296" data-name="Trazado 132296" d="M42.767,5.748,40.093,4.2a.7.7,0,0,0-.7,1.212l2.674,1.544A1.663,1.663,0,0,1,42.9,8.4V19.076a1.663,1.663,0,0,1-.83,1.436l-9.25,5.341a1.661,1.661,0,0,1-1.657,0l-9.25-5.34a1.663,1.663,0,0,1-.829-1.436V8.4a1.664,1.664,0,0,1,.829-1.436l9.249-5.34a1.666,1.666,0,0,1,1.658,0l3.762,2.172a.7.7,0,0,0,.7-1.211L33.518.408a3.067,3.067,0,0,0-3.056,0L22.406,5.059H4.9A4.73,4.73,0,0,0,.179,9.783v9.362a.7.7,0,1,0,1.4,0V14.463a2.783,2.783,0,0,1,2.779-2.78H19.684v7.393a3.066,3.066,0,0,0,1.528,2.647L30.359,27V38.311a2.783,2.783,0,0,1-2.78,2.779H25.413a.7.7,0,1,0,0,1.4h2.167a4.162,4.162,0,0,0,2.78-1.062v1.563a3.331,3.331,0,0,1-3.326,3.327H4.9a3.331,3.331,0,0,1-3.327-3.327V41.427a4.162,4.162,0,0,0,2.779,1.062H22.151a.7.7,0,1,0,0-1.4H4.357a2.782,2.782,0,0,1-2.779-2.779v-15.9a.7.7,0,1,0-1.4,0V42.989A4.73,4.73,0,0,0,4.9,47.714H27.033a4.73,4.73,0,0,0,4.725-4.725V27.462c.077.006.155.01.232.01a3.057,3.057,0,0,0,1.528-.409l9.249-5.34A3.065,3.065,0,0,0,44.3,19.076V8.4a3.066,3.066,0,0,0-1.529-2.647M4.357,10.284a4.162,4.162,0,0,0-2.779,1.062V9.783A3.33,3.33,0,0,1,4.9,6.457H20.38a3.063,3.063,0,0,0-.7,1.938v1.889Z" transform="translate(-0.12)"/>
    </g>
  </g>
  <g id="Grupo_157759" data-name="Grupo 157759">
    <g id="Grupo_157758" data-name="Grupo 157758" clip-path="url(#clip-path)">
      <path id="Trazado_132297" data-name="Trazado 132297" d="M100.572,28.541a3.432,3.432,0,0,1,1.928.588.7.7,0,0,0,.783-1.159,4.848,4.848,0,1,0-2.711,8.867c2.52,0,4.281-1.993,4.281-4.848a.7.7,0,0,0-.7-.7h-2.482a.7.7,0,0,0,0,1.4h1.741a2.838,2.838,0,0,1-2.84,2.75,3.449,3.449,0,0,1,0-6.9" transform="translate(-64.379 -18.254)"/>
      <path id="Trazado_132298" data-name="Trazado 132298" d="M76.642,35.439a1.807,1.807,0,0,1-1.506-.758.7.7,0,1,0-1.14.81,3.2,3.2,0,0,0,2.609,1.346h.065A3.208,3.208,0,0,0,79.8,33.809a3.175,3.175,0,0,0-.874-2.371,3.213,3.213,0,0,0-2.32-1,5.333,5.333,0,0,0-.824.056l.324-1.957h2.477a.7.7,0,0,0,0-1.4h-3.07a.7.7,0,0,0-.69.585L74.214,31.4a.7.7,0,0,0,1.009.736L75.3,32.1a2.688,2.688,0,0,1,1.308-.26,1.8,1.8,0,0,1,1.8,1.9,1.8,1.8,0,0,1-1.76,1.7" transform="translate(-49.68 -18.254)"/>
    </g>
  </g>
</svg>
