<svg xmlns="http://www.w3.org/2000/svg" xmlns:xlink="http://www.w3.org/1999/xlink" width="178" height="178" viewBox="0 0 178 178">
  <defs>
    <filter id="Rectángulo_38598" x="0" y="0" width="178" height="178" filterUnits="userSpaceOnUse">
      <feOffset dy="3" input="SourceAlpha"/>
      <feGaussianBlur stdDeviation="3" result="blur"/>
      <feFlood flood-opacity="0.161"/>
      <feComposite operator="in" in2="blur"/>
      <feComposite in="SourceGraphic"/>
    </filter>
    <clipPath id="clip-path">
      <rect id="Rectángulo_37364" data-name="Rectángulo 37364" width="106.946" height="101.237" fill="none"/>
    </clipPath>
  </defs>
  <g id="Grupo_158035" data-name="Grupo 158035" transform="translate(6247 9517)">
    <g id="Grupo_157829" data-name="Grupo 157829" transform="translate(6 15)">
      <g id="Grupo_157828" data-name="Grupo 157828" transform="translate(-7214 -11696)">
        <g transform="matrix(1, 0, 0, 1, 961, 2164)" filter="url(#Rectángulo_38598)">
          <rect id="Rectángulo_38598-2" data-name="Rectángulo 38598" width="160" height="160" rx="30" transform="translate(9 6)" fill="#fff"/>
        </g>
      </g>
      <g id="Grupo_157175" data-name="Grupo 157175" transform="translate(-6217 -9497)">
        <g id="Grupo_157174" data-name="Grupo 157174" transform="translate(0 0)" clip-path="url(#clip-path)">
          <path id="Trazado_129915" data-name="Trazado 129915" d="M40.695,26.3l7.6-8.084S50.538,54.2,50.385,53.824s5.584-.46,5.584-.46l-10.632,14.3L34.727,54.131l5.179-.844Z" transform="translate(48.503 25.442)" fill="#1169e3"/>
          <path id="Trazado_129916" data-name="Trazado 129916" d="M81.872,48.108A40.514,40.514,0,1,1,41.358,7.594,40.515,40.515,0,0,1,81.872,48.108" transform="translate(1.179 10.607)" fill="#29c4bb"/>
          <path id="Trazado_129917" data-name="Trazado 129917" d="M66.523,42.457A30.817,30.817,0,1,1,35.706,11.64,30.818,30.818,0,0,1,66.523,42.457" transform="translate(6.828 16.258)" fill="#a1f1ff"/>
          <path id="Trazado_129918" data-name="Trazado 129918" d="M31.33,54.486l7.6,5H40.72V34.457h6.732L35.97,20.307,24.5,33.156l6.2.765Z" transform="translate(34.225 28.363)" fill="#fee734"/>
          <path id="Trazado_129919" data-name="Trazado 129919" d="M59.754,53.974a1.744,1.744,0,0,1-.24,1.8L48.082,69.433a1.671,1.671,0,0,1-2.564,0L34.085,55.771a1.647,1.647,0,0,1-.24-1.8,1.672,1.672,0,0,1,1.51-.959h5.129V28.952a1.678,1.678,0,1,1,3.355,0V54.693a1.683,1.683,0,0,1-1.678,1.678H38.951l7.837,9.371,7.837-9.371H51.438a1.667,1.667,0,0,1-1.678-1.678V19.2a1.678,1.678,0,0,1,3.355,0V53.015h5.1a1.735,1.735,0,0,1,1.534.959" transform="translate(47.043 24.47)"/>
          <path id="Trazado_129920" data-name="Trazado 129920" d="M49.631,33.766a1.614,1.614,0,0,1,.24,1.774,1.654,1.654,0,0,1-1.51.983h-5.1V60.585a1.678,1.678,0,1,1-3.355,0V34.845a1.667,1.667,0,0,1,1.678-1.678h3.188L36.929,23.8l-7.837,9.371h3.188a1.667,1.667,0,0,1,1.678,1.678V53.9a1.683,1.683,0,0,1-1.678,1.678,1.715,1.715,0,0,1-1.654-1.342A1.582,1.582,0,0,1,30.6,53.9V36.523H25.5A1.7,1.7,0,0,1,24.2,33.766L35.635,20.105a1.742,1.742,0,0,1,2.588,0Z" transform="translate(33.271 27.278)"/>
          <path id="Trazado_129921" data-name="Trazado 129921" d="M83.165,46.065a1.712,1.712,0,0,1-1.126,2.109,1.644,1.644,0,0,1-2.085-1.1,39.461,39.461,0,0,0-9.635-16.058,1.168,1.168,0,0,1-.168-.072,1.338,1.338,0,0,1-.12-.192,39.465,39.465,0,0,0-9.179-6.711c-.048-.024-.12-.024-.192-.048a.239.239,0,0,1-.1-.12A39.2,39.2,0,1,0,67.707,88.75a1.668,1.668,0,1,1,2.133,2.564A42.49,42.49,0,0,1,11.576,29.647L8.2,25.836a8.606,8.606,0,0,1-2.037-6.4,8.4,8.4,0,0,1,15.626-3.331l2.469,4.266a42.465,42.465,0,0,1,8.988-3.14l-1.007-3.283a10.589,10.589,0,0,1,1.63-9.563,10.781,10.781,0,0,1,18.982,9.563l-1.007,3.283a41.691,41.691,0,0,1,9.012,3.092L63.3,16.106a8.387,8.387,0,1,1,13.565,9.731L73.555,29.6a42.759,42.759,0,0,1,9.611,16.465m-8.82-22.457A4.938,4.938,0,0,0,75.568,19.8,5.026,5.026,0,0,0,73.6,16.274a5.047,5.047,0,0,0-7.406,1.51l-2.373,4.1a41.336,41.336,0,0,1,7.334,5.345ZM49.636,12.966a7.421,7.421,0,1,0-14.188,0l1.126,3.691a40.642,40.642,0,0,1,5.968-.479,41.169,41.169,0,0,1,5.968.455ZM21.283,21.93l-2.421-4.146A5.015,5.015,0,0,0,9.515,19.8a4.938,4.938,0,0,0,1.222,3.811L13.973,27.3a42.511,42.511,0,0,1,7.31-5.369" transform="translate(0 0)"/>
          <path id="Trazado_129922" data-name="Trazado 129922" d="M38.374,10.9a4.938,4.938,0,0,1-1.222,3.811l-3.188,3.619a41.336,41.336,0,0,0-7.334-5.345L29,8.889A5.029,5.029,0,0,1,38.374,10.9" transform="translate(37.194 8.894)" fill="#a1f1ff"/>
          <path id="Trazado_129923" data-name="Trazado 129923" d="M63.013,24.753a1.661,1.661,0,0,1-.407,2.325,1.581,1.581,0,0,1-.959.312,1.612,1.612,0,0,1-1.366-.719c-.647-.887-1.366-1.75-2.109-2.588L56.3,25.951a1.6,1.6,0,0,1-1.174.5,1.69,1.69,0,0,1-1.2-2.876L55.8,21.709a28.834,28.834,0,0,0-17.544-7.238v2.612a1.678,1.678,0,0,1-3.355,0V14.471a28.9,28.9,0,0,0-17.568,7.238L19.2,23.579a1.671,1.671,0,0,1,0,2.373,1.6,1.6,0,0,1-1.174.5,1.689,1.689,0,0,1-1.2-.5l-1.869-1.845A28.948,28.948,0,0,0,7.7,41.65h2.636a1.678,1.678,0,0,1,0,3.355H7.721a28.834,28.834,0,0,0,7.238,17.544l1.869-1.869a1.693,1.693,0,0,1,2.373,0,1.671,1.671,0,0,1,0,2.373l-1.869,1.893A28.872,28.872,0,0,0,34.9,72.256V69.571a1.678,1.678,0,1,1,3.355,0V72.28a29.055,29.055,0,0,0,13.661-4.386,1.8,1.8,0,0,1,.887-.264,1.647,1.647,0,0,1,1.414.791,1.677,1.677,0,0,1-.527,2.325A32.307,32.307,0,0,1,4.27,43.423v-.192A32.24,32.24,0,0,1,36.482,11.02h.192a32.272,32.272,0,0,1,22.745,9.443,33.764,33.764,0,0,1,3.6,4.29" transform="translate(5.964 15.392)"/>
          <path id="Trazado_129924" data-name="Trazado 129924" d="M35.207,43.4a1.693,1.693,0,0,1,0,2.373,1.636,1.636,0,0,1-1.174.5,1.689,1.689,0,0,1-1.2-.5l-5.225-5.225a8.778,8.778,0,0,1-4.817,1.462,8.65,8.65,0,0,1-1.678-17.136V19.838a1.678,1.678,0,1,1,3.355,0v5.033a8.667,8.667,0,0,1,6.974,8.484,8.778,8.778,0,0,1-1.462,4.817ZM28.089,33.355a5.3,5.3,0,1,0-5.3,5.3,5.3,5.3,0,0,0,5.3-5.3" transform="translate(19.749 25.364)"/>
          <path id="Trazado_129925" data-name="Trazado 129925" d="M28.052,4.42a7.367,7.367,0,0,1,1.126,6.591l-1.126,3.667a41.169,41.169,0,0,0-5.968-.455,40.643,40.643,0,0,0-5.968.479L14.99,11.011A7.419,7.419,0,0,1,28.052,4.42" transform="translate(20.458 1.955)" fill="#a1f1ff"/>
          <path id="Trazado_129926" data-name="Trazado 129926" d="M20.837,22.29a5.3,5.3,0,1,1-5.3,5.3,5.3,5.3,0,0,1,5.3-5.3" transform="translate(21.705 31.132)" fill="#50b1c2"/>
          <path id="Trazado_129927" data-name="Trazado 129927" d="M13.333,8.889l2.421,4.146A42.511,42.511,0,0,0,8.444,18.4L5.208,14.713A4.938,4.938,0,0,1,3.986,10.9a5.018,5.018,0,0,1,9.347-2.013" transform="translate(5.529 8.894)" fill="#a1f1ff"/>
        </g>
      </g>
    </g>
  </g>
</svg>
