<svg xmlns="http://www.w3.org/2000/svg" xmlns:xlink="http://www.w3.org/1999/xlink" width="70" height="85" viewBox="0 0 70 85">
  <defs>
    <clipPath id="clip-path">
      <rect id="Rect치ngulo_37523" data-name="Rect치ngulo 37523" width="31.23" height="41" fill="#fff"/>
    </clipPath>
  </defs>
  <g id="Grupo_158041" data-name="Grupo 158041" transform="translate(-669 -3259)">
    <g id="Grupo_157456" data-name="Grupo 157456" transform="translate(129 1552)">
      <rect id="Rect치ngulo_36766" data-name="Rect치ngulo 36766" width="70" height="85" rx="12" transform="translate(540 1707)" fill="#0c487b"/>
    </g>
    <g id="Grupo_157459" data-name="Grupo 157459" transform="translate(-4 -1383.539)">
      <g id="Grupo_156584" data-name="Grupo 156584" transform="translate(326 -5.514)">
        <path id="Trazado_127053" data-name="Trazado 127053" d="M15.507,123.96c-.454.1-.559-.113-.555-.537.012-1.063-.007-1.081-1.106-1.075-.409,0-.536-.124-.528-.529.007-.377.077-.553.512-.551,1.1,0,1.131-.018,1.119-1.119-.005-.5.239-.507.608-.511s.56.058.56.5c0,1.115.023,1.135,1.112,1.131.421,0,.521.15.522.541s-.1.541-.52.539c-1.11-.006-1.137.014-1.112,1.066.012.488-.169.631-.611.545" transform="translate(339.683 4576.256)" fill="#29c4bb"/>
        <path id="Trazado_127054" data-name="Trazado 127054" d="M213.642,151.161c.406-.078.632.057.565.517-.056.385.077.6.5.533s.57.088.573.537c0,.47-.189.578-.589.525-.383-.052-.5.115-.5.5.012.6-.357.826-.934.645-.274-.086-.214-.3-.2-.477.048-.472-.06-.76-.616-.666-.431.073-.457-.2-.456-.527s.014-.6.451-.53c.471.073.694-.1.616-.6-.075-.475.23-.5.582-.454" transform="translate(195.806 4555.561)" fill="#29c4bb"/>
        <path id="Trazado_127055" data-name="Trazado 127055" d="M210.718,69.268c.1.453-.1.608-.527.537-.46-.078-.648.111-.567.569s-.113.548-.542.553-.609-.127-.532-.557c.082-.459-.109-.648-.565-.562-.472.089-.513-.158-.531-.555-.021-.466.16-.588.566-.517.441.077.606-.106.531-.537-.072-.412.061-.579.521-.563.4.014.639.072.552.536s.115.639.567.563c.425-.072.632.081.526.534" transform="translate(199.254 4609.627)" fill="#010000"/>
        <path id="Trazado_127056" data-name="Trazado 127056" d="M55.04,186.64c.1.423-.11.578-.532.5-.5-.09-.614.169-.543.587.079.465-.146.537-.555.535-.39,0-.6-.091-.518-.511.108-.553-.169-.688-.645-.607s-.466-.225-.467-.559.007-.6.448-.512c.593.117.745-.168.665-.7-.077-.508.311-.362.569-.377.274-.016.579-.052.5.389-.1.545.092.8.67.687.482-.092.423.243.409.566" transform="translate(311.829 4533.616)" fill="#010000"/>
        <path id="Trazado_127057" data-name="Trazado 127057" d="M121.786,17.426c-.114-.483.153-.577.548-.518.41.061.572-.109.509-.513s.058-.588.522-.578c.427.009.623.119.548.558s.131.6.553.533c.391-.059.587.035.589.513s-.182.62-.608.553c-.45-.072-.6.133-.533.553.078.472-.175.526-.572.534-.424.009-.562-.151-.5-.54.068-.427-.09-.622-.535-.547s-.62-.106-.523-.547" transform="translate(261.153 4643.184)" fill="#29c4bb"/>
      </g>
    </g>
    <g id="Grupo_157464" data-name="Grupo 157464" transform="translate(688 3281)">
      <g id="Grupo_157463" data-name="Grupo 157463" clip-path="url(#clip-path)">
        <path id="Trazado_130706" data-name="Trazado 130706" d="M30.43,15.215h-3.2V.8a.8.8,0,0,0-.8-.8H4.8A.8.8,0,0,0,4,.8V15.215H.8a.8.8,0,0,0-.8.8V40.2a.8.8,0,0,0,.8.8H30.43a.8.8,0,0,0,.8-.8V16.016a.8.8,0,0,0-.8-.8M28.874,20.82l-2.86,4H5.217l-2.86-4Zm.755-1.6h-2.4v-2.4h2.4ZM5.605,1.6h20.02V19.219H5.605Zm-4,15.215H4v2.4H1.6ZM1.6,39.4V22.518L4.153,26.09a.8.8,0,0,0,.652.335H26.426a.8.8,0,0,0,.652-.335l2.552-3.572V39.4Z" fill="#fff"/>
        <path id="Trazado_130707" data-name="Trazado 130707" d="M54.023,294H30.8a.8.8,0,0,0-.8.8v4.8a.8.8,0,0,0,.8.8H54.023a.8.8,0,0,0,.8-.8v-4.8a.8.8,0,0,0-.8-.8m-.8,4.8H31.6v-3.2H53.223Z" transform="translate(-26.797 -262.609)" fill="#fff"/>
        <path id="Trazado_130708" data-name="Trazado 130708" d="M128.3,136.6h8.809a.8.8,0,0,0,0-1.6H128.3a.8.8,0,0,0,0,1.6" transform="translate(-113.887 -120.586)" fill="#fff"/>
        <path id="Trazado_130709" data-name="Trazado 130709" d="M128.3,106.6h8.809a.8.8,0,0,0,0-1.6H128.3a.8.8,0,0,0,0,1.6" transform="translate(-113.887 -93.789)" fill="#fff"/>
        <path id="Trazado_130710" data-name="Trazado 130710" d="M128.3,76.6h8.809a.8.8,0,0,0,0-1.6H128.3a.8.8,0,0,0,0,1.6" transform="translate(-113.887 -66.992)" fill="#fff"/>
        <path id="Trazado_130711" data-name="Trazado 130711" d="M68.3,81.406a.8.8,0,0,0,0,1.6h3.2a.8.8,0,0,0,0-1.6h-.8V75.8a.8.8,0,0,0-.8-.8H68.3a.8.8,0,0,0,0,1.6h.8v4.8Z" transform="translate(-60.293 -66.992)" fill="#fff"/>
        <path id="Trazado_130712" data-name="Trazado 130712" d="M75.8,46.6a.8.8,0,1,0-.566-.235.805.805,0,0,0,.566.235" transform="translate(-66.992 -40.195)" fill="#fff"/>
      </g>
    </g>
  </g>
</svg>
