<svg xmlns="http://www.w3.org/2000/svg" xmlns:xlink="http://www.w3.org/1999/xlink" width="178" height="178" viewBox="0 0 178 178">
  <defs>
    <filter id="Rectángulo_38598" x="0" y="0" width="178" height="178" filterUnits="userSpaceOnUse">
      <feOffset dy="3" input="SourceAlpha"/>
      <feGaussianBlur stdDeviation="3" result="blur"/>
      <feFlood flood-opacity="0.161"/>
      <feComposite operator="in" in2="blur"/>
      <feComposite in="SourceGraphic"/>
    </filter>
    <clipPath id="clip-path">
      <rect id="Rectángulo_37363" data-name="Rectángulo 37363" width="109.579" height="102.518" fill="none"/>
    </clipPath>
  </defs>
  <g id="Grupo_158036" data-name="Grupo 158036" transform="translate(5717 9532)">
    <g id="Grupo_157831" data-name="Grupo 157831" transform="translate(31)">
      <g id="Grupo_157830" data-name="Grupo 157830" transform="translate(505)">
        <g id="Grupo_157828" data-name="Grupo 157828" transform="translate(-7214 -11696)">
          <g transform="matrix(1, 0, 0, 1, 961, 2164)" filter="url(#Rectángulo_38598)">
            <rect id="Rectángulo_38598-2" data-name="Rectángulo 38598" width="160" height="160" rx="30" transform="translate(9 6)" fill="#fff"/>
          </g>
        </g>
      </g>
      <g id="Grupo_157173" data-name="Grupo 157173" transform="translate(-5714 -9497)">
        <g id="Grupo_157172" data-name="Grupo 157172" clip-path="url(#clip-path)">
          <path id="Trazado_129899" data-name="Trazado 129899" d="M48.1,214.9a36.807,36.807,0,1,0-36.807-36.807A36.883,36.883,0,0,0,48.1,214.9" transform="translate(-9.145 -114.431)" fill="#c1e8ff" fill-rule="evenodd"/>
          <path id="Trazado_129900" data-name="Trazado 129900" d="M47.917,251.217,16.83,231.57a37.29,37.29,0,0,0-5.471,14.922,36.365,36.365,0,0,0,2.86,19.4Z" transform="translate(-8.964 -187.557)" fill="#1169e3" fill-rule="evenodd"/>
          <path id="Trazado_129901" data-name="Trazado 129901" d="M61.345,334.941l-33.7,14.673A36.686,36.686,0,0,0,56.62,371.375a37.088,37.088,0,0,0,19.647-2.86Z" transform="translate(-22.392 -271.282)" fill="#29c4bb" fill-rule="evenodd"/>
          <path id="Trazado_129902" data-name="Trazado 129902" d="M473.486,280.638l-6.839,6.839L477.465,298.3a3.68,3.68,0,0,0,5.1,0l1.741-1.741a3.462,3.462,0,0,0,0-5.1Z" transform="translate(-377.955 -227.299)" fill="#d18569" fill-rule="evenodd"/>
          <path id="Trazado_129903" data-name="Trazado 129903" d="M225.324,67.543A28.227,28.227,0,1,0,197.1,39.316a28.286,28.286,0,0,0,28.227,28.227" transform="translate(-159.636 -8.981)" fill="#fbef9e" fill-rule="evenodd"/>
          <path id="Trazado_129904" data-name="Trazado 129904" d="M210.864,361.612a2.113,2.113,0,0,1-1.932-1.255l-14.921-33.575a2.114,2.114,0,0,1,3.864-1.718L212.8,358.639a2.115,2.115,0,0,1-1.932,2.973" transform="translate(-156.989 -262.264)" fill="#424952"/>
          <path id="Trazado_129905" data-name="Trazado 129905" d="M18.633,342.712a2.115,2.115,0,0,1-.844-4.052l33.7-14.674a2.114,2.114,0,0,1,1.688,3.877l-33.7,14.674a2.1,2.1,0,0,1-.844.176" transform="translate(-13.38 -262.265)" fill="#424952"/>
          <path id="Trazado_129906" data-name="Trazado 129906" d="M63.465,244.324A2.1,2.1,0,0,1,62.334,244L31.246,224.35a2.114,2.114,0,0,1,2.262-3.573L64.6,240.423a2.115,2.115,0,0,1-1.131,3.9" transform="translate(-24.511 -178.551)" fill="#424952"/>
          <path id="Trazado_129907" data-name="Trazado 129907" d="M39.01,212.181a38.907,38.907,0,0,1-9.262-76.724,2.114,2.114,0,0,1,1,4.108A34.67,34.67,0,0,0,34.5,207.66a34.686,34.686,0,0,0,38.79-30.009,24.317,24.317,0,0,0,.236-2.96,2.112,2.112,0,1,1,4.224,0,28.718,28.718,0,0,1-.266,3.494,38.946,38.946,0,0,1-38.474,34" transform="translate(0 -109.663)" fill="#424952"/>
          <path id="Trazado_129908" data-name="Trazado 129908" d="M471.01,292.422a5.737,5.737,0,0,1-4.044-1.647L456.145,279.96a2.12,2.12,0,0,1,0-2.99l6.841-6.839a2.112,2.112,0,0,1,2.99,0l10.817,10.819a5.583,5.583,0,0,1-.064,8.15l-1.675,1.677a5.759,5.759,0,0,1-4.044,1.645m-10.38-13.957,9.326,9.322a1.623,1.623,0,0,0,2.108,0l1.739-1.739a1.421,1.421,0,0,0,.5-1.056,1.343,1.343,0,0,0-.433-.988l-9.39-9.388Z" transform="translate(-368.95 -218.287)" fill="#424952"/>
          <path id="Trazado_129909" data-name="Trazado 129909" d="M504.737,295.9a2.113,2.113,0,0,1-1.542-3.558l1.743-1.864a2.113,2.113,0,1,1,3.085,2.887l-1.744,1.864a2.1,2.1,0,0,1-1.542.67" transform="translate(-407.094 -234.727)" fill="#424952"/>
          <path id="Trazado_129910" data-name="Trazado 129910" d="M216.5,60.624a30.2,30.2,0,0,1-30.364-30.36,29.927,29.927,0,0,1,8.928-21.329,30.232,30.232,0,0,1,38.619-3.6,2.114,2.114,0,1,1-2.39,3.487,26.008,26.008,0,0,0-33.239,3.1,25.742,25.742,0,0,0-7.69,18.354,26.015,26.015,0,0,0,7.681,18.583,26.365,26.365,0,0,0,36.936-.009,26.325,26.325,0,0,0,3.093-33.243,2.115,2.115,0,0,1,3.5-2.382,30.245,30.245,0,0,1-25.069,47.4" transform="translate(-150.758 0)" fill="#424952"/>
          <path id="Trazado_129911" data-name="Trazado 129911" d="M444.178,260.163a2.1,2.1,0,0,1-1.452-.578l-2.236-2.114a2.114,2.114,0,1,1,2.9-3.072l2.236,2.114a2.113,2.113,0,0,1-1.452,3.65" transform="translate(-356.233 -205.58)" fill="#424952"/>
          <path id="Trazado_129912" data-name="Trazado 129912" d="M281.056,95.149c-3.359,0-6.092-3.123-6.092-6.963,0-3.973,2.673-7.088,6.092-7.088a2.114,2.114,0,0,1,0,4.228c-1.011,0-1.868,1.309-1.868,2.859,0,1.457.874,2.735,1.868,2.735s1.868-1.279,1.868-2.735a2.112,2.112,0,1,1,4.224,0c0,3.841-2.733,6.963-6.092,6.963" transform="translate(-222.704 -65.684)" fill="#424952"/>
          <path id="Trazado_129913" data-name="Trazado 129913" d="M358.377,178.231c-3.427,0-6.216-3.125-6.216-6.966,0-3.909,2.789-7.088,6.216-7.088a2.114,2.114,0,0,1,0,4.228c-.942,0-1.992,1.174-1.992,2.859,0,1.51.9,2.737,1.992,2.737.882,0,1.868-1.125,1.868-2.737a2.112,2.112,0,1,1,4.224,0c0,3.84-2.733,6.966-6.092,6.966" transform="translate(-285.229 -132.974)" fill="#424952"/>
          <path id="Trazado_129914" data-name="Trazado 129914" d="M298,110.964a2.112,2.112,0,0,1-1.829-3.172l14.8-25.616a2.113,2.113,0,1,1,3.658,2.116l-14.8,25.616A2.11,2.11,0,0,1,298,110.964" transform="translate(-239.651 -65.707)" fill="#424952"/>
        </g>
      </g>
    </g>
  </g>
</svg>
