<svg xmlns="http://www.w3.org/2000/svg" xmlns:xlink="http://www.w3.org/1999/xlink" width="70" height="85" viewBox="0 0 70 85">
  <defs>
    <clipPath id="clip-path">
      <rect id="Rect치ngulo_37524" data-name="Rect치ngulo 37524" width="36.036" height="41" fill="#fff"/>
    </clipPath>
  </defs>
  <g id="Grupo_158042" data-name="Grupo 158042" transform="translate(-1038 -3259)">
    <g id="Grupo_157457" data-name="Grupo 157457" transform="translate(498 1552)">
      <rect id="Rect치ngulo_36766" data-name="Rect치ngulo 36766" width="70" height="85" rx="12" transform="translate(540 1707)" fill="#0c487b"/>
    </g>
    <g id="Grupo_157460" data-name="Grupo 157460" transform="translate(17 -1381.053)">
      <g id="Grupo_156584" data-name="Grupo 156584" transform="translate(674 -6)">
        <path id="Trazado_127053" data-name="Trazado 127053" d="M15.507,123.96c-.454.1-.559-.113-.555-.537.012-1.063-.007-1.081-1.106-1.075-.409,0-.536-.124-.528-.529.007-.377.077-.553.512-.551,1.1,0,1.131-.018,1.119-1.119-.005-.5.239-.507.608-.511s.56.058.56.5c0,1.115.023,1.135,1.112,1.131.421,0,.521.15.522.541s-.1.541-.52.539c-1.11-.006-1.137.014-1.112,1.066.012.488-.169.631-.611.545" transform="translate(339.683 4573.259)" fill="#29c4bb"/>
        <path id="Trazado_127054" data-name="Trazado 127054" d="M213.642,151.161c.406-.078.632.057.565.517-.056.385.077.6.5.533s.57.088.573.537c0,.47-.189.578-.589.525-.383-.052-.5.115-.5.5.012.6-.357.826-.934.645-.274-.086-.214-.3-.2-.477.048-.472-.06-.76-.616-.666-.431.073-.457-.2-.456-.527s.014-.6.451-.53c.471.073.694-.1.616-.6-.075-.475.23-.5.582-.454" transform="translate(195.806 4551.753)" fill="#29c4bb"/>
        <path id="Trazado_127055" data-name="Trazado 127055" d="M210.718,69.268c.1.453-.1.608-.527.537-.46-.078-.648.111-.567.569s-.113.548-.542.553-.609-.127-.532-.557c.082-.459-.109-.648-.565-.562-.472.089-.513-.158-.531-.555-.021-.466.16-.588.566-.517.441.077.606-.106.531-.537-.072-.412.061-.579.521-.563.4.014.639.072.552.536s.115.639.567.563c.425-.072.632.081.526.534" transform="translate(199.254 4608.17)" fill="#010000"/>
        <path id="Trazado_127056" data-name="Trazado 127056" d="M55.04,186.64c.1.423-.11.578-.532.5-.5-.09-.614.169-.543.587.079.465-.146.537-.555.535-.39,0-.6-.091-.518-.511.108-.553-.169-.688-.645-.607s-.466-.225-.467-.559.007-.6.448-.512c.593.117.745-.168.665-.7-.077-.508.311-.362.569-.377.274-.016.579-.052.5.389-.1.545.092.8.67.687.482-.092.423.243.409.566" transform="translate(311.829 4528.862)" fill="#010000"/>
        <path id="Trazado_127057" data-name="Trazado 127057" d="M121.786,17.426c-.114-.483.153-.577.548-.518.41.061.572-.109.509-.513s.058-.588.522-.578c.427.009.623.119.548.558s.131.6.553.533c.391-.059.587.035.589.513s-.182.62-.608.553c-.45-.072-.6.133-.533.553.078.472-.175.526-.572.534-.424.009-.562-.151-.5-.54.068-.427-.09-.622-.535-.547s-.62-.106-.523-.547" transform="translate(261.153 4643.184)" fill="#29c4bb"/>
      </g>
    </g>
    <g id="Grupo_157466" data-name="Grupo 157466" transform="translate(1055 3281)">
      <g id="Grupo_157465" data-name="Grupo 157465" clip-path="url(#clip-path)">
        <path id="Trazado_130713" data-name="Trazado 130713" d="M148.652,309a2.4,2.4,0,1,0,2.4,2.4,2.405,2.405,0,0,0-2.4-2.4m0,3.2a.8.8,0,1,1,.8-.8.8.8,0,0,1-.8.8" transform="translate(-130.635 -276.007)" fill="#fff"/>
        <path id="Trazado_130714" data-name="Trazado 130714" d="M211.6,97.5h-.8a.8.8,0,1,0,0,1.6h.8a.8.8,0,1,0,0-1.6" transform="translate(-187.578 -87.09)" fill="#fff"/>
        <path id="Trazado_130715" data-name="Trazado 130715" d="M249.1,97.5h-.8a.8.8,0,0,0,0,1.6h.8a.8.8,0,1,0,0-1.6" transform="translate(-221.074 -87.09)" fill="#fff"/>
        <path id="Trazado_130716" data-name="Trazado 130716" d="M285.8,99.1h.8a.8.8,0,1,0,0-1.6h-.8a.8.8,0,0,0,0,1.6" transform="translate(-254.57 -87.09)" fill="#fff"/>
        <path id="Trazado_130717" data-name="Trazado 130717" d="M105.8,159.1h.8a.8.8,0,1,0,0-1.6h-.8a.8.8,0,1,0,0,1.6" transform="translate(-93.789 -140.683)" fill="#fff"/>
        <path id="Trazado_130718" data-name="Trazado 130718" d="M68.3,159.1h.8a.8.8,0,1,0,0-1.6h-.8a.8.8,0,1,0,0,1.6" transform="translate(-60.293 -140.683)" fill="#fff"/>
        <path id="Trazado_130719" data-name="Trazado 130719" d="M31.6,157.5h-.8a.8.8,0,1,0,0,1.6h.8a.8.8,0,1,0,0-1.6" transform="translate(-26.797 -140.683)" fill="#fff"/>
        <path id="Trazado_130720" data-name="Trazado 130720" d="M35.235,6.406h-4V3.2a3.207,3.207,0,0,0-3.2-3.2H8.008A3.207,3.207,0,0,0,4.8,3.2v9.609H.8a.8.8,0,0,0-.8.8v8.008a.8.8,0,0,0,.8.8h4V37.8a3.207,3.207,0,0,0,3.2,3.2h20.02a3.207,3.207,0,0,0,3.2-3.2V16.016h4a.8.8,0,0,0,.8-.8V7.207a.8.8,0,0,0-.8-.8M6.406,3.2a1.6,1.6,0,0,1,1.6-1.6h20.02a1.6,1.6,0,0,1,1.6,1.6v3.2h-1.6V4a.8.8,0,0,0-.8-.8H8.809a.8.8,0,0,0-.8.8v8.809h-1.6Zm12.813,4v10.41a.8.8,0,0,0,1.426.5l1.682-2.1h4.1V29.789H9.609V22.422h4.1l1.682,2.1a.8.8,0,0,0,1.426-.5V13.613a.8.8,0,0,0-.8-.8H9.609V4.8H26.426v1.6H20.02a.8.8,0,0,0-.8.8M1.6,14.414H15.215v7.326l-.5-.619a.8.8,0,0,0-.625-.3H1.6ZM29.629,37.8a1.6,1.6,0,0,1-1.6,1.6H8.008a1.6,1.6,0,0,1-1.6-1.6V22.422h1.6V30.59a.8.8,0,0,0,.8.8H27.227a.8.8,0,0,0,.8-.8V16.016h1.6Zm4.8-23.383H21.942a.8.8,0,0,0-.625.3l-.5.619V8.008H34.434Z" fill="#fff"/>
      </g>
    </g>
  </g>
</svg>
