<svg id="Grupo_157182" data-name="Grupo 157182" xmlns="http://www.w3.org/2000/svg" xmlns:xlink="http://www.w3.org/1999/xlink" width="54.779" height="50.257" viewBox="0 0 54.779 50.257">
  <defs>
    <clipPath id="clip-path">
      <rect id="Rect치ngulo_37372" data-name="Rect치ngulo 37372" width="54.779" height="50.258" fill="none"/>
    </clipPath>
  </defs>
  <rect id="Rect치ngulo_37371" data-name="Rect치ngulo 37371" width="34.13" height="29.619" transform="translate(19.344 1.037)" fill="#d4eafd"/>
  <g id="Grupo_157181" data-name="Grupo 157181" transform="translate(0 0)">
    <g id="Grupo_157180" data-name="Grupo 157180" clip-path="url(#clip-path)">
      <path id="Trazado_129933" data-name="Trazado 129933" d="M24.75,17.636,21.4,18.7s1.257,4.843,6.148,3.593,6.63-2.5,6.63-2.5l2.609-6.2s-3.86-.6-3.968,0S31.805,16.8,31.805,16.8l-1.944,1.521Z" transform="translate(5.931 3.694)" fill="#99c23f"/>
      <path id="Trazado_129934" data-name="Trazado 129934" d="M19.635,11.547h4.809l4.24-1.84L28.14,5.977s-5.922.617-8.5,5.57" transform="translate(5.443 1.657)" fill="#99c23f"/>
      <path id="Trazado_129935" data-name="Trazado 129935" d="M54.779.971V30.5a.981.981,0,0,1-.971.983H19.745a.981.981,0,0,1-.971-.983V20.537H16.77V48.316h20a.971.971,0,1,1,0,1.941H.971a.971.971,0,1,1,0-1.941H3.947V33.169a2.87,2.87,0,0,1-1,.179A2.941,2.941,0,0,1,0,30.41V18.583a4.186,4.186,0,0,1,4.176-4.176h14.6V.971A.97.97,0,0,1,19.745,0H53.808a.97.97,0,0,1,.971.971M52.837,29.529V1.941H20.716V14.407h8.851a2.532,2.532,0,0,1,.447.038,3.062,3.062,0,0,1-.447,6.092H20.716v8.991ZM30.691,17.472a1.134,1.134,0,0,0-1.124-1.124H4.176a2.238,2.238,0,0,0-2.235,2.235V30.41a1,1,0,0,0,2.005,0V21.763a.97.97,0,0,1,.971-.971.981.981,0,0,1,.983.971V48.316H9.387V35.059a.971.971,0,1,1,1.941,0V48.316h3.5V19.567A.97.97,0,0,1,15.8,18.6H29.567a1.126,1.126,0,0,0,1.124-1.124" transform="translate(0 0)"/>
      <path id="Trazado_129936" data-name="Trazado 129936" d="M39.208,13.008a.97.97,0,0,1-.971.971h-4.1a.97.97,0,0,1-.971-.971A4.173,4.173,0,0,0,29,8.844a.973.973,0,0,1-.983-.971v-4.1A.984.984,0,0,1,29,2.79a10.22,10.22,0,0,1,10.2,10.218m-4.176-.971h2.184A8.3,8.3,0,0,0,29.974,4.8V6.979a6.115,6.115,0,0,1,5.058,5.058" transform="translate(7.767 0.773)"/>
      <path id="Trazado_129937" data-name="Trazado 129937" d="M36.792,11.6H34.608A6.115,6.115,0,0,0,29.55,6.544V4.36A8.3,8.3,0,0,1,36.792,11.6" transform="translate(8.191 1.209)" fill="#b8e151"/>
      <path id="Trazado_129938" data-name="Trazado 129938" d="M37.264,12.53a.97.97,0,0,1,.971.971A10.213,10.213,0,0,1,20.3,20.193a.973.973,0,0,1,.089-1.379.986.986,0,0,1,1.379.1A8.261,8.261,0,0,0,36.23,14.471H34.046a6.1,6.1,0,0,1-6.028,5.134,6.021,6.021,0,0,1-2.376-.473.981.981,0,0,1-.524-1.277.965.965,0,0,1,1.277-.511A4.183,4.183,0,0,0,32.181,13.5a.97.97,0,0,1,.971-.971Z" transform="translate(5.56 3.473)"/>
      <path id="Trazado_129939" data-name="Trazado 129939" d="M29.21,7.18v3.18a.973.973,0,0,1-.971.983,4.172,4.172,0,0,0-2.669.958.939.939,0,0,1-.613.23.993.993,0,0,1-.2-.026.95.95,0,0,1-.549-.332.972.972,0,0,1,.128-1.367,6.186,6.186,0,0,1,2.938-1.341V7.3a8.335,8.335,0,0,0-6.207,4.087.967.967,0,1,1-1.673-.971A10.246,10.246,0,0,1,28.239,5.29a.97.97,0,0,1,.971.971Z" transform="translate(5.338 1.466)"/>
      <path id="Trazado_129940" data-name="Trazado 129940" d="M29.146,12.8a1.124,1.124,0,1,1,0,2.248H15.378a.97.97,0,0,0-.971.971v28.75h-3.5V31.511a.971.971,0,1,0-1.941,0V44.768H5.479V18.215a.981.981,0,0,0-.983-.971.97.97,0,0,0-.971.971v8.647a1,1,0,0,1-2.005,0V15.035A2.238,2.238,0,0,1,3.755,12.8Z" transform="translate(0.421 3.548)" fill="#6da7bf"/>
      <path id="Trazado_129941" data-name="Trazado 129941" d="M9.255,1.85A5.275,5.275,0,1,1,3.98,7.125,5.276,5.276,0,0,1,9.255,1.85m3.333,5.275a3.333,3.333,0,1,0-3.333,3.333,3.336,3.336,0,0,0,3.333-3.333" transform="translate(1.103 0.513)"/>
      <path id="Trazado_129942" data-name="Trazado 129942" d="M8.833,3.37A3.333,3.333,0,1,1,5.5,6.7,3.336,3.336,0,0,1,8.833,3.37" transform="translate(1.525 0.934)" fill="#f8e794"/>
    </g>
  </g>
</svg>
