<svg xmlns="http://www.w3.org/2000/svg" xmlns:xlink="http://www.w3.org/1999/xlink" width="118" height="143" viewBox="0 0 118 143">
  <defs>
    <clipPath id="clip-path">
      <rect id="Rectángulo_37478" data-name="Rectángulo 37478" width="72.235" height="85.71" fill="none"/>
    </clipPath>
  </defs>
  <g id="Grupo_158033" data-name="Grupo 158033" transform="translate(-354 -951)">
    <g id="Grupo_157358" data-name="Grupo 157358" transform="translate(354.229 950.542)">
      <rect id="Rectángulo_36766" data-name="Rectángulo 36766" width="118" height="143" rx="12" transform="translate(-0.229 0.458)" fill="#1169e3"/>
    </g>
    <g id="Grupo_157372" data-name="Grupo 157372" transform="translate(377 980)">
      <rect id="Rectángulo_37477" data-name="Rectángulo 37477" width="66.168" height="82.858" transform="translate(1.545 1.528)" fill="#ddebf2"/>
      <g id="Grupo_157371" data-name="Grupo 157371" transform="translate(0 0)">
        <g id="Grupo_157370" data-name="Grupo 157370" clip-path="url(#clip-path)">
          <path id="Trazado_130197" data-name="Trazado 130197" d="M58.534,4.446a4.692,4.692,0,0,1,3.247,5.79L53,41.531l-7.726,27.54a1.647,1.647,0,0,1-.254.489c-.02.02-.02.02-.02.039l-5.4,6.67a1.511,1.511,0,0,1-1.565.469A1.47,1.47,0,0,1,37,75.486l-.8-8.411c0-.039.02-.059.02-.1a1.066,1.066,0,0,1,.02-.43L39.15,56.2H12.2a1.467,1.467,0,0,1,0-2.934H39.972L44.647,36.6,52.764,7.693a4.674,4.674,0,0,1,2.21-2.817,4.841,4.841,0,0,1,2.308-.606,4.6,4.6,0,0,1,1.252.176m.43,5.007a1.77,1.77,0,0,0-1.213-2.191,1.822,1.822,0,0,0-1.35.176,1.724,1.724,0,0,0-.822,1.056L39.463,65.922l1.976.548,1.408.411ZM39.581,71.633l1.741-2.152-2.015-.567Z" transform="translate(10.277 4.082)"/>
          <path id="Trazado_130198" data-name="Trazado 130198" d="M43.718,5.829a1.77,1.77,0,0,1,1.213,2.191L28.814,65.446l-1.408-.411-1.976-.548L41.547,7.061A1.724,1.724,0,0,1,42.369,6a1.822,1.822,0,0,1,1.35-.176" transform="translate(24.31 5.516)" fill="#97d0dc"/>
          <path id="Trazado_130199" data-name="Trazado 130199" d="M68.967,46.689V84.263A1.461,1.461,0,0,1,67.5,85.71H1.467A1.461,1.461,0,0,1,0,84.263V1.447A1.461,1.461,0,0,1,1.467,0H67.5a1.457,1.457,0,1,1,0,2.914H2.934V82.8h63.1V46.689a1.51,1.51,0,0,1,.039-.293A1.447,1.447,0,0,1,67.5,45.222a1.465,1.465,0,0,1,1.467,1.467" transform="translate(0 0)"/>
          <path id="Trazado_130200" data-name="Trazado 130200" d="M43.023,20.977a1.4,1.4,0,0,1-.117.567,1.459,1.459,0,0,1-1.35.9H12.2a1.467,1.467,0,0,1,0-2.934H41.556a1.465,1.465,0,0,1,1.467,1.467" transform="translate(10.277 18.651)"/>
          <path id="Trazado_130201" data-name="Trazado 130201" d="M41.556,9.7a1.467,1.467,0,0,1,0,2.934H12.2a1.467,1.467,0,0,1,0-2.934Z" transform="translate(10.277 9.273)"/>
          <path id="Trazado_130202" data-name="Trazado 130202" d="M27.365,37.887l-1.741,2.152L25.35,37.32Z" transform="translate(24.233 35.676)" fill="#e09d31"/>
          <path id="Trazado_130203" data-name="Trazado 130203" d="M26.065,6.6a1.467,1.467,0,1,1,0,2.934H12.2a1.467,1.467,0,0,1,0-2.934Z" transform="translate(10.277 6.309)"/>
          <path id="Trazado_130204" data-name="Trazado 130204" d="M26.065,16.41a1.467,1.467,0,1,1,0,2.934H12.2a1.467,1.467,0,0,1,0-2.934Z" transform="translate(10.277 15.687)"/>
          <path id="Trazado_130205" data-name="Trazado 130205" d="M26.065,26.22a1.467,1.467,0,1,1,0,2.934H12.2a1.467,1.467,0,0,1,0-2.934Z" transform="translate(10.277 25.065)"/>
          <path id="Trazado_130206" data-name="Trazado 130206" d="M17.563,5.178a1.476,1.476,0,0,1,0,2.073L16.409,8.405v7.57a3.16,3.16,0,0,1-3.149,3.149H5.749A3.16,3.16,0,0,1,2.6,15.975V8.444a3.143,3.143,0,0,1,3.149-3.13H13.26a3.155,3.155,0,0,1,1.643.469l.587-.606a1.476,1.476,0,0,1,2.073,0m-4.088,10.8V11.339l-2.8,2.8a1.388,1.388,0,0,1-1.037.43H9.485A1.477,1.477,0,0,1,8.409,13.9L7.353,12.258a1.465,1.465,0,1,1,2.465-1.584l.078.117,2.562-2.562H5.749a.235.235,0,0,0-.235.215v7.53a.235.235,0,0,0,.235.215H13.26a.217.217,0,0,0,.215-.215" transform="translate(2.485 4.543)"/>
          <path id="Trazado_130207" data-name="Trazado 130207" d="M17.563,14.988a1.476,1.476,0,0,1,0,2.073l-1.154,1.154v7.57a3.16,3.16,0,0,1-3.149,3.149H5.749A3.16,3.16,0,0,1,2.6,25.785v-7.53a3.143,3.143,0,0,1,3.149-3.13H13.26a3.155,3.155,0,0,1,1.643.469l.587-.606a1.476,1.476,0,0,1,2.073,0m-4.088,10.8V21.149l-2.8,2.8a1.388,1.388,0,0,1-1.037.43H9.485a1.477,1.477,0,0,1-1.076-.665L7.353,22.068a1.465,1.465,0,1,1,2.465-1.584L9.9,20.6l2.562-2.562H5.749a.235.235,0,0,0-.235.215v7.53A.235.235,0,0,0,5.749,26H13.26a.217.217,0,0,0,.215-.215" transform="translate(2.485 13.921)"/>
          <path id="Trazado_130208" data-name="Trazado 130208" d="M17.563,24.8a1.476,1.476,0,0,1,0,2.073l-1.154,1.154v7.57a3.16,3.16,0,0,1-3.149,3.149H5.749A3.16,3.16,0,0,1,2.6,35.595V28.084a3.147,3.147,0,0,1,3.149-3.149H13.26A3.155,3.155,0,0,1,14.9,25.4l.587-.606a1.476,1.476,0,0,1,2.073,0m-4.088,10.8V30.959l-2.8,2.8a1.388,1.388,0,0,1-1.037.43H9.485a1.421,1.421,0,0,1-1.076-.665L7.353,31.878a1.465,1.465,0,1,1,2.465-1.584l.078.117,2.562-2.562H5.749a.238.238,0,0,0-.235.235v7.511a.235.235,0,0,0,.235.215H13.26a.217.217,0,0,0,.215-.215" transform="translate(2.485 23.299)"/>
          <path id="Trazado_130209" data-name="Trazado 130209" d="M12.051,29.26V33.9a.217.217,0,0,1-.215.215H4.325A.235.235,0,0,1,4.09,33.9V26.385a.238.238,0,0,1,.235-.235h6.709L8.471,28.712l-.078-.117a1.465,1.465,0,1,0-2.465,1.584l1.056,1.643a1.421,1.421,0,0,0,1.076.665h.156a1.388,1.388,0,0,0,1.037-.43Z" transform="translate(3.91 24.998)" fill="#97dca3"/>
          <path id="Trazado_130210" data-name="Trazado 130210" d="M12.051,19.45v4.636a.217.217,0,0,1-.215.215H4.325a.235.235,0,0,1-.235-.215v-7.53a.235.235,0,0,1,.235-.215h6.709L8.471,18.9l-.078-.117a1.465,1.465,0,1,0-2.465,1.584l1.056,1.643a1.477,1.477,0,0,0,1.076.665h.156a1.388,1.388,0,0,0,1.037-.43Z" transform="translate(3.91 15.62)" fill="#97dca3"/>
          <path id="Trazado_130211" data-name="Trazado 130211" d="M12.051,9.64v4.636a.217.217,0,0,1-.215.215H4.325a.235.235,0,0,1-.235-.215V6.745a.235.235,0,0,1,.235-.215h6.709L8.471,9.092l-.078-.117a1.465,1.465,0,1,0-2.465,1.584L6.985,12.2a1.477,1.477,0,0,0,1.076.665h.156a1.388,1.388,0,0,0,1.037-.43Z" transform="translate(3.91 6.242)" fill="#97dca3"/>
        </g>
      </g>
    </g>
  </g>
</svg>
