<svg xmlns="http://www.w3.org/2000/svg" xmlns:xlink="http://www.w3.org/1999/xlink" width="400" height="333" viewBox="0 0 400 333">
  <defs>
    <clipPath id="clip-path">
      <rect id="Rectángulo_37391" data-name="Rectángulo 37391" width="384.29" height="302.31" fill="none"/>
    </clipPath>
  </defs>
  <g id="Grupo_158033" data-name="Grupo 158033" transform="translate(-181 -5028)">
    <path id="WEB-AdobeStock_425318986" d="M6,0H394a6,6,0,0,1,6,6V327a6,6,0,0,1-6,6H6a6,6,0,0,1-6-6V6A6,6,0,0,1,6,0Z" transform="translate(181 5028)" fill="#d7e4f6"/>
    <path id="Trazado_129977" data-name="Trazado 129977" d="M392.05,212.811,375.561,239.97,253.349,197.075,236.86,169.56Z" transform="translate(73.992 4960.669)" fill="#db407c"/>
    <path id="Trazado_129978" data-name="Trazado 129978" d="M391.324,293.77l-16.166,27.482-96.67-40.008L262,253.728Z" transform="translate(61.785 4919.801)" fill="#7e396e"/>
    <path id="Trazado_129979" data-name="Trazado 129979" d="M390.616,370.971l-16.489,27.8L303,359l-16.489-27.516Z" transform="translate(49.884 4882.044)" fill="#1190bb"/>
    <path id="Trazado_129980" data-name="Trazado 129980" d="M390.213,449.221,373.724,476.7l-45.911-40.83-16.165-27.129Z" transform="translate(37.678 4844.532)" fill="#27569b"/>
    <path id="Trazado_129981" data-name="Trazado 129981" d="M321.176,169.663l-83.792-.093L253.7,196.994l67.477.075,67.477-.075,16.315-27.424Z" transform="translate(73.737 4960.664)" fill="#fc619d"/>
    <path id="Trazado_129982" data-name="Trazado 129982" d="M333.2,253.51l-71.051-.079,16.315,27.423,54.736.061,54.736-.061,16.315-27.423Z" transform="translate(61.711 4919.945)" fill="#9f5a8f"/>
    <path id="Trazado_129983" data-name="Trazado 129983" d="M345.226,331.7l-58.311-.065,16.315,27.424,42,.047,42-.047,16.315-27.424Z" transform="translate(49.687 4881.972)" fill="#32b1dc"/>
    <path id="Trazado_129984" data-name="Trazado 129984" d="M357.252,408.641l-45.57-.05L328,436.014l29.254.032,29.254-.032,16.315-27.423Z" transform="translate(37.661 4844.606)" fill="#4877bc"/>
    <path id="Trazado_129985" data-name="Trazado 129985" d="M369.272,487.44l-32.833-.037,16.315,27.424,16.519.019,16.519-.019L402.106,487.4Z" transform="translate(25.64 4806.338)" fill="#423d7a"/>
    <g id="Grupo_157192" data-name="Grupo 157192" transform="translate(189 5043)" clip-path="url(#clip-path)">
      <path id="Trazado_129986" data-name="Trazado 129986" d="M399.635,141.2h-8.828a.519.519,0,0,0-.232.73l4.2,7.273a.522.522,0,0,0,.9,0l4.2-7.269a.52.52,0,0,0-.241-.735" transform="translate(-189.612 -68.558)" fill="#9797cc"/>
      <path id="Trazado_129987" data-name="Trazado 129987" d="M663.893,382.306h8.828a.52.52,0,0,0,.232-.73l-4.2-7.273a.522.522,0,0,0-.9,0l-4.2,7.269a.52.52,0,0,0,.241.735" transform="translate(-322.205 -181.618)" fill="#9797cc"/>
      <path id="Trazado_130015" data-name="Trazado 130015" d="M81.48,475.94a1.33,1.33,0,1,0-1.33-1.33,1.33,1.33,0,0,0,1.33,1.33" transform="translate(-38.917 -229.803)" fill="#32b1dc"/>
      <path id="Trazado_130016" data-name="Trazado 130016" d="M82.87,483.292,80.94,479.6a.665.665,0,0,0-.645-.354h-.179l.1.851-1.028-.851-1.029.851.1-.851h-.179a.665.665,0,0,0-.645.354l-1.93,3.689a.665.665,0,1,0,1.178.616l.677-1.294v5.53a.665.665,0,1,0,1.33,0v-3.084a.493.493,0,0,1,.987,0v3.084a.665.665,0,1,0,1.329,0v-5.53l.678,1.294a.665.665,0,0,0,1.178-.616" transform="translate(-36.629 -232.701)" fill="#32b1dc"/>
      <path id="Trazado_130017" data-name="Trazado 130017" d="M97.85,475.94a1.33,1.33,0,1,0-1.33-1.33,1.33,1.33,0,0,0,1.33,1.33" transform="translate(-46.866 -229.803)" fill="#32b1dc"/>
      <path id="Trazado_130018" data-name="Trazado 130018" d="M99.24,483.292,97.31,479.6a.665.665,0,0,0-.645-.354h-.179l.1.851-1.028-.851-1.029.851.1-.851h-.179a.665.665,0,0,0-.645.354l-1.93,3.689a.665.665,0,1,0,1.178.616l.678-1.294v5.53a.665.665,0,1,0,1.329,0v-3.084a.493.493,0,0,1,.987,0v3.084a.665.665,0,1,0,1.33,0v-5.53l.677,1.294a.665.665,0,0,0,1.179-.616" transform="translate(-44.578 -232.701)" fill="#32b1dc"/>
      <path id="Trazado_130019" data-name="Trazado 130019" d="M114.22,475.94a1.33,1.33,0,1,0-1.33-1.33,1.33,1.33,0,0,0,1.33,1.33" transform="translate(-54.814 -229.803)" fill="#32b1dc"/>
      <path id="Trazado_130020" data-name="Trazado 130020" d="M115.611,483.292l-1.93-3.689a.665.665,0,0,0-.645-.354h-.179l.1.851-1.028-.851-1.029.851.1-.851h-.179a.665.665,0,0,0-.645.354l-1.929,3.689a.665.665,0,1,0,1.178.616l.677-1.294v5.53a.665.665,0,1,0,1.33,0v-3.084a.493.493,0,0,1,.987,0v3.084a.665.665,0,1,0,1.33,0v-5.53l.677,1.294a.665.665,0,0,0,1.178-.616" transform="translate(-52.526 -232.701)" fill="#32b1dc"/>
      <path id="Trazado_130021" data-name="Trazado 130021" d="M130.59,475.94a1.33,1.33,0,1,0-1.33-1.33,1.33,1.33,0,0,0,1.33,1.33" transform="translate(-62.763 -229.803)" fill="#32b1dc"/>
      <path id="Trazado_130022" data-name="Trazado 130022" d="M131.98,483.292l-1.93-3.689a.666.666,0,0,0-.645-.354h-.179l.1.851-1.028-.851-1.029.851.1-.851H127.2a.665.665,0,0,0-.645.354l-1.93,3.689a.665.665,0,1,0,1.178.616l.677-1.294v5.53a.665.665,0,1,0,1.33,0v-3.084a.493.493,0,0,1,.987,0v3.084a.665.665,0,1,0,1.33,0v-5.53l.677,1.294a.665.665,0,0,0,1.178-.616" transform="translate(-60.475 -232.701)" fill="#32b1dc"/>
      <path id="Trazado_130023" data-name="Trazado 130023" d="M146.96,475.94a1.33,1.33,0,1,0-1.33-1.33,1.33,1.33,0,0,0,1.33,1.33" transform="translate(-70.711 -229.803)" fill="#32b1dc"/>
      <path id="Trazado_130024" data-name="Trazado 130024" d="M148.35,483.292l-1.93-3.689a.665.665,0,0,0-.645-.354H145.6l.1.851-1.028-.851-1.029.851.1-.851h-.179a.665.665,0,0,0-.645.354l-1.93,3.689a.665.665,0,1,0,1.178.616l.677-1.294v5.53a.665.665,0,1,0,1.33,0v-3.084a.493.493,0,0,1,.987,0v3.084a.665.665,0,1,0,1.33,0v-5.53l.677,1.294a.665.665,0,0,0,1.178-.616" transform="translate(-68.423 -232.701)" fill="#32b1dc"/>
      <path id="Trazado_130025" data-name="Trazado 130025" d="M163.33,475.94a1.33,1.33,0,1,0-1.33-1.33,1.33,1.33,0,0,0,1.33,1.33" transform="translate(-78.66 -229.803)" fill="#32b1dc"/>
      <path id="Trazado_130026" data-name="Trazado 130026" d="M164.721,483.292l-1.93-3.689a.665.665,0,0,0-.645-.354h-.179l.1.851-1.029-.851-1.029.851.1-.851h-.179a.665.665,0,0,0-.645.354l-1.929,3.689a.665.665,0,1,0,1.178.616l.678-1.294v5.53a.665.665,0,1,0,1.329,0v-3.084a.493.493,0,0,1,.987,0v3.084a.665.665,0,1,0,1.33,0v-5.53l.677,1.294a.665.665,0,0,0,1.179-.616" transform="translate(-76.372 -232.701)" fill="#32b1dc"/>
      <path id="Trazado_130027" data-name="Trazado 130027" d="M179.7,475.94a1.33,1.33,0,1,0-1.33-1.33,1.33,1.33,0,0,0,1.33,1.33" transform="translate(-86.608 -229.803)" fill="#32b1dc"/>
      <path id="Trazado_130028" data-name="Trazado 130028" d="M181.09,483.292l-1.93-3.689a.665.665,0,0,0-.645-.354h-.178l.1.851-1.028-.851-1.029.851.1-.851h-.179a.665.665,0,0,0-.645.354l-1.93,3.689a.665.665,0,1,0,1.178.616l.677-1.294v5.53a.665.665,0,1,0,1.33,0v-3.084a.493.493,0,0,1,.987,0v3.084a.665.665,0,1,0,1.33,0v-5.53l.677,1.294a.665.665,0,0,0,1.178-.616" transform="translate(-84.32 -232.701)" fill="#32b1dc"/>
      <path id="Trazado_130029" data-name="Trazado 130029" d="M114.22,536.044a1.33,1.33,0,1,0-1.33-1.33,1.33,1.33,0,0,0,1.33,1.33" transform="translate(-54.814 -258.987)" fill="#32b1dc"/>
      <path id="Trazado_130030" data-name="Trazado 130030" d="M115.611,543.4l-1.93-3.689a.665.665,0,0,0-.645-.354h-.179l.1.851-1.028-.851-1.029.851.1-.851h-.179a.665.665,0,0,0-.645.354l-1.929,3.689a.665.665,0,1,0,1.178.616l.677-1.294v5.53a.665.665,0,1,0,1.33,0v-3.084a.493.493,0,0,1,.987,0v3.084a.665.665,0,1,0,1.33,0v-5.53l.677,1.294a.665.665,0,0,0,1.178-.616" transform="translate(-52.526 -261.884)" fill="#32b1dc"/>
      <path id="Trazado_130031" data-name="Trazado 130031" d="M130.59,536.044a1.33,1.33,0,1,0-1.33-1.33,1.33,1.33,0,0,0,1.33,1.33" transform="translate(-62.763 -258.987)" fill="#32b1dc"/>
      <path id="Trazado_130032" data-name="Trazado 130032" d="M131.98,543.4l-1.93-3.689a.665.665,0,0,0-.645-.354h-.179l.1.851-1.028-.851-1.029.851.1-.851H127.2a.665.665,0,0,0-.645.354l-1.93,3.689a.665.665,0,1,0,1.178.616l.677-1.294v5.53a.665.665,0,1,0,1.33,0v-3.084a.493.493,0,0,1,.987,0v3.084a.665.665,0,1,0,1.33,0v-5.53l.677,1.294a.665.665,0,1,0,1.178-.616" transform="translate(-60.475 -261.884)" fill="#32b1dc"/>
      <path id="Trazado_130033" data-name="Trazado 130033" d="M146.96,536.044a1.33,1.33,0,1,0-1.33-1.33,1.33,1.33,0,0,0,1.33,1.33" transform="translate(-70.711 -258.987)" fill="#32b1dc"/>
      <path id="Trazado_130034" data-name="Trazado 130034" d="M148.35,543.4l-1.93-3.689a.665.665,0,0,0-.645-.354H145.6l.1.851-1.028-.851-1.029.851.1-.851h-.179a.665.665,0,0,0-.645.354l-1.93,3.689a.665.665,0,1,0,1.178.616l.677-1.294v5.53a.665.665,0,1,0,1.33,0v-3.084a.493.493,0,0,1,.987,0v3.084a.665.665,0,1,0,1.33,0v-5.53l.677,1.294a.665.665,0,0,0,1.178-.616" transform="translate(-68.423 -261.884)" fill="#32b1dc"/>
      <path id="Trazado_130035" data-name="Trazado 130035" d="M98.475,505.333A1.333,1.333,0,1,0,97.142,504a1.333,1.333,0,0,0,1.333,1.333" transform="translate(-47.168 -244.072)" fill="#32b1dc"/>
      <path id="Trazado_130036" data-name="Trazado 130036" d="M99.87,512.706l-1.935-3.7a.666.666,0,0,0-.647-.355h-.3a.827.827,0,0,1-1.622,0h-.3a.666.666,0,0,0-.646.355l-1.935,3.7a.666.666,0,1,0,1.181.618l.679-1.3.42-.893-.965,4.195h.651v2.243a.667.667,0,0,0,1.334,0v-2.243h.776v2.243a.667.667,0,0,0,1.333,0v-2.243h.652l-.965-4.195.42.893.679,1.3a.666.666,0,1,0,1.181-.618" transform="translate(-44.873 -246.977)" fill="#32b1dc"/>
      <path id="Trazado_130037" data-name="Trazado 130037" d="M114.845,505.333A1.333,1.333,0,1,0,113.512,504a1.333,1.333,0,0,0,1.333,1.333" transform="translate(-55.116 -244.072)" fill="#32b1dc"/>
      <path id="Trazado_130038" data-name="Trazado 130038" d="M116.24,512.706l-1.935-3.7a.666.666,0,0,0-.647-.355h-.3a.827.827,0,0,1-1.622,0h-.3a.666.666,0,0,0-.646.355l-1.935,3.7a.667.667,0,1,0,1.182.618l.679-1.3.42-.893-.965,4.195h.651v2.243a.667.667,0,0,0,1.334,0v-2.243h.776v2.243a.667.667,0,0,0,1.333,0v-2.243h.652l-.965-4.195.419.893.679,1.3a.666.666,0,1,0,1.181-.618" transform="translate(-52.822 -246.977)" fill="#32b1dc"/>
      <path id="Trazado_130039" data-name="Trazado 130039" d="M131.215,505.333A1.333,1.333,0,1,0,129.882,504a1.333,1.333,0,0,0,1.333,1.333" transform="translate(-63.065 -244.072)" fill="#32b1dc"/>
      <path id="Trazado_130040" data-name="Trazado 130040" d="M132.61,512.706l-1.935-3.7a.667.667,0,0,0-.647-.355h-.3a.827.827,0,0,1-1.622,0h-.3a.665.665,0,0,0-.646.355l-1.935,3.7a.667.667,0,1,0,1.182.618l.679-1.3.42-.893-.965,4.195h.651v2.243a.667.667,0,0,0,1.334,0v-2.243h.776v2.243a.667.667,0,0,0,1.333,0v-2.243h.652l-.965-4.195.42.893.679,1.3a.666.666,0,1,0,1.181-.618" transform="translate(-60.771 -246.977)" fill="#32b1dc"/>
      <path id="Trazado_130041" data-name="Trazado 130041" d="M147.585,505.333A1.333,1.333,0,1,0,146.252,504a1.333,1.333,0,0,0,1.333,1.333" transform="translate(-71.013 -244.072)" fill="#32b1dc"/>
      <path id="Trazado_130042" data-name="Trazado 130042" d="M148.98,512.706l-1.935-3.7a.666.666,0,0,0-.647-.355h-.3a.827.827,0,0,1-1.622,0h-.3a.666.666,0,0,0-.646.355l-1.935,3.7a.667.667,0,1,0,1.182.618l.679-1.3.42-.893-.965,4.195h.651v2.243a.667.667,0,0,0,1.334,0v-2.243h.776v2.243a.667.667,0,0,0,1.333,0v-2.243h.652l-.965-4.195.42.893.679,1.3a.666.666,0,1,0,1.181-.618" transform="translate(-68.719 -246.977)" fill="#32b1dc"/>
      <path id="Trazado_130043" data-name="Trazado 130043" d="M163.955,505.333A1.333,1.333,0,1,0,162.622,504a1.333,1.333,0,0,0,1.333,1.333" transform="translate(-78.962 -244.072)" fill="#32b1dc"/>
      <path id="Trazado_130044" data-name="Trazado 130044" d="M165.35,512.706l-1.935-3.7a.666.666,0,0,0-.647-.355h-.3a.827.827,0,0,1-1.622,0h-.3a.666.666,0,0,0-.647.355l-1.935,3.7a.667.667,0,1,0,1.182.618l.679-1.3.42-.893-.965,4.195h.651v2.243a.667.667,0,0,0,1.334,0v-2.243h.776v2.243a.667.667,0,0,0,1.333,0v-2.243h.652l-.965-4.195.419.893.679,1.3a.666.666,0,1,0,1.181-.618" transform="translate(-76.668 -246.977)" fill="#32b1dc"/>
      <path id="Trazado_130045" data-name="Trazado 130045" d="M130.832,565.054a1.333,1.333,0,1,0-1.333-1.333,1.334,1.334,0,0,0,1.333,1.333" transform="translate(-62.879 -273.07)" fill="#32b1dc"/>
      <path id="Trazado_130046" data-name="Trazado 130046" d="M132.227,572.427l-1.935-3.7a.666.666,0,0,0-.647-.355h-.3a.827.827,0,0,1-1.622,0h-.3a.667.667,0,0,0-.647.355l-1.935,3.7a.667.667,0,1,0,1.182.618l.679-1.3.42-.892-.965,4.194h.651v2.243a.667.667,0,0,0,1.334,0v-2.243h.776v2.243a.667.667,0,1,0,1.333,0v-2.243h.652l-.965-4.194.419.892.679,1.3a.667.667,0,1,0,1.181-.618" transform="translate(-60.585 -275.975)" fill="#32b1dc"/>
      <path id="Trazado_130047" data-name="Trazado 130047" d="M124.654,266.591l.105,1.136-.06-1.136Z" transform="translate(-60.526 -129.444)" fill="#ffb288"/>
      <path id="Trazado_130048" data-name="Trazado 130048" d="M85.853,211.413a30.95,30.95,0,0,0-30.859,30.859v32h19.62V246.145a15.347,15.347,0,0,1,15.3-15.3h2.513l-.345-19.43Z" transform="translate(-26.703 -102.653)" fill="#562c50"/>
      <path id="Trazado_130049" data-name="Trazado 130049" d="M133.814,211.413h-6.722l.345,19.43h2.313a15.347,15.347,0,0,1,15.3,15.3v28.129h19.62v-32a30.95,30.95,0,0,0-30.859-30.859" transform="translate(-61.71 -102.653)" fill="#f43d69"/>
      <path id="Trazado_130050" data-name="Trazado 130050" d="M54.994,336.906v12.064h19.62V333.6H54.994Z" transform="translate(-26.703 -161.983)" fill="#e8dfea"/>
      <path id="Trazado_130051" data-name="Trazado 130051" d="M162,336.906v12.064h19.62V333.6H162Z" transform="translate(-78.662 -161.983)" fill="#e8dfea"/>
      <path id="Trazado_130052" data-name="Trazado 130052" d="M632.067,286.237a39.8,39.8,0,1,1,39.8-39.8,39.846,39.846,0,0,1-39.8,39.8m0-73.359a33.558,33.558,0,1,0,33.558,33.558,33.6,33.6,0,0,0-33.558-33.558" transform="translate(-287.578 -100.333)" fill="#f43d69"/>
      <path id="Trazado_130053" data-name="Trazado 130053" d="M646.43,285.382A24.583,24.583,0,1,1,671.014,260.8a24.611,24.611,0,0,1-24.583,24.583m0-46.044A21.461,21.461,0,1,0,667.892,260.8a21.485,21.485,0,0,0-21.462-21.461" transform="translate(-301.941 -114.696)" fill="#f43d69"/>
      <path id="Trazado_130054" data-name="Trazado 130054" d="M670.3,272.769a11.9,11.9,0,1,1-11.9-11.9,11.9,11.9,0,0,1,11.9,11.9" transform="translate(-313.911 -126.666)" fill="#f43d69"/>
      <path id="Trazado_130055" data-name="Trazado 130055" d="M710.974,161.157A8.117,8.117,0,0,0,706,155.129c-.184-.073-.369-.142-.557-.2a8.192,8.192,0,0,0-2.477-.385,8.135,8.135,0,0,0-7.22,11.863c.1.2.222.405.353.611a8.135,8.135,0,0,0,14.871-5.86" transform="translate(-337.382 -75.039)" fill="#ffdf5a"/>
      <path id="Trazado_130056" data-name="Trazado 130056" d="M711.037,159.306a9.755,9.755,0,0,0-5.972-7.244c-.221-.088-.443-.17-.669-.241a9.771,9.771,0,0,0-11.647,13.79c.125.242.268.49.423.736a9.769,9.769,0,0,0,7.427,4.513c.265.023.539.034.816.034q.159,0,.321-.005a9.763,9.763,0,0,0,9.3-11.582m-10.3,9.922a8.135,8.135,0,0,1-6.182-3.757c-.13-.206-.248-.412-.352-.612A8.135,8.135,0,0,1,701.424,153a8.189,8.189,0,0,1,2.477.385c.188.059.374.129.558.2a8.126,8.126,0,0,1-2.772,15.669,8.194,8.194,0,0,1-.948-.024" transform="translate(-335.836 -73.493)" fill="#f4b251"/>
      <path id="Trazado_130057" data-name="Trazado 130057" d="M667.426,161.157a8.117,8.117,0,0,0-4.969-6.028c-.184-.074-.369-.142-.557-.2a8.192,8.192,0,0,0-2.477-.385,8.135,8.135,0,0,0-7.22,11.863c.1.2.219.4.353.612a8.135,8.135,0,0,0,14.871-5.861" transform="translate(-316.237 -75.039)" fill="#ffdf5a"/>
      <path id="Trazado_130058" data-name="Trazado 130058" d="M667.151,158.016a9.755,9.755,0,0,0-5.635-5.954c-.221-.088-.443-.17-.669-.242a9.77,9.77,0,0,0-11.646,13.79c.125.242.263.483.423.736a9.763,9.763,0,0,0,7.427,4.513c.265.023.538.034.816.034.106,0,.214,0,.32-.005a9.769,9.769,0,0,0,8.963-12.872m-9.961,11.212a8.13,8.13,0,0,1-6.182-3.756c-.135-.212-.25-.413-.353-.612A8.135,8.135,0,0,1,657.875,153a8.189,8.189,0,0,1,2.477.385c.188.059.373.128.558.2a8.126,8.126,0,0,1-2.772,15.669,8.2,8.2,0,0,1-.947-.024" transform="translate(-314.69 -73.493)" fill="#f4b251"/>
      <path id="Trazado_130059" data-name="Trazado 130059" d="M622.651,161.158a8.153,8.153,0,0,0-.28-1.075,8.12,8.12,0,0,0-4.689-4.954c-.184-.074-.369-.142-.557-.2a8.191,8.191,0,0,0-2.477-.384,8.135,8.135,0,0,0-7.22,11.862c.1.2.222.406.352.612a8.135,8.135,0,0,0,14.871-5.859" transform="translate(-294.496 -75.039)" fill="#ffdf5a"/>
      <path id="Trazado_130060" data-name="Trazado 130060" d="M622.713,159.305a9.9,9.9,0,0,0-.337-1.289,9.754,9.754,0,0,0-5.635-5.954c-.221-.088-.443-.17-.669-.241a9.77,9.77,0,0,0-11.646,13.79c.125.242.268.49.423.736a9.768,9.768,0,0,0,7.427,4.513c.265.023.539.034.816.034.106,0,.214,0,.32-.005a9.763,9.763,0,0,0,9.3-11.582Zm-10.3,9.923a8.132,8.132,0,0,1-6.182-3.757c-.13-.206-.248-.412-.352-.612A8.135,8.135,0,0,1,613.1,153a8.19,8.19,0,0,1,2.477.385c.188.059.373.129.558.2a8.126,8.126,0,0,1-2.772,15.669,8.2,8.2,0,0,1-.948-.024" transform="translate(-292.95 -73.493)" fill="#f4b251"/>
      <path id="Trazado_130061" data-name="Trazado 130061" d="M690.5,122.959a8.117,8.117,0,0,0-4.969-6.028c-.184-.074-.369-.143-.557-.2a8.192,8.192,0,0,0-2.477-.385,8.135,8.135,0,0,0-7.22,11.863c.1.2.218.4.353.612a8.135,8.135,0,0,0,14.871-5.861" transform="translate(-327.443 -56.492)" fill="#ffdf5a"/>
      <path id="Trazado_130062" data-name="Trazado 130062" d="M690.566,121.108a9.838,9.838,0,0,0-.336-1.29,9.759,9.759,0,0,0-5.635-5.954c-.221-.088-.444-.17-.669-.242a9.77,9.77,0,0,0-11.646,13.79c.125.242.263.482.423.736a9.764,9.764,0,0,0,7.427,4.513c.265.023.538.034.816.034.107,0,.214,0,.321-.005a9.763,9.763,0,0,0,9.3-11.582m-10.3,9.922a8.129,8.129,0,0,1-6.182-3.756c-.135-.212-.25-.413-.353-.612a8.135,8.135,0,0,1,7.219-11.863,8.2,8.2,0,0,1,2.478.385c.188.059.373.128.557.2a8.126,8.126,0,0,1-2.772,15.669,8.2,8.2,0,0,1-.947-.024" transform="translate(-325.896 -54.946)" fill="#f4b251"/>
      <path id="Trazado_130063" data-name="Trazado 130063" d="M653,90.806c.1.2.218.4.353.612a8.13,8.13,0,0,0,6.182,3.756,8.321,8.321,0,0,0,.947.024,8.125,8.125,0,0,0,2.772-15.668c-.184-.074-.369-.143-.557-.2a8.211,8.211,0,0,0-2.478-.384A8.135,8.135,0,0,0,653,90.806" transform="translate(-316.623 -38.331)" fill="#ffdf5a"/>
      <path id="Trazado_130064" data-name="Trazado 130064" d="M650.419,90.746a9.767,9.767,0,0,0,7.427,4.513c.265.022.539.034.816.034.106,0,.214,0,.321-.005a9.763,9.763,0,0,0,3.328-18.827c-.221-.088-.443-.17-.669-.242A9.771,9.771,0,0,0,650,90.011c.126.241.264.482.423.736m10.728-12.966c.188.06.373.129.557.2a8.126,8.126,0,0,1-2.772,15.668,8.124,8.124,0,0,1-7.129-3.781c-.135-.212-.25-.413-.353-.612a8.136,8.136,0,0,1,7.22-11.863,8.189,8.189,0,0,1,2.477.385" transform="translate(-315.076 -36.785)" fill="#f4b251"/>
      <path id="Trazado_130065" data-name="Trazado 130065" d="M645.729,122.959a8.153,8.153,0,0,0-.28-1.075,8.123,8.123,0,0,0-4.689-4.954c-.184-.073-.369-.142-.557-.2a8.192,8.192,0,0,0-2.477-.385,8.135,8.135,0,0,0-7.22,11.863c.1.2.222.406.352.612a8.135,8.135,0,0,0,14.871-5.859" transform="translate(-305.702 -56.491)" fill="#ffdf5a"/>
      <path id="Trazado_130066" data-name="Trazado 130066" d="M645.791,121.108a9.785,9.785,0,0,0-.336-1.29,9.753,9.753,0,0,0-5.635-5.954c-.221-.088-.443-.17-.669-.241a9.771,9.771,0,0,0-11.646,13.79c.126.242.268.49.423.736a9.768,9.768,0,0,0,7.427,4.513c.265.023.539.034.816.034.106,0,.213,0,.321-.005a9.762,9.762,0,0,0,9.3-11.582m-10.3,9.922a8.129,8.129,0,0,1-6.182-3.757c-.13-.206-.249-.411-.352-.612a8.135,8.135,0,0,1,7.22-11.862,8.189,8.189,0,0,1,2.477.385c.188.059.373.129.557.2a8.131,8.131,0,0,1-3.719,15.645" transform="translate(-304.155 -54.946)" fill="#f4b251"/>
      <path id="Trazado_130067" data-name="Trazado 130067" d="M665.217,94.156a5.926,5.926,0,0,1-2.106-.489V92.01a7.148,7.148,0,0,0,1.258.491,4.335,4.335,0,0,0,1.192.2,1.423,1.423,0,0,0,.621-.1.356.356,0,0,0,.2-.342.347.347,0,0,0-.143-.279,2.178,2.178,0,0,0-.474-.259q-.332-.145-.9-.349a4.067,4.067,0,0,1-1.023-.526,1.841,1.841,0,0,1-.566-.654,2.043,2.043,0,0,1-.177-.9A1.621,1.621,0,0,1,663.631,88a2.806,2.806,0,0,1,1.587-.574v-.684h1.033v.673a5.845,5.845,0,0,1,2,.489l-.594,1.421a4.655,4.655,0,0,0-1.881-.469,1.166,1.166,0,0,0-.561.1.315.315,0,0,0-.162.287.352.352,0,0,0,.117.272,1.618,1.618,0,0,0,.406.239q.289.133.8.307a3.883,3.883,0,0,1,1.5.841,1.678,1.678,0,0,1,.454,1.215,1.827,1.827,0,0,1-.532,1.362,2.587,2.587,0,0,1-1.549.649v.963h-1.033Z" transform="translate(-321.973 -42.118)" fill="#f4b251"/>
      <path id="Trazado_130068" data-name="Trazado 130068" d="M642.631,131.8a5.937,5.937,0,0,1-2.106-.489v-1.657a7.186,7.186,0,0,0,1.258.491,4.351,4.351,0,0,0,1.192.2,1.424,1.424,0,0,0,.621-.1.356.356,0,0,0,.2-.342.347.347,0,0,0-.143-.279,2.173,2.173,0,0,0-.474-.259q-.332-.145-.9-.349a4.068,4.068,0,0,1-1.023-.526,1.84,1.84,0,0,1-.566-.654,2.041,2.041,0,0,1-.177-.9,1.621,1.621,0,0,1,.529-1.287,2.806,2.806,0,0,1,1.586-.574v-.683h1.033v.673a5.846,5.846,0,0,1,2,.489l-.594,1.421a4.655,4.655,0,0,0-1.881-.469,1.166,1.166,0,0,0-.561.1.315.315,0,0,0-.162.287.352.352,0,0,0,.117.272,1.646,1.646,0,0,0,.406.239q.289.133.8.307a3.883,3.883,0,0,1,1.5.841,1.678,1.678,0,0,1,.454,1.215,1.829,1.829,0,0,1-.531,1.362,2.59,2.59,0,0,1-1.549.649v.963h-1.033Z" transform="translate(-311.006 -60.396)" fill="#f4b251"/>
      <path id="Trazado_130069" data-name="Trazado 130069" d="M687.8,131.8a5.937,5.937,0,0,1-2.106-.489v-1.657a7.19,7.19,0,0,0,1.258.491,4.353,4.353,0,0,0,1.192.2,1.424,1.424,0,0,0,.621-.1.356.356,0,0,0,.2-.342.347.347,0,0,0-.142-.279,2.176,2.176,0,0,0-.474-.259q-.332-.145-.9-.349a4.067,4.067,0,0,1-1.023-.526,1.839,1.839,0,0,1-.566-.654,2.042,2.042,0,0,1-.177-.9,1.623,1.623,0,0,1,.529-1.287,2.806,2.806,0,0,1,1.587-.574v-.683h1.033v.673a5.851,5.851,0,0,1,2,.489l-.594,1.421a4.655,4.655,0,0,0-1.881-.469,1.166,1.166,0,0,0-.561.1.314.314,0,0,0-.162.287.352.352,0,0,0,.117.272,1.644,1.644,0,0,0,.406.239q.289.133.8.307a3.883,3.883,0,0,1,1.5.841,1.678,1.678,0,0,1,.454,1.215,1.828,1.828,0,0,1-.532,1.362,2.587,2.587,0,0,1-1.549.649v.963H687.8Z" transform="translate(-332.94 -60.396)" fill="#f4b251"/>
      <path id="Trazado_130070" data-name="Trazado 130070" d="M619.669,169.066a5.938,5.938,0,0,1-2.106-.489V166.92a7.189,7.189,0,0,0,1.258.491,4.35,4.35,0,0,0,1.192.2,1.424,1.424,0,0,0,.621-.1.356.356,0,0,0,.2-.342.347.347,0,0,0-.143-.279,2.177,2.177,0,0,0-.474-.259q-.332-.145-.9-.349a4.068,4.068,0,0,1-1.023-.526,1.84,1.84,0,0,1-.566-.654,2.042,2.042,0,0,1-.177-.9,1.621,1.621,0,0,1,.529-1.287,2.81,2.81,0,0,1,1.587-.574v-.683H620.7v.673a5.845,5.845,0,0,1,2,.489l-.594,1.421a4.655,4.655,0,0,0-1.881-.469,1.166,1.166,0,0,0-.561.1.314.314,0,0,0-.162.287.352.352,0,0,0,.117.272,1.63,1.63,0,0,0,.406.239q.289.133.8.307a3.884,3.884,0,0,1,1.5.841,1.678,1.678,0,0,1,.454,1.215,1.829,1.829,0,0,1-.531,1.362,2.589,2.589,0,0,1-1.549.649V170h-1.033Z" transform="translate(-299.856 -78.491)" fill="#f4b251"/>
      <path id="Trazado_130071" data-name="Trazado 130071" d="M664.464,169.066a5.937,5.937,0,0,1-2.106-.489V166.92a7.184,7.184,0,0,0,1.258.491,4.355,4.355,0,0,0,1.192.2,1.424,1.424,0,0,0,.621-.1.356.356,0,0,0,.2-.342.347.347,0,0,0-.142-.279,2.176,2.176,0,0,0-.474-.259q-.332-.145-.9-.349a4.069,4.069,0,0,1-1.023-.526,1.833,1.833,0,0,1-.566-.654,2.035,2.035,0,0,1-.177-.9,1.623,1.623,0,0,1,.529-1.287,2.81,2.81,0,0,1,1.587-.574v-.683H665.5v.673a5.85,5.85,0,0,1,2,.489l-.594,1.421a4.656,4.656,0,0,0-1.881-.469,1.166,1.166,0,0,0-.561.1.314.314,0,0,0-.162.287.352.352,0,0,0,.117.272,1.629,1.629,0,0,0,.406.239q.289.133.8.307a3.883,3.883,0,0,1,1.5.841,1.678,1.678,0,0,1,.454,1.215,1.829,1.829,0,0,1-.531,1.362,2.59,2.59,0,0,1-1.549.649V170h-1.033Z" transform="translate(-321.607 -78.491)" fill="#f4b251"/>
      <path id="Trazado_130072" data-name="Trazado 130072" d="M707.755,169.066a5.938,5.938,0,0,1-2.106-.489V166.92a7.186,7.186,0,0,0,1.258.491,4.351,4.351,0,0,0,1.192.2,1.424,1.424,0,0,0,.621-.1.356.356,0,0,0,.2-.342.347.347,0,0,0-.142-.279,2.176,2.176,0,0,0-.474-.259q-.332-.145-.9-.349a4.07,4.07,0,0,1-1.023-.526,1.84,1.84,0,0,1-.566-.654,2.041,2.041,0,0,1-.177-.9,1.621,1.621,0,0,1,.529-1.287,2.81,2.81,0,0,1,1.586-.574v-.683h1.033v.673a5.845,5.845,0,0,1,2,.489l-.594,1.421a4.655,4.655,0,0,0-1.881-.469,1.166,1.166,0,0,0-.561.1.314.314,0,0,0-.162.287.352.352,0,0,0,.117.272,1.629,1.629,0,0,0,.406.239q.289.133.8.307a3.884,3.884,0,0,1,1.5.841,1.678,1.678,0,0,1,.454,1.215,1.828,1.828,0,0,1-.532,1.362,2.587,2.587,0,0,1-1.549.649V170h-1.033Z" transform="translate(-342.627 -78.491)" fill="#f4b251"/>
      <path id="Trazado_130080" data-name="Trazado 130080" d="M128.15,392.124h-8.7V377.875L112.873,397.6h8.7v14.25Z" transform="translate(-54.806 -183.479)" fill="#f43d69"/>
      <rect id="Rectángulo_37389" data-name="Rectángulo 37389" width="181" height="24.855" transform="translate(0 0)" fill="#9797cc"/>
      <path id="Trazado_130096" data-name="Trazado 130096" d="M125.887,140.422h-1.258v-52.7a12.284,12.284,0,0,1,12.27-12.27H254.418a12.284,12.284,0,0,1,12.27,12.27v23.6H265.43v-23.6a11.024,11.024,0,0,0-11.012-11.012H136.9a11.024,11.024,0,0,0-11.012,11.012Z" transform="translate(-60.514 -36.637)" fill="#9797cc"/>
      <path id="Trazado_130097" data-name="Trazado 130097" d="M527.1,484.6H412.184c-7.365,0-13.357-5.518-13.357-12.3v-6.263h1.258V472.3c0,6.088,5.428,11.042,12.1,11.042H527.1c6.671,0,12.1-4.953,12.1-11.042V375.429h1.258V472.3c0,6.782-5.992,12.3-13.357,12.3" transform="translate(-193.652 -182.291)" fill="#9797cc"/>
      <text id="POTENCIAL" transform="translate(167 107)" fill="#fff" font-size="16" font-family="Roboto-Regular, Roboto"><tspan x="0" y="0">POTENCIAL</tspan></text>
      <text id="CONTACTOS" transform="translate(163 151)" fill="#fff" font-size="16" font-family="Roboto-Regular, Roboto"><tspan x="0" y="0">CONTACTOS</tspan></text>
      <text id="FINALISTA" transform="translate(168 190)" fill="#fff" font-size="16" font-family="Roboto-Regular, Roboto"><tspan x="0" y="0">FINALISTA</tspan></text>
      <text id="CLIENTE" transform="translate(174 230)" fill="#fff" font-size="16" font-family="Roboto-Regular, Roboto"><tspan x="0" y="0">CLIENTE</tspan></text>
      <text id="GUÍA" transform="translate(187 271)" fill="#fff" font-size="16" font-family="Roboto-Regular, Roboto"><tspan x="0" y="0">GUÍA</tspan></text>
      <text id="EMBUDO_DE_VENTA_" data-name="EMBUDO DE VENTA " transform="translate(17 19)" fill="#fff" font-size="16" font-family="Roboto-Bold, Roboto" font-weight="700"><tspan x="0" y="0">EMBUDO DE VENTA </tspan></text>
    </g>
  </g>
</svg>
