<svg xmlns="http://www.w3.org/2000/svg" xmlns:xlink="http://www.w3.org/1999/xlink" width="118" height="143" viewBox="0 0 118 143">
  <defs>
    <clipPath id="clip-path">
      <rect id="Rectángulo_37480" data-name="Rectángulo 37480" width="68.093" height="85.71" fill="none"/>
    </clipPath>
  </defs>
  <g id="Grupo_158034" data-name="Grupo 158034" transform="translate(-886 -951)">
    <g id="Grupo_157356" data-name="Grupo 157356" transform="translate(886.115 950.542)">
      <rect id="Rectángulo_36766" data-name="Rectángulo 36766" width="118" height="143" rx="12" transform="translate(-0.115 0.458)" fill="#1169e3"/>
    </g>
    <g id="Grupo_157374" data-name="Grupo 157374" transform="translate(911 980)">
      <g id="Grupo_157373" data-name="Grupo 157373" transform="translate(0 0)" clip-path="url(#clip-path)">
        <path id="Trazado_130212" data-name="Trazado 130212" d="M68.093,21.751v19.2A4.093,4.093,0,0,1,64,45.028H60.211V78.852a6.859,6.859,0,0,1-6.858,6.858H17.4a6.859,6.859,0,0,1-6.858-6.858V74.6a1.417,1.417,0,0,1,1.159-1.41,1.491,1.491,0,0,1,.29-.039A1.447,1.447,0,0,1,13.445,74.6v4.25a3.982,3.982,0,0,0,3.96,3.979H53.354a3.982,3.982,0,0,0,3.96-3.979V45.028H47.037V61.486a4.093,4.093,0,0,1-4.1,4.076H20.457l-8.654,4.1a1.374,1.374,0,0,1-.618.135H8a1.429,1.429,0,0,1-1.178-.6,1.45,1.45,0,0,1-.193-1.314l.811-2.318H4.1A4.093,4.093,0,0,1,0,61.486v-19.2a4.093,4.093,0,0,1,4.1-4.076h6.452V6.858A6.859,6.859,0,0,1,17.4,0H53.354a6.859,6.859,0,0,1,6.858,6.858v5.563a1.449,1.449,0,0,1-2.9,0V6.858a3.965,3.965,0,0,0-3.96-3.96H17.4a3.965,3.965,0,0,0-3.96,3.96V38.209h7.611V21.751a4.093,4.093,0,0,1,4.1-4.076H64a4.093,4.093,0,0,1,4.1,4.076m-2.9,19.2v-19.2A1.187,1.187,0,0,0,64,20.573H25.151a1.187,1.187,0,0,0-1.2,1.178v19.2a1.187,1.187,0,0,0,1.2,1.178H30.54a1.443,1.443,0,0,1,1.352,1.932l-.811,2.318h.85l8.635-4.1a1.412,1.412,0,0,1,.637-.155H64a1.187,1.187,0,0,0,1.2-1.178M44.14,61.486V45.028H41.512l-8.654,4.1a1.374,1.374,0,0,1-.618.135H29.053a1.429,1.429,0,0,1-1.178-.6,1.45,1.45,0,0,1-.193-1.314l.811-2.318H25.151a4.1,4.1,0,0,1-4.076-3.921H4.1a1.187,1.187,0,0,0-1.2,1.178v19.2a1.187,1.187,0,0,0,1.2,1.178H9.485A1.443,1.443,0,0,1,10.837,64.6l-.811,2.318h.831l8.654-4.1a1.394,1.394,0,0,1,.618-.155H42.942a1.187,1.187,0,0,0,1.2-1.178" transform="translate(0 0)"/>
        <path id="Trazado_130213" data-name="Trazado 130213" d="M53.642,25.022V31.03a1.187,1.187,0,0,1-1.2,1.178H29.65a1.412,1.412,0,0,0-.637.155l-8.635,4.1h-.85l.811-2.318a1.443,1.443,0,0,0-1.352-1.932H13.6a1.187,1.187,0,0,1-1.2-1.178v-19.2a1.187,1.187,0,0,1,1.2-1.178H20.59v2.956a1.439,1.439,0,0,0-1.372.985,2.36,2.36,0,0,1-2.241,1.642,1.439,1.439,0,0,0-1.372.985,1.458,1.458,0,0,0,.522,1.623,2.347,2.347,0,0,1,.85,2.627A1.458,1.458,0,0,0,17.5,23.09a1.528,1.528,0,0,0,.85.27,1.482,1.482,0,0,0,.85-.27,2.378,2.378,0,0,1,2.782,0,1.353,1.353,0,0,0,.85.27l3.149,1.1a1.386,1.386,0,0,0-.116.56,1.431,1.431,0,0,0,1.449,1.429H49.064a1.431,1.431,0,0,0,1.449-1.429Z" transform="translate(11.553 9.923)" fill="#ffeb92"/>
        <path id="Trazado_130214" data-name="Trazado 130214" d="M49.692,11.828V25.022H46.562a1.435,1.435,0,0,0-1.449-1.449H23.362a1.421,1.421,0,0,0-1.333.889l-3.149-1.1a1.336,1.336,0,0,0,.831-.27,1.439,1.439,0,0,0,.541-1.623,2.318,2.318,0,0,1,.85-2.627,1.441,1.441,0,0,0-.85-2.608,2.342,2.342,0,0,1-2.241-1.642,1.457,1.457,0,0,0-1.372-.985V10.65H48.494a1.187,1.187,0,0,1,1.2,1.178m-3.38,6.085a1.447,1.447,0,0,0-1.449-1.449H26.492a1.449,1.449,0,1,0,0,2.9H44.862a1.459,1.459,0,0,0,1.449-1.449" transform="translate(15.504 9.923)" fill="#ffeb92"/>
        <path id="Trazado_130215" data-name="Trazado 130215" d="M42.57,17.34a1.439,1.439,0,1,1,0,2.878H20.819a1.431,1.431,0,0,1-1.449-1.429,1.386,1.386,0,0,1,.116-.56,1.421,1.421,0,0,1,1.333-.889Z" transform="translate(18.047 16.156)"/>
        <path id="Trazado_130216" data-name="Trazado 130216" d="M40.809,13.66a1.449,1.449,0,1,1,0,2.9H22.439a1.449,1.449,0,1,1,0-2.9Z" transform="translate(19.557 12.727)"/>
        <path id="Trazado_130217" data-name="Trazado 130217" d="M52.278,12.472v3.805H18.666a4.093,4.093,0,0,0-4.1,4.076V36.812H6.96V5.46A3.965,3.965,0,0,1,10.92,1.5H46.869a3.965,3.965,0,0,1,3.96,3.96v5.563a1.447,1.447,0,0,0,1.449,1.449m-6.239-6.3V5.228a1.431,1.431,0,0,0-1.429-1.449H25.331a1.447,1.447,0,0,0-1.449,1.449v.947A1.443,1.443,0,0,0,25.331,7.6H44.609a1.426,1.426,0,0,0,1.429-1.429m-25.73,0V5.228a1.447,1.447,0,0,0-1.449-1.449H13.2a1.435,1.435,0,0,0-1.449,1.449v.947A1.431,1.431,0,0,0,13.2,7.6h5.66a1.443,1.443,0,0,0,1.449-1.429" transform="translate(6.485 1.398)" fill="#ddebf2"/>
        <path id="Trazado_130218" data-name="Trazado 130218" d="M41.321,23.31V39.768a4.093,4.093,0,0,1-4.1,4.076H14.741L6.135,47.916v3.539a.931.931,0,0,1,.145-.019,1.447,1.447,0,0,1,1.449,1.449v4.25a3.982,3.982,0,0,0,3.96,3.979H47.638a3.982,3.982,0,0,0,3.96-3.979V23.31Zm3.651,31.352A2.568,2.568,0,0,1,42.4,57.231H16.924a2.568,2.568,0,0,1-2.569-2.569V50.373A2.58,2.58,0,0,1,16.924,47.8H42.4a2.58,2.58,0,0,1,2.569,2.569Z" transform="translate(5.716 21.718)" fill="#ddebf2"/>
        <path id="Trazado_130219" data-name="Trazado 130219" d="M37.877,4.129v.947A1.426,1.426,0,0,1,36.447,6.5H17.169A1.443,1.443,0,0,1,15.72,5.075V4.129A1.447,1.447,0,0,1,17.169,2.68H36.447a1.431,1.431,0,0,1,1.429,1.449" transform="translate(14.646 2.497)"/>
        <path id="Trazado_130220" data-name="Trazado 130220" d="M41.008,38.559v4.288a2.568,2.568,0,0,1-2.569,2.569H12.959a2.568,2.568,0,0,1-2.569-2.569V38.559a2.58,2.58,0,0,1,2.569-2.569H38.438a2.58,2.58,0,0,1,2.569,2.569m-2.878.328H13.268v3.651H38.129Z" transform="translate(9.68 33.532)"/>
        <rect id="Rectángulo_37479" data-name="Rectángulo 37479" width="24.861" height="3.651" transform="translate(22.949 72.42)" fill="#43aac2"/>
        <path id="Trazado_130221" data-name="Trazado 130221" d="M42.742,25.2V41.66a1.187,1.187,0,0,1-1.2,1.178H18.731a1.394,1.394,0,0,0-.618.155l-8.654,4.1H8.628l.811-2.318a1.443,1.443,0,0,0-1.352-1.932H2.7A1.187,1.187,0,0,1,1.5,41.66v-19.2A1.187,1.187,0,0,1,2.7,21.28h16.98A4.1,4.1,0,0,0,23.753,25.2H27.1l-.811,2.318a1.45,1.45,0,0,0,.193,1.314,1.429,1.429,0,0,0,1.178.6h3.187a1.374,1.374,0,0,0,.618-.135l8.654-4.1ZM38.9,36.714a1.443,1.443,0,0,0-1.429-1.449H15.7a1.449,1.449,0,0,0,0,2.9h21.77A1.443,1.443,0,0,0,38.9,36.714m-25.46-6.181a1.444,1.444,0,0,0-.85-2.608A2.367,2.367,0,0,1,10.347,26.3a1.439,1.439,0,0,0-2.743,0,2.349,2.349,0,0,1-2.241,1.623,1.444,1.444,0,0,0-.85,2.608,2.346,2.346,0,0,1,.85,2.646,1.43,1.43,0,0,0,.522,1.6,1.45,1.45,0,0,0,1.7,0,2.378,2.378,0,0,1,2.782,0,1.371,1.371,0,0,0,.85.29,1.412,1.412,0,0,0,.85-.29,1.43,1.43,0,0,0,.522-1.6,2.346,2.346,0,0,1,.85-2.646" transform="translate(1.398 19.827)" fill="#fdc367"/>
        <path id="Trazado_130222" data-name="Trazado 130222" d="M31.319,28.52a1.449,1.449,0,0,1,0,2.9H9.549a1.449,1.449,0,0,1,0-2.9Z" transform="translate(7.547 26.572)"/>
        <path id="Trazado_130223" data-name="Trazado 130223" d="M24.062,15.792a1.458,1.458,0,0,1-.522,1.623,2.318,2.318,0,0,0-.85,2.627,1.439,1.439,0,0,1-.541,1.623,1.336,1.336,0,0,1-.831.27,1.353,1.353,0,0,1-.85-.27,2.378,2.378,0,0,0-2.782,0,1.482,1.482,0,0,1-.85.27,1.528,1.528,0,0,1-.85-.27,1.458,1.458,0,0,1-.522-1.623,2.347,2.347,0,0,0-.85-2.627,1.458,1.458,0,0,1-.522-1.623,1.439,1.439,0,0,1,1.372-.985,2.36,2.36,0,0,0,2.241-1.642,1.439,1.439,0,0,1,1.372-.985,1.457,1.457,0,0,1,1.372.985,2.342,2.342,0,0,0,2.241,1.642,1.457,1.457,0,0,1,1.372.985m-4.308,2.569a5.132,5.132,0,0,1,.444-1.294,5.931,5.931,0,0,1-1.12-.811,5.931,5.931,0,0,1-1.12.811,5.086,5.086,0,0,1,.425,1.294c.232-.019.464-.039.7-.039s.464.019.676.039" transform="translate(13.066 11.348)"/>
        <path id="Trazado_130224" data-name="Trazado 130224" d="M18.3,15.1a5.132,5.132,0,0,0-.444,1.294c-.212-.019-.444-.039-.676-.039s-.464.019-.7.039A5.086,5.086,0,0,0,16.06,15.1a5.931,5.931,0,0,0,1.12-.811,5.931,5.931,0,0,0,1.12.811" transform="translate(14.963 13.314)" fill="#e09d31"/>
        <path id="Trazado_130225" data-name="Trazado 130225" d="M18,4.129v.947A1.443,1.443,0,0,1,16.549,6.5h-5.66A1.431,1.431,0,0,1,9.44,5.075V4.129A1.435,1.435,0,0,1,10.889,2.68h5.66A1.447,1.447,0,0,1,18,4.129" transform="translate(8.795 2.497)"/>
        <path id="Trazado_130226" data-name="Trazado 130226" d="M12.792,26.992a1.43,1.43,0,0,1-.522,1.6,2.346,2.346,0,0,0-.85,2.646,1.43,1.43,0,0,1-.522,1.6,1.412,1.412,0,0,1-.85.29,1.371,1.371,0,0,1-.85-.29,2.378,2.378,0,0,0-2.782,0,1.45,1.45,0,0,1-1.7,0,1.43,1.43,0,0,1-.522-1.6,2.346,2.346,0,0,0-.85-2.646,1.444,1.444,0,0,1,.85-2.608,2.349,2.349,0,0,0,2.241-1.623,1.439,1.439,0,0,1,2.743,0,2.367,2.367,0,0,0,2.241,1.623,1.432,1.432,0,0,1,1.372,1M8.5,29.561a4.547,4.547,0,0,1,.425-1.314,4.608,4.608,0,0,1-1.12-.811,4.608,4.608,0,0,1-1.12.811,4.547,4.547,0,0,1,.425,1.314,4.2,4.2,0,0,1,1.391,0" transform="translate(2.565 21.765)"/>
        <path id="Trazado_130227" data-name="Trazado 130227" d="M7.031,26.281a4.547,4.547,0,0,0-.425,1.314,4.2,4.2,0,0,0-1.391,0,4.547,4.547,0,0,0-.425-1.314,4.608,4.608,0,0,0,1.12-.811,4.608,4.608,0,0,0,1.12.811" transform="translate(4.463 23.731)" fill="#e09d31"/>
      </g>
    </g>
  </g>
</svg>
