<svg id="Grupo_157799" data-name="Grupo 157799" xmlns="http://www.w3.org/2000/svg" xmlns:xlink="http://www.w3.org/1999/xlink" width="51.375" height="58.714" viewBox="0 0 51.375 58.714">
  <defs>
    <clipPath id="clip-path">
      <rect id="Rectángulo_38588" data-name="Rectángulo 38588" width="51.375" height="58.714" fill="none"/>
    </clipPath>
  </defs>
  <g id="Grupo_157794" data-name="Grupo 157794">
    <g id="Grupo_157793" data-name="Grupo 157793" clip-path="url(#clip-path)">
      <path id="Trazado_132430" data-name="Trazado 132430" d="M64.75,25.264A23.137,23.137,0,0,1,30.792,45.708c-2.221-7.618-6.684-11.581-6.684-20.444,0-5.775-.211-7.483,0-15.11a23.127,23.127,0,0,1,33.706-1.4c1.553,1.521-.367,5.387.708,7.294,1.333,2.363,5.52,2.855,5.953,5.64a23.45,23.45,0,0,1,.275,3.581" transform="translate(-14.338 -1.274)" fill="#dff6fd"/>
      <path id="Trazado_132431" data-name="Trazado 132431" d="M42.582,45.708a22.782,22.782,0,0,0,5,1.946,23.21,23.21,0,0,1-16.653-1.946c-2.222-6.826-6.684-11.582-6.684-20.444,0-5.776.072-7.484,0-15.109A23.164,23.164,0,0,1,47.587,2.874a23.137,23.137,0,0,0-5.006,42.834" transform="translate(-14.478 -1.274)" fill="#c8effe"/>
      <path id="Trazado_132432" data-name="Trazado 132432" d="M30.383,55c-2.882,1.113-5.7,1.99-7.777,2.585a23.133,23.133,0,0,1-6.684-35.553,22.158,22.158,0,0,1,10.225,1.826c1.642.849,2.563,1.9,2.563,2.97,0,2.689-4.863,4.767-6.557,7.255a2.923,2.923,0,0,0-.571,1.636.876.876,0,0,0,.384.693c2.787,2.2,19.852.49,21.089,7.976.721,4.362-6.136,8.088-12.671,10.612" transform="translate(-6.152 -13.146)" fill="#86e8d0"/>
      <path id="Trazado_132433" data-name="Trazado 132433" d="M30.383,55c-2.882,1.113-5.7,1.99-7.777,2.585a23.133,23.133,0,0,1-6.684-35.553,22.158,22.158,0,0,1,10.225,1.826,22.992,22.992,0,0,0-3.994,10.225,2.921,2.921,0,0,0-.571,1.637.877.877,0,0,0,.384.693c-.01.241-.013.484-.013.729A23.084,23.084,0,0,0,30.383,55" transform="translate(-6.152 -13.146)" fill="#5de1c4"/>
      <path id="Trazado_132434" data-name="Trazado 132434" d="M103.463,31.487c-6.333-.2-13.388-1.125-14.042-4.224-.633-2.985,1.553-5.986,7.382-8.709a23.058,23.058,0,0,1,6.661,12.933" transform="translate(-53.327 -11.078)" fill="#86e8d0"/>
      <path id="Trazado_132435" data-name="Trazado 132435" d="M32.157,97.242l.905-2.187a1.24,1.24,0,0,0-.269-1.35l-1.761-1.76a1.237,1.237,0,0,0-1.349-.269l-2.188.9,1.034,3.9Z" transform="translate(-16.417 -54.68)" fill="#ebebeb"/>
      <path id="Trazado_132436" data-name="Trazado 132436" d="M21.68,128.667a1.651,1.651,0,0,1-2.334,0l-6.92-6.92,2.334-2.334,6.92,6.92a1.651,1.651,0,0,1,0,2.334" transform="translate(-7.419 -71.297)" fill="#fe646f"/>
      <path id="Trazado_132437" data-name="Trazado 132437" d="M7.2,109.658l9.73-6.752L9.358,95.337l-6.752,9.73a1.226,1.226,0,0,0,.141,1.566l2.885,2.885a1.225,1.225,0,0,0,1.565.14" transform="translate(-1.425 -56.922)" fill="#ebebeb"/>
      <path id="Trazado_132438" data-name="Trazado 132438" d="M25.332,98.4l-1.064,1.064a4.635,4.635,0,0,1-6.555,0L13.085,94.84a4.634,4.634,0,0,1,0-6.555l1.064-1.064a.948.948,0,0,1,1.342,0l9.841,9.841a.949.949,0,0,1,0,1.343" transform="translate(-7.002 -51.91)" fill="#fe646f"/>
    </g>
  </g>
  <g id="Grupo_157796" data-name="Grupo 157796">
    <g id="Grupo_157795" data-name="Grupo 157795" clip-path="url(#clip-path)">
      <path id="Trazado_132439" data-name="Trazado 132439" d="M26.962,104.817l2.918,2.918a.949.949,0,0,1,0,1.341l-1.064,1.064a4.634,4.634,0,0,1-6.555,0l-2.917-2.917a4.635,4.635,0,0,0,6.555,0l1.064-1.064a.949.949,0,0,0,0-1.342" transform="translate(-11.55 -62.582)" fill="#fd4755"/>
      <path id="Trazado_132440" data-name="Trazado 132440" d="M27.434,0A23.995,23.995,0,0,0,6.212,35.182l-.585.585A5.5,5.5,0,0,0,4.547,42L3.255,43.867a.86.86,0,1,0,1.413.98L5.6,43.508l.029.03,4.629,4.629c.1.1.21.2.32.294L5.435,52.029a.367.367,0,0,1-.469-.042L2.082,49.1a.367.367,0,0,1-.042-.469l.375-.541A.86.86,0,1,0,1,47.114l-.375.542a2.087,2.087,0,0,0,.24,2.664L3.75,53.2a2.088,2.088,0,0,0,2.665.239l.307-.213,4.749,4.749a2.494,2.494,0,0,0,1.775.735h0a2.51,2.51,0,0,0,1.775-4.284l-4.108-4.109,1.29-.9a5.5,5.5,0,0,0,5.823-1.258L19.091,47.1a1.791,1.791,0,0,0,.345-.488,24.06,24.06,0,0,0,19.056-1.329A24.2,24.2,0,0,0,46.839,38.1a.86.86,0,1,0-1.391-1.013A22.243,22.243,0,0,1,27.434,46.26,22.125,22.125,0,0,1,19.227,44.7c-.032-.041-.068-.079-.1-.118a68.835,68.835,0,0,0,11.6-4.648c5.265-2.832,7.681-5.8,7.18-8.835-.421-2.551-2.364-4.372-5.941-5.57a48.485,48.485,0,0,0-9.4-1.728c-1.646-.193-3.2-.375-4.358-.619-1.378-.29-1.7-.573-1.765-.645.029-1.214,1.664-2.5,3.245-3.753,1.91-1.507,3.883-3.065,3.883-5.107A3.827,3.827,0,0,0,21.6,10.581a.86.86,0,1,0-.988,1.408c.8.558,1.233,1.158,1.233,1.687,0,1.208-1.641,2.5-3.228,3.757-1.918,1.513-3.9,3.078-3.9,5.135,0,1.535,1.936,2.011,2.664,2.19a44.776,44.776,0,0,0,4.979.749c5.539.648,13.124,1.536,13.84,5.87.458,2.772-3.172,5.358-6.3,7.04A69.411,69.411,0,0,1,17.748,43.2l-.842-.841.685-1.656a2.094,2.094,0,0,0-.455-2.287l-1.761-1.76A2.092,2.092,0,0,0,13.09,36.2l-1.656.685L9.25,34.7a1.8,1.8,0,0,0-1.279-.53,1.819,1.819,0,0,0-.329.031A22.272,22.272,0,0,1,10.327,9.735a25.523,25.523,0,0,1,6.959.8.86.86,0,0,0,.459-1.658A25.731,25.731,0,0,0,11.9,8.035a22.244,22.244,0,0,1,30.216-.774,16.568,16.568,0,0,0-5.269,3.927,5.973,5.973,0,0,0-1.443,5.175c.619,2.93,5.243,4.528,14.13,4.881a22.386,22.386,0,0,1,.17,2.747,22.029,22.029,0,0,1-2.267,9.8.86.86,0,0,0,1.544.758A23.732,23.732,0,0,0,51.425,23.99,24.018,24.018,0,0,0,27.434,0M13.8,55.646a.79.79,0,0,1,0,1.117.781.781,0,0,1-.558.232h0a.785.785,0,0,1-.559-.232L8.158,52.233l1.319-.915Zm-.057-17.854a.378.378,0,0,1,.413.082l1.761,1.76a.377.377,0,0,1,.082.413l-.412,1-2.84-2.84Zm-3.124.718.007.006,4.648,4.648.006.006,2.591,2.59a.09.09,0,0,1,0,.127L16.81,46.951a3.774,3.774,0,0,1-5.338,0L6.843,42.322a3.779,3.779,0,0,1,0-5.338l1.065-1.065a.087.087,0,0,1,.063-.026.086.086,0,0,1,.063.026Zm26.464-22.5c-.684-3.228,2.948-5.814,6.35-7.485A22.242,22.242,0,0,1,49.251,19.51c-10.381-.459-11.97-2.587-12.164-3.5" transform="translate(-0.152)"/>
    </g>
  </g>
  <g id="Grupo_157798" data-name="Grupo 157798">
    <g id="Grupo_157797" data-name="Grupo 157797" clip-path="url(#clip-path)">
      <path id="Trazado_132441" data-name="Trazado 132441" d="M39.379,67.441A9.069,9.069,0,0,1,48.438,76.5a.86.86,0,0,0,1.72,0A10.792,10.792,0,0,0,39.379,65.721a.86.86,0,0,0,0,1.72" transform="translate(-22.998 -39.239)"/>
      <path id="Trazado_132442" data-name="Trazado 132442" d="M39.379,76.507a5.412,5.412,0,0,1,5.406,5.406.86.86,0,0,0,1.72,0,7.134,7.134,0,0,0-7.126-7.126.86.86,0,0,0,0,1.72" transform="translate(-22.998 -44.652)"/>
      <path id="Trazado_132443" data-name="Trazado 132443" d="M39.379,85.574a1.754,1.754,0,0,1,1.752,1.752.86.86,0,1,0,1.72,0,3.476,3.476,0,0,0-3.473-3.473.86.86,0,0,0,0,1.72" transform="translate(-22.998 -50.066)"/>
    </g>
  </g>
</svg>
