<svg id="Grupo_157792" data-name="Grupo 157792" xmlns="http://www.w3.org/2000/svg" xmlns:xlink="http://www.w3.org/1999/xlink" width="55.066" height="44.167" viewBox="0 0 55.066 44.167">
  <defs>
    <clipPath id="clip-path">
      <rect id="Rectángulo_38585" data-name="Rectángulo 38585" width="55.066" height="44.167" fill="none"/>
    </clipPath>
  </defs>
  <g id="Grupo_157787" data-name="Grupo 157787">
    <g id="Grupo_157786" data-name="Grupo 157786" clip-path="url(#clip-path)">
      <path id="Trazado_132409" data-name="Trazado 132409" d="M48.946,8.769h7.67L55.75,12h-6.8a.453.453,0,0,0-.454.453v6.406a1.613,1.613,0,0,1-3.227,0V12.448a3.684,3.684,0,0,1,3.681-3.679" transform="translate(-28.159 -5.455)" fill="#cb97e7"/>
      <path id="Trazado_132410" data-name="Trazado 132410" d="M91.961,12.448V19.31a1.613,1.613,0,1,1-3.227,0V12.448A.454.454,0,0,0,88.281,12H80.566l.866-3.227h6.849a3.684,3.684,0,0,1,3.681,3.679" transform="translate(-50.12 -5.455)" fill="#cb97e7"/>
      <path id="Trazado_132411" data-name="Trazado 132411" d="M2.135,41.67H24.09a3.218,3.218,0,0,1,0,6.436H11.438a3.219,3.219,0,0,1,0,6.438H9.794a3.218,3.218,0,1,1,0,6.437H7.732a2.681,2.681,0,0,1,0,5.362h-5.6" transform="translate(-1.328 -25.923)" fill="#ffcebf"/>
      <path id="Trazado_132412" data-name="Trazado 132412" d="M15.545,92.769h-.851v1.064a.851.851,0,0,0,.851.851,2.681,2.681,0,0,1,2.5,1.724,2.681,2.681,0,0,0-.608-2.852,2.675,2.675,0,0,0-1.9-.786" transform="translate(-9.141 -57.711)" fill="#ffb09e"/>
      <path id="Trazado_132413" data-name="Trazado 132413" d="M27.308,44.887a3.189,3.189,0,0,1-.365,1.488,3.218,3.218,0,0,0-2.854-1.729H2.135V41.67H24.09a3.218,3.218,0,0,1,3.218,3.217" transform="translate(-1.328 -25.923)" fill="#ffb09e"/>
      <path id="Trazado_132414" data-name="Trazado 132414" d="M22.469,61.966a3.185,3.185,0,0,1-.364,1.441,3.22,3.22,0,0,0-2.854-1.729H16.2a1.506,1.506,0,0,1-1.506-1.506V58.7h4.5a3.27,3.27,0,0,1,3.279,3.265" transform="translate(-9.141 -36.518)" fill="#ffb09e"/>
      <path id="Trazado_132415" data-name="Trazado 132415" d="M20.886,79a3.2,3.2,0,0,1-.364,1.442,3.22,3.22,0,0,0-2.854-1.729H16.2a1.506,1.506,0,0,1-1.506-1.506V75.736h2.913A3.269,3.269,0,0,1,20.886,79" transform="translate(-9.141 -47.115)" fill="#ffb09e"/>
      <path id="Trazado_132416" data-name="Trazado 132416" d="M108.04,41.67H89.67a3.218,3.218,0,1,0,0,6.436h12.651a3.219,3.219,0,0,0,0,6.438h1.644a3.218,3.218,0,1,0,0,6.437h2.062a2.681,2.681,0,0,0,0,5.362h2.013" transform="translate(-53.781 -25.923)" fill="#ffcebf"/>
      <path id="Trazado_132417" data-name="Trazado 132417" d="M133.839,92.769h.851v1.064a.851.851,0,0,1-.851.851,2.682,2.682,0,0,0-2.5,1.724,2.681,2.681,0,0,1,2.5-3.638" transform="translate(-81.594 -57.711)" fill="#ffb09e"/>
      <path id="Trazado_132418" data-name="Trazado 132418" d="M86.451,44.887a3.194,3.194,0,0,0,.365,1.488,3.22,3.22,0,0,1,2.854-1.729H108.04V41.67H89.67a3.218,3.218,0,0,0-3.219,3.217" transform="translate(-53.781 -25.923)" fill="#ffb09e"/>
      <path id="Trazado_132419" data-name="Trazado 132419" d="M119.929,61.966a3.2,3.2,0,0,0,.364,1.441,3.22,3.22,0,0,1,2.854-1.729H126.2a1.506,1.506,0,0,0,1.506-1.506V58.7h-4.5a3.271,3.271,0,0,0-3.279,3.265" transform="translate(-74.608 -36.518)" fill="#ffb09e"/>
      <path id="Trazado_132420" data-name="Trazado 132420" d="M124.118,79a3.2,3.2,0,0,0,.365,1.442,3.218,3.218,0,0,1,2.854-1.729H128.8a1.506,1.506,0,0,0,1.506-1.506V75.736H127.4A3.27,3.27,0,0,0,124.118,79" transform="translate(-77.214 -47.115)" fill="#ffb09e"/>
      <path id="Trazado_132421" data-name="Trazado 132421" d="M47.364,31.131A3.361,3.361,0,1,1,44,27.77a3.361,3.361,0,0,1,3.361,3.361" transform="translate(-25.283 -17.276)" fill="#fee97d"/>
      <path id="Trazado_132422" data-name="Trazado 132422" d="M45.1,34.31a3.361,3.361,0,1,1,0-6.358,3.362,3.362,0,0,0,0,6.358" transform="translate(-25.283 -17.276)" fill="#ffd15b"/>
      <path id="Trazado_132423" data-name="Trazado 132423" d="M104.279,31.131a3.361,3.361,0,1,1-3.361-3.361,3.361,3.361,0,0,1,3.361,3.361" transform="translate(-60.69 -17.276)" fill="#fee97d"/>
      <path id="Trazado_132424" data-name="Trazado 132424" d="M102.012,34.31a3.361,3.361,0,1,1,0-6.358,3.362,3.362,0,0,0,0,6.358" transform="translate(-60.69 -17.276)" fill="#ffd15b"/>
      <path id="Trazado_132425" data-name="Trazado 132425" d="M65.623,62.106l-7.2,10.262a.9.9,0,0,0,.706,1.415l2.9.1a.9.9,0,0,1,.854,1.062l-1.05,5.716a.9.9,0,0,0,1.621.679l7.19-10.251a.9.9,0,0,0-.7-1.415l-2.9-.107a.9.9,0,0,1-.851-1.061l1.051-5.72a.9.9,0,0,0-1.621-.679" transform="translate(-36.245 -38.395)" fill="#fee97d"/>
    </g>
  </g>
  <g id="Grupo_157789" data-name="Grupo 157789">
    <g id="Grupo_157788" data-name="Grupo 157788" clip-path="url(#clip-path)">
      <path id="Trazado_132426" data-name="Trazado 132426" d="M15.224,56.567H5.553a.807.807,0,1,0,0,1.613H10.11a2.412,2.412,0,1,1,0,4.824H5.553a.807.807,0,1,0,0,1.613H8.469a2.412,2.412,0,1,1,0,4.824H5.553a.807.807,0,1,0,0,1.613h.856a1.874,1.874,0,0,1,0,3.748H.806a.807.807,0,0,0,0,1.613H6.4A3.486,3.486,0,0,0,9.288,70.97a4.024,4.024,0,0,0,2.2-6.595,4.024,4.024,0,0,0,1.841-6.2h1.893a.807.807,0,0,0,0-1.613" transform="translate(0 -35.19)"/>
      <path id="Trazado_132427" data-name="Trazado 132427" d="M25.607,21.859a4.023,4.023,0,0,0-2.846-6.87h-.019a4.161,4.161,0,0,0-1.6-4.476V7.395h5.4l-.348,1.3a.807.807,0,0,0,.57.988.817.817,0,0,0,.21.027.807.807,0,0,0,.778-.6L29.9,1.092A.807.807,0,0,0,28.342.675l-.5,1.88H20.787A4.491,4.491,0,0,0,16.3,7.041v3.472a4.163,4.163,0,0,0-1.6,4.476H.807a.807.807,0,1,0,0,1.613H15.548a4.16,4.16,0,0,0,6.343,0h.87a2.411,2.411,0,1,1,0,4.822H18.989a.807.807,0,1,0,0,1.613h3.773a3.994,3.994,0,0,0,2.846-1.179M17.913,7.041a2.876,2.876,0,0,1,2.874-2.873h6.619l-.433,1.613H20.787a1.262,1.262,0,0,0-1.261,1.26V9.814a4.176,4.176,0,0,0-1.613,0Zm.806,9.416A2.554,2.554,0,1,1,21.274,13.9a2.557,2.557,0,0,1-2.554,2.554" transform="translate(0 -0.048)"/>
      <path id="Trazado_132428" data-name="Trazado 132428" d="M102.03,39.661h-2.013a1.874,1.874,0,0,1,0-3.749h.856a.807.807,0,1,0,0-1.613H97.955a2.412,2.412,0,0,1,0-4.824h2.917a.807.807,0,1,0,0-1.613H96.311a2.412,2.412,0,0,1,0-4.824h4.557a.807.807,0,1,0,0-1.613H83.659a2.411,2.411,0,1,1,0-4.822h1.168a4.16,4.16,0,0,0,6.343,0H102.03a.807.807,0,0,0,0-1.613H92.022a4.163,4.163,0,0,0-1.6-4.476V7.041a4.5,4.5,0,0,0-2.267-3.9.807.807,0,0,0-.8,1.4,2.885,2.885,0,0,1,1.454,2.5V9.815a4.159,4.159,0,0,0-1.613,0V7.041a1.261,1.261,0,0,0-1.261-1.259H79.269L79.7,4.169H84.05a.807.807,0,0,0,0-1.613H80.135l.392-1.462A.806.806,0,1,0,78.969.675L76.818,8.692a.806.806,0,0,0,.57.988.823.823,0,0,0,.21.028.806.806,0,0,0,.778-.6L78.837,7.4h6.743v3.118a4.158,4.158,0,0,0-1.6,4.476H83.66a4.024,4.024,0,1,0,0,8.049h9.431a4.028,4.028,0,0,0,1.84,6.2,4.025,4.025,0,0,0,2.2,6.595,3.488,3.488,0,0,0,2.884,5.446h2.013a.807.807,0,0,0,0-1.613M88,11.349A2.554,2.554,0,1,1,85.445,13.9,2.557,2.557,0,0,1,88,11.349" transform="translate(-47.771 -0.048)"/>
    </g>
  </g>
  <g id="Grupo_157791" data-name="Grupo 157791">
    <g id="Grupo_157790" data-name="Grupo 157790" clip-path="url(#clip-path)">
      <path id="Trazado_132429" data-name="Trazado 132429" d="M68.65,67.533l-2.9-.105a.09.09,0,0,1-.07-.035.087.087,0,0,1-.019-.074L66.71,61.6a1.706,1.706,0,0,0-3.074-1.288l-7.2,10.261a1.707,1.707,0,0,0,1.34,2.685l2.9.1a.089.089,0,0,1,.068.034.09.09,0,0,1,.02.076l-1.051,5.717a1.674,1.674,0,0,0,1.02,1.882,1.743,1.743,0,0,0,.677.138,1.672,1.672,0,0,0,1.377-.733l1.791-2.552a.807.807,0,1,0-1.32-.927l-1.791,2.553c-.022.031-.043.06-.111.032s-.063-.067-.056-.1l1.051-5.717a1.705,1.705,0,0,0-1.62-2.012l-2.9-.1a.084.084,0,0,1-.08-.052.083.083,0,0,1,.007-.094l7.2-10.261c.021-.03.043-.062.113-.033s.062.064.055.1l-1.051,5.72a1.706,1.706,0,0,0,1.616,2.013l2.9.105a.087.087,0,0,1,.082.052.084.084,0,0,1-.008.094L65.4,73.948a.807.807,0,1,0,1.321.927l3.267-4.657a1.706,1.706,0,0,0-1.334-2.685" transform="translate(-34.918 -37.063)"/>
    </g>
  </g>
</svg>
