<svg xmlns="http://www.w3.org/2000/svg" xmlns:xlink="http://www.w3.org/1999/xlink" width="101.841" height="101.841" viewBox="0 0 101.841 101.841">
  <defs>
    <filter id="Trazado_128976" x="0" y="0" width="101.841" height="101.841" filterUnits="userSpaceOnUse">
      <feOffset dy="3" input="SourceAlpha"/>
      <feGaussianBlur stdDeviation="3" result="blur"/>
      <feFlood flood-opacity="0.161"/>
      <feComposite operator="in" in2="blur"/>
      <feComposite in="SourceGraphic"/>
    </filter>
    <clipPath id="clip-path">
      <rect id="Rectángulo_37343" data-name="Rectángulo 37343" width="25.461" height="31.368" fill="none"/>
    </clipPath>
  </defs>
  <g id="Grupo_157821" data-name="Grupo 157821" transform="translate(9 6)">
    <g transform="matrix(1, 0, 0, 1, -9, -6)" filter="url(#Trazado_128976)">
      <path id="Trazado_128976-2" data-name="Trazado 128976" d="M41.92,0A41.92,41.92,0,1,1,0,41.92,41.92,41.92,0,0,1,41.92,0Z" transform="translate(9 6)" fill="#fff"/>
    </g>
    <g id="Grupo_157151" data-name="Grupo 157151" transform="translate(13.06 13.55)">
      <path id="Trazado_127053" data-name="Trazado 127053" d="M15.172,123.3c-.385.086-.474-.1-.47-.455.01-.9-.006-.916-.937-.91-.346,0-.454-.105-.448-.448.006-.319.065-.468.433-.467.934,0,.958-.015.948-.948,0-.422.2-.43.515-.433s.475.049.475.424c0,.944.019.961.942.957.357,0,.441.127.442.459s-.084.458-.441.456c-.94-.005-.963.012-.942.9.01.413-.143.534-.518.462" transform="translate(-13.318 -86.609)" fill="#29c4bb"/>
      <path id="Trazado_127054" data-name="Trazado 127054" d="M213.39,151.158c.344-.066.535.048.478.438-.047.326.065.508.426.452s.482.075.485.454c0,.4-.16.49-.5.444-.324-.044-.427.1-.421.42.01.505-.3.7-.791.546-.232-.073-.181-.258-.166-.4.041-.4-.051-.644-.522-.564-.365.062-.387-.167-.386-.447s.012-.506.382-.449c.4.062.588-.084.521-.506-.063-.4.195-.42.493-.385" transform="translate(-157.352 -108.476)" fill="#29c4bb"/>
      <path id="Trazado_127055" data-name="Trazado 127055" d="M210.218,69.017c.089.384-.087.515-.447.455-.39-.066-.549.094-.48.482s-.1.464-.459.468-.516-.107-.451-.472c.07-.388-.092-.548-.478-.476s-.435-.134-.45-.47c-.018-.395.136-.5.479-.438.374.065.513-.09.45-.454-.061-.349.052-.491.441-.477.343.012.541.061.468.454s.1.541.481.477c.36-.061.535.068.446.452" transform="translate(-153.737 -51.302)" fill="#010000"/>
      <path id="Trazado_127056" data-name="Trazado 127056" d="M54.541,186.388c.084.358-.093.49-.451.425-.421-.076-.52.143-.46.5.067.394-.124.455-.47.453-.331,0-.508-.077-.439-.433.091-.468-.143-.583-.546-.514s-.394-.19-.4-.474.006-.507.379-.434c.5.1.631-.142.563-.592-.065-.431.263-.307.482-.32s.491-.044.423.33c-.084.462.078.676.567.582.408-.078.358.206.346.479" transform="translate(-41.202 -131.68)" fill="#010000"/>
      <path id="Trazado_127057" data-name="Trazado 127057" d="M121.782,17.18c-.1-.409.13-.488.464-.439s.484-.092.431-.434.049-.5.442-.49c.362.007.527.1.464.473s.111.505.469.451c.331-.05.5.03.5.434s-.154.525-.515.468c-.381-.061-.511.113-.452.469.066.4-.148.445-.484.452-.359.007-.476-.128-.423-.457.058-.361-.076-.526-.453-.463s-.525-.09-.443-.464" transform="translate(-91.933 -15.817)" fill="#29c4bb"/>
    </g>
    <g id="Grupo_157148" data-name="Grupo 157148" transform="translate(28.911 26.02)">
      <g id="Grupo_157147" data-name="Grupo 157147" transform="translate(0 0)" clip-path="url(#clip-path)">
        <path id="Trazado_128932" data-name="Trazado 128932" d="M34.2,31.352q-1.262-3.2-2.69-6.329c-.55-1.2-2.324-.158-1.778,1.039q1.318,2.887,2.482,5.837c.481,1.218,2.472.687,1.985-.548" transform="translate(-9.224 -7.623)" fill="#e09d31"/>
        <path id="Trazado_128933" data-name="Trazado 128933" d="M25.422,24.143a.506.506,0,0,1-.275.668.519.519,0,0,1-.2.041.514.514,0,0,1-.475-.317L21.64,17.7l-.585.358L23.1,23.241a.516.516,0,0,1-.3.668.591.591,0,0,1-.186.034.506.506,0,0,1-.475-.324L20.16,18.6l-.992.613a1.74,1.74,0,0,1-1.343.193l-1.866-.5-.95,2.638,1.729,2.362a1.923,1.923,0,0,1,.131,2.059l-2.431,4.374h3.4a.513.513,0,1,1,0,1.026H4.98a.513.513,0,0,1,0-1.026h6.061a2.26,2.26,0,0,1-.138-.358,1.894,1.894,0,0,1,.165-1.46l.971-1.756-2.5.985a2.04,2.04,0,0,1-.7.131,1.915,1.915,0,0,1-.7-3.7l2.817-1.1a2.339,2.339,0,0,1-.5-.7,2.293,2.293,0,0,1-.083-1.784l1.963-5.427a2.332,2.332,0,0,1,4.5.42l1.157.3.882-.537-1-2.541a3.19,3.19,0,0,1-1.625.461,3.167,3.167,0,0,1-.668-6.261l-1.474-3.74c-1.956-.613-3.705.647-5.551,2-2.142,1.557-4.539,3.3-7.376,1.756L2.294,14.8c2.59,1.942,4.621.461,6.963-1.247a21.011,21.011,0,0,1,2.445-1.6.508.508,0,0,1,.7.214.518.518,0,0,1-.214.7,19.505,19.505,0,0,0-2.321,1.529c-1.55,1.13-3.237,2.362-5.131,2.362a5.133,5.133,0,0,1-3.237-1.267.491.491,0,0,1-.186-.331L.007,6.029a.506.506,0,0,1,.248-.517.521.521,0,0,1,.579.041c2.665,2.128,4.732.62,7.122-1.116,1.77-1.288,3.588-2.61,5.7-2.321l-.179-.441A1.227,1.227,0,0,1,15.752.753l3.368,8a.052.052,0,0,0,.007.034,1.6,1.6,0,0,1,.076.193c.007.014.021.021.021.034L21.4,14.4a1.72,1.72,0,0,1,1.267,2.073,1.756,1.756,0,0,1-.207.5Zm-3.754-7.914a.687.687,0,0,0-.51-.826.668.668,0,0,0-.523.083l-2.294,1.4a.507.507,0,0,1-.4.062l-1.722-.455a.511.511,0,0,1-.379-.51,1.306,1.306,0,0,0-.854-1.247,1.275,1.275,0,0,0-.448-.076,1.311,1.311,0,0,0-1.233.861l-1.956,5.427a1.29,1.29,0,0,0,.041,1,1.327,1.327,0,0,0,.744.675.4.4,0,0,1,.069.014.5.5,0,0,1,.269.193l1.474,2.011a.513.513,0,0,1,.034.558l-2.011,3.63a.876.876,0,0,0,.344,1.2.9.9,0,0,0,1.2-.344l2.452-4.408a.881.881,0,0,0-.062-.95l-1.894-2.59a.509.509,0,0,1-.062-.475l1.012-2.81-.386-.1a1.713,1.713,0,0,1-.985-.7.516.516,0,1,1,.854-.579.736.736,0,0,0,.393.282l.93.241,2.321.62a.673.673,0,0,0,.537-.083l2.734-1.674a.674.674,0,0,0,.31-.427m-1.343-1.736-1.219-3.03a3.2,3.2,0,0,1-.406.634L19.767,14.8l.331-.2c.076-.041.152-.076.227-.11M18.39,10.107a2.135,2.135,0,1,0-2.135,2.135,2.137,2.137,0,0,0,2.135-2.135M17.322,7.138,14.8,1.153a.208.208,0,0,0-.11-.11.168.168,0,0,0-.152.007.187.187,0,0,0-.1.248l2.238,5.689a3.337,3.337,0,0,1,.641.152m-4.4,18.045-1-1.371-3.4,1.329a.885.885,0,0,0-.5,1.143.85.85,0,0,0,.262.358.874.874,0,0,0,.882.145l3.664-1.433Z" transform="translate(0 0)"/>
        <path id="Trazado_128934" data-name="Trazado 128934" d="M26.678,22.338a.686.686,0,0,1-.227.944l-2.734,1.674a.673.673,0,0,1-.537.083l-2.321-.62-.93-.241a.736.736,0,0,1-.393-.282.516.516,0,0,0-.854.579,1.713,1.713,0,0,0,.985.7l.386.1-1.012,2.81a.509.509,0,0,0,.062.475L21,31.147a.881.881,0,0,1,.062.95l-2.452,4.408a.9.9,0,0,1-1.2.344.876.876,0,0,1-.344-1.2l2.011-3.63a.513.513,0,0,0-.034-.558l-1.474-2.011a.5.5,0,0,0-.269-.193.4.4,0,0,0-.069-.014,1.327,1.327,0,0,1-.744-.675,1.29,1.29,0,0,1-.041-1L18.4,22.145a1.311,1.311,0,0,1,1.233-.861,1.275,1.275,0,0,1,.448.076,1.306,1.306,0,0,1,.854,1.247.511.511,0,0,0,.379.51l1.722.455a.507.507,0,0,0,.4-.062l2.294-1.4a.692.692,0,0,1,.95.227" transform="translate(-5.093 -6.625)" fill="#fdc367"/>
        <path id="Trazado_128935" data-name="Trazado 128935" d="M27.556,16.644l1.219,3.03c-.076.034-.152.069-.227.11l-.331.2L27.15,17.278a3.2,3.2,0,0,0,.406-.634" transform="translate(-8.451 -5.181)" fill="#e09d31"/>
        <path id="Trazado_128936" data-name="Trazado 128936" d="M22.635,11.574A2.135,2.135,0,1,1,20.5,13.709a2.137,2.137,0,0,1,2.135-2.135" transform="translate(-6.381 -3.603)" fill="#ffeb92"/>
        <path id="Trazado_128937" data-name="Trazado 128937" d="M21.321,1.618,23.842,7.6a3.337,3.337,0,0,0-.641-.152L20.963,1.762a.187.187,0,0,1,.1-.248.168.168,0,0,1,.152-.007.208.208,0,0,1,.11.11" transform="translate(-6.52 -0.465)" fill="#e09d31"/>
        <path id="Trazado_128938" data-name="Trazado 128938" d="M14.648,4.682l1.474,3.74a3.168,3.168,0,0,0-2.493,3.092,3.124,3.124,0,0,0,.723,2.011l-1.419.048a.508.508,0,0,0-.7-.214,21.011,21.011,0,0,0-2.445,1.6c-2.342,1.708-4.374,3.189-6.963,1.247L1.72,8.436c2.838,1.543,5.234-.2,7.376-1.756,1.846-1.35,3.6-2.61,5.551-2" transform="translate(-0.535 -1.408)" fill="#97dca3"/>
        <path id="Trazado_128939" data-name="Trazado 128939" d="M15.517,34.574l1,1.371-.1.172-3.664,1.433a.874.874,0,0,1-.882-.145.85.85,0,0,1-.262-.358.885.885,0,0,1,.5-1.143Z" transform="translate(-3.595 -10.761)" fill="#e09d31"/>
      </g>
    </g>
  </g>
</svg>
