<svg xmlns="http://www.w3.org/2000/svg" xmlns:xlink="http://www.w3.org/1999/xlink" width="51.374" height="58" viewBox="0 0 51.374 58">
  <defs>
    <clipPath id="clip-path">
      <rect id="Rectángulo_38568" data-name="Rectángulo 38568" width="51.374" height="58" fill="none"/>
    </clipPath>
  </defs>
  <g id="Grupo_157753" data-name="Grupo 157753" transform="translate(0 0)">
    <g id="Grupo_157752" data-name="Grupo 157752" transform="translate(0 0)" clip-path="url(#clip-path)">
      <path id="Trazado_132264" data-name="Trazado 132264" d="M31.435,56.044a1.7,1.7,0,0,1-1.7-1.7V4.888a1.7,1.7,0,1,1,3.4,0V54.345a1.7,1.7,0,0,1-1.7,1.7" transform="translate(-5.748 -0.617)" fill="#08a9f1"/>
      <path id="Trazado_132265" data-name="Trazado 132265" d="M47.718,46.643a1.7,1.7,0,0,1-.849-.227L4.038,21.686a1.7,1.7,0,0,1,1.7-2.943l42.83,24.729a1.7,1.7,0,0,1-.85,3.17" transform="translate(-0.616 -3.579)" fill="#08a9f1"/>
      <path id="Trazado_132266" data-name="Trazado 132266" d="M4.889,46.643a1.7,1.7,0,0,1-.851-3.17l42.83-24.729a1.7,1.7,0,0,1,1.7,2.943L5.737,46.415a1.694,1.694,0,0,1-.848.227" transform="translate(-0.616 -3.579)" fill="#08a9f1"/>
      <path id="Trazado_132267" data-name="Trazado 132267" d="M26.3,56.043a1.7,1.7,0,0,1-.849-.227L4.038,43.452a1.7,1.7,0,0,1-.849-1.471V17.252a1.7,1.7,0,0,1,.849-1.472L25.454,3.416a1.7,1.7,0,0,1,1.7,0L48.569,15.78a1.7,1.7,0,0,1,.849,1.472V41.98a1.7,1.7,0,0,1-.849,1.471L27.153,55.816a1.7,1.7,0,0,1-.849.227M6.588,41,26.3,52.383,46.02,41V18.233L26.3,6.85,6.588,18.233Zm41.132.981h0Z" transform="translate(-0.616 -0.617)" fill="#01c0fa"/>
      <path id="Trazado_132268" data-name="Trazado 132268" d="M34.444,4.475a3.422,3.422,0,1,1-3.422-3.422,3.422,3.422,0,0,1,3.422,3.422" transform="translate(-5.335 -0.204)" fill="#fee97d"/>
      <path id="Trazado_132269" data-name="Trazado 132269" d="M32.167,7.7a3.422,3.422,0,1,1-1.145-6.647,3.39,3.39,0,0,1,1.145.2,3.422,3.422,0,0,0,0,6.45" transform="translate(-5.335 -0.204)" fill="#ffd15b"/>
      <path id="Trazado_132270" data-name="Trazado 132270" d="M60.991,19.8a3.422,3.422,0,1,1-3.422-3.422A3.422,3.422,0,0,1,60.991,19.8" transform="translate(-10.466 -3.166)" fill="#fee97d"/>
      <path id="Trazado_132271" data-name="Trazado 132271" d="M58.714,23.027a3.422,3.422,0,1,1,0-6.45,3.422,3.422,0,0,0,0,6.45" transform="translate(-10.466 -3.166)" fill="#ffd15b"/>
      <path id="Trazado_132272" data-name="Trazado 132272" d="M60.991,50.455a3.422,3.422,0,1,1-3.422-3.422,3.422,3.422,0,0,1,3.422,3.422" transform="translate(-10.466 -9.092)" fill="#fee97d"/>
      <path id="Trazado_132273" data-name="Trazado 132273" d="M58.714,53.68a3.422,3.422,0,1,1,0-6.45,3.422,3.422,0,0,0,0,6.45" transform="translate(-10.466 -9.092)" fill="#ffd15b"/>
      <path id="Trazado_132274" data-name="Trazado 132274" d="M34.444,65.782a3.422,3.422,0,1,1-3.422-3.422,3.422,3.422,0,0,1,3.422,3.422" transform="translate(-5.335 -12.054)" fill="#fee97d"/>
      <path id="Trazado_132275" data-name="Trazado 132275" d="M32.167,69.007a3.422,3.422,0,1,1,0-6.45,3.422,3.422,0,0,0,0,6.45" transform="translate(-5.335 -12.054)" fill="#ffd15b"/>
      <path id="Trazado_132276" data-name="Trazado 132276" d="M7.9,50.455a3.422,3.422,0,1,1-3.422-3.422A3.422,3.422,0,0,1,7.9,50.455" transform="translate(-0.204 -9.092)" fill="#fee97d"/>
      <path id="Trazado_132277" data-name="Trazado 132277" d="M5.62,53.68a3.422,3.422,0,1,1,0-6.45,3.422,3.422,0,0,0,0,6.45" transform="translate(-0.204 -9.092)" fill="#ffd15b"/>
      <path id="Trazado_132278" data-name="Trazado 132278" d="M7.9,19.8A3.422,3.422,0,1,1,4.475,16.38,3.422,3.422,0,0,1,7.9,19.8" transform="translate(-0.204 -3.166)" fill="#fee97d"/>
      <path id="Trazado_132279" data-name="Trazado 132279" d="M5.62,23.027a3.422,3.422,0,1,1,0-6.45,3.422,3.422,0,0,0,0,6.45" transform="translate(-0.204 -3.166)" fill="#ffd15b"/>
      <path id="Trazado_132280" data-name="Trazado 132280" d="M43.819,32.439A14.655,14.655,0,0,1,22.311,45.387c-1.407-4.825-4.234-7.335-4.234-12.948,0-3.658-.133-4.739,0-9.57a14.65,14.65,0,0,1,21.349-.889c.983.962-.233,3.412.449,4.62.844,1.5,3.5,1.808,3.77,3.571a14.782,14.782,0,0,1,.174,2.268" transform="translate(-3.483 -3.439)" fill="#dff6fd"/>
      <path id="Trazado_132281" data-name="Trazado 132281" d="M29.7,45.387a14.455,14.455,0,0,0,3.17,1.233,14.7,14.7,0,0,1-10.548-1.233c-1.407-4.324-4.234-7.335-4.234-12.948,0-3.658.046-4.74,0-9.57a14.675,14.675,0,0,1,14.783-4.611A14.654,14.654,0,0,0,29.7,45.387" transform="translate(-3.497 -3.439)" fill="#c8effe"/>
      <path id="Trazado_132282" data-name="Trazado 132282" d="M26.4,44.965c-1.825.7-3.609,1.26-4.926,1.638a14.653,14.653,0,0,1-4.233-22.518,14.042,14.042,0,0,1,6.475,1.156c1.04.537,1.623,1.205,1.623,1.881,0,1.7-3.08,3.02-4.153,4.595a1.857,1.857,0,0,0-.361,1.037.558.558,0,0,0,.243.439c1.766,1.4,12.573.31,13.357,5.052.457,2.763-3.887,5.123-8.026,6.721" transform="translate(-2.645 -4.655)" fill="#86e8d0"/>
      <path id="Trazado_132283" data-name="Trazado 132283" d="M26.4,44.965c-1.825.7-3.609,1.26-4.926,1.638a14.653,14.653,0,0,1-4.233-22.518,14.042,14.042,0,0,1,6.475,1.156,14.569,14.569,0,0,0-2.53,6.476,1.857,1.857,0,0,0-.361,1.037.558.558,0,0,0,.243.439c-.006.152-.008.307-.008.462A14.62,14.62,0,0,0,26.4,44.965" transform="translate(-2.645 -4.655)" fill="#5de1c4"/>
      <path id="Trazado_132284" data-name="Trazado 132284" d="M47.639,31.174c-4.012-.126-8.479-.712-8.894-2.676-.4-1.89.983-3.792,4.676-5.515a14.609,14.609,0,0,1,4.218,8.191" transform="translate(-7.476 -4.443)" fill="#86e8d0"/>
      <path id="Trazado_132285" data-name="Trazado 132285" d="M49.651,37.938V20.062a4.27,4.27,0,0,0-4.242-7.347L29.93,3.777a4.271,4.271,0,0,0-8.484,0L5.965,12.715a4.232,4.232,0,0,0-1.693-.352,4.27,4.27,0,0,0-2.549,7.7v1.81a.849.849,0,0,0,1.7,0V20.822a4.27,4.27,0,0,0,1.7,0V37.177a4.31,4.31,0,0,0-1.7,0V25.836a.849.849,0,1,0-1.7,0v12.1a4.27,4.27,0,0,0,4.242,7.346l15.481,8.937a4.271,4.271,0,0,0,8.484,0l15.479-8.938a4.27,4.27,0,0,0,4.242-7.347m-1.7-.761a4.3,4.3,0,0,0-1.7,0V20.822a4.262,4.262,0,0,0,1.7,0ZM40.2,34.438c.164-.438.309-.884.434-1.342A.85.85,0,0,0,39,32.649a13.8,13.8,0,0,1-17.7,9.434,42.956,42.956,0,0,0,6.258-2.527c3.713-1.919,5.417-3.973,5.065-6.1-.625-3.78-6.032-4.413-9.98-4.877a16.715,16.715,0,0,1-3.588-.636c.15-.6,1.085-1.34,1.918-2,1.267-1,2.575-2.032,2.575-3.474a2.439,2.439,0,0,0-.828-1.759c-1.151-1.127-3.411-1.875-6.134-2.077a13.784,13.784,0,0,1,17.867-.284c-3.858,2.122-4.339,4.342-4.013,5.885.424,2.008,3.283,3.069,8.975,3.321A13.823,13.823,0,0,1,39.487,29v0a.849.849,0,1,0,1.7,0,15.416,15.416,0,0,0-.985-5.436l4.352-2.513v15.9ZM9.37,41.365l4.35-2.512a15.469,15.469,0,0,0,9.418,5.434v5.027ZM11.887,29A13.792,13.792,0,0,1,15,20.275c3.329-.013,5.67.8,6.533,1.648a.871.871,0,0,1,.316.545c0,.618-1.025,1.426-1.929,2.14-1.271,1-2.585,2.04-2.585,3.491,0,1.212,1.445,1.566,1.92,1.683a28.716,28.716,0,0,0,3.191.482c3.412.4,8.085.947,8.5,3.465.371,2.245-4.222,5.035-12.01,7.306A13.779,13.779,0,0,1,11.887,29M23.138,8.687v5.025a15.5,15.5,0,0,0-9.185,5.162c-.078.09-.155.182-.23.274L9.37,16.635ZM42,16.635l-4.357,2.516a15.5,15.5,0,0,0-9.411-5.44V8.687Zm-2.882,9.2c-6.344-.333-6.962-1.679-7.022-1.958-.381-1.8,1.662-3.3,3.658-4.3a13.79,13.79,0,0,1,3.363,6.262M39.513,22a15.642,15.642,0,0,0-.853-1.471l4.393-2.537a4.265,4.265,0,0,0,.851,1.471Zm3.54-6.72L28.885,7.1a4.287,4.287,0,0,0,.852-1.471L43.9,13.808a4.276,4.276,0,0,0-.851,1.471M26.537,13.524q-.421-.023-.849-.023t-.85.023V8.458a4.306,4.306,0,0,0,1.7,0ZM8.321,15.278a4.265,4.265,0,0,0-.851-1.47l14.168-8.18A4.269,4.269,0,0,0,22.489,7.1Zm0,2.714,4.388,2.533A15.1,15.1,0,0,0,11.86,22L7.47,19.463a4.269,4.269,0,0,0,.851-1.471m2.851,5.571a15.517,15.517,0,0,0,0,10.874L6.821,36.95v-15.9ZM11.857,36a15.391,15.391,0,0,0,.849,1.471L8.321,40.008a4.262,4.262,0,0,0-.851-1.471ZM8.321,42.721,22.489,50.9a4.262,4.262,0,0,0-.851,1.471L7.47,44.191a4.261,4.261,0,0,0,.851-1.471m16.516,1.754c.283.015.566.025.85.025s.568-.009.849-.024v5.066a4.306,4.306,0,0,0-1.7,0Zm5.227,4.764a.85.85,0,0,0-1.161-.311l-.668.386V44.287a15.563,15.563,0,0,0,9.415-5.437L42,41.364l-9.73,5.619a.85.85,0,1,0,.85,1.471l9.93-5.733a4.276,4.276,0,0,0,.851,1.471l-14.167,8.18a4.3,4.3,0,0,0-.852-1.471l.868-.5a.85.85,0,0,0,.311-1.161m12.989-9.231-4.388-2.533A15.339,15.339,0,0,0,39.517,36L43.9,38.536a4.262,4.262,0,0,0-.852,1.471m6.622-23.372A2.573,2.573,0,1,1,47.1,14.063a2.575,2.575,0,0,1,2.573,2.573M25.687,1.7a2.573,2.573,0,1,1-2.573,2.573A2.575,2.575,0,0,1,25.687,1.7M1.7,16.636a2.572,2.572,0,1,1,2.572,2.572A2.575,2.575,0,0,1,1.7,16.636m0,24.728a2.572,2.572,0,1,1,2.572,2.573A2.575,2.575,0,0,1,1.7,41.364M25.687,56.3a2.573,2.573,0,1,1,2.573-2.573A2.576,2.576,0,0,1,25.687,56.3M47.1,43.936a2.573,2.573,0,1,1,2.573-2.573A2.576,2.576,0,0,1,47.1,43.936" transform="translate(0 0)"/>
    </g>
  </g>
</svg>
