<svg xmlns="http://www.w3.org/2000/svg" xmlns:xlink="http://www.w3.org/1999/xlink" width="101.841" height="101.841" viewBox="0 0 101.841 101.841">
  <defs>
    <filter id="Trazado_127721" x="0" y="0" width="101.841" height="101.841" filterUnits="userSpaceOnUse">
      <feOffset dy="3" input="SourceAlpha"/>
      <feGaussianBlur stdDeviation="3" result="blur"/>
      <feFlood flood-opacity="0.161"/>
      <feComposite operator="in" in2="blur"/>
      <feComposite in="SourceGraphic"/>
    </filter>
    <clipPath id="clip-path">
      <rect id="Rectángulo_37348" data-name="Rectángulo 37348" width="32" height="31" transform="translate(0.282 0.243)" fill="none"/>
    </clipPath>
  </defs>
  <g id="Grupo_157824" data-name="Grupo 157824" transform="translate(9 6)">
    <g transform="matrix(1, 0, 0, 1, -9, -6)" filter="url(#Trazado_127721)">
      <path id="Trazado_127721-2" data-name="Trazado 127721" d="M41.92,0A41.92,41.92,0,1,1,0,41.92,41.92,41.92,0,0,1,41.92,0Z" transform="translate(9 6)" fill="#fff"/>
    </g>
    <g id="Grupo_156593" data-name="Grupo 156593" transform="translate(13.06 13.55)">
      <path id="Trazado_127053" data-name="Trazado 127053" d="M15.172,123.3c-.385.086-.474-.1-.47-.455.01-.9-.006-.916-.937-.91-.346,0-.454-.105-.448-.448.006-.319.065-.468.433-.467.934,0,.958-.015.948-.948,0-.422.2-.43.515-.433s.475.049.475.424c0,.944.019.961.942.957.357,0,.441.127.442.459s-.084.458-.441.456c-.94-.005-.963.012-.942.9.01.413-.143.534-.518.462" transform="translate(-13.318 -86.609)" fill="#29c4bb"/>
      <path id="Trazado_127054" data-name="Trazado 127054" d="M213.39,151.158c.344-.066.535.048.478.438-.047.326.065.508.426.452s.482.075.485.454c0,.4-.16.49-.5.444-.324-.044-.427.1-.421.42.01.505-.3.7-.791.546-.232-.073-.181-.258-.166-.4.041-.4-.051-.644-.522-.564-.365.062-.387-.167-.386-.447s.012-.506.382-.449c.4.062.588-.084.521-.506-.063-.4.195-.42.493-.385" transform="translate(-157.352 -108.476)" fill="#29c4bb"/>
      <path id="Trazado_127055" data-name="Trazado 127055" d="M210.218,69.017c.089.384-.087.515-.447.455-.39-.066-.549.094-.48.482s-.1.464-.459.468-.516-.107-.451-.472c.07-.388-.092-.548-.478-.476s-.435-.134-.45-.47c-.018-.395.136-.5.479-.438.374.065.513-.09.45-.454-.061-.349.052-.491.441-.477.343.012.541.061.468.454s.1.541.481.477c.36-.061.535.068.446.452" transform="translate(-153.737 -51.302)" fill="#010000"/>
      <path id="Trazado_127056" data-name="Trazado 127056" d="M54.541,186.388c.084.358-.093.49-.451.425-.421-.076-.52.143-.46.5.067.394-.124.455-.47.453-.331,0-.508-.077-.439-.433.091-.468-.143-.583-.546-.514s-.394-.19-.4-.474.006-.507.379-.434c.5.1.631-.142.563-.592-.065-.431.263-.307.482-.32s.491-.044.423.33c-.084.462.078.676.567.582.408-.078.358.206.346.479" transform="translate(-41.202 -131.68)" fill="#010000"/>
      <path id="Trazado_127057" data-name="Trazado 127057" d="M121.782,17.18c-.1-.409.13-.488.464-.439s.484-.092.431-.434.049-.5.442-.49c.362.007.527.1.464.473s.111.505.469.451c.331-.05.5.03.5.434s-.154.525-.515.468c-.381-.061-.511.113-.452.469.066.4-.148.445-.484.452-.359.007-.476-.128-.423-.457.058-.361-.076-.526-.453-.463s-.525-.09-.443-.464" transform="translate(-91.933 -15.817)" fill="#29c4bb"/>
    </g>
    <g id="Grupo_157150" data-name="Grupo 157150" transform="translate(26.02 26.598)">
      <g id="Grupo_157149" data-name="Grupo 157149" transform="translate(0 0)" clip-path="url(#clip-path)">
        <path id="Trazado_128940" data-name="Trazado 128940" d="M31.8,25.292v3a2.932,2.932,0,0,1-2.932,2.932H2.925A2.93,2.93,0,0,1,0,28.29V6.136A2.928,2.928,0,0,1,2.925,3.211h.359V2.229a2.229,2.229,0,1,1,4.457,0v.982H9.105V2.229a2.229,2.229,0,1,1,4.457,0v.982h1.364V2.229a2.225,2.225,0,1,1,4.45,0v.982h1.364V2.229a2.229,2.229,0,1,1,4.457,0v.982h3.673A2.93,2.93,0,0,1,31.8,6.136V25.292Zm-1.1,3V25.842h-5.55v4.281h3.717A1.833,1.833,0,0,0,30.7,28.29m0-7.837h-5.55v4.289H30.7Zm0-5.381h-5.55v4.289H30.7Zm0-5.381h-5.55v4.281H30.7Zm0-1.1V6.136A1.838,1.838,0,0,0,28.869,4.3H25.153V8.592ZM24.1,3.211V2.229a1.129,1.129,0,1,0-2.258,0v.982ZM24.06,25.842H19.354v4.281H24.06Zm0-5.388H19.354v4.289H24.06Zm0-5.381H19.354v4.289H24.06Zm0-5.381H19.354v4.281H24.06Zm0-1.1V4.3H19.354V8.592ZM18.283,3.211V2.229a1.133,1.133,0,0,0-2.265,0v.982Zm-.029,22.631H13.548v4.281h4.706Zm0-5.388H13.548v4.289h4.706Zm0-5.381H13.548v4.289h4.706Zm0-5.381H13.548v4.281h4.706Zm0-1.1V4.3H13.548V8.592ZM12.463,3.211V2.229a1.129,1.129,0,1,0-2.258,0v.982Zm-.015,22.631H7.741v4.281h4.706Zm0-5.388H7.741v4.289h4.706Zm0-5.381H7.741v4.289h4.706Zm0-5.381H7.741v4.281h4.706Zm0-1.1V4.3H7.741V8.592ZM6.642,30.123V25.842H1.092V28.29a1.838,1.838,0,0,0,1.833,1.833Zm0-9.67H1.092v4.289h5.55Zm0-5.381H1.092v4.289h5.55Zm0-5.381H1.092v4.281h5.55Zm0-1.1V4.3H2.925A1.843,1.843,0,0,0,1.092,6.136V8.592Zm0-5.381V2.229a1.129,1.129,0,1,0-2.258,0v.982Z" transform="translate(0 0)"/>
        <path id="Trazado_128941" data-name="Trazado 128941" d="M39.86,35.25V37.7a1.833,1.833,0,0,1-1.833,1.833H34.31V35.25Z" transform="translate(-9.157 -9.408)" fill="#ddebf2"/>
        <rect id="Rectángulo_37344" data-name="Rectángulo 37344" width="5.55" height="4.289" transform="translate(25.153 20.453)" fill="#ddebf2"/>
        <path id="Trazado_128942" data-name="Trazado 128942" d="M39.86,24.849H34.31V20.56h5.55ZM37.88,22.664a.544.544,0,0,0,0-.77.553.553,0,0,0-.777,0l-.051.051-.059-.051a.544.544,0,0,0-.77,0,.532.532,0,0,0,0,.77l.051.059-.051.051a.54.54,0,0,0,0,.777.54.54,0,0,0,.77,0l.059-.051.051.051a.549.549,0,0,0,.777,0,.553.553,0,0,0,0-.777l-.059-.051Z" transform="translate(-9.157 -5.488)" fill="#97dca3"/>
        <path id="Trazado_128943" data-name="Trazado 128943" d="M39.86,17.5H34.31V13.22h5.55Zm-2.053-2.155a.549.549,0,1,0-.777-.777l-.051.051-.051-.051a.549.549,0,0,0-.777.777l.051.051-.051.059a.544.544,0,0,0,0,.77.532.532,0,0,0,.389.161.544.544,0,0,0,.389-.161l.051-.051.051.051a.544.544,0,0,0,.389.161.532.532,0,0,0,.389-.161.544.544,0,0,0,0-.77l-.051-.059Z" transform="translate(-9.157 -3.528)" fill="#97dca3"/>
        <path id="Trazado_128944" data-name="Trazado 128944" d="M39.86,7.7v2.456H34.31V5.87h3.717A1.838,1.838,0,0,1,39.86,7.7" transform="translate(-9.157 -1.567)" fill="#ddebf2"/>
        <path id="Trazado_128945" data-name="Trazado 128945" d="M38.517,22.322a.544.544,0,0,1,0,.77l-.059.059.059.051a.553.553,0,0,1,0,.777.549.549,0,0,1-.777,0l-.051-.051-.059.051a.54.54,0,0,1-.77,0,.54.54,0,0,1,0-.777l.051-.051-.051-.059a.531.531,0,0,1,0-.77.544.544,0,0,1,.77,0l.059.051.051-.051a.553.553,0,0,1,.777,0" transform="translate(-9.794 -5.915)"/>
        <path id="Trazado_128946" data-name="Trazado 128946" d="M38.419,15a.553.553,0,0,1,0,.777l-.051.051.051.059a.544.544,0,0,1,0,.77.532.532,0,0,1-.389.161.544.544,0,0,1-.389-.161l-.051-.051-.051.051a.544.544,0,0,1-.389.161.532.532,0,0,1-.389-.161.544.544,0,0,1,0-.77l.051-.059-.051-.051A.549.549,0,1,1,37.539,15l.051.051L37.642,15a.553.553,0,0,1,.777,0" transform="translate(-9.769 -3.962)"/>
        <rect id="Rectángulo_37345" data-name="Rectángulo 37345" width="4.706" height="4.281" transform="translate(19.354 25.842)" fill="#ddebf2"/>
        <path id="Trazado_128947" data-name="Trazado 128947" d="M31.106,32.189H26.4V27.9h4.706Zm-1.378-2.236a.549.549,0,1,0-.777-.777l-.059.059-.051-.059a.549.549,0,0,0-.777.777l.059.059-.059.051a.553.553,0,0,0,0,.777.549.549,0,0,0,.777,0l.051-.059.059.059A.562.562,0,0,0,29.34,31a.576.576,0,0,0,.389-.161.553.553,0,0,0,0-.777l-.059-.051Z" transform="translate(-7.046 -7.447)" fill="#97dca3"/>
        <path id="Trazado_128948" data-name="Trazado 128948" d="M31.106,24.849H26.4V20.56h4.706Zm-1.452-2.221a.547.547,0,0,0-.777-.77l-.051.051-.059-.051a.547.547,0,0,0-.777.77l.059.059-.059.051a.553.553,0,0,0,0,.777.544.544,0,0,0,.389.161.532.532,0,0,0,.389-.161l.059-.051.051.051a.549.549,0,0,0,.777,0,.553.553,0,0,0,0-.777l-.059-.051Z" transform="translate(-7.046 -5.488)" fill="#97dca3"/>
        <path id="Trazado_128949" data-name="Trazado 128949" d="M31.106,17.5H26.4V13.22h4.706Zm-1.525-2.192a.549.549,0,1,0-.777-.777l-.051.051-.059-.051a.547.547,0,1,0-.77.777l.051.051-.051.059a.531.531,0,0,0,0,.77.54.54,0,0,0,.77,0l.059-.051.051.051a.547.547,0,1,0,.777-.77l-.059-.059Z" transform="translate(-7.046 -3.528)" fill="#97dca3"/>
        <path id="Trazado_128950" data-name="Trazado 128950" d="M31.106,5.87v4.289H26.4V5.87h4.706Z" transform="translate(-7.046 -1.567)" fill="#ddebf2"/>
        <path id="Trazado_128951" data-name="Trazado 128951" d="M30.276,29.582a.553.553,0,0,1,0,.777l-.059.059.059.051a.553.553,0,0,1,0,.777.576.576,0,0,1-.389.161.562.562,0,0,1-.389-.161l-.059-.059-.051.059a.549.549,0,0,1-.777,0,.553.553,0,0,1,0-.777l.059-.051-.059-.059a.549.549,0,0,1,.777-.777l.051.059.059-.059a.553.553,0,0,1,.777,0" transform="translate(-7.594 -7.853)"/>
        <path id="Trazado_128952" data-name="Trazado 128952" d="M30.176,22.27a.544.544,0,0,1,0,.77l-.059.059.059.051a.553.553,0,0,1,0,.777.549.549,0,0,1-.777,0l-.051-.051-.059.051a.532.532,0,0,1-.389.161.544.544,0,0,1-.389-.161.553.553,0,0,1,0-.777l.059-.051-.059-.059a.547.547,0,0,1,.777-.77l.059.051.051-.051a.54.54,0,0,1,.777,0" transform="translate(-7.567 -5.9)"/>
        <path id="Trazado_128953" data-name="Trazado 128953" d="M30.077,14.952a.553.553,0,0,1,0,.777l-.059.051.059.059a.547.547,0,0,1-.777.77l-.051-.051-.059.051a.54.54,0,0,1-.77,0,.531.531,0,0,1,0-.77l.051-.059-.051-.051a.547.547,0,0,1,.77-.777l.059.051.051-.051a.553.553,0,0,1,.777,0" transform="translate(-7.541 -3.948)"/>
        <rect id="Rectángulo_37346" data-name="Rectángulo 37346" width="4.706" height="4.281" transform="translate(13.548 25.842)" fill="#ddebf2"/>
        <path id="Trazado_128954" data-name="Trazado 128954" d="M23.186,32.189H18.48V27.9h4.706Zm-1.378-2.2a.547.547,0,0,0-.777-.77l-.051.051-.059-.051a.547.547,0,0,0-.777.77l.059.059-.059.051a.553.553,0,0,0,0,.777.549.549,0,0,0,.777,0l.059-.059.051.059a.549.549,0,0,0,.777,0,.553.553,0,0,0,0-.777l-.059-.051Z" transform="translate(-4.932 -7.447)" fill="#97dca3"/>
        <path id="Trazado_128955" data-name="Trazado 128955" d="M23.186,24.849H18.48V20.56h4.706Zm-1.452-2.185a.544.544,0,0,0,0-.77.553.553,0,0,0-.777,0l-.051.051-.059-.051a.544.544,0,0,0-.77,0,.531.531,0,0,0,0,.77l.051.059-.051.051a.54.54,0,0,0,0,.777.54.54,0,0,0,.77,0l.059-.051.051.051a.549.549,0,0,0,.777,0,.553.553,0,0,0,0-.777l-.059-.051Z" transform="translate(-4.932 -5.488)" fill="#97dca3"/>
        <path id="Trazado_128956" data-name="Trazado 128956" d="M23.186,17.5H18.48V13.22h4.706Zm-1.525-2.155a.549.549,0,0,0-.777-.777l-.051.051-.059-.051a.544.544,0,0,0-.77,0,.553.553,0,0,0,0,.777l.051.051L20,15.456a.544.544,0,0,0,0,.77.54.54,0,0,0,.77,0l.059-.051.051.051a.547.547,0,0,0,.777-.77L21.61,15.4Z" transform="translate(-4.932 -3.528)" fill="#97dca3"/>
        <path id="Trazado_128957" data-name="Trazado 128957" d="M23.186,5.87v4.289H18.48V5.87h4.706Z" transform="translate(-4.932 -1.567)" fill="#ddebf2"/>
        <path id="Trazado_128958" data-name="Trazado 128958" d="M22.356,29.64a.544.544,0,0,1,0,.77l-.059.059.059.051a.553.553,0,0,1,0,.777.549.549,0,0,1-.777,0l-.051-.059-.059.059a.549.549,0,0,1-.777,0,.553.553,0,0,1,0-.777l.059-.051-.059-.059a.547.547,0,0,1,.777-.77l.059.051.051-.051a.54.54,0,0,1,.777,0" transform="translate(-5.48 -7.867)"/>
        <path id="Trazado_128959" data-name="Trazado 128959" d="M22.257,22.322a.544.544,0,0,1,0,.77l-.059.059.059.051a.553.553,0,0,1,0,.777.549.549,0,0,1-.777,0l-.051-.051-.059.051a.54.54,0,0,1-.77,0,.54.54,0,0,1,0-.777l.051-.051-.051-.059a.531.531,0,0,1,0-.77.544.544,0,0,1,.77,0l.059.051.051-.051a.553.553,0,0,1,.777,0" transform="translate(-5.454 -5.915)"/>
        <path id="Trazado_128960" data-name="Trazado 128960" d="M22.159,15a.553.553,0,0,1,0,.777l-.051.051.051.059a.547.547,0,0,1-.777.77l-.051-.051-.059.051a.54.54,0,0,1-.77,0,.544.544,0,0,1,0-.77l.051-.059-.051-.051a.553.553,0,0,1,0-.777.544.544,0,0,1,.77,0l.059.051L21.382,15a.553.553,0,0,1,.777,0" transform="translate(-5.43 -3.962)"/>
        <rect id="Rectángulo_37347" data-name="Rectángulo 37347" width="4.706" height="4.281" transform="translate(7.741 25.842)" fill="#ddebf2"/>
        <path id="Trazado_128961" data-name="Trazado 128961" d="M15.266,32.189H10.56V27.9h4.706Zm-1.378-2.2a.547.547,0,1,0-.777-.77l-.051.051L13,29.22a.544.544,0,0,0-.77.77l.051.059-.051.051a.55.55,0,0,0,.381.938A.549.549,0,0,0,13,30.876l.059-.059.051.059a.549.549,0,0,0,.777,0,.553.553,0,0,0,0-.777l-.059-.051Z" transform="translate(-2.819 -7.447)" fill="#97dca3"/>
        <path id="Trazado_128962" data-name="Trazado 128962" d="M15.266,24.849H10.56V20.56h4.706Zm-1.452-2.185a.544.544,0,0,0,0-.77.553.553,0,0,0-.777,0l-.051.051-.051-.051a.553.553,0,0,0-.777,0,.544.544,0,0,0,0,.77l.051.059-.051.051a.553.553,0,0,0,0,.777.532.532,0,0,0,.389.161.544.544,0,0,0,.389-.161l.051-.051.051.051a.544.544,0,0,0,.389.161.532.532,0,0,0,.389-.161.553.553,0,0,0,0-.777l-.051-.051Z" transform="translate(-2.819 -5.488)" fill="#97dca3"/>
        <path id="Trazado_128963" data-name="Trazado 128963" d="M15.266,17.5H10.56V13.22h4.706Zm-1.525-2.155a.553.553,0,0,0,0-.777.544.544,0,0,0-.77,0l-.059.051-.051-.051a.549.549,0,0,0-.777.777l.051.051-.051.059a.547.547,0,0,0,.777.77l.051-.051.059.051a.54.54,0,0,0,.77,0,.544.544,0,0,0,0-.77L13.69,15.4Z" transform="translate(-2.819 -3.528)" fill="#97dca3"/>
        <path id="Trazado_128964" data-name="Trazado 128964" d="M15.266,5.87v4.289H10.56V5.87h4.706Z" transform="translate(-2.819 -1.567)" fill="#ddebf2"/>
        <path id="Trazado_128965" data-name="Trazado 128965" d="M14.437,29.64a.544.544,0,0,1,0,.77l-.059.059.059.051a.553.553,0,0,1,0,.777.549.549,0,0,1-.777,0l-.051-.059-.059.059a.54.54,0,0,1-.77,0,.54.54,0,0,1,0-.777l.051-.051-.051-.059a.544.544,0,0,1,.77-.77l.059.051.051-.051a.54.54,0,0,1,.777,0" transform="translate(-3.367 -7.867)"/>
        <path id="Trazado_128966" data-name="Trazado 128966" d="M14.339,22.322a.544.544,0,0,1,0,.77l-.051.059.051.051a.553.553,0,0,1,0,.777.532.532,0,0,1-.389.161.544.544,0,0,1-.389-.161l-.051-.051-.051.051a.544.544,0,0,1-.389.161.532.532,0,0,1-.389-.161.553.553,0,0,1,0-.777l.051-.051-.051-.059a.544.544,0,0,1,0-.77.553.553,0,0,1,.777,0l.051.051.051-.051a.553.553,0,0,1,.777,0" transform="translate(-3.342 -5.915)"/>
        <path id="Trazado_128967" data-name="Trazado 128967" d="M14.239,15a.553.553,0,0,1,0,.777l-.051.051.051.059a.544.544,0,0,1,0,.77.54.54,0,0,1-.77,0l-.059-.051-.051.051a.547.547,0,1,1-.777-.77l.051-.059-.051-.051A.549.549,0,1,1,13.359,15l.051.051L13.469,15a.544.544,0,0,1,.77,0" transform="translate(-3.316 -3.962)"/>
        <path id="Trazado_128968" data-name="Trazado 128968" d="M7.04,35.25v4.281H3.323A1.838,1.838,0,0,1,1.49,37.7V35.25Z" transform="translate(-0.398 -9.408)" fill="#ddebf2"/>
        <path id="Trazado_128969" data-name="Trazado 128969" d="M7.04,32.189H1.49V27.9H7.04Zm-1.833-2.2a.547.547,0,0,0-.777-.77l-.051.051L4.32,29.22a.544.544,0,1,0-.77.77l.051.059L3.55,30.1a.54.54,0,0,0,0,.777.54.54,0,0,0,.77,0l.059-.059.051.059a.549.549,0,0,0,.777,0,.553.553,0,0,0,0-.777l-.051-.051Z" transform="translate(-0.398 -7.447)" fill="#97dca3"/>
        <path id="Trazado_128970" data-name="Trazado 128970" d="M7.04,24.849H1.49V20.56H7.04ZM5.133,22.664a.544.544,0,0,0,0-.77.553.553,0,0,0-.777,0l-.051.051-.051-.051a.553.553,0,0,0-.777,0,.544.544,0,0,0,0,.77l.051.059-.051.051a.553.553,0,0,0,0,.777.532.532,0,0,0,.389.161.544.544,0,0,0,.389-.161l.051-.051.051.051a.544.544,0,0,0,.389.161.532.532,0,0,0,.389-.161.553.553,0,0,0,0-.777l-.051-.051Z" transform="translate(-0.398 -5.488)" fill="#97dca3"/>
        <path id="Trazado_128971" data-name="Trazado 128971" d="M7.04,17.5H1.49V13.22H7.04ZM5.06,15.346a.547.547,0,0,0-.77-.777l-.059.051-.051-.051a.549.549,0,0,0-.777.777l.059.051-.059.059a.547.547,0,0,0,.777.77l.051-.051.059.051a.54.54,0,0,0,.77,0,.531.531,0,0,0,0-.77L5.009,15.4Z" transform="translate(-0.398 -3.528)" fill="#97dca3"/>
        <path id="Trazado_128972" data-name="Trazado 128972" d="M7.04,5.87v4.289H1.49V7.7A1.843,1.843,0,0,1,3.323,5.87H7.04Z" transform="translate(-0.398 -1.567)" fill="#ddebf2"/>
        <path id="Trazado_128973" data-name="Trazado 128973" d="M5.9,29.64a.544.544,0,0,1,0,.77l-.051.059.051.051a.553.553,0,0,1,0,.777.549.549,0,0,1-.777,0l-.051-.059L5.01,31.3a.547.547,0,1,1-.77-.777l.051-.051L4.24,30.41a.544.544,0,0,1,.77-.77l.059.051.051-.051a.54.54,0,0,1,.777,0" transform="translate(-1.088 -7.867)"/>
        <path id="Trazado_128974" data-name="Trazado 128974" d="M5.8,22.322a.544.544,0,0,1,0,.77l-.051.059L5.8,23.2a.553.553,0,0,1,0,.777.532.532,0,0,1-.389.161.544.544,0,0,1-.389-.161l-.051-.051-.051.051a.544.544,0,0,1-.389.161.532.532,0,0,1-.389-.161.553.553,0,0,1,0-.777l.051-.051-.051-.059a.544.544,0,0,1,0-.77.553.553,0,0,1,.777,0l.051.051.051-.051a.553.553,0,0,1,.777,0" transform="translate(-1.063 -5.915)"/>
        <path id="Trazado_128975" data-name="Trazado 128975" d="M5.7,15a.54.54,0,0,1,0,.777l-.051.051.051.059a.531.531,0,0,1,0,.77.54.54,0,0,1-.77,0l-.059-.051-.051.051a.547.547,0,1,1-.777-.77L4.1,15.83l-.059-.051A.549.549,0,1,1,4.819,15l.051.051L4.929,15a.544.544,0,0,1,.77,0" transform="translate(-1.036 -3.962)"/>
      </g>
    </g>
  </g>
</svg>
