<svg id="Grupo_157785" data-name="Grupo 157785" xmlns="http://www.w3.org/2000/svg" xmlns:xlink="http://www.w3.org/1999/xlink" width="42.282" height="58.719" viewBox="0 0 42.282 58.719">
  <defs>
    <clipPath id="clip-path">
      <rect id="Rect치ngulo_38584" data-name="Rect치ngulo 38584" width="42.282" height="58.718" fill="none"/>
    </clipPath>
  </defs>
  <g id="Grupo_157784" data-name="Grupo 157784" clip-path="url(#clip-path)">
    <path id="Trazado_132389" data-name="Trazado 132389" d="M40.15,59.133H4.681a2.546,2.546,0,0,1-2.546-2.546V4.681A2.546,2.546,0,0,1,4.681,2.135H40.15A2.547,2.547,0,0,1,42.7,4.681V56.587a2.546,2.546,0,0,1-2.546,2.546" transform="translate(-1.275 -1.275)" fill="#ebebeb"/>
    <path id="Trazado_132390" data-name="Trazado 132390" d="M7.832,59.133H4.68a2.546,2.546,0,0,1-2.546-2.546V4.681A2.546,2.546,0,0,1,4.68,2.135H7.832A2.546,2.546,0,0,0,5.286,4.681V56.588a2.546,2.546,0,0,0,2.546,2.546" transform="translate(-1.274 -1.275)" fill="#e2e2e2"/>
    <path id="Trazado_132391" data-name="Trazado 132391" d="M44.923,40.429a3.2,3.2,0,0,1-3.2,3.2H38.9L35.486,42.29l-3.414,1.339H16.811a3.2,3.2,0,0,1-3.2-3.2V15.517a3.2,3.2,0,0,1,3.2-3.2h1.368Z" transform="translate(-8.126 -7.354)" fill="#fee97d"/>
    <path id="Trazado_132392" data-name="Trazado 132392" d="M49.57,15.517v5.347L47.124,29.6,49.57,36.1v4.216H31.562A10.168,10.168,0,0,1,21.394,30.153V17.521a10.121,10.121,0,0,1,1.431-5.2H46.37a3.2,3.2,0,0,1,3.2,3.2" transform="translate(-12.773 -7.354)" fill="#01c0fa"/>
    <path id="Trazado_132393" data-name="Trazado 132393" d="M41.422,40.321h-9.86A10.168,10.168,0,0,1,21.394,30.154V17.522a10.119,10.119,0,0,1,1.431-5.2h9.861a10.119,10.119,0,0,0-1.431,5.2V30.154A10.168,10.168,0,0,0,41.422,40.321" transform="translate(-12.773 -7.354)" fill="#08a9f1"/>
    <path id="Trazado_132394" data-name="Trazado 132394" d="M76.152,100.376a.441.441,0,0,1-.526,0,2.506,2.506,0,0,0-3.264,3.785L75.1,106.9a1.119,1.119,0,0,0,1.581,0l2.736-2.737a2.506,2.506,0,0,0-3.264-3.785" transform="translate(-42.764 -59.633)" fill="#fe646f"/>
    <path id="Trazado_132395" data-name="Trazado 132395" d="M50.746,98.567h-5.81a1.275,1.275,0,0,0-1.276,1.275v3.47a1.275,1.275,0,0,0,1.276,1.275h1.541l-.235,1.205a.54.54,0,0,0,.808.567L50,104.587h.743a1.275,1.275,0,0,0,1.275-1.275v-3.47a1.275,1.275,0,0,0-1.275-1.275" transform="translate(-26.067 -58.847)" fill="#cb97e7"/>
    <rect id="Rect치ngulo_38583" data-name="Rect치ngulo 38583" width="6.828" height="5.032" transform="translate(23.945 31.244)" fill="#ffb09e"/>
    <path id="Trazado_132396" data-name="Trazado 132396" d="M53.179,24.128V39.369a12.273,12.273,0,0,1-1.643,1.666A12.157,12.157,0,0,1,31.8,33.989a4.884,4.884,0,0,1-4.36-4.856v-.112a3.243,3.243,0,0,1,3.242-3.242h.9a21.2,21.2,0,0,0,6.737-1.328,27.806,27.806,0,0,0,10.462-6.667,16.506,16.506,0,0,0,4.4,6.344" transform="translate(-16.382 -10.618)" fill="#ffcebf"/>
    <path id="Trazado_132397" data-name="Trazado 132397" d="M45.771,53.573A12.167,12.167,0,0,1,31.8,43.868a4.885,4.885,0,0,1-4.36-4.856V38.9a3.243,3.243,0,0,1,3.242-3.242h.9a21.253,21.253,0,0,0,6.737-1.327v10.2a9.215,9.215,0,0,0,7.449,9.045" transform="translate(-16.382 -20.496)" fill="#ffb09e"/>
    <path id="Trazado_132398" data-name="Trazado 132398" d="M54.7,56.325a5.315,5.315,0,1,0,10.63,0Z" transform="translate(-32.66 -33.628)" fill="#685e68"/>
    <path id="Trazado_132399" data-name="Trazado 132399" d="M41.421,50.561a.86.86,0,0,0,.86-.86V3.4A3.41,3.41,0,0,0,38.875,0H3.407A3.41,3.41,0,0,0,0,3.4V55.312a3.41,3.41,0,0,0,3.407,3.406H38.875a3.41,3.41,0,0,0,3.407-3.406v-1.6a.86.86,0,1,0-1.72,0v1.6A1.688,1.688,0,0,1,38.875,57H3.407A1.688,1.688,0,0,1,1.72,55.312V3.4A1.688,1.688,0,0,1,3.407,1.719H38.875A1.688,1.688,0,0,1,40.561,3.4V49.7a.86.86,0,0,0,.86.86" transform="translate(0 0.001)"/>
    <path id="Trazado_132400" data-name="Trazado 132400" d="M78.748,98.742a3.386,3.386,0,0,0-4.135-.492,3.386,3.386,0,0,0-4.135.492,3.365,3.365,0,0,0,0,4.76l2.737,2.737a1.978,1.978,0,0,0,2.8,0l2.736-2.737a3.369,3.369,0,0,0,0-4.76m-1.217,3.543L74.8,105.022a.256.256,0,0,1-.364,0l-2.737-2.736A1.646,1.646,0,0,1,73.838,99.8a1.294,1.294,0,0,0,1.551,0,1.645,1.645,0,0,1,2.142,2.486" transform="translate(-41.489 -58.367)"/>
    <path id="Trazado_132401" data-name="Trazado 132401" d="M44.694,105.769a1.4,1.4,0,0,0,1.524.054l2.75-1.649h.5a2.138,2.138,0,0,0,2.135-2.136v-3.47a2.138,2.138,0,0,0-2.135-2.135h-5.81a2.138,2.138,0,0,0-2.135,2.135v3.47a2.138,2.138,0,0,0,2.135,2.135h.5l-.035.181a1.4,1.4,0,0,0,.57,1.415m-1.032-3.316a.416.416,0,0,1-.415-.415v-3.47a.416.416,0,0,1,.415-.415h5.81a.415.415,0,0,1,.415.415v3.47a.415.415,0,0,1-.415.415h-.743a.858.858,0,0,0-.442.123l-2.336,1.4.1-.5a.86.86,0,0,0-.844-1.026Z" transform="translate(-24.793 -57.573)"/>
    <path id="Trazado_132402" data-name="Trazado 132402" d="M44.509,124.766a.86.86,0,0,0-.86-.86H12.336a.86.86,0,1,0,0,1.72H43.649a.86.86,0,0,0,.86-.86" transform="translate(-6.852 -73.976)"/>
    <path id="Trazado_132403" data-name="Trazado 132403" d="M12.336,131.846a.86.86,0,0,0,0,1.72H32.071a.86.86,0,0,0,0-1.72Z" transform="translate(-6.852 -78.716)"/>
    <path id="Trazado_132404" data-name="Trazado 132404" d="M32.549,41.819a.86.86,0,0,0,0,1.72.655.655,0,0,1,.654.654V45.4a.86.86,0,1,0,1.72,0V44.193a2.377,2.377,0,0,0-2.375-2.374" transform="translate(-18.919 -24.967)"/>
    <path id="Trazado_132405" data-name="Trazado 132405" d="M51.805,39.588a1.678,1.678,0,0,1,1.676,1.676.86.86,0,1,0,1.72,0,3.4,3.4,0,0,0-6.793,0,.86.86,0,1,0,1.72,0,1.678,1.678,0,0,1,1.677-1.676" transform="translate(-28.901 -22.608)"/>
    <path id="Trazado_132406" data-name="Trazado 132406" d="M71.382,42.124a.859.859,0,0,0,.86-.86,1.677,1.677,0,0,1,3.353,0,.86.86,0,0,0,1.72,0,3.4,3.4,0,1,0-6.793,0,.86.86,0,0,0,.86.86" transform="translate(-42.104 -22.608)"/>
    <path id="Trazado_132407" data-name="Trazado 132407" d="M64.92,55.05a.86.86,0,0,0-.86-.86H53.429a.86.86,0,0,0-.86.86,6.175,6.175,0,1,0,12.351,0m-6.175,4.455a4.464,4.464,0,0,1-4.372-3.6h8.744a4.463,4.463,0,0,1-4.371,3.6" transform="translate(-31.385 -32.353)"/>
    <path id="Trazado_132408" data-name="Trazado 132408" d="M44.507,39.155V14.243a4.065,4.065,0,0,0-4.06-4.06H15.534a4.065,4.065,0,0,0-4.06,4.06V39.155a4.065,4.065,0,0,0,4.06,4.061h6a.86.86,0,1,0,0-1.72h-6a2.343,2.343,0,0,1-2.34-2.34V14.243A2.341,2.341,0,0,1,15.5,11.905a11.041,11.041,0,0,0-.889,4.342v2.487a.86.86,0,1,0,1.72,0V16.248A9.3,9.3,0,0,1,17.407,11.9h23.04a2.342,2.342,0,0,1,2.34,2.34v3.279a16.5,16.5,0,0,1-2.724-4.563.859.859,0,0,0-1.418-.32,26.978,26.978,0,0,1-11.227,6.819,19.643,19.643,0,0,1-5.349.923h-.919a4.107,4.107,0,0,0-4.1,4.1V24.6a5.73,5.73,0,0,0,4.5,5.609,12.994,12.994,0,0,0,5.733,7.982H25.639a9.319,9.319,0,0,1-9.308-9.308v-6.13a.86.86,0,0,0-1.72,0v6.13A11.041,11.041,0,0,0,25.639,39.907h4.3V41.5H25.546a.86.86,0,0,0,0,1.72h14.9a4.064,4.064,0,0,0,4.06-4.06m-4.06,2.34H38.484V39.907h4.177A2.344,2.344,0,0,1,40.447,41.5m2.34-3.309H41.14a13.018,13.018,0,0,0,1.417-1.03c.078-.065.153-.134.229-.2Zm-19.674-8.9a.86.86,0,0,0-.754-.695,4.013,4.013,0,0,1-3.592-4v-.113A2.384,2.384,0,0,1,21.149,22.1h.9a21,21,0,0,0,5.792-.974,28.515,28.515,0,0,0,11.112-6.4,17.05,17.05,0,0,0,3.835,5.253V34.515a11.424,11.424,0,0,1-1.334,1.323,11.3,11.3,0,0,1-18.34-6.547m8.543,10.641a12.864,12.864,0,0,0,5.108,0V41.5H31.656Z" transform="translate(-6.85 -6.08)"/>
  </g>
</svg>
