<svg xmlns="http://www.w3.org/2000/svg" xmlns:xlink="http://www.w3.org/1999/xlink" width="60.547" height="60.547" viewBox="0 0 60.547 60.547">
  <defs>
    <linearGradient id="linear-gradient" x1="0.5" x2="0.5" y2="1" gradientUnits="objectBoundingBox">
      <stop offset="0" stop-color="#3b9af8"/>
      <stop offset="1" stop-color="#207cd8"/>
    </linearGradient>
    <filter id="Trazado_116475" x="0" y="0" width="60.547" height="60.547" filterUnits="userSpaceOnUse">
      <feOffset dx="5" dy="8" input="SourceAlpha"/>
      <feGaussianBlur stdDeviation="4.5" result="blur"/>
      <feFlood flood-opacity="0.243"/>
      <feComposite operator="in" in2="blur"/>
      <feComposite in="SourceGraphic"/>
    </filter>
    <filter id="Trazado_116477" x="10.459" y="4.646" width="29.627" height="29.627" filterUnits="userSpaceOnUse">
      <feOffset dy="3" input="SourceAlpha"/>
      <feGaussianBlur stdDeviation="3" result="blur-2"/>
      <feFlood flood-opacity="0.161"/>
      <feComposite operator="in" in2="blur-2"/>
      <feComposite in="SourceGraphic"/>
    </filter>
    <filter id="Trazado_116478" x="11.1" y="21.786" width="28.345" height="18.789" filterUnits="userSpaceOnUse">
      <feOffset input="SourceAlpha"/>
      <feGaussianBlur stdDeviation="1" result="blur-3"/>
      <feFlood flood-opacity="0.161"/>
      <feComposite operator="in" in2="blur-3"/>
      <feComposite in="SourceGraphic"/>
    </filter>
  </defs>
  <g id="Grupo_157810" data-name="Grupo 157810" transform="translate(12029.695 10277.619)">
    <g transform="matrix(1, 0, 0, 1, -12029.7, -10277.62)" filter="url(#Trazado_116475)">
      <path id="Trazado_116475-2" data-name="Trazado 116475" d="M16.774,0A16.773,16.773,0,1,1,0,16.774,16.774,16.774,0,0,1,16.774,0Z" transform="translate(8.5 5.5)" fill="url(#linear-gradient)"/>
    </g>
    <path id="Trazado_116476" data-name="Trazado 116476" d="M16.686,33.005A16.318,16.318,0,1,1,33,16.686,16.337,16.337,0,0,1,16.686,33.005" transform="translate(-12021.109 -10272.033)" fill="#0c487b"/>
    <g id="Grupo_86210" data-name="Grupo 86210" transform="translate(-12015.596 -10266.974)">
      <g transform="matrix(1, 0, 0, 1, -14.1, -10.65)" filter="url(#Trazado_116477)">
        <path id="Trazado_116477-2" data-name="Trazado 116477" d="M20.51,9.984A5.813,5.813,0,1,1,14.7,4.171,5.814,5.814,0,0,1,20.51,9.984" transform="translate(10.58 6.47)" fill="#fff"/>
      </g>
      <g transform="matrix(1, 0, 0, 1, -14.1, -10.65)" filter="url(#Trazado_116478)">
        <path id="Trazado_116478-2" data-name="Trazado 116478" d="M15.712,28.422a15.24,15.24,0,0,0,11.173-4.87,11.841,11.841,0,0,0-22.345,0,15.24,15.24,0,0,0,11.173,4.87" transform="translate(9.56 9.15)" fill="#fff"/>
      </g>
    </g>
  </g>
</svg>
